<?xml version="1.0" encoding="utf-8" standalone="no"?>
<!DOCTYPE svg PUBLIC "-//W3C//DTD SVG 1.1//EN"
  "http://www.w3.org/Graphics/SVG/1.1/DTD/svg11.dtd">
<svg xmlns:xlink="http://www.w3.org/1999/xlink" width="663.808322pt" height="443.324672pt" viewBox="0 0 663.808322 443.324672" xmlns="http://www.w3.org/2000/svg" version="1.1">
 <metadata>
  <rdf:RDF xmlns:dc="http://purl.org/dc/elements/1.1/" xmlns:cc="http://creativecommons.org/ns#" xmlns:rdf="http://www.w3.org/1999/02/22-rdf-syntax-ns#">
   <cc:Work>
    <dc:type rdf:resource="http://purl.org/dc/dcmitype/StillImage"/>
    <dc:date>2026-06-20T23:09:52.822767</dc:date>
    <dc:format>image/svg+xml</dc:format>
    <dc:creator>
     <cc:Agent>
      <dc:title>Matplotlib v3.11.0, https://matplotlib.org/</dc:title>
     </cc:Agent>
    </dc:creator>
   </cc:Work>
  </rdf:RDF>
 </metadata>
 <defs>
  <style type="text/css">*{stroke-linejoin: round; stroke-linecap: butt}</style>
 </defs>
 <g id="figure_1">
  <g id="patch_1">
   <path d="M 0 443.324672 
L 663.808322 443.324672 
L 663.808322 0 
L 0 0 
z
" style="fill: #ffffff"/>
  </g>
  <g id="axes_1">
   <g id="patch_2">
    <path d="M 76.251563 385.056 
L 486.939563 385.056 
L 486.939563 7.2 
L 76.251563 7.2 
z
" style="fill: #ffffff"/>
   </g>
   <g id="line2d_1">
    <path d="M 76.251563 22.695654 
L 486.939563 22.695654 
" clip-path="url(#pa39840d408)" style="fill: none; stroke-dasharray: 7.8,3.9; stroke-dashoffset: 0; stroke: #000000; stroke-width: 1.3"/>
   </g>
   <g id="line2d_2">
    <path d="M 76.251563 58.456102 
L 486.939563 58.456102 
" clip-path="url(#pa39840d408)" style="fill: none; stroke-dasharray: 7.8,3.9; stroke-dashoffset: 0; stroke: #000000; stroke-width: 1.3"/>
   </g>
   <g id="matplotlib.axis_1">
    <g id="xtick_1">
     <g id="line2d_3">
      <path d="M 116.253998 385.056 
L 116.253998 7.2 
" clip-path="url(#pa39840d408)" style="fill: none; stroke-dasharray: 2.775,1.2; stroke-dashoffset: 0; stroke: #b0b0b0; stroke-opacity: 0.4; stroke-width: 0.75"/>
     </g>
     <g id="line2d_4">
      <defs>
       <path id="m922cddac41" d="M 0 0 
L 0 3.5 
" style="stroke: #000000; stroke-width: 0.8"/>
      </defs>
      <g>
       <use xlink:href="#m922cddac41" x="116.253998" y="385.056" style="stroke: #000000; stroke-width: 0.8"/>
      </g>
     </g>
     <g id="text_1">
      <!-- $\mathdefault{10^{2}}$ -->
      <g transform="translate(100.783998 408.036) scale(0.17 -0.17)">
       <defs>
        <path id="DejaVuSerif-14" d="M 909 0 
L 909 331 
L 1722 331 
L 1722 4213 
L 781 3603 
L 781 4013 
L 1919 4750 
L 2350 4750 
L 2350 331 
L 3163 331 
L 3163 0 
L 909 0 
z
" transform="scale(0.015625)"/>
        <path id="DejaVuSerif-13" d="M 2034 219 
Q 2513 219 2750 744 
Q 2988 1269 2988 2328 
Q 2988 3391 2750 3916 
Q 2513 4441 2034 4441 
Q 1556 4441 1318 3916 
Q 1081 3391 1081 2328 
Q 1081 1269 1318 744 
Q 1556 219 2034 219 
z
M 2034 -91 
Q 1275 -91 848 546 
Q 422 1184 422 2328 
Q 422 3475 848 4112 
Q 1275 4750 2034 4750 
Q 2797 4750 3222 4112 
Q 3647 3475 3647 2328 
Q 3647 1184 3222 546 
Q 2797 -91 2034 -91 
z
" transform="scale(0.015625)"/>
        <path id="DejaVuSerif-15" d="M 819 3553 
L 469 3553 
L 469 4384 
Q 803 4563 1142 4656 
Q 1481 4750 1806 4750 
Q 2534 4750 2956 4397 
Q 3378 4044 3378 3438 
Q 3378 2753 2422 1800 
Q 2347 1728 2309 1691 
L 1131 513 
L 3078 513 
L 3078 1088 
L 3444 1088 
L 3444 0 
L 434 0 
L 434 341 
L 1850 1753 
Q 2319 2222 2519 2614 
Q 2719 3006 2719 3438 
Q 2719 3909 2473 4175 
Q 2228 4441 1797 4441 
Q 1350 4441 1106 4219 
Q 863 3997 819 3553 
z
" transform="scale(0.015625)"/>
       </defs>
       <use xlink:href="#DejaVuSerif-14" transform="translate(0 0.757641)"/>
       <use xlink:href="#DejaVuSerif-13" transform="translate(63.623047 0.757641)"/>
       <use xlink:href="#DejaVuSerif-15" transform="translate(131.250385 42.046875) scale(0.7)"/>
      </g>
     </g>
    </g>
    <g id="xtick_2">
     <g id="line2d_5">
      <path d="M 287.016085 385.056 
L 287.016085 7.2 
" clip-path="url(#pa39840d408)" style="fill: none; stroke-dasharray: 2.775,1.2; stroke-dashoffset: 0; stroke: #b0b0b0; stroke-opacity: 0.4; stroke-width: 0.75"/>
     </g>
     <g id="line2d_6">
      <g>
       <use xlink:href="#m922cddac41" x="287.016085" y="385.056" style="stroke: #000000; stroke-width: 0.8"/>
      </g>
     </g>
     <g id="text_2">
      <!-- $\mathdefault{10^{3}}$ -->
      <g transform="translate(271.546085 408.036) scale(0.17 -0.17)">
       <defs>
        <path id="DejaVuSerif-16" d="M 622 4469 
Q 988 4606 1323 4678 
Q 1659 4750 1953 4750 
Q 2638 4750 3022 4454 
Q 3406 4159 3406 3634 
Q 3406 3213 3140 2930 
Q 2875 2647 2388 2547 
Q 2963 2466 3280 2130 
Q 3597 1794 3597 1259 
Q 3597 606 3158 257 
Q 2719 -91 1894 -91 
Q 1528 -91 1179 -12 
Q 831 66 488 225 
L 488 1131 
L 838 1131 
Q 869 681 1141 450 
Q 1413 219 1906 219 
Q 2384 219 2661 495 
Q 2938 772 2938 1253 
Q 2938 1803 2653 2086 
Q 2369 2369 1819 2369 
L 1522 2369 
L 1522 2688 
L 1678 2688 
Q 2225 2688 2498 2914 
Q 2772 3141 2772 3597 
Q 2772 4006 2547 4223 
Q 2322 4441 1900 4441 
Q 1478 4441 1245 4241 
Q 1013 4041 972 3647 
L 622 3647 
L 622 4469 
z
" transform="scale(0.015625)"/>
       </defs>
       <use xlink:href="#DejaVuSerif-14" transform="translate(0 0.757641)"/>
       <use xlink:href="#DejaVuSerif-13" transform="translate(63.623047 0.757641)"/>
       <use xlink:href="#DejaVuSerif-16" transform="translate(131.250385 42.046875) scale(0.7)"/>
      </g>
     </g>
    </g>
    <g id="xtick_3">
     <g id="line2d_7">
      <path d="M 457.778173 385.056 
L 457.778173 7.2 
" clip-path="url(#pa39840d408)" style="fill: none; stroke-dasharray: 2.775,1.2; stroke-dashoffset: 0; stroke: #b0b0b0; stroke-opacity: 0.4; stroke-width: 0.75"/>
     </g>
     <g id="line2d_8">
      <g>
       <use xlink:href="#m922cddac41" x="457.778173" y="385.056" style="stroke: #000000; stroke-width: 0.8"/>
      </g>
     </g>
     <g id="text_3">
      <!-- $\mathdefault{10^{4}}$ -->
      <g transform="translate(442.308173 408.036) scale(0.17 -0.17)">
       <defs>
        <path id="DejaVuSerif-17" d="M 2234 1581 
L 2234 4063 
L 641 1581 
L 2234 1581 
z
M 3609 0 
L 1484 0 
L 1484 331 
L 2234 331 
L 2234 1247 
L 197 1247 
L 197 1588 
L 2241 4750 
L 2859 4750 
L 2859 1581 
L 3750 1581 
L 3750 1247 
L 2859 1247 
L 2859 331 
L 3609 331 
L 3609 0 
z
" transform="scale(0.015625)"/>
       </defs>
       <use xlink:href="#DejaVuSerif-14" transform="translate(0 0.757641)"/>
       <use xlink:href="#DejaVuSerif-13" transform="translate(63.623047 0.757641)"/>
       <use xlink:href="#DejaVuSerif-17" transform="translate(131.250385 42.046875) scale(0.7)"/>
      </g>
     </g>
    </g>
    <g id="xtick_4">
     <g id="line2d_9">
      <path d="M 78.370643 385.056 
L 78.370643 7.2 
" clip-path="url(#pa39840d408)" style="fill: none; stroke-dasharray: 2.775,1.2; stroke-dashoffset: 0; stroke: #b0b0b0; stroke-opacity: 0.4; stroke-width: 0.75"/>
     </g>
     <g id="line2d_10">
      <defs>
       <path id="m4f6a5a534b" d="M 0 0 
L 0 2 
" style="stroke: #000000; stroke-width: 0.6"/>
      </defs>
      <g>
       <use xlink:href="#m4f6a5a534b" x="78.370643" y="385.056" style="stroke: #000000; stroke-width: 0.6"/>
      </g>
     </g>
    </g>
    <g id="xtick_5">
     <g id="line2d_11">
      <path d="M 89.802616 385.056 
L 89.802616 7.2 
" clip-path="url(#pa39840d408)" style="fill: none; stroke-dasharray: 2.775,1.2; stroke-dashoffset: 0; stroke: #b0b0b0; stroke-opacity: 0.4; stroke-width: 0.75"/>
     </g>
     <g id="line2d_12">
      <g>
       <use xlink:href="#m4f6a5a534b" x="89.802616" y="385.056" style="stroke: #000000; stroke-width: 0.6"/>
      </g>
     </g>
    </g>
    <g id="xtick_6">
     <g id="line2d_13">
      <path d="M 99.705442 385.056 
L 99.705442 7.2 
" clip-path="url(#pa39840d408)" style="fill: none; stroke-dasharray: 2.775,1.2; stroke-dashoffset: 0; stroke: #b0b0b0; stroke-opacity: 0.4; stroke-width: 0.75"/>
     </g>
     <g id="line2d_14">
      <g>
       <use xlink:href="#m4f6a5a534b" x="99.705442" y="385.056" style="stroke: #000000; stroke-width: 0.6"/>
      </g>
     </g>
    </g>
    <g id="xtick_7">
     <g id="line2d_15">
      <path d="M 108.440354 385.056 
L 108.440354 7.2 
" clip-path="url(#pa39840d408)" style="fill: none; stroke-dasharray: 2.775,1.2; stroke-dashoffset: 0; stroke: #b0b0b0; stroke-opacity: 0.4; stroke-width: 0.75"/>
     </g>
     <g id="line2d_16">
      <g>
       <use xlink:href="#m4f6a5a534b" x="108.440354" y="385.056" style="stroke: #000000; stroke-width: 0.6"/>
      </g>
     </g>
    </g>
    <g id="xtick_8">
     <g id="line2d_17">
      <path d="M 167.658509 385.056 
L 167.658509 7.2 
" clip-path="url(#pa39840d408)" style="fill: none; stroke-dasharray: 2.775,1.2; stroke-dashoffset: 0; stroke: #b0b0b0; stroke-opacity: 0.4; stroke-width: 0.75"/>
     </g>
     <g id="line2d_18">
      <g>
       <use xlink:href="#m4f6a5a534b" x="167.658509" y="385.056" style="stroke: #000000; stroke-width: 0.6"/>
      </g>
     </g>
    </g>
    <g id="xtick_9">
     <g id="line2d_19">
      <path d="M 197.72822 385.056 
L 197.72822 7.2 
" clip-path="url(#pa39840d408)" style="fill: none; stroke-dasharray: 2.775,1.2; stroke-dashoffset: 0; stroke: #b0b0b0; stroke-opacity: 0.4; stroke-width: 0.75"/>
     </g>
     <g id="line2d_20">
      <g>
       <use xlink:href="#m4f6a5a534b" x="197.72822" y="385.056" style="stroke: #000000; stroke-width: 0.6"/>
      </g>
     </g>
    </g>
    <g id="xtick_10">
     <g id="line2d_21">
      <path d="M 219.063019 385.056 
L 219.063019 7.2 
" clip-path="url(#pa39840d408)" style="fill: none; stroke-dasharray: 2.775,1.2; stroke-dashoffset: 0; stroke: #b0b0b0; stroke-opacity: 0.4; stroke-width: 0.75"/>
     </g>
     <g id="line2d_22">
      <g>
       <use xlink:href="#m4f6a5a534b" x="219.063019" y="385.056" style="stroke: #000000; stroke-width: 0.6"/>
      </g>
     </g>
    </g>
    <g id="xtick_11">
     <g id="line2d_23">
      <path d="M 235.611575 385.056 
L 235.611575 7.2 
" clip-path="url(#pa39840d408)" style="fill: none; stroke-dasharray: 2.775,1.2; stroke-dashoffset: 0; stroke: #b0b0b0; stroke-opacity: 0.4; stroke-width: 0.75"/>
     </g>
     <g id="line2d_24">
      <g>
       <use xlink:href="#m4f6a5a534b" x="235.611575" y="385.056" style="stroke: #000000; stroke-width: 0.6"/>
      </g>
     </g>
    </g>
    <g id="xtick_12">
     <g id="line2d_25">
      <path d="M 249.13273 385.056 
L 249.13273 7.2 
" clip-path="url(#pa39840d408)" style="fill: none; stroke-dasharray: 2.775,1.2; stroke-dashoffset: 0; stroke: #b0b0b0; stroke-opacity: 0.4; stroke-width: 0.75"/>
     </g>
     <g id="line2d_26">
      <g>
       <use xlink:href="#m4f6a5a534b" x="249.13273" y="385.056" style="stroke: #000000; stroke-width: 0.6"/>
      </g>
     </g>
    </g>
    <g id="xtick_13">
     <g id="line2d_27">
      <path d="M 260.564703 385.056 
L 260.564703 7.2 
" clip-path="url(#pa39840d408)" style="fill: none; stroke-dasharray: 2.775,1.2; stroke-dashoffset: 0; stroke: #b0b0b0; stroke-opacity: 0.4; stroke-width: 0.75"/>
     </g>
     <g id="line2d_28">
      <g>
       <use xlink:href="#m4f6a5a534b" x="260.564703" y="385.056" style="stroke: #000000; stroke-width: 0.6"/>
      </g>
     </g>
    </g>
    <g id="xtick_14">
     <g id="line2d_29">
      <path d="M 270.467529 385.056 
L 270.467529 7.2 
" clip-path="url(#pa39840d408)" style="fill: none; stroke-dasharray: 2.775,1.2; stroke-dashoffset: 0; stroke: #b0b0b0; stroke-opacity: 0.4; stroke-width: 0.75"/>
     </g>
     <g id="line2d_30">
      <g>
       <use xlink:href="#m4f6a5a534b" x="270.467529" y="385.056" style="stroke: #000000; stroke-width: 0.6"/>
      </g>
     </g>
    </g>
    <g id="xtick_15">
     <g id="line2d_31">
      <path d="M 279.202441 385.056 
L 279.202441 7.2 
" clip-path="url(#pa39840d408)" style="fill: none; stroke-dasharray: 2.775,1.2; stroke-dashoffset: 0; stroke: #b0b0b0; stroke-opacity: 0.4; stroke-width: 0.75"/>
     </g>
     <g id="line2d_32">
      <g>
       <use xlink:href="#m4f6a5a534b" x="279.202441" y="385.056" style="stroke: #000000; stroke-width: 0.6"/>
      </g>
     </g>
    </g>
    <g id="xtick_16">
     <g id="line2d_33">
      <path d="M 338.420596 385.056 
L 338.420596 7.2 
" clip-path="url(#pa39840d408)" style="fill: none; stroke-dasharray: 2.775,1.2; stroke-dashoffset: 0; stroke: #b0b0b0; stroke-opacity: 0.4; stroke-width: 0.75"/>
     </g>
     <g id="line2d_34">
      <g>
       <use xlink:href="#m4f6a5a534b" x="338.420596" y="385.056" style="stroke: #000000; stroke-width: 0.6"/>
      </g>
     </g>
    </g>
    <g id="xtick_17">
     <g id="line2d_35">
      <path d="M 368.490307 385.056 
L 368.490307 7.2 
" clip-path="url(#pa39840d408)" style="fill: none; stroke-dasharray: 2.775,1.2; stroke-dashoffset: 0; stroke: #b0b0b0; stroke-opacity: 0.4; stroke-width: 0.75"/>
     </g>
     <g id="line2d_36">
      <g>
       <use xlink:href="#m4f6a5a534b" x="368.490307" y="385.056" style="stroke: #000000; stroke-width: 0.6"/>
      </g>
     </g>
    </g>
    <g id="xtick_18">
     <g id="line2d_37">
      <path d="M 389.825106 385.056 
L 389.825106 7.2 
" clip-path="url(#pa39840d408)" style="fill: none; stroke-dasharray: 2.775,1.2; stroke-dashoffset: 0; stroke: #b0b0b0; stroke-opacity: 0.4; stroke-width: 0.75"/>
     </g>
     <g id="line2d_38">
      <g>
       <use xlink:href="#m4f6a5a534b" x="389.825106" y="385.056" style="stroke: #000000; stroke-width: 0.6"/>
      </g>
     </g>
    </g>
    <g id="xtick_19">
     <g id="line2d_39">
      <path d="M 406.373662 385.056 
L 406.373662 7.2 
" clip-path="url(#pa39840d408)" style="fill: none; stroke-dasharray: 2.775,1.2; stroke-dashoffset: 0; stroke: #b0b0b0; stroke-opacity: 0.4; stroke-width: 0.75"/>
     </g>
     <g id="line2d_40">
      <g>
       <use xlink:href="#m4f6a5a534b" x="406.373662" y="385.056" style="stroke: #000000; stroke-width: 0.6"/>
      </g>
     </g>
    </g>
    <g id="xtick_20">
     <g id="line2d_41">
      <path d="M 419.894817 385.056 
L 419.894817 7.2 
" clip-path="url(#pa39840d408)" style="fill: none; stroke-dasharray: 2.775,1.2; stroke-dashoffset: 0; stroke: #b0b0b0; stroke-opacity: 0.4; stroke-width: 0.75"/>
     </g>
     <g id="line2d_42">
      <g>
       <use xlink:href="#m4f6a5a534b" x="419.894817" y="385.056" style="stroke: #000000; stroke-width: 0.6"/>
      </g>
     </g>
    </g>
    <g id="xtick_21">
     <g id="line2d_43">
      <path d="M 431.326791 385.056 
L 431.326791 7.2 
" clip-path="url(#pa39840d408)" style="fill: none; stroke-dasharray: 2.775,1.2; stroke-dashoffset: 0; stroke: #b0b0b0; stroke-opacity: 0.4; stroke-width: 0.75"/>
     </g>
     <g id="line2d_44">
      <g>
       <use xlink:href="#m4f6a5a534b" x="431.326791" y="385.056" style="stroke: #000000; stroke-width: 0.6"/>
      </g>
     </g>
    </g>
    <g id="xtick_22">
     <g id="line2d_45">
      <path d="M 441.229616 385.056 
L 441.229616 7.2 
" clip-path="url(#pa39840d408)" style="fill: none; stroke-dasharray: 2.775,1.2; stroke-dashoffset: 0; stroke: #b0b0b0; stroke-opacity: 0.4; stroke-width: 0.75"/>
     </g>
     <g id="line2d_46">
      <g>
       <use xlink:href="#m4f6a5a534b" x="441.229616" y="385.056" style="stroke: #000000; stroke-width: 0.6"/>
      </g>
     </g>
    </g>
    <g id="xtick_23">
     <g id="line2d_47">
      <path d="M 449.964528 385.056 
L 449.964528 7.2 
" clip-path="url(#pa39840d408)" style="fill: none; stroke-dasharray: 2.775,1.2; stroke-dashoffset: 0; stroke: #b0b0b0; stroke-opacity: 0.4; stroke-width: 0.75"/>
     </g>
     <g id="line2d_48">
      <g>
       <use xlink:href="#m4f6a5a534b" x="449.964528" y="385.056" style="stroke: #000000; stroke-width: 0.6"/>
      </g>
     </g>
    </g>
    <g id="text_4">
     <!-- degrees of freedom  $N_{\mathrm{dof}}$ -->
     <g transform="translate(158.295563 431.319984) scale(0.2 -0.2)">
      <defs>
       <path id="DejaVuSerif-47" d="M 3359 331 
L 3909 331 
L 3909 0 
L 2784 0 
L 2784 519 
Q 2616 206 2355 57 
Q 2094 -91 1709 -91 
Q 1097 -91 708 395 
Q 319 881 319 1663 
Q 319 2444 706 2928 
Q 1094 3413 1709 3413 
Q 2094 3413 2355 3264 
Q 2616 3116 2784 2803 
L 2784 4531 
L 2241 4531 
L 2241 4863 
L 3359 4863 
L 3359 331 
z
M 2784 1497 
L 2784 1825 
Q 2784 2422 2554 2737 
Q 2325 3053 1888 3053 
Q 1444 3053 1217 2703 
Q 991 2353 991 1663 
Q 991 975 1217 622 
Q 1444 269 1888 269 
Q 2325 269 2554 583 
Q 2784 897 2784 1497 
z
" transform="scale(0.015625)"/>
       <path id="DejaVuSerif-48" d="M 3469 1600 
L 991 1600 
L 991 1575 
Q 991 903 1244 561 
Q 1497 219 1991 219 
Q 2369 219 2611 417 
Q 2853 616 2950 1006 
L 3413 1006 
Q 3275 459 2904 184 
Q 2534 -91 1931 -91 
Q 1203 -91 761 389 
Q 319 869 319 1663 
Q 319 2450 753 2931 
Q 1188 3413 1894 3413 
Q 2647 3413 3050 2948 
Q 3453 2484 3469 1600 
z
M 2791 1931 
Q 2772 2513 2545 2808 
Q 2319 3103 1894 3103 
Q 1497 3103 1269 2806 
Q 1041 2509 991 1931 
L 2791 1931 
z
" transform="scale(0.015625)"/>
       <path id="DejaVuSerif-4a" d="M 3359 2988 
L 3359 72 
Q 3359 -644 2965 -1033 
Q 2572 -1422 1844 -1422 
Q 1516 -1422 1216 -1362 
Q 916 -1303 641 -1184 
L 641 -488 
L 941 -488 
Q 997 -813 1206 -963 
Q 1416 -1113 1806 -1113 
Q 2313 -1113 2548 -827 
Q 2784 -541 2784 72 
L 2784 519 
Q 2616 206 2355 57 
Q 2094 -91 1709 -91 
Q 1097 -91 708 395 
Q 319 881 319 1663 
Q 319 2444 706 2928 
Q 1094 3413 1709 3413 
Q 2094 3413 2355 3264 
Q 2616 3116 2784 2803 
L 2784 3322 
L 3909 3322 
L 3909 2988 
L 3359 2988 
z
M 2784 1825 
Q 2784 2422 2554 2737 
Q 2325 3053 1888 3053 
Q 1444 3053 1217 2703 
Q 991 2353 991 1663 
Q 991 975 1217 622 
Q 1444 269 1888 269 
Q 2325 269 2554 583 
Q 2784 897 2784 1497 
L 2784 1825 
z
" transform="scale(0.015625)"/>
       <path id="DejaVuSerif-55" d="M 3059 3328 
L 3059 2497 
L 2728 2497 
Q 2713 2744 2591 2866 
Q 2469 2988 2234 2988 
Q 1809 2988 1582 2694 
Q 1356 2400 1356 1850 
L 1356 331 
L 2022 331 
L 2022 0 
L 263 0 
L 263 331 
L 781 331 
L 781 2994 
L 231 2994 
L 231 3322 
L 1356 3322 
L 1356 2731 
Q 1525 3078 1790 3245 
Q 2056 3413 2438 3413 
Q 2578 3413 2733 3391 
Q 2888 3369 3059 3328 
z
" transform="scale(0.015625)"/>
       <path id="DejaVuSerif-56" d="M 359 184 
L 359 959 
L 691 959 
Q 703 588 923 403 
Q 1144 219 1575 219 
Q 1963 219 2166 364 
Q 2369 509 2369 788 
Q 2369 1006 2220 1140 
Q 2072 1275 1594 1428 
L 1178 1569 
Q 750 1706 558 1912 
Q 366 2119 366 2438 
Q 366 2894 700 3153 
Q 1034 3413 1625 3413 
Q 1888 3413 2178 3344 
Q 2469 3275 2778 3144 
L 2778 2419 
L 2447 2419 
Q 2434 2741 2221 2922 
Q 2009 3103 1644 3103 
Q 1281 3103 1095 2975 
Q 909 2847 909 2591 
Q 909 2381 1050 2254 
Q 1191 2128 1613 1997 
L 2069 1856 
Q 2541 1709 2748 1489 
Q 2956 1269 2956 922 
Q 2956 450 2595 179 
Q 2234 -91 1600 -91 
Q 1278 -91 972 -22 
Q 666 47 359 184 
z
" transform="scale(0.015625)"/>
       <path id="DejaVuSerif-3" transform="scale(0.015625)"/>
       <path id="DejaVuSerif-52" d="M 1925 219 
Q 2388 219 2623 584 
Q 2859 950 2859 1663 
Q 2859 2375 2623 2739 
Q 2388 3103 1925 3103 
Q 1463 3103 1227 2739 
Q 991 2375 991 1663 
Q 991 950 1228 584 
Q 1466 219 1925 219 
z
M 1925 -91 
Q 1200 -91 759 389 
Q 319 869 319 1663 
Q 319 2456 758 2934 
Q 1197 3413 1925 3413 
Q 2653 3413 3092 2934 
Q 3531 2456 3531 1663 
Q 3531 869 3092 389 
Q 2653 -91 1925 -91 
z
" transform="scale(0.015625)"/>
       <path id="DejaVuSerif-49" d="M 2753 4078 
L 2450 4078 
Q 2447 4313 2317 4434 
Q 2188 4556 1941 4556 
Q 1619 4556 1487 4379 
Q 1356 4203 1356 3750 
L 1356 3322 
L 2284 3322 
L 2284 2988 
L 1356 2988 
L 1356 331 
L 2094 331 
L 2094 0 
L 231 0 
L 231 331 
L 781 331 
L 781 2988 
L 231 2988 
L 231 3322 
L 781 3322 
L 781 3738 
Q 781 4294 1070 4578 
Q 1359 4863 1919 4863 
Q 2128 4863 2337 4825 
Q 2547 4788 2753 4709 
L 2753 4078 
z
" transform="scale(0.015625)"/>
       <path id="DejaVuSerif-50" d="M 3316 2675 
Q 3481 3041 3739 3227 
Q 3997 3413 4341 3413 
Q 4863 3413 5119 3089 
Q 5375 2766 5375 2113 
L 5375 331 
L 5894 331 
L 5894 0 
L 4300 0 
L 4300 331 
L 4800 331 
L 4800 2047 
Q 4800 2556 4650 2772 
Q 4500 2988 4153 2988 
Q 3769 2988 3567 2697 
Q 3366 2406 3366 1850 
L 3366 331 
L 3866 331 
L 3866 0 
L 2291 0 
L 2291 331 
L 2791 331 
L 2791 2069 
Q 2791 2566 2641 2777 
Q 2491 2988 2144 2988 
Q 1759 2988 1557 2697 
Q 1356 2406 1356 1850 
L 1356 331 
L 1856 331 
L 1856 0 
L 263 0 
L 263 331 
L 781 331 
L 781 2994 
L 231 2994 
L 231 3322 
L 1356 3322 
L 1356 2731 
Q 1516 3063 1762 3238 
Q 2009 3413 2322 3413 
Q 2709 3413 2968 3220 
Q 3228 3028 3316 2675 
z
" transform="scale(0.015625)"/>
       <path id="Cmmi10-5d" d="M 300 0 
Q 238 0 238 84 
Q 241 100 250 139 
Q 259 178 276 201 
Q 294 225 319 225 
Q 931 225 1031 616 
L 1900 4116 
Q 1722 4147 1338 4147 
Q 1275 4147 1275 4231 
Q 1278 4247 1287 4286 
Q 1297 4325 1314 4348 
Q 1331 4372 1356 4372 
L 2463 4372 
Q 2509 4372 2522 4331 
L 3944 947 
L 4653 3781 
Q 4666 3850 4666 3878 
Q 4666 4147 4172 4147 
Q 4109 4147 4109 4231 
Q 4131 4313 4143 4342 
Q 4156 4372 4219 4372 
L 5588 4372 
Q 5650 4372 5650 4288 
Q 5647 4272 5637 4233 
Q 5628 4194 5611 4170 
Q 5594 4147 5569 4147 
Q 4956 4147 4856 3756 
L 3938 56 
Q 3916 0 3872 0 
L 3794 0 
Q 3750 0 3738 44 
L 2106 3916 
L 2094 3956 
Q 2081 3969 2081 3975 
L 1234 588 
Q 1228 572 1225 548 
Q 1222 525 1216 494 
Q 1216 328 1359 276 
Q 1503 225 1716 225 
Q 1778 225 1778 141 
Q 1756 53 1740 26 
Q 1725 0 1672 0 
L 300 0 
z
" transform="scale(0.015625)"/>
       <path id="Cmr10-49" d="M 1563 -72 
Q 1184 -72 871 133 
Q 559 338 386 672 
Q 213 1006 213 1381 
Q 213 1769 402 2101 
Q 591 2434 916 2631 
Q 1241 2828 1631 2828 
Q 1866 2828 2075 2729 
Q 2284 2631 2438 2456 
L 2438 3788 
Q 2438 3959 2386 4036 
Q 2334 4113 2239 4130 
Q 2144 4147 1941 4147 
L 1941 4372 
L 2888 4441 
L 2888 581 
Q 2888 413 2939 336 
Q 2991 259 3086 242 
Q 3181 225 3384 225 
L 3384 0 
L 2419 -72 
L 2419 331 
Q 2253 141 2025 34 
Q 1797 -72 1563 -72 
z
M 909 556 
Q 1019 347 1201 222 
Q 1384 97 1600 97 
Q 1866 97 2087 250 
Q 2309 403 2419 647 
L 2419 2181 
Q 2344 2322 2230 2433 
Q 2116 2544 1973 2603 
Q 1831 2663 1672 2663 
Q 1338 2663 1134 2473 
Q 931 2284 850 1990 
Q 769 1697 769 1375 
Q 769 1119 795 928 
Q 822 738 909 556 
z
" transform="scale(0.015625)"/>
       <path id="Cmr10-42" d="M 1600 -72 
Q 1216 -72 887 123 
Q 559 319 368 647 
Q 178 975 178 1363 
Q 178 1656 283 1928 
Q 388 2200 583 2414 
Q 778 2628 1037 2748 
Q 1297 2869 1600 2869 
Q 1994 2869 2317 2661 
Q 2641 2453 2828 2104 
Q 3016 1756 3016 1363 
Q 3016 978 2825 648 
Q 2634 319 2307 123 
Q 1981 -72 1600 -72 
z
M 1600 116 
Q 2113 116 2284 487 
Q 2456 859 2456 1434 
Q 2456 1756 2422 1967 
Q 2388 2178 2272 2350 
Q 2200 2456 2089 2536 
Q 1978 2616 1854 2658 
Q 1731 2700 1600 2700 
Q 1400 2700 1220 2609 
Q 1041 2519 922 2350 
Q 803 2169 770 1951 
Q 738 1734 738 1434 
Q 738 1075 800 789 
Q 863 503 1052 309 
Q 1241 116 1600 116 
z
" transform="scale(0.015625)"/>
       <path id="Cmr10-50" d="M 206 0 
L 206 225 
Q 422 225 562 259 
Q 703 294 703 428 
L 703 2534 
L 213 2534 
L 213 2759 
L 703 2759 
L 703 3525 
Q 703 3731 789 3911 
Q 875 4091 1020 4225 
Q 1166 4359 1355 4436 
Q 1544 4513 1747 4513 
Q 1963 4513 2136 4384 
Q 2309 4256 2309 4044 
Q 2309 3922 2226 3839 
Q 2144 3756 2022 3756 
Q 1900 3756 1814 3839 
Q 1728 3922 1728 4044 
Q 1728 4244 1900 4313 
Q 1797 4347 1716 4347 
Q 1528 4347 1395 4214 
Q 1263 4081 1197 3890 
Q 1131 3700 1131 3513 
L 1131 2759 
L 1869 2759 
L 1869 2534 
L 1153 2534 
L 1153 428 
Q 1153 297 1340 261 
Q 1528 225 1772 225 
L 1772 0 
L 206 0 
z
" transform="scale(0.015625)"/>
      </defs>
      <use xlink:href="#DejaVuSerif-47" transform="translate(0 0.015625)"/>
      <use xlink:href="#DejaVuSerif-48" transform="translate(64.013672 0.015625)"/>
      <use xlink:href="#DejaVuSerif-4a" transform="translate(123.193359 0.015625)"/>
      <use xlink:href="#DejaVuSerif-55" transform="translate(187.207031 0.015625)"/>
      <use xlink:href="#DejaVuSerif-48" transform="translate(235.009766 0.015625)"/>
      <use xlink:href="#DejaVuSerif-48" transform="translate(294.189453 0.015625)"/>
      <use xlink:href="#DejaVuSerif-56" transform="translate(353.369141 0.015625)"/>
      <use xlink:href="#DejaVuSerif-3" transform="translate(404.6875 0.015625)"/>
      <use xlink:href="#DejaVuSerif-52" transform="translate(436.474609 0.015625)"/>
      <use xlink:href="#DejaVuSerif-49" transform="translate(496.679688 0.015625)"/>
      <use xlink:href="#DejaVuSerif-3" transform="translate(533.691406 0.015625)"/>
      <use xlink:href="#DejaVuSerif-49" transform="translate(565.478516 0.015625)"/>
      <use xlink:href="#DejaVuSerif-55" transform="translate(602.490234 0.015625)"/>
      <use xlink:href="#DejaVuSerif-48" transform="translate(650.292969 0.015625)"/>
      <use xlink:href="#DejaVuSerif-48" transform="translate(709.472656 0.015625)"/>
      <use xlink:href="#DejaVuSerif-47" transform="translate(768.652344 0.015625)"/>
      <use xlink:href="#DejaVuSerif-52" transform="translate(832.666016 0.015625)"/>
      <use xlink:href="#DejaVuSerif-50" transform="translate(892.871094 0.015625)"/>
      <use xlink:href="#DejaVuSerif-3" transform="translate(987.695312 0.015625)"/>
      <use xlink:href="#DejaVuSerif-3" transform="translate(1019.482422 0.015625)"/>
      <use xlink:href="#Cmmi10-5d" transform="translate(1051.269531 0.015625)"/>
      <use xlink:href="#Cmr10-49" transform="translate(1131.591797 -14.984337) scale(0.7)"/>
      <use xlink:href="#Cmr10-42" transform="translate(1170.454102 -14.984337) scale(0.7)"/>
      <use xlink:href="#Cmr10-50" transform="translate(1205.454102 -14.984337) scale(0.7)"/>
     </g>
    </g>
   </g>
   <g id="matplotlib.axis_2">
    <g id="ytick_1">
     <g id="line2d_49">
      <path d="M 76.251563 331.257232 
L 486.939563 331.257232 
" clip-path="url(#pa39840d408)" style="fill: none; stroke-dasharray: 2.775,1.2; stroke-dashoffset: 0; stroke: #b0b0b0; stroke-opacity: 0.4; stroke-width: 0.75"/>
     </g>
     <g id="line2d_50">
      <defs>
       <path id="ma2c4d79e81" d="M 0 0 
L -3.5 0 
" style="stroke: #000000; stroke-width: 0.8"/>
      </defs>
      <g>
       <use xlink:href="#ma2c4d79e81" x="76.251563" y="331.257232" style="stroke: #000000; stroke-width: 0.8"/>
      </g>
     </g>
     <g id="text_5">
      <!-- 0.96 -->
      <g transform="translate(31.4 337.71524) scale(0.17 -0.17)">
       <defs>
        <path id="DejaVuSerif-11" d="M 603 325 
Q 603 500 722 622 
Q 841 744 1019 744 
Q 1191 744 1312 622 
Q 1434 500 1434 325 
Q 1434 153 1312 31 
Q 1191 -91 1019 -91 
Q 841 -91 722 29 
Q 603 150 603 325 
z
" transform="scale(0.015625)"/>
        <path id="DejaVuSerif-1c" d="M 2994 2091 
Q 2784 1856 2512 1740 
Q 2241 1625 1900 1625 
Q 1206 1625 804 2044 
Q 403 2463 403 3188 
Q 403 3897 839 4323 
Q 1275 4750 2003 4750 
Q 2794 4750 3217 4161 
Q 3641 3572 3641 2478 
Q 3641 1253 3137 581 
Q 2634 -91 1722 -91 
Q 1475 -91 1203 -44 
Q 931 3 647 97 
L 647 872 
L 997 872 
Q 1038 556 1241 387 
Q 1444 219 1784 219 
Q 2391 219 2687 676 
Q 2984 1134 2994 2091 
z
M 1978 4441 
Q 1534 4441 1298 4117 
Q 1063 3794 1063 3188 
Q 1063 2581 1298 2256 
Q 1534 1931 1978 1931 
Q 2422 1931 2658 2245 
Q 2894 2559 2894 3150 
Q 2894 3772 2656 4106 
Q 2419 4441 1978 4441 
z
" transform="scale(0.015625)"/>
        <path id="DejaVuSerif-19" d="M 2094 219 
Q 2534 219 2771 542 
Q 3009 866 3009 1472 
Q 3009 2078 2771 2401 
Q 2534 2725 2094 2725 
Q 1647 2725 1412 2412 
Q 1178 2100 1178 1509 
Q 1178 888 1415 553 
Q 1653 219 2094 219 
z
M 1075 2569 
Q 1288 2803 1556 2918 
Q 1825 3034 2163 3034 
Q 2859 3034 3264 2615 
Q 3669 2197 3669 1472 
Q 3669 763 3233 336 
Q 2797 -91 2069 -91 
Q 1278 -91 853 498 
Q 428 1088 428 2181 
Q 428 3406 931 4078 
Q 1434 4750 2350 4750 
Q 2597 4750 2869 4703 
Q 3141 4656 3425 4563 
L 3425 3794 
L 3072 3794 
Q 3034 4109 2831 4275 
Q 2628 4441 2284 4441 
Q 1678 4441 1381 3981 
Q 1084 3522 1075 2569 
z
" transform="scale(0.015625)"/>
       </defs>
       <use xlink:href="#DejaVuSerif-13"/>
       <use xlink:href="#DejaVuSerif-11" transform="translate(63.625 0)"/>
       <use xlink:href="#DejaVuSerif-1c" transform="translate(95.40625 0)"/>
       <use xlink:href="#DejaVuSerif-19" transform="translate(159.03125 0)"/>
      </g>
     </g>
    </g>
    <g id="ytick_2">
     <g id="line2d_51">
      <path d="M 76.251563 254.116838 
L 486.939563 254.116838 
" clip-path="url(#pa39840d408)" style="fill: none; stroke-dasharray: 2.775,1.2; stroke-dashoffset: 0; stroke: #b0b0b0; stroke-opacity: 0.4; stroke-width: 0.75"/>
     </g>
     <g id="line2d_52">
      <g>
       <use xlink:href="#ma2c4d79e81" x="76.251563" y="254.116838" style="stroke: #000000; stroke-width: 0.8"/>
      </g>
     </g>
     <g id="text_6">
      <!-- 0.97 -->
      <g transform="translate(31.4 260.574846) scale(0.17 -0.17)">
       <defs>
        <path id="DejaVuSerif-1a" d="M 3609 4347 
L 1784 0 
L 1319 0 
L 3059 4153 
L 903 4153 
L 903 3578 
L 538 3578 
L 538 4666 
L 3609 4666 
L 3609 4347 
z
" transform="scale(0.015625)"/>
       </defs>
       <use xlink:href="#DejaVuSerif-13"/>
       <use xlink:href="#DejaVuSerif-11" transform="translate(63.625 0)"/>
       <use xlink:href="#DejaVuSerif-1c" transform="translate(95.40625 0)"/>
       <use xlink:href="#DejaVuSerif-1a" transform="translate(159.03125 0)"/>
      </g>
     </g>
    </g>
    <g id="ytick_3">
     <g id="line2d_53">
      <path d="M 76.251563 176.976443 
L 486.939563 176.976443 
" clip-path="url(#pa39840d408)" style="fill: none; stroke-dasharray: 2.775,1.2; stroke-dashoffset: 0; stroke: #b0b0b0; stroke-opacity: 0.4; stroke-width: 0.75"/>
     </g>
     <g id="line2d_54">
      <g>
       <use xlink:href="#ma2c4d79e81" x="76.251563" y="176.976443" style="stroke: #000000; stroke-width: 0.8"/>
      </g>
     </g>
     <g id="text_7">
      <!-- 0.98 -->
      <g transform="translate(31.4 183.434451) scale(0.17 -0.17)">
       <defs>
        <path id="DejaVuSerif-1b" d="M 2981 1275 
Q 2981 1775 2732 2051 
Q 2484 2328 2034 2328 
Q 1584 2328 1336 2051 
Q 1088 1775 1088 1275 
Q 1088 772 1336 495 
Q 1584 219 2034 219 
Q 2484 219 2732 495 
Q 2981 772 2981 1275 
z
M 2853 3541 
Q 2853 3966 2637 4203 
Q 2422 4441 2034 4441 
Q 1650 4441 1433 4203 
Q 1216 3966 1216 3541 
Q 1216 3113 1433 2875 
Q 1650 2638 2034 2638 
Q 2422 2638 2637 2875 
Q 2853 3113 2853 3541 
z
M 2516 2484 
Q 3047 2413 3344 2092 
Q 3641 1772 3641 1275 
Q 3641 619 3225 264 
Q 2809 -91 2034 -91 
Q 1263 -91 845 264 
Q 428 619 428 1275 
Q 428 1772 725 2092 
Q 1022 2413 1556 2484 
Q 1084 2569 832 2842 
Q 581 3116 581 3541 
Q 581 4103 968 4426 
Q 1356 4750 2034 4750 
Q 2713 4750 3100 4426 
Q 3488 4103 3488 3541 
Q 3488 3116 3236 2842 
Q 2984 2569 2516 2484 
z
" transform="scale(0.015625)"/>
       </defs>
       <use xlink:href="#DejaVuSerif-13"/>
       <use xlink:href="#DejaVuSerif-11" transform="translate(63.625 0)"/>
       <use xlink:href="#DejaVuSerif-1c" transform="translate(95.40625 0)"/>
       <use xlink:href="#DejaVuSerif-1b" transform="translate(159.03125 0)"/>
      </g>
     </g>
    </g>
    <g id="ytick_4">
     <g id="line2d_55">
      <path d="M 76.251563 99.836049 
L 486.939563 99.836049 
" clip-path="url(#pa39840d408)" style="fill: none; stroke-dasharray: 2.775,1.2; stroke-dashoffset: 0; stroke: #b0b0b0; stroke-opacity: 0.4; stroke-width: 0.75"/>
     </g>
     <g id="line2d_56">
      <g>
       <use xlink:href="#ma2c4d79e81" x="76.251563" y="99.836049" style="stroke: #000000; stroke-width: 0.8"/>
      </g>
     </g>
     <g id="text_8">
      <!-- 0.99 -->
      <g transform="translate(31.4 106.294056) scale(0.17 -0.17)">
       <use xlink:href="#DejaVuSerif-13"/>
       <use xlink:href="#DejaVuSerif-11" transform="translate(63.625 0)"/>
       <use xlink:href="#DejaVuSerif-1c" transform="translate(95.40625 0)"/>
       <use xlink:href="#DejaVuSerif-1c" transform="translate(159.03125 0)"/>
      </g>
     </g>
    </g>
    <g id="ytick_5">
     <g id="line2d_57">
      <path d="M 76.251563 22.695654 
L 486.939563 22.695654 
" clip-path="url(#pa39840d408)" style="fill: none; stroke-dasharray: 2.775,1.2; stroke-dashoffset: 0; stroke: #b0b0b0; stroke-opacity: 0.4; stroke-width: 0.75"/>
     </g>
     <g id="line2d_58">
      <g>
       <use xlink:href="#ma2c4d79e81" x="76.251563" y="22.695654" style="stroke: #000000; stroke-width: 0.8"/>
      </g>
     </g>
     <g id="text_9">
      <!-- 1.00 -->
      <g transform="translate(31.4 29.153662) scale(0.17 -0.17)">
       <use xlink:href="#DejaVuSerif-14"/>
       <use xlink:href="#DejaVuSerif-11" transform="translate(63.625 0)"/>
       <use xlink:href="#DejaVuSerif-13" transform="translate(95.40625 0)"/>
       <use xlink:href="#DejaVuSerif-13" transform="translate(159.03125 0)"/>
      </g>
     </g>
    </g>
    <g id="text_10">
     <!-- normalized deflection  $|u_{\mathrm{ref}}| / u^{\ast}$ -->
     <g transform="translate(22.4 348.528) rotate(-90) scale(0.2 -0.2)">
      <defs>
       <path id="DejaVuSerif-51" d="M 263 0 
L 263 331 
L 781 331 
L 781 2988 
L 231 2988 
L 231 3322 
L 1356 3322 
L 1356 2731 
Q 1516 3069 1770 3241 
Q 2025 3413 2363 3413 
Q 2913 3413 3172 3097 
Q 3431 2781 3431 2113 
L 3431 331 
L 3944 331 
L 3944 0 
L 2356 0 
L 2356 331 
L 2853 331 
L 2853 1931 
Q 2853 2541 2703 2767 
Q 2553 2994 2175 2994 
Q 1775 2994 1565 2701 
Q 1356 2409 1356 1850 
L 1356 331 
L 1856 331 
L 1856 0 
L 263 0 
z
" transform="scale(0.015625)"/>
       <path id="DejaVuSerif-44" d="M 2547 1044 
L 2547 1747 
L 1806 1747 
Q 1378 1747 1168 1562 
Q 959 1378 959 997 
Q 959 650 1171 447 
Q 1384 244 1747 244 
Q 2106 244 2326 466 
Q 2547 688 2547 1044 
z
M 3122 2075 
L 3122 331 
L 3634 331 
L 3634 0 
L 2547 0 
L 2547 359 
Q 2356 128 2106 18 
Q 1856 -91 1522 -91 
Q 969 -91 644 203 
Q 319 497 319 997 
Q 319 1513 691 1797 
Q 1063 2081 1741 2081 
L 2547 2081 
L 2547 2309 
Q 2547 2688 2317 2895 
Q 2088 3103 1672 3103 
Q 1328 3103 1125 2947 
Q 922 2791 872 2484 
L 575 2484 
L 575 3156 
Q 875 3284 1158 3348 
Q 1441 3413 1709 3413 
Q 2400 3413 2761 3070 
Q 3122 2728 3122 2075 
z
" transform="scale(0.015625)"/>
       <path id="DejaVuSerif-4f" d="M 1313 331 
L 1856 331 
L 1856 0 
L 184 0 
L 184 331 
L 738 331 
L 738 4531 
L 184 4531 
L 184 4863 
L 1313 4863 
L 1313 331 
z
" transform="scale(0.015625)"/>
       <path id="DejaVuSerif-4c" d="M 622 4353 
Q 622 4497 726 4603 
Q 831 4709 978 4709 
Q 1122 4709 1226 4603 
Q 1331 4497 1331 4353 
Q 1331 4206 1228 4103 
Q 1125 4000 978 4000 
Q 831 4000 726 4103 
Q 622 4206 622 4353 
z
M 1356 331 
L 1900 331 
L 1900 0 
L 231 0 
L 231 331 
L 781 331 
L 781 2988 
L 231 2988 
L 231 3322 
L 1356 3322 
L 1356 331 
z
" transform="scale(0.015625)"/>
       <path id="DejaVuSerif-5d" d="M 256 0 
L 256 269 
L 2338 2988 
L 691 2988 
L 691 2413 
L 359 2413 
L 359 3322 
L 3078 3322 
L 3078 3053 
L 997 331 
L 2803 331 
L 2803 934 
L 3138 934 
L 3138 0 
L 256 0 
z
" transform="scale(0.015625)"/>
       <path id="DejaVuSerif-46" d="M 3291 997 
Q 3169 466 2822 187 
Q 2475 -91 1925 -91 
Q 1200 -91 759 389 
Q 319 869 319 1663 
Q 319 2459 759 2936 
Q 1200 3413 1925 3413 
Q 2241 3413 2553 3339 
Q 2866 3266 3181 3116 
L 3181 2266 
L 2847 2266 
Q 2781 2703 2561 2903 
Q 2341 3103 1931 3103 
Q 1466 3103 1228 2742 
Q 991 2381 991 1663 
Q 991 944 1227 581 
Q 1463 219 1931 219 
Q 2303 219 2525 412 
Q 2747 606 2828 997 
L 3291 997 
z
" transform="scale(0.015625)"/>
       <path id="DejaVuSerif-57" d="M 691 2988 
L 184 2988 
L 184 3322 
L 691 3322 
L 691 4353 
L 1269 4353 
L 1269 3322 
L 2350 3322 
L 2350 2988 
L 1269 2988 
L 1269 878 
Q 1269 456 1350 337 
Q 1431 219 1650 219 
Q 1875 219 1978 351 
Q 2081 484 2088 781 
L 2522 781 
Q 2497 328 2275 118 
Q 2053 -91 1600 -91 
Q 1103 -91 897 129 
Q 691 350 691 878 
L 691 2988 
z
" transform="scale(0.015625)"/>
       <path id="Cmsy10-2f" d="M 763 -1484 
L 763 4684 
Q 763 4734 800 4767 
Q 838 4800 891 4800 
Q 938 4800 978 4767 
Q 1019 4734 1019 4684 
L 1019 -1484 
Q 1019 -1534 978 -1567 
Q 938 -1600 891 -1600 
Q 838 -1600 800 -1567 
Q 763 -1534 763 -1484 
z
" transform="scale(0.015625)"/>
       <path id="Cmmi10-60" d="M 678 697 
Q 678 906 734 1126 
Q 791 1347 892 1617 
Q 994 1888 1069 2088 
Q 1153 2322 1153 2472 
Q 1153 2663 1013 2663 
Q 759 2663 595 2402 
Q 431 2141 353 1819 
Q 341 1778 300 1778 
L 225 1778 
Q 172 1778 172 1838 
L 172 1856 
Q 275 2238 487 2533 
Q 700 2828 1025 2828 
Q 1253 2828 1411 2678 
Q 1569 2528 1569 2297 
Q 1569 2178 1516 2047 
Q 1488 1969 1388 1706 
Q 1288 1444 1234 1272 
Q 1181 1100 1147 934 
Q 1113 769 1113 603 
Q 1113 391 1203 244 
Q 1294 97 1497 97 
Q 1906 97 2216 603 
Q 2222 628 2226 651 
Q 2231 675 2234 697 
L 2694 2553 
Q 2716 2638 2794 2698 
Q 2872 2759 2963 2759 
Q 3041 2759 3098 2709 
Q 3156 2659 3156 2578 
Q 3156 2541 3150 2528 
L 2688 684 
Q 2644 494 2644 372 
Q 2644 97 2828 97 
Q 3034 97 3136 351 
Q 3238 606 3309 941 
Q 3322 978 3359 978 
L 3438 978 
Q 3463 978 3478 956 
Q 3494 934 3494 916 
Q 3425 641 3361 444 
Q 3297 247 3159 87 
Q 3022 -72 2816 -72 
Q 2613 -72 2452 39 
Q 2291 150 2234 341 
Q 2088 153 1894 40 
Q 1700 -72 1484 -72 
Q 1116 -72 897 129 
Q 678 331 678 697 
z
" transform="scale(0.015625)"/>
       <path id="Cmr10-84" d="M 166 0 
L 166 225 
Q 384 225 525 259 
Q 666 294 666 428 
L 666 2175 
Q 666 2347 614 2423 
Q 563 2500 466 2517 
Q 369 2534 166 2534 
L 166 2759 
L 1081 2828 
L 1081 2203 
Q 1184 2481 1375 2654 
Q 1566 2828 1838 2828 
Q 2028 2828 2178 2715 
Q 2328 2603 2328 2419 
Q 2328 2303 2245 2217 
Q 2163 2131 2041 2131 
Q 1922 2131 1837 2215 
Q 1753 2300 1753 2419 
Q 1753 2591 1875 2663 
L 1838 2663 
Q 1578 2663 1414 2475 
Q 1250 2288 1181 2009 
Q 1113 1731 1113 1478 
L 1113 428 
Q 1113 225 1734 225 
L 1734 0 
L 166 0 
z
" transform="scale(0.015625)"/>
       <path id="Cmr10-82" d="M 1594 -72 
Q 1203 -72 876 133 
Q 550 338 364 680 
Q 178 1022 178 1403 
Q 178 1778 348 2115 
Q 519 2453 823 2661 
Q 1128 2869 1503 2869 
Q 1797 2869 2014 2770 
Q 2231 2672 2372 2497 
Q 2513 2322 2584 2084 
Q 2656 1847 2656 1563 
Q 2656 1478 2591 1478 
L 738 1478 
L 738 1409 
Q 738 878 952 497 
Q 1166 116 1650 116 
Q 1847 116 2014 203 
Q 2181 291 2304 447 
Q 2428 603 2472 781 
Q 2478 803 2495 820 
Q 2513 838 2534 838 
L 2591 838 
Q 2656 838 2656 756 
Q 2566 394 2266 161 
Q 1966 -72 1594 -72 
z
M 744 1638 
L 2203 1638 
Q 2203 1878 2136 2125 
Q 2069 2372 1912 2536 
Q 1756 2700 1503 2700 
Q 1141 2700 942 2361 
Q 744 2022 744 1638 
z
" transform="scale(0.015625)"/>
       <path id="Cmmi10-62" d="M 359 -1472 
Q 359 -1453 366 -1447 
L 2591 4722 
Q 2603 4759 2634 4779 
Q 2666 4800 2706 4800 
Q 2763 4800 2798 4765 
Q 2834 4731 2834 4672 
L 2834 4647 
L 609 -1522 
Q 572 -1600 488 -1600 
Q 434 -1600 396 -1562 
Q 359 -1525 359 -1472 
z
" transform="scale(0.015625)"/>
       <path id="Cmsy10-9" d="M 603 813 
Q 531 813 473 873 
Q 416 934 416 1006 
Q 416 1116 506 1159 
L 1428 1600 
L 506 2034 
Q 416 2072 416 2188 
Q 416 2259 473 2320 
Q 531 2381 603 2381 
Q 650 2381 691 2350 
L 1509 1753 
L 1416 2797 
Q 1416 2875 1469 2925 
Q 1522 2975 1600 2975 
Q 1675 2975 1726 2928 
Q 1778 2881 1778 2809 
L 1778 2797 
L 1684 1753 
L 2503 2350 
Q 2544 2381 2591 2381 
Q 2669 2381 2723 2320 
Q 2778 2259 2778 2188 
Q 2778 2072 2688 2034 
L 1766 1600 
L 2688 1159 
Q 2778 1116 2778 1006 
Q 2778 934 2723 873 
Q 2669 813 2591 813 
Q 2544 813 2503 844 
L 1684 1441 
L 1778 403 
L 1778 384 
Q 1778 313 1723 266 
Q 1669 219 1600 219 
Q 1525 219 1470 270 
Q 1416 322 1416 397 
L 1509 1441 
L 691 844 
Q 650 813 603 813 
z
" transform="scale(0.015625)"/>
      </defs>
      <use xlink:href="#DejaVuSerif-51" transform="translate(0 0.015625)"/>
      <use xlink:href="#DejaVuSerif-52" transform="translate(64.404297 0.015625)"/>
      <use xlink:href="#DejaVuSerif-55" transform="translate(124.609375 0.015625)"/>
      <use xlink:href="#DejaVuSerif-50" transform="translate(172.412109 0.015625)"/>
      <use xlink:href="#DejaVuSerif-44" transform="translate(267.236328 0.015625)"/>
      <use xlink:href="#DejaVuSerif-4f" transform="translate(326.855469 0.015625)"/>
      <use xlink:href="#DejaVuSerif-4c" transform="translate(358.837891 0.015625)"/>
      <use xlink:href="#DejaVuSerif-5d" transform="translate(390.820312 0.015625)"/>
      <use xlink:href="#DejaVuSerif-48" transform="translate(443.505859 0.015625)"/>
      <use xlink:href="#DejaVuSerif-47" transform="translate(502.685547 0.015625)"/>
      <use xlink:href="#DejaVuSerif-3" transform="translate(566.699219 0.015625)"/>
      <use xlink:href="#DejaVuSerif-47" transform="translate(598.486328 0.015625)"/>
      <use xlink:href="#DejaVuSerif-48" transform="translate(662.5 0.015625)"/>
      <use xlink:href="#DejaVuSerif-49" transform="translate(721.679688 0.015625)"/>
      <use xlink:href="#DejaVuSerif-4f" transform="translate(758.691406 0.015625)"/>
      <use xlink:href="#DejaVuSerif-48" transform="translate(790.673828 0.015625)"/>
      <use xlink:href="#DejaVuSerif-46" transform="translate(849.853516 0.015625)"/>
      <use xlink:href="#DejaVuSerif-57" transform="translate(905.859375 0.015625)"/>
      <use xlink:href="#DejaVuSerif-4c" transform="translate(946.044922 0.015625)"/>
      <use xlink:href="#DejaVuSerif-52" transform="translate(978.027344 0.015625)"/>
      <use xlink:href="#DejaVuSerif-51" transform="translate(1038.232422 0.015625)"/>
      <use xlink:href="#DejaVuSerif-3" transform="translate(1102.636719 0.015625)"/>
      <use xlink:href="#DejaVuSerif-3" transform="translate(1134.423828 0.015625)"/>
      <use xlink:href="#Cmsy10-2f" transform="translate(1166.210938 0.015625)"/>
      <use xlink:href="#Cmmi10-60" transform="translate(1193.896484 0.015625)"/>
      <use xlink:href="#Cmr10-84" transform="translate(1251.074219 -14.984337) scale(0.7)"/>
      <use xlink:href="#Cmr10-82" transform="translate(1278.452148 -14.984337) scale(0.7)"/>
      <use xlink:href="#Cmr10-50" transform="translate(1309.521484 -14.984337) scale(0.7)"/>
      <use xlink:href="#Cmsy10-2f" transform="translate(1336.604205 0.015625)"/>
      <use xlink:href="#Cmmi10-62" transform="translate(1364.289751 0.015625)"/>
      <use xlink:href="#Cmmi10-60" transform="translate(1414.289751 0.015625)"/>
      <use xlink:href="#Cmsy10-9" transform="translate(1482.727668 41.304859) scale(0.7)"/>
     </g>
    </g>
   </g>
   <g id="line2d_59">
    <path d="M 94.919199 367.880727 
L 121.961509 116.941091 
L 144.825456 71.949541 
L 164.631107 62.336506 
L 182.10093 59.868194 
L 197.72822 59.11673 
L 224.770529 58.747546 
L 247.634476 58.677537 
L 267.440128 58.659063 
L 300.53724 58.650634 
L 327.57955 58.649089 
L 370.249149 58.648493 
L 403.346261 58.648571 
L 430.388571 58.648659 
" clip-path="url(#pa39840d408)" style="fill: none; stroke: #006400; stroke-width: 1.1; stroke-linecap: square"/>
    <defs>
     <path id="mebdbae1003" d="M -2.5 2.5 
L 2.5 2.5 
L 2.5 -2.5 
L -2.5 -2.5 
z
" style="stroke: #006400; stroke-width: 1.1; stroke-linejoin: miter"/>
    </defs>
    <g clip-path="url(#pa39840d408)">
     <use xlink:href="#mebdbae1003" x="94.919199" y="367.880727" style="fill-opacity: 0; stroke: #006400; stroke-width: 1.1; stroke-linejoin: miter"/>
     <use xlink:href="#mebdbae1003" x="121.961509" y="116.941091" style="fill-opacity: 0; stroke: #006400; stroke-width: 1.1; stroke-linejoin: miter"/>
     <use xlink:href="#mebdbae1003" x="144.825456" y="71.949541" style="fill-opacity: 0; stroke: #006400; stroke-width: 1.1; stroke-linejoin: miter"/>
     <use xlink:href="#mebdbae1003" x="164.631107" y="62.336506" style="fill-opacity: 0; stroke: #006400; stroke-width: 1.1; stroke-linejoin: miter"/>
     <use xlink:href="#mebdbae1003" x="182.10093" y="59.868194" style="fill-opacity: 0; stroke: #006400; stroke-width: 1.1; stroke-linejoin: miter"/>
     <use xlink:href="#mebdbae1003" x="197.72822" y="59.11673" style="fill-opacity: 0; stroke: #006400; stroke-width: 1.1; stroke-linejoin: miter"/>
     <use xlink:href="#mebdbae1003" x="224.770529" y="58.747546" style="fill-opacity: 0; stroke: #006400; stroke-width: 1.1; stroke-linejoin: miter"/>
     <use xlink:href="#mebdbae1003" x="247.634476" y="58.677537" style="fill-opacity: 0; stroke: #006400; stroke-width: 1.1; stroke-linejoin: miter"/>
     <use xlink:href="#mebdbae1003" x="267.440128" y="58.659063" style="fill-opacity: 0; stroke: #006400; stroke-width: 1.1; stroke-linejoin: miter"/>
     <use xlink:href="#mebdbae1003" x="300.53724" y="58.650634" style="fill-opacity: 0; stroke: #006400; stroke-width: 1.1; stroke-linejoin: miter"/>
     <use xlink:href="#mebdbae1003" x="327.57955" y="58.649089" style="fill-opacity: 0; stroke: #006400; stroke-width: 1.1; stroke-linejoin: miter"/>
     <use xlink:href="#mebdbae1003" x="370.249149" y="58.648493" style="fill-opacity: 0; stroke: #006400; stroke-width: 1.1; stroke-linejoin: miter"/>
     <use xlink:href="#mebdbae1003" x="403.346261" y="58.648571" style="fill-opacity: 0; stroke: #006400; stroke-width: 1.1; stroke-linejoin: miter"/>
     <use xlink:href="#mebdbae1003" x="430.388571" y="58.648659" style="fill-opacity: 0; stroke: #006400; stroke-width: 1.1; stroke-linejoin: miter"/>
    </g>
   </g>
   <g id="line2d_60">
    <path d="M 116.253998 365.187257 
L 143.296308 113.395861 
L 166.160255 67.544969 
L 185.965907 57.028921 
L 203.43573 53.650809 
L 219.063019 51.982035 
L 246.105329 49.806774 
L 268.969276 47.979641 
L 288.774928 46.26463 
L 321.87204 43.073927 
L 348.914349 40.200941 
L 391.583948 35.42715 
L 424.68106 31.847899 
L 451.72337 29.239648 
" clip-path="url(#pa39840d408)" style="fill: none; stroke: #000000; stroke-width: 1.1; stroke-linecap: square"/>
    <defs>
     <path id="m9aba5a52fb" d="M -2.5 2.5 
L 2.5 2.5 
L 2.5 -2.5 
L -2.5 -2.5 
z
" style="stroke: #000000; stroke-width: 1.1; stroke-linejoin: miter"/>
    </defs>
    <g clip-path="url(#pa39840d408)">
     <use xlink:href="#m9aba5a52fb" x="116.253998" y="365.187257" style="fill-opacity: 0; stroke: #000000; stroke-width: 1.1; stroke-linejoin: miter"/>
     <use xlink:href="#m9aba5a52fb" x="143.296308" y="113.395861" style="fill-opacity: 0; stroke: #000000; stroke-width: 1.1; stroke-linejoin: miter"/>
     <use xlink:href="#m9aba5a52fb" x="166.160255" y="67.544969" style="fill-opacity: 0; stroke: #000000; stroke-width: 1.1; stroke-linejoin: miter"/>
     <use xlink:href="#m9aba5a52fb" x="185.965907" y="57.028921" style="fill-opacity: 0; stroke: #000000; stroke-width: 1.1; stroke-linejoin: miter"/>
     <use xlink:href="#m9aba5a52fb" x="203.43573" y="53.650809" style="fill-opacity: 0; stroke: #000000; stroke-width: 1.1; stroke-linejoin: miter"/>
     <use xlink:href="#m9aba5a52fb" x="219.063019" y="51.982035" style="fill-opacity: 0; stroke: #000000; stroke-width: 1.1; stroke-linejoin: miter"/>
     <use xlink:href="#m9aba5a52fb" x="246.105329" y="49.806774" style="fill-opacity: 0; stroke: #000000; stroke-width: 1.1; stroke-linejoin: miter"/>
     <use xlink:href="#m9aba5a52fb" x="268.969276" y="47.979641" style="fill-opacity: 0; stroke: #000000; stroke-width: 1.1; stroke-linejoin: miter"/>
     <use xlink:href="#m9aba5a52fb" x="288.774928" y="46.26463" style="fill-opacity: 0; stroke: #000000; stroke-width: 1.1; stroke-linejoin: miter"/>
     <use xlink:href="#m9aba5a52fb" x="321.87204" y="43.073927" style="fill-opacity: 0; stroke: #000000; stroke-width: 1.1; stroke-linejoin: miter"/>
     <use xlink:href="#m9aba5a52fb" x="348.914349" y="40.200941" style="fill-opacity: 0; stroke: #000000; stroke-width: 1.1; stroke-linejoin: miter"/>
     <use xlink:href="#m9aba5a52fb" x="391.583948" y="35.42715" style="fill-opacity: 0; stroke: #000000; stroke-width: 1.1; stroke-linejoin: miter"/>
     <use xlink:href="#m9aba5a52fb" x="424.68106" y="31.847899" style="fill-opacity: 0; stroke: #000000; stroke-width: 1.1; stroke-linejoin: miter"/>
     <use xlink:href="#m9aba5a52fb" x="451.72337" y="29.239648" style="fill-opacity: 0; stroke: #000000; stroke-width: 1.1; stroke-linejoin: miter"/>
    </g>
   </g>
   <g id="line2d_61">
    <path d="M 132.802554 363.294257 
L 159.844864 111.72553 
L 182.708811 65.282149 
L 202.514463 54.298515 
L 219.984286 50.429953 
L 235.611575 48.313544 
L 262.653885 45.303281 
L 285.517832 42.757406 
L 305.323484 40.447278 
L 338.420596 36.437616 
L 365.462905 33.194126 
L 408.132504 28.642403 
L 441.229616 25.944282 
L 468.271926 24.375273 
" clip-path="url(#pa39840d408)" style="fill: none; stroke: #8b0000; stroke-width: 1.1; stroke-linecap: square"/>
    <defs>
     <path id="m6460acc42a" d="M -2.5 2.5 
L 2.5 2.5 
L 2.5 -2.5 
L -2.5 -2.5 
z
" style="stroke: #8b0000; stroke-width: 1.1; stroke-linejoin: miter"/>
    </defs>
    <g clip-path="url(#pa39840d408)">
     <use xlink:href="#m6460acc42a" x="132.802554" y="363.294257" style="fill-opacity: 0; stroke: #8b0000; stroke-width: 1.1; stroke-linejoin: miter"/>
     <use xlink:href="#m6460acc42a" x="159.844864" y="111.72553" style="fill-opacity: 0; stroke: #8b0000; stroke-width: 1.1; stroke-linejoin: miter"/>
     <use xlink:href="#m6460acc42a" x="182.708811" y="65.282149" style="fill-opacity: 0; stroke: #8b0000; stroke-width: 1.1; stroke-linejoin: miter"/>
     <use xlink:href="#m6460acc42a" x="202.514463" y="54.298515" style="fill-opacity: 0; stroke: #8b0000; stroke-width: 1.1; stroke-linejoin: miter"/>
     <use xlink:href="#m6460acc42a" x="219.984286" y="50.429953" style="fill-opacity: 0; stroke: #8b0000; stroke-width: 1.1; stroke-linejoin: miter"/>
     <use xlink:href="#m6460acc42a" x="235.611575" y="48.313544" style="fill-opacity: 0; stroke: #8b0000; stroke-width: 1.1; stroke-linejoin: miter"/>
     <use xlink:href="#m6460acc42a" x="262.653885" y="45.303281" style="fill-opacity: 0; stroke: #8b0000; stroke-width: 1.1; stroke-linejoin: miter"/>
     <use xlink:href="#m6460acc42a" x="285.517832" y="42.757406" style="fill-opacity: 0; stroke: #8b0000; stroke-width: 1.1; stroke-linejoin: miter"/>
     <use xlink:href="#m6460acc42a" x="305.323484" y="40.447278" style="fill-opacity: 0; stroke: #8b0000; stroke-width: 1.1; stroke-linejoin: miter"/>
     <use xlink:href="#m6460acc42a" x="338.420596" y="36.437616" style="fill-opacity: 0; stroke: #8b0000; stroke-width: 1.1; stroke-linejoin: miter"/>
     <use xlink:href="#m6460acc42a" x="365.462905" y="33.194126" style="fill-opacity: 0; stroke: #8b0000; stroke-width: 1.1; stroke-linejoin: miter"/>
     <use xlink:href="#m6460acc42a" x="408.132504" y="28.642403" style="fill-opacity: 0; stroke: #8b0000; stroke-width: 1.1; stroke-linejoin: miter"/>
     <use xlink:href="#m6460acc42a" x="441.229616" y="25.944282" style="fill-opacity: 0; stroke: #8b0000; stroke-width: 1.1; stroke-linejoin: miter"/>
     <use xlink:href="#m6460acc42a" x="468.271926" y="24.375273" style="fill-opacity: 0; stroke: #8b0000; stroke-width: 1.1; stroke-linejoin: miter"/>
    </g>
   </g>
   <g id="patch_3">
    <path d="M 76.251563 385.056 
L 76.251563 7.2 
" style="fill: none; stroke: #000000; stroke-width: 0.8; stroke-linejoin: miter; stroke-linecap: square"/>
   </g>
   <g id="patch_4">
    <path d="M 486.939563 385.056 
L 486.939563 7.2 
" style="fill: none; stroke: #000000; stroke-width: 0.8; stroke-linejoin: miter; stroke-linecap: square"/>
   </g>
   <g id="patch_5">
    <path d="M 76.251563 385.056 
L 486.939563 385.056 
" style="fill: none; stroke: #000000; stroke-width: 0.8; stroke-linejoin: miter; stroke-linecap: square"/>
   </g>
   <g id="patch_6">
    <path d="M 76.251563 7.2 
L 486.939563 7.2 
" style="fill: none; stroke: #000000; stroke-width: 0.8; stroke-linejoin: miter; stroke-linecap: square"/>
   </g>
   <g id="text_11">
    <!-- $0.3020$ -->
    <g transform="translate(82.411883 34.851904) scale(0.16 -0.16)">
     <defs>
      <path id="Cmr10-28" d="M 1600 -141 
Q 816 -141 533 504 
Q 250 1150 250 2041 
Q 250 2597 351 3087 
Q 453 3578 754 3920 
Q 1056 4263 1600 4263 
Q 2022 4263 2290 4056 
Q 2559 3850 2700 3523 
Q 2841 3197 2892 2823 
Q 2944 2450 2944 2041 
Q 2944 1491 2842 1011 
Q 2741 531 2444 195 
Q 2147 -141 1600 -141 
z
M 1600 25 
Q 1956 25 2131 390 
Q 2306 756 2347 1200 
Q 2388 1644 2388 2144 
Q 2388 2625 2347 3031 
Q 2306 3438 2132 3767 
Q 1959 4097 1600 4097 
Q 1238 4097 1063 3765 
Q 888 3434 847 3029 
Q 806 2625 806 2144 
Q 806 1788 823 1472 
Q 841 1156 916 820 
Q 991 484 1158 254 
Q 1325 25 1600 25 
z
" transform="scale(0.015625)"/>
      <path id="Cmmi10-33" d="M 538 353 
Q 538 497 644 600 
Q 750 703 891 703 
Q 978 703 1062 656 
Q 1147 609 1194 525 
Q 1241 441 1241 353 
Q 1241 213 1137 106 
Q 1034 0 891 0 
Q 750 0 644 106 
Q 538 213 538 353 
z
" transform="scale(0.015625)"/>
      <path id="Cmr10-6e" d="M 609 494 
Q 759 275 1012 169 
Q 1266 63 1556 63 
Q 1928 63 2084 380 
Q 2241 697 2241 1100 
Q 2241 1281 2208 1462 
Q 2175 1644 2097 1800 
Q 2019 1956 1883 2050 
Q 1747 2144 1550 2144 
L 1125 2144 
Q 1069 2144 1069 2203 
L 1069 2259 
Q 1069 2309 1125 2309 
L 1478 2338 
Q 1703 2338 1851 2506 
Q 2000 2675 2069 2917 
Q 2138 3159 2138 3378 
Q 2138 3684 1994 3881 
Q 1850 4078 1556 4078 
Q 1313 4078 1091 3986 
Q 869 3894 738 3706 
Q 750 3709 759 3711 
Q 769 3713 781 3713 
Q 925 3713 1022 3613 
Q 1119 3513 1119 3372 
Q 1119 3234 1022 3134 
Q 925 3034 781 3034 
Q 641 3034 541 3134 
Q 441 3234 441 3372 
Q 441 3647 606 3850 
Q 772 4053 1033 4158 
Q 1294 4263 1556 4263 
Q 1750 4263 1965 4205 
Q 2181 4147 2356 4039 
Q 2531 3931 2642 3762 
Q 2753 3594 2753 3378 
Q 2753 3109 2633 2881 
Q 2513 2653 2303 2487 
Q 2094 2322 1844 2241 
Q 2122 2188 2372 2031 
Q 2622 1875 2773 1631 
Q 2925 1388 2925 1106 
Q 2925 753 2731 467 
Q 2538 181 2222 20 
Q 1906 -141 1556 -141 
Q 1256 -141 954 -26 
Q 653 88 461 316 
Q 269 544 269 863 
Q 269 1022 375 1128 
Q 481 1234 641 1234 
Q 744 1234 830 1186 
Q 916 1138 964 1050 
Q 1013 963 1013 863 
Q 1013 706 903 600 
Q 794 494 641 494 
L 609 494 
z
" transform="scale(0.015625)"/>
      <path id="Cmr10-31" d="M 319 0 
L 319 172 
Q 319 188 331 206 
L 1325 1306 
Q 1550 1550 1690 1715 
Q 1831 1881 1968 2097 
Q 2106 2313 2186 2536 
Q 2266 2759 2266 3009 
Q 2266 3272 2169 3511 
Q 2072 3750 1880 3894 
Q 1688 4038 1416 4038 
Q 1138 4038 916 3870 
Q 694 3703 603 3438 
Q 628 3444 672 3444 
Q 816 3444 917 3347 
Q 1019 3250 1019 3097 
Q 1019 2950 917 2848 
Q 816 2747 672 2747 
Q 522 2747 420 2851 
Q 319 2956 319 3097 
Q 319 3338 409 3548 
Q 500 3759 670 3923 
Q 841 4088 1055 4175 
Q 1269 4263 1509 4263 
Q 1875 4263 2190 4108 
Q 2506 3953 2690 3670 
Q 2875 3388 2875 3009 
Q 2875 2731 2753 2481 
Q 2631 2231 2440 2026 
Q 2250 1822 1953 1562 
Q 1656 1303 1563 1216 
L 838 519 
L 1453 519 
Q 1906 519 2211 526 
Q 2516 534 2534 550 
Q 2609 631 2688 1141 
L 2875 1141 
L 2694 0 
L 319 0 
z
" transform="scale(0.015625)"/>
     </defs>
     <use xlink:href="#Cmr10-28" transform="translate(0 0.390625)"/>
     <use xlink:href="#Cmmi10-33" transform="translate(50 0.390625)"/>
     <use xlink:href="#Cmr10-6e" transform="translate(77.685547 0.390625)"/>
     <use xlink:href="#Cmr10-28" transform="translate(127.685547 0.390625)"/>
     <use xlink:href="#Cmr10-31" transform="translate(177.685547 0.390625)"/>
     <use xlink:href="#Cmr10-28" transform="translate(227.685547 0.390625)"/>
    </g>
   </g>
   <g id="text_12">
    <!-- $0.3006$ -->
    <g transform="translate(82.411883 70.612352) scale(0.16 -0.16)">
     <defs>
      <path id="Cmr10-45" d="M 1600 -141 
Q 1203 -141 937 70 
Q 672 281 526 617 
Q 381 953 325 1322 
Q 269 1691 269 2069 
Q 269 2575 466 3084 
Q 663 3594 1045 3928 
Q 1428 4263 1953 4263 
Q 2172 4263 2361 4180 
Q 2550 4097 2658 3936 
Q 2766 3775 2766 3547 
Q 2766 3416 2677 3327 
Q 2588 3238 2456 3238 
Q 2331 3238 2240 3328 
Q 2150 3419 2150 3547 
Q 2150 3672 2240 3762 
Q 2331 3853 2456 3853 
L 2491 3853 
Q 2409 3969 2261 4023 
Q 2113 4078 1953 4078 
Q 1759 4078 1595 3993 
Q 1431 3909 1300 3765 
Q 1169 3622 1081 3448 
Q 994 3275 945 3053 
Q 897 2831 884 2637 
Q 872 2444 872 2150 
Q 984 2413 1190 2580 
Q 1397 2747 1656 2747 
Q 1941 2747 2175 2631 
Q 2409 2516 2578 2311 
Q 2747 2106 2836 1843 
Q 2925 1581 2925 1313 
Q 2925 938 2758 598 
Q 2591 259 2287 59 
Q 1984 -141 1600 -141 
z
M 1600 63 
Q 1847 63 1997 175 
Q 2147 288 2217 473 
Q 2288 659 2305 848 
Q 2322 1038 2322 1313 
Q 2322 1675 2287 1931 
Q 2253 2188 2100 2383 
Q 1947 2578 1631 2578 
Q 1372 2578 1205 2403 
Q 1038 2228 961 1961 
Q 884 1694 884 1447 
Q 884 1363 891 1319 
Q 891 1309 889 1303 
Q 888 1297 884 1288 
Q 884 1013 940 731 
Q 997 450 1156 256 
Q 1316 63 1600 63 
z
" transform="scale(0.015625)"/>
     </defs>
     <use xlink:href="#Cmr10-28" transform="translate(0 0.390625)"/>
     <use xlink:href="#Cmmi10-33" transform="translate(50 0.390625)"/>
     <use xlink:href="#Cmr10-6e" transform="translate(77.685547 0.390625)"/>
     <use xlink:href="#Cmr10-28" transform="translate(127.685547 0.390625)"/>
     <use xlink:href="#Cmr10-28" transform="translate(177.685547 0.390625)"/>
     <use xlink:href="#Cmr10-45" transform="translate(227.685547 0.390625)"/>
    </g>
   </g>
   <g id="legend_1">
    <g id="patch_7">
     <path d="M 506.353322 136.81625 
L 653.408322 136.81625 
Q 656.608322 136.81625 656.608322 133.61625 
L 656.608322 18.4 
Q 656.608322 15.2 653.408322 15.2 
L 506.353322 15.2 
Q 503.153323 15.2 503.153323 18.4 
L 503.153323 133.61625 
Q 503.153323 136.81625 506.353322 136.81625 
z
" style="fill: #ffffff; opacity: 0.8; stroke: #cccccc; stroke-linejoin: miter"/>
    </g>
    <g id="line2d_62">
     <path d="M 509.553322 41.2825 
L 525.553322 41.2825 
L 541.553322 41.2825 
" style="fill: none; stroke: #006400; stroke-width: 1.1; stroke-linecap: square"/>
     <defs>
      <path id="mde555c3f27" d="M -3 3 
L 3 3 
L 3 -3 
L -3 -3 
z
" style="stroke: #006400; stroke-width: 1.1; stroke-linejoin: miter"/>
     </defs>
     <g>
      <use xlink:href="#mde555c3f27" x="525.553322" y="41.2825" style="fill-opacity: 0; stroke: #006400; stroke-width: 1.1; stroke-linejoin: miter"/>
     </g>
    </g>
    <g id="text_13">
     <!-- KL-3p -->
     <g transform="translate(554.353322 35.357813) scale(0.16 -0.16)">
      <defs>
       <path id="DejaVuSerif-2e" d="M 353 0 
L 353 331 
L 947 331 
L 947 4331 
L 353 4331 
L 353 4666 
L 2175 4666 
L 2175 4331 
L 1581 4331 
L 1581 2566 
L 3591 4331 
L 3084 4331 
L 3084 4666 
L 4634 4666 
L 4634 4331 
L 4109 4331 
L 2106 2572 
L 4347 331 
L 4878 331 
L 4878 0 
L 3794 0 
L 1581 2216 
L 1581 331 
L 2175 331 
L 2175 0 
L 353 0 
z
" transform="scale(0.015625)"/>
       <path id="DejaVuSerif-2f" d="M 353 0 
L 353 331 
L 947 331 
L 947 4331 
L 353 4331 
L 353 4666 
L 2175 4666 
L 2175 4331 
L 1581 4331 
L 1581 384 
L 3713 384 
L 3713 1166 
L 4097 1166 
L 4097 0 
L 353 0 
z
" transform="scale(0.015625)"/>
       <path id="DejaVuSerif-10" d="M 281 1959 
L 1881 1959 
L 1881 1472 
L 281 1472 
L 281 1959 
z
" transform="scale(0.015625)"/>
       <path id="DejaVuSerif-53" d="M 1313 1825 
L 1313 1497 
Q 1313 897 1542 583 
Q 1772 269 2209 269 
Q 2650 269 2876 622 
Q 3103 975 3103 1663 
Q 3103 2353 2876 2703 
Q 2650 3053 2209 3053 
Q 1772 3053 1542 2737 
Q 1313 2422 1313 1825 
z
M 738 2988 
L 184 2988 
L 184 3322 
L 1313 3322 
L 1313 2803 
Q 1481 3116 1742 3264 
Q 2003 3413 2388 3413 
Q 3000 3413 3387 2928 
Q 3775 2444 3775 1663 
Q 3775 881 3387 395 
Q 3000 -91 2388 -91 
Q 2003 -91 1742 57 
Q 1481 206 1313 519 
L 1313 -997 
L 1856 -997 
L 1856 -1331 
L 184 -1331 
L 184 -997 
L 738 -997 
L 738 2988 
z
" transform="scale(0.015625)"/>
      </defs>
      <use xlink:href="#DejaVuSerif-2e"/>
      <use xlink:href="#DejaVuSerif-2f" transform="translate(74.703125 0)"/>
      <use xlink:href="#DejaVuSerif-10" transform="translate(141.109375 0)"/>
      <use xlink:href="#DejaVuSerif-16" transform="translate(174.90625 0)"/>
      <use xlink:href="#DejaVuSerif-53" transform="translate(238.53125 0)"/>
     </g>
     <!-- (Kiendl) -->
     <g transform="translate(554.353322 54.562188) scale(0.16 -0.16)">
      <defs>
       <path id="DejaVuSerif-b" d="M 2041 -997 
Q 1281 -656 893 83 
Q 506 822 506 1931 
Q 506 3044 893 3783 
Q 1281 4522 2041 4863 
L 2041 4556 
Q 1559 4225 1350 3623 
Q 1141 3022 1141 1931 
Q 1141 844 1350 242 
Q 1559 -359 2041 -691 
L 2041 -997 
z
" transform="scale(0.015625)"/>
       <path id="DejaVuSerif-c" d="M 453 -997 
L 453 -691 
Q 934 -359 1145 242 
Q 1356 844 1356 1931 
Q 1356 3022 1145 3623 
Q 934 4225 453 4556 
L 453 4863 
Q 1216 4522 1603 3783 
Q 1991 3044 1991 1931 
Q 1991 822 1603 83 
Q 1216 -656 453 -997 
z
" transform="scale(0.015625)"/>
      </defs>
      <use xlink:href="#DejaVuSerif-b"/>
      <use xlink:href="#DejaVuSerif-2e" transform="translate(39.015625 0)"/>
      <use xlink:href="#DejaVuSerif-4c" transform="translate(113.71875 0)"/>
      <use xlink:href="#DejaVuSerif-48" transform="translate(145.703125 0)"/>
      <use xlink:href="#DejaVuSerif-51" transform="translate(204.890625 0)"/>
      <use xlink:href="#DejaVuSerif-47" transform="translate(269.296875 0)"/>
      <use xlink:href="#DejaVuSerif-4f" transform="translate(333.3125 0)"/>
      <use xlink:href="#DejaVuSerif-c" transform="translate(365.296875 0)"/>
     </g>
    </g>
    <g id="line2d_63">
     <path d="M 509.553322 74.565 
L 525.553322 74.565 
L 541.553322 74.565 
" style="fill: none; stroke: #000000; stroke-width: 1.1; stroke-linecap: square"/>
     <defs>
      <path id="mf10c9512c8" d="M -3 3 
L 3 3 
L 3 -3 
L -3 -3 
z
" style="stroke: #000000; stroke-width: 1.1; stroke-linejoin: miter"/>
     </defs>
     <g>
      <use xlink:href="#mf10c9512c8" x="525.553322" y="74.565" style="fill-opacity: 0; stroke: #000000; stroke-width: 1.1; stroke-linejoin: miter"/>
     </g>
    </g>
    <g id="text_14">
     <!-- RM-Hier-4p -->
     <g transform="translate(554.353322 80.165) scale(0.16 -0.16)">
      <defs>
       <path id="DejaVuSerif-35" d="M 3066 2316 
Q 3284 2256 3442 2114 
Q 3600 1972 3725 1716 
L 4403 331 
L 4972 331 
L 4972 0 
L 3872 0 
L 3144 1484 
Q 2934 1916 2759 2042 
Q 2584 2169 2278 2169 
L 1581 2169 
L 1581 331 
L 2241 331 
L 2241 0 
L 353 0 
L 353 331 
L 947 331 
L 947 4331 
L 353 4331 
L 353 4666 
L 2719 4666 
Q 3400 4666 3770 4341 
Q 4141 4016 4141 3419 
Q 4141 2938 3870 2661 
Q 3600 2384 3066 2316 
z
M 1581 2503 
L 2503 2503 
Q 2975 2503 3200 2726 
Q 3425 2950 3425 3419 
Q 3425 3888 3200 4109 
Q 2975 4331 2503 4331 
L 1581 4331 
L 1581 2503 
z
" transform="scale(0.015625)"/>
       <path id="DejaVuSerif-30" d="M 353 0 
L 353 331 
L 947 331 
L 947 4331 
L 319 4331 
L 319 4666 
L 1678 4666 
L 3316 1344 
L 4953 4666 
L 6228 4666 
L 6228 4331 
L 5606 4331 
L 5606 331 
L 6203 331 
L 6203 0 
L 4378 0 
L 4378 331 
L 4972 331 
L 4972 3938 
L 3372 684 
L 2931 684 
L 1331 3938 
L 1331 331 
L 1925 331 
L 1925 0 
L 353 0 
z
" transform="scale(0.015625)"/>
       <path id="DejaVuSerif-2b" d="M 353 0 
L 353 331 
L 947 331 
L 947 4331 
L 353 4331 
L 353 4666 
L 2175 4666 
L 2175 4331 
L 1581 4331 
L 1581 2719 
L 4000 2719 
L 4000 4331 
L 3406 4331 
L 3406 4666 
L 5228 4666 
L 5228 4331 
L 4634 4331 
L 4634 331 
L 5228 331 
L 5228 0 
L 3406 0 
L 3406 331 
L 4000 331 
L 4000 2338 
L 1581 2338 
L 1581 331 
L 2175 331 
L 2175 0 
L 353 0 
z
" transform="scale(0.015625)"/>
      </defs>
      <use xlink:href="#DejaVuSerif-35"/>
      <use xlink:href="#DejaVuSerif-30" transform="translate(75.296875 0)"/>
      <use xlink:href="#DejaVuSerif-10" transform="translate(177.6875 0)"/>
      <use xlink:href="#DejaVuSerif-2b" transform="translate(211.484375 0)"/>
      <use xlink:href="#DejaVuSerif-4c" transform="translate(298.6875 0)"/>
      <use xlink:href="#DejaVuSerif-48" transform="translate(330.671875 0)"/>
      <use xlink:href="#DejaVuSerif-55" transform="translate(389.859375 0)"/>
      <use xlink:href="#DejaVuSerif-10" transform="translate(437.65625 0)"/>
      <use xlink:href="#DejaVuSerif-17" transform="translate(471.453125 0)"/>
      <use xlink:href="#DejaVuSerif-53" transform="translate(535.078125 0)"/>
     </g>
    </g>
    <g id="line2d_64">
     <path d="M 509.553322 111.69125 
L 525.553322 111.69125 
L 541.553322 111.69125 
" style="fill: none; stroke: #8b0000; stroke-width: 1.1; stroke-linecap: square"/>
     <defs>
      <path id="mb690ded9da" d="M -3 3 
L 3 3 
L 3 -3 
L -3 -3 
z
" style="stroke: #8b0000; stroke-width: 1.1; stroke-linejoin: miter"/>
     </defs>
     <g>
      <use xlink:href="#mb690ded9da" x="525.553322" y="111.69125" style="fill-opacity: 0; stroke: #8b0000; stroke-width: 1.1; stroke-linejoin: miter"/>
     </g>
    </g>
    <g id="text_15">
     <!-- RM-Hier-5p -->
     <g transform="translate(554.353322 105.766563) scale(0.16 -0.16)">
      <defs>
       <path id="DejaVuSerif-18" d="M 3219 4666 
L 3219 4153 
L 1081 4153 
L 1081 2816 
Q 1244 2928 1461 2984 
Q 1678 3041 1947 3041 
Q 2703 3041 3140 2622 
Q 3578 2203 3578 1478 
Q 3578 738 3136 323 
Q 2694 -91 1894 -91 
Q 1572 -91 1234 -12 
Q 897 66 544 225 
L 544 1131 
L 897 1131 
Q 925 688 1179 453 
Q 1434 219 1894 219 
Q 2388 219 2653 544 
Q 2919 869 2919 1478 
Q 2919 2084 2655 2407 
Q 2391 2731 1894 2731 
Q 1613 2731 1398 2631 
Q 1184 2531 1019 2322 
L 750 2322 
L 750 4666 
L 3219 4666 
z
" transform="scale(0.015625)"/>
      </defs>
      <use xlink:href="#DejaVuSerif-35"/>
      <use xlink:href="#DejaVuSerif-30" transform="translate(75.296875 0)"/>
      <use xlink:href="#DejaVuSerif-10" transform="translate(177.6875 0)"/>
      <use xlink:href="#DejaVuSerif-2b" transform="translate(211.484375 0)"/>
      <use xlink:href="#DejaVuSerif-4c" transform="translate(298.6875 0)"/>
      <use xlink:href="#DejaVuSerif-48" transform="translate(330.671875 0)"/>
      <use xlink:href="#DejaVuSerif-55" transform="translate(389.859375 0)"/>
      <use xlink:href="#DejaVuSerif-10" transform="translate(437.65625 0)"/>
      <use xlink:href="#DejaVuSerif-18" transform="translate(471.453125 0)"/>
      <use xlink:href="#DejaVuSerif-53" transform="translate(535.078125 0)"/>
     </g>
     <!-- (Oesterle) -->
     <g transform="translate(554.353322 124.970938) scale(0.16 -0.16)">
      <defs>
       <path id="DejaVuSerif-32" d="M 2625 244 
Q 3391 244 3781 770 
Q 4172 1297 4172 2328 
Q 4172 3363 3781 3889 
Q 3391 4416 2625 4416 
Q 1856 4416 1465 3889 
Q 1075 3363 1075 2328 
Q 1075 1297 1465 770 
Q 1856 244 2625 244 
z
M 2625 -91 
Q 2150 -91 1751 65 
Q 1353 222 1050 525 
Q 700 875 529 1319 
Q 359 1763 359 2328 
Q 359 2894 529 3339 
Q 700 3784 1050 4134 
Q 1356 4441 1750 4595 
Q 2144 4750 2625 4750 
Q 3641 4750 4266 4084 
Q 4891 3419 4891 2328 
Q 4891 1769 4719 1320 
Q 4547 872 4197 525 
Q 3891 219 3497 64 
Q 3103 -91 2625 -91 
z
" transform="scale(0.015625)"/>
      </defs>
      <use xlink:href="#DejaVuSerif-b"/>
      <use xlink:href="#DejaVuSerif-32" transform="translate(39.015625 0)"/>
      <use xlink:href="#DejaVuSerif-48" transform="translate(121 0)"/>
      <use xlink:href="#DejaVuSerif-56" transform="translate(180.1875 0)"/>
      <use xlink:href="#DejaVuSerif-57" transform="translate(231.5 0)"/>
      <use xlink:href="#DejaVuSerif-48" transform="translate(271.6875 0)"/>
      <use xlink:href="#DejaVuSerif-55" transform="translate(330.875 0)"/>
      <use xlink:href="#DejaVuSerif-4f" transform="translate(378.671875 0)"/>
      <use xlink:href="#DejaVuSerif-48" transform="translate(410.65625 0)"/>
      <use xlink:href="#DejaVuSerif-c" transform="translate(469.84375 0)"/>
     </g>
    </g>
   </g>
  </g>
 </g>
 <defs>
  <clipPath id="pa39840d408">
   <rect x="76.251563" y="7.2" width="410.688" height="377.856"/>
  </clipPath>
 </defs>
</svg>
