<?xml version="1.0" encoding="utf-8" standalone="no"?>
<!DOCTYPE svg PUBLIC "-//W3C//DTD SVG 1.1//EN"
  "http://www.w3.org/Graphics/SVG/1.1/DTD/svg11.dtd">
<svg xmlns:xlink="http://www.w3.org/1999/xlink" width="602.913228pt" height="436.16833pt" viewBox="0 0 602.913228 436.16833" xmlns="http://www.w3.org/2000/svg" version="1.1">
 <metadata>
  <rdf:RDF xmlns:dc="http://purl.org/dc/elements/1.1/" xmlns:cc="http://creativecommons.org/ns#" xmlns:rdf="http://www.w3.org/1999/02/22-rdf-syntax-ns#">
   <cc:Work>
    <dc:type rdf:resource="http://purl.org/dc/dcmitype/StillImage"/>
    <dc:date>2026-06-18T19:54:49.433126</dc:date>
    <dc:format>image/svg+xml</dc:format>
    <dc:creator>
     <cc:Agent>
      <dc:title>Matplotlib v3.11.0, https://matplotlib.org/</dc:title>
     </cc:Agent>
    </dc:creator>
   </cc:Work>
  </rdf:RDF>
 </metadata>
 <defs>
  <style type="text/css">*{stroke-linejoin: round; stroke-linecap: butt}</style>
 </defs>
 <g id="figure_1">
  <g id="patch_1">
   <path d="M 0 436.16833 
L 602.913228 436.16833 
L 602.913228 0 
L 0 0 
z
" style="fill: #ffffff"/>
  </g>
  <g id="axes_1">
   <g id="patch_2">
    <path d="M 57.202377 385.056 
L 587.122377 385.056 
L 587.122377 7.2 
L 57.202377 7.2 
z
" style="fill: #ffffff"/>
   </g>
   <g id="line2d_1">
    <path d="M 57.202377 25.193143 
L 587.122377 25.193143 
" clip-path="url(#p3b0d24a3fa)" style="fill: none; stroke-dasharray: 7.8,3.9; stroke-dashoffset: 0; stroke: #000000; stroke-width: 1.3"/>
   </g>
   <g id="matplotlib.axis_1">
    <g id="xtick_1">
     <g id="line2d_2">
      <path d="M 76.218645 385.056 
L 76.218645 7.2 
" clip-path="url(#p3b0d24a3fa)" style="fill: none; stroke-dasharray: 2.775,1.2; stroke-dashoffset: 0; stroke: #b0b0b0; stroke-opacity: 0.4; stroke-width: 0.75"/>
     </g>
     <g id="line2d_3">
      <defs>
       <path id="ma47dea6f25" d="M 0 0 
L 0 3.5 
" style="stroke: #000000; stroke-width: 0.8"/>
      </defs>
      <g>
       <use xlink:href="#ma47dea6f25" x="76.218645" y="385.056" style="stroke: #000000; stroke-width: 0.8"/>
      </g>
     </g>
     <g id="text_1">
      <!-- $\mathdefault{0}$ -->
      <g transform="translate(72.089537 403.539594) scale(0.17 -0.17)">
       <defs>
        <path id="Utopia-Regular-10" d="M 1696 4127 
C 2304 4127 2476 3183 2476 2143 
C 2476 1104 2304 160 1696 160 
C 1088 160 915 1104 915 2143 
C 915 3183 1088 4127 1696 4127 
z
M 1696 4352 
C 640 4352 262 3419 262 2143 
C 262 868 640 -64 1696 -64 
C 2752 -64 3129 868 3129 2143 
C 3129 3419 2752 4352 1696 4352 
z
" transform="scale(0.015625)"/>
       </defs>
       <use xlink:href="#Utopia-Regular-10" transform="scale(0.916563)"/>
      </g>
     </g>
    </g>
    <g id="xtick_2">
     <g id="line2d_4">
      <path d="M 177.638741 385.056 
L 177.638741 7.2 
" clip-path="url(#p3b0d24a3fa)" style="fill: none; stroke-dasharray: 2.775,1.2; stroke-dashoffset: 0; stroke: #b0b0b0; stroke-opacity: 0.4; stroke-width: 0.75"/>
     </g>
     <g id="line2d_5">
      <g>
       <use xlink:href="#ma47dea6f25" x="177.638741" y="385.056" style="stroke: #000000; stroke-width: 0.8"/>
      </g>
     </g>
     <g id="text_2">
      <!-- $\mathdefault{20}$ -->
      <g transform="translate(169.377134 403.539594) scale(0.17 -0.17)">
       <defs>
        <path id="Utopia-Regular-12" d="M 3104 844 
L 2924 876 
C 2790 531 2662 486 2406 486 
L 768 486 
C 870 819 1248 1273 1843 1702 
C 2457 2150 2931 2438 2931 3155 
C 2931 4045 2342 4352 1670 4352 
C 793 4352 339 3821 339 3488 
C 339 3270 582 3168 691 3168 
C 806 3168 851 3232 876 3341 
C 979 3776 1228 4127 1625 4127 
C 2118 4127 2259 3712 2259 3244 
C 2259 2560 1913 2176 1356 1683 
C 569 998 294 563 172 64 
L 236 0 
L 2886 0 
L 3104 844 
z
" transform="scale(0.015625)"/>
       </defs>
       <use xlink:href="#Utopia-Regular-12" transform="scale(0.916563)"/>
       <use xlink:href="#Utopia-Regular-10" transform="translate(48.617672 0) scale(0.916563)"/>
      </g>
     </g>
    </g>
    <g id="xtick_3">
     <g id="line2d_6">
      <path d="M 279.058836 385.056 
L 279.058836 7.2 
" clip-path="url(#p3b0d24a3fa)" style="fill: none; stroke-dasharray: 2.775,1.2; stroke-dashoffset: 0; stroke: #b0b0b0; stroke-opacity: 0.4; stroke-width: 0.75"/>
     </g>
     <g id="line2d_7">
      <g>
       <use xlink:href="#ma47dea6f25" x="279.058836" y="385.056" style="stroke: #000000; stroke-width: 0.8"/>
      </g>
     </g>
     <g id="text_3">
      <!-- $\mathdefault{40}$ -->
      <g transform="translate(270.79723 403.539594) scale(0.17 -0.17)">
       <defs>
        <path id="Utopia-Regular-14" d="M 1920 1152 
L 1920 494 
C 1920 275 1849 237 1696 224 
L 1286 185 
L 1286 0 
L 2976 0 
L 2976 185 
L 2688 217 
C 2540 237 2496 275 2496 494 
L 2496 1152 
L 3155 1152 
L 3155 1452 
L 2496 1452 
L 2496 4288 
L 2028 4288 
C 1427 3402 710 2286 121 1286 
L 179 1152 
L 1920 1152 
z
M 582 1452 
C 966 2151 1414 2889 1907 3665 
L 1920 3665 
L 1920 1452 
L 582 1452 
z
" transform="scale(0.015625)"/>
       </defs>
       <use xlink:href="#Utopia-Regular-14" transform="scale(0.916563)"/>
       <use xlink:href="#Utopia-Regular-10" transform="translate(48.617672 0) scale(0.916563)"/>
      </g>
     </g>
    </g>
    <g id="xtick_4">
     <g id="line2d_8">
      <path d="M 380.478932 385.056 
L 380.478932 7.2 
" clip-path="url(#p3b0d24a3fa)" style="fill: none; stroke-dasharray: 2.775,1.2; stroke-dashoffset: 0; stroke: #b0b0b0; stroke-opacity: 0.4; stroke-width: 0.75"/>
     </g>
     <g id="line2d_9">
      <g>
       <use xlink:href="#ma47dea6f25" x="380.478932" y="385.056" style="stroke: #000000; stroke-width: 0.8"/>
      </g>
     </g>
     <g id="text_4">
      <!-- $\mathdefault{60}$ -->
      <g transform="translate(372.217326 403.539594) scale(0.17 -0.17)">
       <defs>
        <path id="Utopia-Regular-16" d="M 1740 -64 
C 2688 -64 3193 508 3193 1371 
C 3193 2228 2636 2707 1971 2694 
C 1484 2707 1100 2355 928 2145 
L 915 2145 
C 921 3555 1324 4127 1900 4127 
C 2195 4127 2400 3877 2496 3510 
C 2515 3433 2566 3375 2662 3375 
C 2803 3375 3001 3485 3001 3665 
C 3001 3922 2688 4352 1920 4352 
C 1414 4352 1056 4159 787 3851 
C 499 3517 281 2900 281 1974 
C 281 604 780 -64 1740 -64 
z
M 1753 2368 
C 2156 2368 2553 2006 2553 1276 
C 2553 610 2291 160 1753 160 
C 1196 160 928 750 928 1511 
C 928 1898 1216 2368 1753 2368 
z
" transform="scale(0.015625)"/>
       </defs>
       <use xlink:href="#Utopia-Regular-16" transform="scale(0.916563)"/>
       <use xlink:href="#Utopia-Regular-10" transform="translate(48.617672 0) scale(0.916563)"/>
      </g>
     </g>
    </g>
    <g id="xtick_5">
     <g id="line2d_10">
      <path d="M 481.899028 385.056 
L 481.899028 7.2 
" clip-path="url(#p3b0d24a3fa)" style="fill: none; stroke-dasharray: 2.775,1.2; stroke-dashoffset: 0; stroke: #b0b0b0; stroke-opacity: 0.4; stroke-width: 0.75"/>
     </g>
     <g id="line2d_11">
      <g>
       <use xlink:href="#ma47dea6f25" x="481.899028" y="385.056" style="stroke: #000000; stroke-width: 0.8"/>
      </g>
     </g>
     <g id="text_5">
      <!-- $\mathdefault{80}$ -->
      <g transform="translate(473.637421 403.539594) scale(0.17 -0.17)">
       <defs>
        <path id="Utopia-Regular-18" d="M 1696 2176 
C 2208 2176 2483 1740 2483 1158 
C 2483 595 2240 160 1696 160 
C 1164 160 908 595 908 1158 
C 908 1740 1190 2176 1696 2176 
z
M 1696 -64 
C 2732 -64 3123 531 3123 1177 
C 3123 1830 2713 2201 2278 2304 
L 2278 2323 
C 2668 2425 2982 2749 2982 3270 
C 2982 3962 2438 4352 1696 4352 
C 966 4352 409 3956 409 3270 
C 409 2749 729 2425 1113 2323 
L 1113 2304 
C 684 2201 268 1830 268 1177 
C 268 531 652 -64 1696 -64 
z
M 1696 2406 
C 1235 2406 1030 2851 1030 3283 
C 1030 3772 1260 4127 1696 4127 
C 2131 4127 2348 3772 2361 3283 
C 2361 2851 2163 2406 1696 2406 
z
" transform="scale(0.015625)"/>
       </defs>
       <use xlink:href="#Utopia-Regular-18" transform="scale(0.916563)"/>
       <use xlink:href="#Utopia-Regular-10" transform="translate(48.617672 0) scale(0.916563)"/>
      </g>
     </g>
    </g>
    <g id="xtick_6">
     <g id="line2d_12">
      <path d="M 583.319123 385.056 
L 583.319123 7.2 
" clip-path="url(#p3b0d24a3fa)" style="fill: none; stroke-dasharray: 2.775,1.2; stroke-dashoffset: 0; stroke: #b0b0b0; stroke-opacity: 0.4; stroke-width: 0.75"/>
     </g>
     <g id="line2d_13">
      <g>
       <use xlink:href="#ma47dea6f25" x="583.319123" y="385.056" style="stroke: #000000; stroke-width: 0.8"/>
      </g>
     </g>
     <g id="text_6">
      <!-- $\mathdefault{100}$ -->
      <g transform="translate(570.925019 403.539594) scale(0.17 -0.17)">
       <defs>
        <path id="Utopia-Regular-11" d="M 2796 0 
L 2796 185 
L 2259 230 
C 2124 243 2048 294 2048 544 
L 2048 4313 
L 2016 4352 
L 697 4128 
L 697 3968 
L 1292 3897 
C 1401 3885 1446 3833 1446 3648 
L 1446 544 
C 1446 422 1427 345 1388 300 
C 1356 256 1305 236 1235 230 
L 697 185 
L 697 0 
L 2796 0 
z
" transform="scale(0.015625)"/>
       </defs>
       <use xlink:href="#Utopia-Regular-11" transform="scale(0.916563)"/>
       <use xlink:href="#Utopia-Regular-10" transform="translate(48.617672 0) scale(0.916563)"/>
       <use xlink:href="#Utopia-Regular-10" transform="translate(97.235343 0) scale(0.916563)"/>
      </g>
     </g>
    </g>
    <g id="text_7">
     <!-- elements per side  $n_{\mathrm{el}}$ -->
     <g transform="translate(235.810758 424.687995) scale(0.2 -0.2)">
      <defs>
       <path id="Utopia-Regular-45" d="M 2822 1676 
C 2956 1676 3078 1708 3078 1920 
C 3078 2295 2956 3200 1785 3200 
C 787 3200 313 2492 313 1537 
C 313 540 748 -77 1792 -64 
C 2502 -58 2867 331 3040 830 
L 2848 931 
C 2668 565 2425 262 1920 262 
C 1126 262 966 1020 979 1676 
L 2822 1676 
z
M 985 1920 
C 985 2180 1081 2975 1747 2975 
C 2342 2975 2412 2371 2412 2123 
C 2412 2002 2374 1920 2195 1920 
L 985 1920 
z
" transform="scale(0.015625)"/>
       <path id="Utopia-Regular-4c" d="M 1209 4697 
L 1164 4736 
L 160 4576 
L 160 4416 
L 403 4391 
C 569 4372 608 4340 608 4097 
L 608 555 
C 608 230 588 217 128 185 
L 128 0 
L 1689 0 
L 1689 185 
C 1235 217 1209 230 1209 555 
L 1209 4697 
z
" transform="scale(0.015625)"/>
       <path id="Utopia-Regular-4d" d="M 236 3039 
L 236 2879 
L 480 2847 
C 646 2822 684 2790 684 2561 
L 684 555 
C 684 230 665 217 204 185 
L 204 0 
L 1766 0 
L 1766 185 
C 1312 217 1286 230 1286 555 
L 1286 2045 
C 1286 2204 1292 2293 1337 2382 
C 1459 2637 1740 2854 2092 2854 
C 2643 2854 2707 2453 2707 2058 
L 2707 555 
C 2707 230 2688 217 2227 185 
L 2227 0 
L 3789 0 
L 3789 185 
C 3334 217 3309 230 3309 555 
L 3309 2045 
C 3309 2204 3315 2293 3353 2395 
C 3449 2650 3725 2854 4083 2854 
C 4486 2867 4729 2612 4729 2058 
L 4729 555 
C 4729 230 4710 217 4249 185 
L 4249 0 
L 5811 0 
L 5811 185 
C 5357 217 5331 230 5331 555 
L 5331 2185 
C 5331 2828 4985 3200 4377 3200 
C 3853 3200 3475 2847 3251 2707 
C 3097 3007 2854 3200 2406 3200 
C 1913 3200 1510 2879 1286 2714 
L 1228 3200 
L 236 3039 
z
" transform="scale(0.015625)"/>
       <path id="Utopia-Regular-4e" d="M 3385 2185 
C 3385 2828 3033 3200 2444 3200 
C 1971 3200 1676 2969 1280 2714 
L 1190 3200 
L 236 3039 
L 236 2879 
L 480 2847 
C 646 2822 684 2790 684 2561 
L 684 555 
C 684 230 665 217 204 185 
L 204 0 
L 1766 0 
L 1766 185 
C 1312 217 1286 230 1286 555 
L 1286 2045 
C 1286 2204 1299 2293 1350 2395 
C 1484 2644 1772 2854 2112 2854 
C 2547 2854 2784 2612 2784 2058 
L 2784 555 
C 2784 230 2764 217 2304 185 
L 2304 0 
L 3865 0 
L 3865 185 
C 3411 217 3385 230 3385 555 
L 3385 2185 
z
" transform="scale(0.015625)"/>
       <path id="Utopia-Regular-54" d="M 2086 2879 
L 2086 3136 
L 1260 3136 
L 1260 3942 
L 1075 3942 
L 684 3136 
L 198 3136 
L 198 2879 
L 659 2879 
L 659 663 
C 659 12 1145 -64 1369 -64 
C 1696 -64 2003 102 2188 217 
L 2137 351 
C 1984 287 1843 268 1683 268 
C 1465 268 1260 421 1260 905 
L 1260 2879 
L 2086 2879 
z
" transform="scale(0.015625)"/>
       <path id="Utopia-Regular-53" d="M 2348 2240 
L 2348 2982 
C 2137 3135 1811 3200 1523 3200 
C 832 3200 364 2874 358 2271 
C 364 1745 793 1510 1324 1352 
C 1612 1263 2016 1117 2016 686 
C 2016 362 1760 160 1420 160 
C 902 160 614 534 486 1073 
L 300 1073 
L 364 242 
C 595 38 985 -64 1363 -64 
C 2124 -64 2560 337 2560 876 
C 2560 1434 2214 1688 1555 1891 
C 1292 1973 870 2106 870 2462 
C 876 2791 1126 2975 1446 2975 
C 1900 2975 2118 2626 2163 2240 
L 2348 2240 
z
" transform="scale(0.015625)"/>
       <path id="Utopia-Regular-50" d="M 1241 2049 
C 1241 2207 1267 2296 1324 2410 
C 1472 2702 1747 2854 2086 2854 
C 2342 2854 2912 2689 2912 1599 
C 2912 667 2617 160 1977 160 
C 1644 160 1388 331 1286 622 
C 1248 736 1241 863 1241 1009 
L 1241 2049 
z
M 192 3039 
L 192 2879 
L 435 2848 
C 601 2822 640 2791 640 2562 
L 640 -912 
C 640 -1242 608 -1255 160 -1287 
L 160 -1472 
L 1817 -1472 
L 1817 -1287 
C 1280 -1255 1241 -1242 1241 -912 
L 1241 83 
C 1376 6 1676 -64 1971 -64 
C 2835 -64 3577 331 3577 1637 
C 3577 2087 3494 3200 2329 3200 
C 1862 3200 1491 2886 1241 2727 
L 1158 3200 
L 192 3039 
z
" transform="scale(0.015625)"/>
       <path id="Utopia-Regular-52" d="M 1209 3200 
L 236 3039 
L 236 2879 
L 480 2847 
C 646 2822 684 2790 684 2559 
L 684 554 
C 684 230 652 217 204 185 
L 204 0 
L 1894 0 
L 1894 185 
C 1324 217 1286 230 1286 554 
L 1286 2044 
C 1286 2535 1504 2700 1651 2700 
C 1753 2700 1862 2662 2048 2560 
C 2092 2534 2144 2527 2176 2527 
C 2329 2527 2470 2687 2470 2886 
C 2470 3027 2380 3200 2131 3200 
C 1900 3200 1708 3059 1286 2687 
L 1209 3200 
z
" transform="scale(0.015625)"/>
       <path id="Utopia-Regular-49" d="M 236 3040 
L 236 2881 
L 480 2849 
C 646 2824 684 2792 684 2562 
L 684 555 
C 684 230 665 217 204 185 
L 204 0 
L 1766 0 
L 1766 185 
C 1312 217 1286 230 1286 555 
L 1286 3200 
L 1241 3235 
L 236 3040 
z
M 979 4556 
C 748 4556 588 4390 588 4160 
C 588 3936 748 3776 979 3776 
C 1216 3776 1363 3936 1369 4160 
C 1369 4390 1216 4556 979 4556 
z
" transform="scale(0.015625)"/>
       <path id="Utopia-Regular-44" d="M 3731 0 
L 3731 185 
C 3277 217 3251 230 3251 555 
L 3251 4697 
L 3206 4736 
L 2201 4576 
L 2201 4416 
L 2444 4390 
C 2611 4371 2649 4339 2649 4096 
L 2649 3046 
C 2470 3142 2233 3200 1939 3200 
C 1414 3200 1024 3033 755 2759 
C 480 2472 313 2052 313 1498 
C 313 566 806 -64 1651 -64 
C 1996 -64 2297 89 2643 370 
L 2643 44 
L 2694 0 
L 3731 0 
z
M 2649 1083 
C 2649 953 2643 845 2604 738 
C 2476 408 2195 281 1862 281 
C 1273 281 979 852 979 1581 
C 979 2405 1280 2975 1932 2975 
C 2233 2975 2476 2836 2592 2576 
C 2643 2468 2649 2380 2649 2208 
L 2649 1083 
z
" transform="scale(0.015625)"/>
       <path id="Utopia-Italic-4e" d="M 1190 12 
C 1376 661 1484 1004 1651 1396 
C 1888 1942 2502 2867 3020 2867 
C 3244 2867 3302 2664 3232 2417 
L 2681 560 
C 2579 204 2662 -64 3008 -64 
C 3488 -64 3846 370 4064 851 
L 3910 940 
C 3795 718 3513 268 3334 268 
C 3206 268 3212 414 3270 617 
L 3769 2277 
C 3917 2778 3840 3200 3315 3200 
C 2700 3200 2035 2525 1651 1783 
L 1632 1783 
L 2048 3200 
L 2016 3232 
L 844 3008 
L 806 2867 
L 1203 2835 
C 1356 2822 1356 2734 1299 2531 
L 627 -64 
L 1190 12 
z
" transform="scale(0.015625)"/>
      </defs>
      <use xlink:href="#Utopia-Regular-45" transform="scale(0.916563)"/>
      <use xlink:href="#Utopia-Regular-4c" transform="translate(47.123245 0) scale(0.916563)"/>
      <use xlink:href="#Utopia-Regular-45" transform="translate(72.727227 0) scale(0.916563)"/>
      <use xlink:href="#Utopia-Regular-4d" transform="translate(119.850472 0) scale(0.916563)"/>
      <use xlink:href="#Utopia-Regular-45" transform="translate(204.433281 0) scale(0.916563)"/>
      <use xlink:href="#Utopia-Regular-4e" transform="translate(251.556526 0) scale(0.916563)"/>
      <use xlink:href="#Utopia-Regular-54" transform="translate(308.243972 0) scale(0.916563)"/>
      <use xlink:href="#Utopia-Regular-53" transform="translate(339.725906 0) scale(0.916563)"/>
      <use xlink:href="#Utopia-Regular-50" transform="translate(400.298715 0) scale(0.916563)"/>
      <use xlink:href="#Utopia-Regular-45" transform="translate(455.989867 0) scale(0.916563)"/>
      <use xlink:href="#Utopia-Regular-52" transform="translate(503.113112 0) scale(0.916563)"/>
      <use xlink:href="#Utopia-Regular-53" transform="translate(559.401968 0) scale(0.916563)"/>
      <use xlink:href="#Utopia-Regular-49" transform="translate(599.352146 0) scale(0.916563)"/>
      <use xlink:href="#Utopia-Regular-44" transform="translate(626.051979 0) scale(0.916563)"/>
      <use xlink:href="#Utopia-Regular-45" transform="translate(680.846514 0) scale(0.916563)"/>
      <use xlink:href="#Utopia-Italic-4e" transform="translate(748.592391 0) scale(0.916563)"/>
      <use xlink:href="#Utopia-Regular-45" transform="translate(808.268599 -16.872382) scale(0.696583)"/>
      <use xlink:href="#Utopia-Regular-4c" transform="translate(844.081992 -16.872382) scale(0.696583)"/>
     </g>
    </g>
   </g>
   <g id="matplotlib.axis_2">
    <g id="ytick_1">
     <g id="line2d_14">
      <path d="M 57.202377 385.056 
L 587.122377 385.056 
" clip-path="url(#p3b0d24a3fa)" style="fill: none; stroke-dasharray: 2.775,1.2; stroke-dashoffset: 0; stroke: #b0b0b0; stroke-opacity: 0.4; stroke-width: 0.75"/>
     </g>
     <g id="line2d_15">
      <defs>
       <path id="mbc2b197c8f" d="M 0 0 
L -3.5 0 
" style="stroke: #000000; stroke-width: 0.8"/>
      </defs>
      <g>
       <use xlink:href="#mbc2b197c8f" x="57.202377" y="385.056" style="stroke: #000000; stroke-width: 0.8"/>
      </g>
     </g>
     <g id="text_8">
      <!-- $\mathdefault{0.0}$ -->
      <g transform="translate(29.546666 390.797797) scale(0.17 -0.17)">
       <defs>
        <path id="Utopia-Regular-e" d="M 851 -64 
C 1100 -64 1248 108 1254 339 
C 1254 576 1100 755 851 755 
C 608 755 448 576 448 339 
C 448 108 608 -64 851 -64 
z
" transform="scale(0.015625)"/>
       </defs>
       <use xlink:href="#Utopia-Regular-10" transform="scale(0.916563)"/>
       <use xlink:href="#Utopia-Regular-e" transform="translate(48.617672 0) scale(0.916563)"/>
       <use xlink:href="#Utopia-Regular-10" transform="translate(72.926553 0) scale(0.916563)"/>
      </g>
     </g>
    </g>
    <g id="ytick_2">
     <g id="line2d_16">
      <path d="M 57.202377 313.083429 
L 587.122377 313.083429 
" clip-path="url(#p3b0d24a3fa)" style="fill: none; stroke-dasharray: 2.775,1.2; stroke-dashoffset: 0; stroke: #b0b0b0; stroke-opacity: 0.4; stroke-width: 0.75"/>
     </g>
     <g id="line2d_17">
      <g>
       <use xlink:href="#mbc2b197c8f" x="57.202377" y="313.083429" style="stroke: #000000; stroke-width: 0.8"/>
      </g>
     </g>
     <g id="text_9">
      <!-- $\mathdefault{0.2}$ -->
      <g transform="translate(29.546666 318.825225) scale(0.17 -0.17)">
       <use xlink:href="#Utopia-Regular-10" transform="scale(0.916563)"/>
       <use xlink:href="#Utopia-Regular-e" transform="translate(48.617672 0) scale(0.916563)"/>
       <use xlink:href="#Utopia-Regular-12" transform="translate(72.926553 0) scale(0.916563)"/>
      </g>
     </g>
    </g>
    <g id="ytick_3">
     <g id="line2d_18">
      <path d="M 57.202377 241.110857 
L 587.122377 241.110857 
" clip-path="url(#p3b0d24a3fa)" style="fill: none; stroke-dasharray: 2.775,1.2; stroke-dashoffset: 0; stroke: #b0b0b0; stroke-opacity: 0.4; stroke-width: 0.75"/>
     </g>
     <g id="line2d_19">
      <g>
       <use xlink:href="#mbc2b197c8f" x="57.202377" y="241.110857" style="stroke: #000000; stroke-width: 0.8"/>
      </g>
     </g>
     <g id="text_10">
      <!-- $\mathdefault{0.4}$ -->
      <g transform="translate(29.546666 246.852654) scale(0.17 -0.17)">
       <use xlink:href="#Utopia-Regular-10" transform="scale(0.916563)"/>
       <use xlink:href="#Utopia-Regular-e" transform="translate(48.617672 0) scale(0.916563)"/>
       <use xlink:href="#Utopia-Regular-14" transform="translate(72.926553 0) scale(0.916563)"/>
      </g>
     </g>
    </g>
    <g id="ytick_4">
     <g id="line2d_20">
      <path d="M 57.202377 169.138286 
L 587.122377 169.138286 
" clip-path="url(#p3b0d24a3fa)" style="fill: none; stroke-dasharray: 2.775,1.2; stroke-dashoffset: 0; stroke: #b0b0b0; stroke-opacity: 0.4; stroke-width: 0.75"/>
     </g>
     <g id="line2d_21">
      <g>
       <use xlink:href="#mbc2b197c8f" x="57.202377" y="169.138286" style="stroke: #000000; stroke-width: 0.8"/>
      </g>
     </g>
     <g id="text_11">
      <!-- $\mathdefault{0.6}$ -->
      <g transform="translate(29.546666 174.880083) scale(0.17 -0.17)">
       <use xlink:href="#Utopia-Regular-10" transform="scale(0.916563)"/>
       <use xlink:href="#Utopia-Regular-e" transform="translate(48.617672 0) scale(0.916563)"/>
       <use xlink:href="#Utopia-Regular-16" transform="translate(72.926553 0) scale(0.916563)"/>
      </g>
     </g>
    </g>
    <g id="ytick_5">
     <g id="line2d_22">
      <path d="M 57.202377 97.165714 
L 587.122377 97.165714 
" clip-path="url(#p3b0d24a3fa)" style="fill: none; stroke-dasharray: 2.775,1.2; stroke-dashoffset: 0; stroke: #b0b0b0; stroke-opacity: 0.4; stroke-width: 0.75"/>
     </g>
     <g id="line2d_23">
      <g>
       <use xlink:href="#mbc2b197c8f" x="57.202377" y="97.165714" style="stroke: #000000; stroke-width: 0.8"/>
      </g>
     </g>
     <g id="text_12">
      <!-- $\mathdefault{0.8}$ -->
      <g transform="translate(29.546666 102.907511) scale(0.17 -0.17)">
       <use xlink:href="#Utopia-Regular-10" transform="scale(0.916563)"/>
       <use xlink:href="#Utopia-Regular-e" transform="translate(48.617672 0) scale(0.916563)"/>
       <use xlink:href="#Utopia-Regular-18" transform="translate(72.926553 0) scale(0.916563)"/>
      </g>
     </g>
    </g>
    <g id="ytick_6">
     <g id="line2d_24">
      <path d="M 57.202377 25.193143 
L 587.122377 25.193143 
" clip-path="url(#p3b0d24a3fa)" style="fill: none; stroke-dasharray: 2.775,1.2; stroke-dashoffset: 0; stroke: #b0b0b0; stroke-opacity: 0.4; stroke-width: 0.75"/>
     </g>
     <g id="line2d_25">
      <g>
       <use xlink:href="#mbc2b197c8f" x="57.202377" y="25.193143" style="stroke: #000000; stroke-width: 0.8"/>
      </g>
     </g>
     <g id="text_13">
      <!-- $\mathdefault{1.0}$ -->
      <g transform="translate(29.546666 30.93494) scale(0.17 -0.17)">
       <use xlink:href="#Utopia-Regular-11" transform="scale(0.916563)"/>
       <use xlink:href="#Utopia-Regular-e" transform="translate(48.617672 0) scale(0.916563)"/>
       <use xlink:href="#Utopia-Regular-10" transform="translate(72.926553 0) scale(0.916563)"/>
      </g>
     </g>
    </g>
    <g id="text_14">
     <!-- normalized strain energy  $U / U^{\ast}$ -->
     <g transform="translate(21.266331 326.040585) rotate(-90) scale(0.2 -0.2)">
      <defs>
       <path id="Utopia-Regular-4f" d="M 1843 3200 
C 819 3200 313 2595 313 1567 
C 313 540 819 -64 1843 -64 
C 2880 -64 3379 540 3379 1567 
C 3379 2595 2880 3200 1843 3200 
z
M 979 1567 
C 979 2443 1260 2975 1843 2975 
C 2438 2975 2713 2443 2713 1567 
C 2713 692 2438 160 1843 160 
C 1260 160 979 692 979 1567 
z
" transform="scale(0.015625)"/>
       <path id="Utopia-Regular-41" d="M 2195 921 
C 2195 408 1798 275 1548 275 
C 1152 275 960 554 960 928 
C 960 1226 1100 1378 1459 1511 
C 1715 1606 2054 1727 2195 1815 
L 2195 921 
z
M 2771 2354 
C 2771 2722 2688 3200 1721 3200 
C 998 3200 428 2823 428 2475 
C 428 2272 665 2177 787 2177 
C 921 2177 960 2246 992 2354 
C 1132 2823 1395 2975 1651 2975 
C 1900 2975 2195 2849 2195 2342 
L 2195 2075 
C 2035 1910 1414 1752 908 1593 
C 448 1454 313 1137 313 839 
C 313 363 633 -64 1235 -64 
C 1632 -52 1984 185 2188 319 
C 2278 83 2380 -64 2604 -64 
C 2841 -64 3116 6 3360 128 
L 3321 281 
C 3232 262 3091 249 2995 275 
C 2880 300 2771 421 2771 820 
L 2771 2354 
z
" transform="scale(0.015625)"/>
       <path id="Utopia-Regular-5a" d="M 2848 3136 
L 390 3136 
L 390 2188 
L 588 2188 
C 672 2777 806 2911 1497 2911 
L 2137 2911 
C 1478 1971 806 1036 121 96 
L 172 0 
L 2892 0 
L 2956 979 
L 2758 979 
C 2656 377 2438 224 1728 224 
L 902 224 
C 1548 1164 2220 2105 2899 3046 
L 2848 3136 
z
" transform="scale(0.015625)"/>
       <path id="Utopia-Regular-47" d="M 1664 2975 
C 1977 2975 2304 2746 2304 2128 
C 2304 1592 2022 1312 1651 1312 
C 1292 1312 992 1592 992 2128 
C 992 2759 1324 2975 1664 2975 
z
M 1798 -1312 
C 1254 -1312 876 -1030 876 -567 
C 876 -348 940 -187 1075 -84 
C 1216 25 1427 64 1734 64 
C 2297 64 2713 -72 2713 -554 
C 2713 -1068 2252 -1312 1798 -1312 
z
M 2489 3001 
C 2310 3123 1958 3200 1664 3200 
C 684 3200 339 2599 339 2128 
C 339 1528 736 1254 1030 1177 
L 1030 1164 
C 684 1033 441 855 441 617 
C 441 396 697 153 1004 121 
L 1004 108 
C 729 18 268 -136 268 -599 
C 268 -1248 908 -1536 1651 -1536 
C 2035 -1536 2438 -1460 2745 -1274 
C 3040 -1094 3251 -792 3251 -393 
C 3251 300 2700 544 2016 544 
L 1504 544 
C 1043 544 972 690 972 806 
C 972 984 1216 1081 1299 1107 
C 1420 1094 1555 1088 1625 1088 
C 2233 1088 2918 1356 2918 2128 
C 2918 2395 2835 2618 2726 2727 
L 3232 2803 
L 3360 3206 
L 3309 3264 
L 2489 3001 
z
" transform="scale(0.015625)"/>
       <path id="Utopia-Regular-59" d="M -33 3136 
L -33 2950 
C 275 2937 339 2899 454 2618 
C 774 1853 1305 494 1459 54 
C 1497 -55 1510 -151 1510 -259 
C 1510 -406 1452 -597 1356 -801 
C 1260 -1012 1145 -1069 1075 -1069 
C 1011 -1069 953 -1050 838 -935 
C 774 -877 723 -845 646 -845 
C 524 -845 364 -1018 364 -1204 
C 364 -1357 544 -1536 812 -1536 
C 1068 -1536 1395 -1460 1721 -514 
C 2118 622 2707 2178 2905 2624 
C 3020 2879 3059 2930 3379 2950 
L 3379 3136 
L 2150 3136 
L 2150 2950 
L 2483 2918 
C 2592 2905 2604 2828 2572 2701 
C 2476 2318 2144 1355 1862 590 
L 1849 590 
C 1555 1362 1299 2057 1062 2726 
C 1024 2841 1011 2911 1158 2924 
L 1433 2950 
L 1433 3136 
L -33 3136 
z
" transform="scale(0.015625)"/>
       <path id="Utopia-Italic-35" d="M 1196 4416 
L 1152 4230 
L 1529 4198 
C 1676 4185 1721 4095 1670 3883 
L 1132 1613 
C 832 333 1523 -128 2624 -128 
C 3494 -128 4294 57 4646 1555 
L 5190 3883 
C 5241 4101 5299 4185 5459 4198 
L 5811 4230 
L 5856 4416 
L 4102 4416 
L 4057 4230 
L 4435 4198 
C 4582 4185 4627 4095 4576 3883 
L 4057 1639 
C 3859 783 3545 96 2656 96 
C 1945 96 1497 488 1779 1697 
L 2284 3883 
C 2336 4101 2393 4191 2553 4204 
L 2905 4230 
L 2950 4416 
L 1196 4416 
z
" transform="scale(0.015625)"/>
       <path id="Utopia-Regular-f" d="M 1017 -128 
L 2361 4544 
L 1932 4544 
L 588 -128 
L 1017 -128 
z
" transform="scale(0.015625)"/>
       <path id="Fourier-Math-Symbols-45" d="M 953 2144 
C 1164 2011 1683 1884 1766 1839 
C 1779 1826 1798 1820 1798 1788 
C 1798 1763 1779 1750 1766 1744 
C 1683 1699 1164 1572 947 1439 
C 844 1388 800 1343 800 1280 
C 800 1242 819 1191 857 1121 
C 915 1019 960 975 1024 975 
C 1068 975 1113 1000 1184 1038 
C 1408 1159 1772 1540 1856 1585 
C 1868 1591 1881 1598 1888 1598 
C 1894 1598 1907 1598 1913 1591 
C 1932 1579 1932 1560 1932 1547 
C 1932 1445 1792 943 1792 683 
C 1792 486 1836 448 2028 448 
C 2195 448 2259 479 2259 625 
L 2259 708 
C 2259 969 2118 1445 2118 1540 
C 2118 1560 2118 1579 2144 1591 
C 2150 1598 2156 1598 2163 1598 
C 2176 1598 2188 1591 2195 1585 
C 2278 1540 2649 1159 2873 1026 
C 2931 988 2988 975 3027 975 
C 3084 975 3142 1019 3193 1121 
C 3232 1191 3257 1242 3257 1280 
C 3257 1343 3212 1388 3110 1439 
C 2886 1572 2374 1699 2291 1744 
C 2272 1750 2259 1763 2259 1788 
C 2259 1820 2272 1826 2291 1839 
C 2374 1884 2886 2011 3110 2144 
C 3212 2201 3257 2246 3257 2309 
C 3257 2347 3232 2392 3193 2462 
C 3142 2564 3097 2614 3033 2614 
C 2995 2614 2944 2589 2873 2544 
C 2649 2424 2278 2042 2195 1998 
C 2188 1992 2182 1979 2163 1979 
C 2156 1979 2150 1979 2144 1992 
C 2118 2004 2118 2017 2118 2042 
C 2118 2131 2265 2646 2265 2894 
C 2265 3085 2220 3136 2028 3136 
C 1836 3136 1792 3085 1792 2894 
C 1792 2646 1932 2131 1932 2042 
C 1932 2017 1932 2004 1913 1992 
C 1907 1979 1894 1979 1888 1979 
C 1881 1979 1868 1979 1856 1992 
C 1772 2042 1408 2417 1184 2544 
C 1113 2583 1062 2608 1024 2608 
C 960 2608 915 2564 857 2462 
C 819 2392 800 2347 800 2303 
C 800 2239 844 2195 953 2144 
z
" transform="scale(0.015625)"/>
      </defs>
      <use xlink:href="#Utopia-Regular-4e" transform="scale(0.916563)"/>
      <use xlink:href="#Utopia-Regular-4f" transform="translate(56.687446 0) scale(0.916563)"/>
      <use xlink:href="#Utopia-Regular-52" transform="translate(109.589071 0) scale(0.916563)"/>
      <use xlink:href="#Utopia-Regular-4d" transform="translate(145.952677 0) scale(0.916563)"/>
      <use xlink:href="#Utopia-Regular-41" transform="translate(230.535486 0) scale(0.916563)"/>
      <use xlink:href="#Utopia-Regular-4c" transform="translate(278.455776 0) scale(0.916563)"/>
      <use xlink:href="#Utopia-Regular-49" transform="translate(304.059758 0) scale(0.916563)"/>
      <use xlink:href="#Utopia-Regular-5a" transform="translate(330.759591 0) scale(0.916563)"/>
      <use xlink:href="#Utopia-Regular-45" transform="translate(374.196768 0) scale(0.916563)"/>
      <use xlink:href="#Utopia-Regular-44" transform="translate(421.320013 0) scale(0.916563)"/>
      <use xlink:href="#Utopia-Regular-53" transform="translate(496.737181 0) scale(0.916563)"/>
      <use xlink:href="#Utopia-Regular-54" transform="translate(536.687358 0) scale(0.916563)"/>
      <use xlink:href="#Utopia-Regular-52" transform="translate(568.169292 0) scale(0.916563)"/>
      <use xlink:href="#Utopia-Regular-41" transform="translate(602.938885 0) scale(0.916563)"/>
      <use xlink:href="#Utopia-Regular-49" transform="translate(650.859174 0) scale(0.916563)"/>
      <use xlink:href="#Utopia-Regular-4e" transform="translate(677.559007 0) scale(0.916563)"/>
      <use xlink:href="#Utopia-Regular-45" transform="translate(754.869085 0) scale(0.916563)"/>
      <use xlink:href="#Utopia-Regular-4e" transform="translate(801.99233 0) scale(0.916563)"/>
      <use xlink:href="#Utopia-Regular-45" transform="translate(858.679777 0) scale(0.916563)"/>
      <use xlink:href="#Utopia-Regular-52" transform="translate(905.803022 0) scale(0.916563)"/>
      <use xlink:href="#Utopia-Regular-47" transform="translate(940.871527 0) scale(0.916563)"/>
      <use xlink:href="#Utopia-Regular-59" transform="translate(988.492904 0) scale(0.916563)"/>
      <use xlink:href="#Utopia-Italic-35" transform="translate(1050.560049 0) scale(0.916563)"/>
      <use xlink:href="#Utopia-Regular-f" transform="translate(1134.146563 0) scale(0.916563)"/>
      <use xlink:href="#Utopia-Italic-35" transform="translate(1171.307213 0) scale(0.916563)"/>
      <use xlink:href="#Fourier-Math-Symbols-45" transform="translate(1254.893727 36.164371) scale(0.696583)"/>
     </g>
    </g>
   </g>
   <g id="line2d_26">
    <path d="M 81.28965 222.932346 
L 91.431659 97.017478 
L 101.573669 51.628191 
L 111.715678 35.213285 
L 121.857688 29.286023 
L 137.070702 26.616211 
L 157.354721 25.808471 
L 177.638741 25.606839 
L 197.92276 25.538582 
L 238.490798 25.496947 
L 400.762951 25.479564 
L 563.035104 25.478649 
" clip-path="url(#p3b0d24a3fa)" style="fill: none; stroke-dasharray: 7.68,1.92,1.2,1.92; stroke-dashoffset: 0; stroke: #006400; stroke-width: 1.2"/>
    <defs>
     <path id="m920d3da3ad" d="M -3 3 
L 3 3 
L 3 -3 
L -3 -3 
z
" style="stroke: #006400; stroke-width: 1.1; stroke-linejoin: miter"/>
    </defs>
    <g clip-path="url(#p3b0d24a3fa)">
     <use xlink:href="#m920d3da3ad" x="81.28965" y="222.932346" style="fill-opacity: 0; stroke: #006400; stroke-width: 1.1; stroke-linejoin: miter"/>
     <use xlink:href="#m920d3da3ad" x="91.431659" y="97.017478" style="fill-opacity: 0; stroke: #006400; stroke-width: 1.1; stroke-linejoin: miter"/>
     <use xlink:href="#m920d3da3ad" x="101.573669" y="51.628191" style="fill-opacity: 0; stroke: #006400; stroke-width: 1.1; stroke-linejoin: miter"/>
     <use xlink:href="#m920d3da3ad" x="111.715678" y="35.213285" style="fill-opacity: 0; stroke: #006400; stroke-width: 1.1; stroke-linejoin: miter"/>
     <use xlink:href="#m920d3da3ad" x="121.857688" y="29.286023" style="fill-opacity: 0; stroke: #006400; stroke-width: 1.1; stroke-linejoin: miter"/>
     <use xlink:href="#m920d3da3ad" x="137.070702" y="26.616211" style="fill-opacity: 0; stroke: #006400; stroke-width: 1.1; stroke-linejoin: miter"/>
     <use xlink:href="#m920d3da3ad" x="157.354721" y="25.808471" style="fill-opacity: 0; stroke: #006400; stroke-width: 1.1; stroke-linejoin: miter"/>
     <use xlink:href="#m920d3da3ad" x="177.638741" y="25.606839" style="fill-opacity: 0; stroke: #006400; stroke-width: 1.1; stroke-linejoin: miter"/>
     <use xlink:href="#m920d3da3ad" x="197.92276" y="25.538582" style="fill-opacity: 0; stroke: #006400; stroke-width: 1.1; stroke-linejoin: miter"/>
     <use xlink:href="#m920d3da3ad" x="238.490798" y="25.496947" style="fill-opacity: 0; stroke: #006400; stroke-width: 1.1; stroke-linejoin: miter"/>
     <use xlink:href="#m920d3da3ad" x="400.762951" y="25.479564" style="fill-opacity: 0; stroke: #006400; stroke-width: 1.1; stroke-linejoin: miter"/>
     <use xlink:href="#m920d3da3ad" x="563.035104" y="25.478649" style="fill-opacity: 0; stroke: #006400; stroke-width: 1.1; stroke-linejoin: miter"/>
    </g>
   </g>
   <g id="line2d_27">
    <path d="M 81.28965 97.997309 
L 91.431659 104.570792 
L 101.573669 79.990254 
L 111.715678 60.447789 
L 121.857688 49.13767 
L 137.070702 39.388803 
L 157.354721 32.547947 
L 177.638741 29.035338 
L 197.92276 27.215166 
L 238.490798 25.809932 
L 400.762951 25.229625 
L 563.035104 25.206033 
" clip-path="url(#p3b0d24a3fa)" style="fill: none; stroke-dasharray: 7.68,1.92,1.2,1.92; stroke-dashoffset: 0; stroke: #000000; stroke-width: 1.2"/>
    <defs>
     <path id="mbf2bfc565a" d="M 0 3 
C 0.795609 3 1.55874 2.683901 2.12132 2.12132 
C 2.683901 1.55874 3 0.795609 3 0 
C 3 -0.795609 2.683901 -1.55874 2.12132 -2.12132 
C 1.55874 -2.683901 0.795609 -3 0 -3 
C -0.795609 -3 -1.55874 -2.683901 -2.12132 -2.12132 
C -2.683901 -1.55874 -3 -0.795609 -3 0 
C -3 0.795609 -2.683901 1.55874 -2.12132 2.12132 
C -1.55874 2.683901 -0.795609 3 0 3 
z
" style="stroke: #000000; stroke-width: 1.1"/>
    </defs>
    <g clip-path="url(#p3b0d24a3fa)">
     <use xlink:href="#mbf2bfc565a" x="81.28965" y="97.997309" style="fill-opacity: 0; stroke: #000000; stroke-width: 1.1"/>
     <use xlink:href="#mbf2bfc565a" x="91.431659" y="104.570792" style="fill-opacity: 0; stroke: #000000; stroke-width: 1.1"/>
     <use xlink:href="#mbf2bfc565a" x="101.573669" y="79.990254" style="fill-opacity: 0; stroke: #000000; stroke-width: 1.1"/>
     <use xlink:href="#mbf2bfc565a" x="111.715678" y="60.447789" style="fill-opacity: 0; stroke: #000000; stroke-width: 1.1"/>
     <use xlink:href="#mbf2bfc565a" x="121.857688" y="49.13767" style="fill-opacity: 0; stroke: #000000; stroke-width: 1.1"/>
     <use xlink:href="#mbf2bfc565a" x="137.070702" y="39.388803" style="fill-opacity: 0; stroke: #000000; stroke-width: 1.1"/>
     <use xlink:href="#mbf2bfc565a" x="157.354721" y="32.547947" style="fill-opacity: 0; stroke: #000000; stroke-width: 1.1"/>
     <use xlink:href="#mbf2bfc565a" x="177.638741" y="29.035338" style="fill-opacity: 0; stroke: #000000; stroke-width: 1.1"/>
     <use xlink:href="#mbf2bfc565a" x="197.92276" y="27.215166" style="fill-opacity: 0; stroke: #000000; stroke-width: 1.1"/>
     <use xlink:href="#mbf2bfc565a" x="238.490798" y="25.809932" style="fill-opacity: 0; stroke: #000000; stroke-width: 1.1"/>
     <use xlink:href="#mbf2bfc565a" x="400.762951" y="25.229625" style="fill-opacity: 0; stroke: #000000; stroke-width: 1.1"/>
     <use xlink:href="#mbf2bfc565a" x="563.035104" y="25.206033" style="fill-opacity: 0; stroke: #000000; stroke-width: 1.1"/>
    </g>
   </g>
   <g id="line2d_28">
    <path d="M 81.28965 94.825064 
L 91.431659 51.102504 
L 101.573669 44.961683 
L 111.715678 47.693346 
L 121.857688 49.981143 
L 137.070702 47.539334 
L 157.354721 41.809512 
L 177.638741 37.60826 
L 197.92276 34.730021 
L 238.490798 31.149824 
L 400.762951 26.308527 
L 563.035104 25.420835 
" clip-path="url(#p3b0d24a3fa)" style="fill: none; stroke-dasharray: 7.68,1.92,1.2,1.92; stroke-dashoffset: 0; stroke: #8b0000; stroke-width: 1.2"/>
    <defs>
     <path id="m591ead8a2d" d="M 0 -3 
L -3 3 
L 3 3 
z
" style="stroke: #8b0000; stroke-width: 1.1; stroke-linejoin: miter"/>
    </defs>
    <g clip-path="url(#p3b0d24a3fa)">
     <use xlink:href="#m591ead8a2d" x="81.28965" y="94.825064" style="fill-opacity: 0; stroke: #8b0000; stroke-width: 1.1; stroke-linejoin: miter"/>
     <use xlink:href="#m591ead8a2d" x="91.431659" y="51.102504" style="fill-opacity: 0; stroke: #8b0000; stroke-width: 1.1; stroke-linejoin: miter"/>
     <use xlink:href="#m591ead8a2d" x="101.573669" y="44.961683" style="fill-opacity: 0; stroke: #8b0000; stroke-width: 1.1; stroke-linejoin: miter"/>
     <use xlink:href="#m591ead8a2d" x="111.715678" y="47.693346" style="fill-opacity: 0; stroke: #8b0000; stroke-width: 1.1; stroke-linejoin: miter"/>
     <use xlink:href="#m591ead8a2d" x="121.857688" y="49.981143" style="fill-opacity: 0; stroke: #8b0000; stroke-width: 1.1; stroke-linejoin: miter"/>
     <use xlink:href="#m591ead8a2d" x="137.070702" y="47.539334" style="fill-opacity: 0; stroke: #8b0000; stroke-width: 1.1; stroke-linejoin: miter"/>
     <use xlink:href="#m591ead8a2d" x="157.354721" y="41.809512" style="fill-opacity: 0; stroke: #8b0000; stroke-width: 1.1; stroke-linejoin: miter"/>
     <use xlink:href="#m591ead8a2d" x="177.638741" y="37.60826" style="fill-opacity: 0; stroke: #8b0000; stroke-width: 1.1; stroke-linejoin: miter"/>
     <use xlink:href="#m591ead8a2d" x="197.92276" y="34.730021" style="fill-opacity: 0; stroke: #8b0000; stroke-width: 1.1; stroke-linejoin: miter"/>
     <use xlink:href="#m591ead8a2d" x="238.490798" y="31.149824" style="fill-opacity: 0; stroke: #8b0000; stroke-width: 1.1; stroke-linejoin: miter"/>
     <use xlink:href="#m591ead8a2d" x="400.762951" y="26.308527" style="fill-opacity: 0; stroke: #8b0000; stroke-width: 1.1; stroke-linejoin: miter"/>
     <use xlink:href="#m591ead8a2d" x="563.035104" y="25.420835" style="fill-opacity: 0; stroke: #8b0000; stroke-width: 1.1; stroke-linejoin: miter"/>
    </g>
   </g>
   <g id="patch_3">
    <path d="M 57.202377 385.056 
L 57.202377 7.2 
" style="fill: none; stroke: #000000; stroke-width: 0.8; stroke-linejoin: miter; stroke-linecap: square"/>
   </g>
   <g id="patch_4">
    <path d="M 587.122377 385.056 
L 587.122377 7.2 
" style="fill: none; stroke: #000000; stroke-width: 0.8; stroke-linejoin: miter; stroke-linecap: square"/>
   </g>
   <g id="patch_5">
    <path d="M 57.202377 385.056 
L 587.122377 385.056 
" style="fill: none; stroke: #000000; stroke-width: 0.8; stroke-linejoin: miter; stroke-linecap: square"/>
   </g>
   <g id="patch_6">
    <path d="M 57.202377 7.2 
L 587.122377 7.2 
" style="fill: none; stroke: #000000; stroke-width: 0.8; stroke-linejoin: miter; stroke-linecap: square"/>
   </g>
   <g id="patch_7">
    <path d="M 222.973523 32.584351 
L 578.552379 32.584351 
L 578.552379 23.758615 
L 222.973523 23.758615 
L 222.973523 32.584351 
z
" clip-path="url(#p3b0d24a3fa)" style="fill: none; opacity: 0.7; stroke: #666666; stroke-linejoin: miter"/>
   </g>
   <g id="patch_8">
    <path d="M 222.973523 32.584351 
Q 174.53275 50.120656 126.091977 67.65696 
" style="fill: none; opacity: 0.7; stroke: #666666; stroke-linecap: round"/>
   </g>
   <g id="patch_9">
    <path d="M 578.552379 32.584351 
Q 490.101378 50.120656 401.650377 67.65696 
" style="fill: none; opacity: 0.7; stroke: #666666; stroke-linecap: round"/>
   </g>
   <g id="legend_1">
    <g id="patch_10">
     <path d="M 448.419463 377.056 
L 575.922377 377.056 
Q 579.122377 377.056 579.122377 373.856 
L 579.122377 307.583213 
Q 579.122377 304.383213 575.922377 304.383213 
L 448.419463 304.383213 
Q 445.219463 304.383213 445.219463 307.583213 
L 445.219463 373.856 
Q 445.219463 377.056 448.419463 377.056 
z
" style="fill: #ffffff; opacity: 0.8; stroke: #cccccc; stroke-linejoin: miter"/>
    </g>
    <g id="line2d_29">
     <path d="M 451.619463 316.383213 
L 467.619463 316.383213 
L 483.619463 316.383213 
" style="fill: none; stroke: #006400; stroke-width: 1.5; stroke-linecap: square"/>
     <g>
      <use xlink:href="#m920d3da3ad" x="467.619463" y="316.383213" style="fill-opacity: 0; stroke: #006400; stroke-width: 1.1; stroke-linejoin: miter"/>
     </g>
    </g>
    <g id="text_15">
     <!-- $1/t = 100$ -->
     <g transform="translate(496.419463 321.983213) scale(0.16 -0.16)">
      <defs>
       <path id="Utopia-Italic-54" d="M 2739 2892 
L 2809 3136 
L 1996 3136 
L 2214 3897 
L 2137 3942 
L 1516 3449 
L 1433 3136 
L 915 3136 
L 844 2892 
L 1376 2892 
L 800 561 
C 704 198 780 -64 1100 -64 
C 1612 -64 2022 357 2278 835 
L 2137 943 
C 1990 695 1664 268 1465 268 
C 1331 268 1331 415 1369 574 
L 1939 2892 
L 2739 2892 
z
" transform="scale(0.015625)"/>
       <path id="Fourier-Math-Symbols-65" d="M 4064 908 
L 4064 1280 
L 544 1280 
L 544 908 
L 4064 908 
z
M 4064 2316 
L 4064 2688 
L 544 2688 
L 544 2316 
L 4064 2316 
z
" transform="scale(0.015625)"/>
      </defs>
      <use xlink:href="#Utopia-Regular-11" transform="scale(0.916563)"/>
      <use xlink:href="#Utopia-Regular-f" transform="translate(48.617672 0) scale(0.916563)"/>
      <use xlink:href="#Utopia-Italic-54" transform="translate(92.752246 0) scale(0.916563)"/>
      <use xlink:href="#Fourier-Math-Symbols-65" transform="translate(150.845447 0) scale(0.916563)"/>
      <use xlink:href="#Utopia-Regular-11" transform="translate(233.845263 0) scale(0.916563)"/>
      <use xlink:href="#Utopia-Regular-10" transform="translate(282.462935 0) scale(0.916563)"/>
      <use xlink:href="#Utopia-Regular-10" transform="translate(331.080607 0) scale(0.916563)"/>
     </g>
    </g>
    <g id="line2d_30">
     <path d="M 451.619463 339.007475 
L 467.619463 339.007475 
L 483.619463 339.007475 
" style="fill: none; stroke: #000000; stroke-width: 1.5; stroke-linecap: square"/>
     <g>
      <use xlink:href="#mbf2bfc565a" x="467.619463" y="339.007475" style="fill-opacity: 0; stroke: #000000; stroke-width: 1.1"/>
     </g>
    </g>
    <g id="text_16">
     <!-- $1/t = 1000$ -->
     <g transform="translate(496.419463 344.607475) scale(0.16 -0.16)">
      <use xlink:href="#Utopia-Regular-11" transform="scale(0.916563)"/>
      <use xlink:href="#Utopia-Regular-f" transform="translate(48.617672 0) scale(0.916563)"/>
      <use xlink:href="#Utopia-Italic-54" transform="translate(92.752246 0) scale(0.916563)"/>
      <use xlink:href="#Fourier-Math-Symbols-65" transform="translate(150.845447 0) scale(0.916563)"/>
      <use xlink:href="#Utopia-Regular-11" transform="translate(233.845263 0) scale(0.916563)"/>
      <use xlink:href="#Utopia-Regular-10" transform="translate(282.462935 0) scale(0.916563)"/>
      <use xlink:href="#Utopia-Regular-10" transform="translate(331.080607 0) scale(0.916563)"/>
      <use xlink:href="#Utopia-Regular-10" transform="translate(379.698278 0) scale(0.916563)"/>
     </g>
    </g>
    <g id="line2d_31">
     <path d="M 451.619463 361.631738 
L 467.619463 361.631738 
L 483.619463 361.631738 
" style="fill: none; stroke: #8b0000; stroke-width: 1.5; stroke-linecap: square"/>
     <g>
      <use xlink:href="#m591ead8a2d" x="467.619463" y="361.631738" style="fill-opacity: 0; stroke: #8b0000; stroke-width: 1.1; stroke-linejoin: miter"/>
     </g>
    </g>
    <g id="text_17">
     <!-- $1/t = 10000$ -->
     <g transform="translate(496.419463 367.231738) scale(0.16 -0.16)">
      <use xlink:href="#Utopia-Regular-11" transform="scale(0.916563)"/>
      <use xlink:href="#Utopia-Regular-f" transform="translate(48.617672 0) scale(0.916563)"/>
      <use xlink:href="#Utopia-Italic-54" transform="translate(92.752246 0) scale(0.916563)"/>
      <use xlink:href="#Fourier-Math-Symbols-65" transform="translate(150.845447 0) scale(0.916563)"/>
      <use xlink:href="#Utopia-Regular-11" transform="translate(233.845263 0) scale(0.916563)"/>
      <use xlink:href="#Utopia-Regular-10" transform="translate(282.462935 0) scale(0.916563)"/>
      <use xlink:href="#Utopia-Regular-10" transform="translate(331.080607 0) scale(0.916563)"/>
      <use xlink:href="#Utopia-Regular-10" transform="translate(379.698278 0) scale(0.916563)"/>
      <use xlink:href="#Utopia-Regular-10" transform="translate(428.31595 0) scale(0.916563)"/>
     </g>
    </g>
   </g>
   <g id="axes_2">
    <g id="patch_11">
     <path d="M 126.091977 256.58496 
L 401.650377 256.58496 
L 401.650377 67.65696 
L 126.091977 67.65696 
z
" style="fill: #ffffff"/>
    </g>
    <g id="line2d_32">
     <path d="M 126.091977 98.365153 
L 401.650377 98.365153 
" clip-path="url(#p938779e902)" style="fill: none; stroke-dasharray: 6.6,3.3; stroke-dashoffset: 0; stroke: #000000; stroke-width: 1.1"/>
    </g>
    <g id="matplotlib.axis_3">
     <g id="xtick_7">
      <g id="line2d_33">
       <path d="M 169.555695 256.58496 
L 169.555695 67.65696 
" clip-path="url(#p938779e902)" style="fill: none; stroke-dasharray: 1.85,0.8; stroke-dashoffset: 0; stroke: #b0b0b0; stroke-opacity: 0.35; stroke-width: 0.5"/>
      </g>
      <g id="line2d_34">
       <g>
        <use xlink:href="#ma47dea6f25" x="169.555695" y="256.58496" style="stroke: #000000; stroke-width: 0.8"/>
       </g>
      </g>
      <g id="text_18">
       <!-- $\mathdefault{40}$ -->
       <g transform="translate(162.752023 273.042034) scale(0.14 -0.14)">
        <use xlink:href="#Utopia-Regular-14" transform="scale(0.916563)"/>
        <use xlink:href="#Utopia-Regular-10" transform="translate(48.617672 0) scale(0.916563)"/>
       </g>
      </g>
     </g>
     <g id="xtick_8">
      <g id="line2d_35">
       <path d="M 248.15193 256.58496 
L 248.15193 67.65696 
" clip-path="url(#p938779e902)" style="fill: none; stroke-dasharray: 1.85,0.8; stroke-dashoffset: 0; stroke: #b0b0b0; stroke-opacity: 0.35; stroke-width: 0.5"/>
      </g>
      <g id="line2d_36">
       <g>
        <use xlink:href="#ma47dea6f25" x="248.15193" y="256.58496" style="stroke: #000000; stroke-width: 0.8"/>
       </g>
      </g>
      <g id="text_19">
       <!-- $\mathdefault{60}$ -->
       <g transform="translate(241.348258 273.042034) scale(0.14 -0.14)">
        <use xlink:href="#Utopia-Regular-16" transform="scale(0.916563)"/>
        <use xlink:href="#Utopia-Regular-10" transform="translate(48.617672 0) scale(0.916563)"/>
       </g>
      </g>
     </g>
     <g id="xtick_9">
      <g id="line2d_37">
       <path d="M 326.748165 256.58496 
L 326.748165 67.65696 
" clip-path="url(#p938779e902)" style="fill: none; stroke-dasharray: 1.85,0.8; stroke-dashoffset: 0; stroke: #b0b0b0; stroke-opacity: 0.35; stroke-width: 0.5"/>
      </g>
      <g id="line2d_38">
       <g>
        <use xlink:href="#ma47dea6f25" x="326.748165" y="256.58496" style="stroke: #000000; stroke-width: 0.8"/>
       </g>
      </g>
      <g id="text_20">
       <!-- $\mathdefault{80}$ -->
       <g transform="translate(319.944493 273.042034) scale(0.14 -0.14)">
        <use xlink:href="#Utopia-Regular-18" transform="scale(0.916563)"/>
        <use xlink:href="#Utopia-Regular-10" transform="translate(48.617672 0) scale(0.916563)"/>
       </g>
      </g>
     </g>
    </g>
    <g id="matplotlib.axis_4">
     <g id="ytick_7">
      <g id="line2d_39">
       <path d="M 126.091977 252.433141 
L 401.650377 252.433141 
" clip-path="url(#p938779e902)" style="fill: none; stroke-dasharray: 1.85,0.8; stroke-dashoffset: 0; stroke: #b0b0b0; stroke-opacity: 0.35; stroke-width: 0.5"/>
      </g>
      <g id="line2d_40">
       <g>
        <use xlink:href="#mbc2b197c8f" x="126.091977" y="252.433141" style="stroke: #000000; stroke-width: 0.8"/>
       </g>
      </g>
      <g id="text_21">
       <!-- $\mathdefault{0.980}$ -->
       <g transform="translate(88.468473 257.161678) scale(0.14 -0.14)">
        <defs>
         <path id="Utopia-Regular-19" d="M 1465 1728 
C 1862 1728 2195 1952 2412 2264 
L 2425 2264 
C 2425 1862 2393 1344 2278 902 
C 2163 480 1939 160 1529 160 
C 1094 160 934 499 838 800 
C 812 883 768 934 659 934 
C 537 934 358 806 358 608 
C 358 326 697 -64 1472 -64 
C 1990 -64 2387 128 2630 467 
C 2892 832 3052 1395 3052 2321 
C 3052 3110 2892 3625 2643 3924 
C 2400 4211 2048 4352 1638 4352 
C 819 4352 230 3809 230 2932 
C 230 2137 806 1728 1465 1728 
z
M 1657 2067 
C 1158 2067 870 2499 870 3110 
C 870 3695 1132 4127 1632 4127 
C 2144 4127 2393 3523 2393 2906 
C 2393 2798 2387 2671 2348 2569 
C 2246 2270 1996 2067 1657 2067 
z
" transform="scale(0.015625)"/>
        </defs>
        <use xlink:href="#Utopia-Regular-10" transform="scale(0.916563)"/>
        <use xlink:href="#Utopia-Regular-e" transform="translate(48.617672 0) scale(0.916563)"/>
        <use xlink:href="#Utopia-Regular-19" transform="translate(72.926553 0) scale(0.916563)"/>
        <use xlink:href="#Utopia-Regular-18" transform="translate(121.544224 0) scale(0.916563)"/>
        <use xlink:href="#Utopia-Regular-10" transform="translate(170.161896 0) scale(0.916563)"/>
       </g>
      </g>
     </g>
     <g id="ytick_8">
      <g id="line2d_41">
       <path d="M 126.091977 213.916144 
L 401.650377 213.916144 
" clip-path="url(#p938779e902)" style="fill: none; stroke-dasharray: 1.85,0.8; stroke-dashoffset: 0; stroke: #b0b0b0; stroke-opacity: 0.35; stroke-width: 0.5"/>
      </g>
      <g id="line2d_42">
       <g>
        <use xlink:href="#mbc2b197c8f" x="126.091977" y="213.916144" style="stroke: #000000; stroke-width: 0.8"/>
       </g>
      </g>
      <g id="text_22">
       <!-- $\mathdefault{0.985}$ -->
       <g transform="translate(88.468473 218.644681) scale(0.14 -0.14)">
        <defs>
         <path id="Utopia-Regular-15" d="M 2726 3801 
L 2880 4236 
L 2848 4288 
L 710 4288 
L 646 4230 
L 518 2091 
L 672 2014 
C 940 2322 1203 2470 1548 2470 
C 1958 2470 2406 2168 2406 1321 
C 2406 660 2137 160 1580 160 
C 1132 160 902 487 774 853 
C 742 949 684 1007 595 1007 
C 467 1007 256 878 256 667 
C 256 371 704 -64 1536 -64 
C 2592 -64 3072 577 3072 1392 
C 3072 2290 2508 2752 1747 2752 
C 1395 2752 1017 2598 812 2412 
L 800 2425 
L 947 3617 
C 966 3776 1011 3801 1132 3801 
L 2726 3801 
z
" transform="scale(0.015625)"/>
        </defs>
        <use xlink:href="#Utopia-Regular-10" transform="scale(0.916563)"/>
        <use xlink:href="#Utopia-Regular-e" transform="translate(48.617672 0) scale(0.916563)"/>
        <use xlink:href="#Utopia-Regular-19" transform="translate(72.926553 0) scale(0.916563)"/>
        <use xlink:href="#Utopia-Regular-18" transform="translate(121.544224 0) scale(0.916563)"/>
        <use xlink:href="#Utopia-Regular-15" transform="translate(170.161896 0) scale(0.916563)"/>
       </g>
      </g>
     </g>
     <g id="ytick_9">
      <g id="line2d_43">
       <path d="M 126.091977 175.399147 
L 401.650377 175.399147 
" clip-path="url(#p938779e902)" style="fill: none; stroke-dasharray: 1.85,0.8; stroke-dashoffset: 0; stroke: #b0b0b0; stroke-opacity: 0.35; stroke-width: 0.5"/>
      </g>
      <g id="line2d_44">
       <g>
        <use xlink:href="#mbc2b197c8f" x="126.091977" y="175.399147" style="stroke: #000000; stroke-width: 0.8"/>
       </g>
      </g>
      <g id="text_23">
       <!-- $\mathdefault{0.990}$ -->
       <g transform="translate(88.468473 180.127684) scale(0.14 -0.14)">
        <use xlink:href="#Utopia-Regular-10" transform="scale(0.916563)"/>
        <use xlink:href="#Utopia-Regular-e" transform="translate(48.617672 0) scale(0.916563)"/>
        <use xlink:href="#Utopia-Regular-19" transform="translate(72.926553 0) scale(0.916563)"/>
        <use xlink:href="#Utopia-Regular-19" transform="translate(121.544224 0) scale(0.916563)"/>
        <use xlink:href="#Utopia-Regular-10" transform="translate(170.161896 0) scale(0.916563)"/>
       </g>
      </g>
     </g>
     <g id="ytick_10">
      <g id="line2d_45">
       <path d="M 126.091977 136.88215 
L 401.650377 136.88215 
" clip-path="url(#p938779e902)" style="fill: none; stroke-dasharray: 1.85,0.8; stroke-dashoffset: 0; stroke: #b0b0b0; stroke-opacity: 0.35; stroke-width: 0.5"/>
      </g>
      <g id="line2d_46">
       <g>
        <use xlink:href="#mbc2b197c8f" x="126.091977" y="136.88215" style="stroke: #000000; stroke-width: 0.8"/>
       </g>
      </g>
      <g id="text_24">
       <!-- $\mathdefault{0.995}$ -->
       <g transform="translate(88.468473 141.610687) scale(0.14 -0.14)">
        <use xlink:href="#Utopia-Regular-10" transform="scale(0.916563)"/>
        <use xlink:href="#Utopia-Regular-e" transform="translate(48.617672 0) scale(0.916563)"/>
        <use xlink:href="#Utopia-Regular-19" transform="translate(72.926553 0) scale(0.916563)"/>
        <use xlink:href="#Utopia-Regular-19" transform="translate(121.544224 0) scale(0.916563)"/>
        <use xlink:href="#Utopia-Regular-15" transform="translate(170.161896 0) scale(0.916563)"/>
       </g>
      </g>
     </g>
     <g id="ytick_11">
      <g id="line2d_47">
       <path d="M 126.091977 98.365153 
L 401.650377 98.365153 
" clip-path="url(#p938779e902)" style="fill: none; stroke-dasharray: 1.85,0.8; stroke-dashoffset: 0; stroke: #b0b0b0; stroke-opacity: 0.35; stroke-width: 0.5"/>
      </g>
      <g id="line2d_48">
       <g>
        <use xlink:href="#mbc2b197c8f" x="126.091977" y="98.365153" style="stroke: #000000; stroke-width: 0.8"/>
       </g>
      </g>
      <g id="text_25">
       <!-- $\mathdefault{1.000}$ -->
       <g transform="translate(88.468473 103.09369) scale(0.14 -0.14)">
        <use xlink:href="#Utopia-Regular-11" transform="scale(0.916563)"/>
        <use xlink:href="#Utopia-Regular-e" transform="translate(48.617672 0) scale(0.916563)"/>
        <use xlink:href="#Utopia-Regular-10" transform="translate(72.926553 0) scale(0.916563)"/>
        <use xlink:href="#Utopia-Regular-10" transform="translate(121.544224 0) scale(0.916563)"/>
        <use xlink:href="#Utopia-Regular-10" transform="translate(170.161896 0) scale(0.916563)"/>
       </g>
      </g>
     </g>
    </g>
    <g id="line2d_49">
     <path d="M 37.091464 437.16833 
L 39.871907 312.86119 
L 47.731531 185.979341 
L 59.520966 128.828031 
L 75.240213 111.537166 
L 90.95946 107.220924 
L 106.678707 105.759785 
L 138.117201 104.868527 
L 263.871177 104.49643 
L 389.625153 104.476836 
" clip-path="url(#p938779e902)" style="fill: none; stroke-dasharray: 7.68,1.92,1.2,1.92; stroke-dashoffset: 0; stroke: #006400; stroke-width: 1.2"/>
     <defs>
      <path id="m7a11aaf261" d="M -2 2 
L 2 2 
L 2 -2 
L -2 -2 
z
" style="stroke: #006400; stroke-width: 1.1; stroke-linejoin: miter"/>
     </defs>
     <g clip-path="url(#p938779e902)">
      <use xlink:href="#m7a11aaf261" x="16.293037" y="4331.266744" style="fill-opacity: 0; stroke: #006400; stroke-width: 1.1; stroke-linejoin: miter"/>
      <use xlink:href="#m7a11aaf261" x="24.15266" y="1635.871818" style="fill-opacity: 0; stroke: #006400; stroke-width: 1.1; stroke-linejoin: miter"/>
      <use xlink:href="#m7a11aaf261" x="32.012284" y="664.246666" style="fill-opacity: 0; stroke: #006400; stroke-width: 1.1; stroke-linejoin: miter"/>
      <use xlink:href="#m7a11aaf261" x="39.871907" y="312.86119" style="fill-opacity: 0; stroke: #006400; stroke-width: 1.1; stroke-linejoin: miter"/>
      <use xlink:href="#m7a11aaf261" x="47.731531" y="185.979341" style="fill-opacity: 0; stroke: #006400; stroke-width: 1.1; stroke-linejoin: miter"/>
      <use xlink:href="#m7a11aaf261" x="59.520966" y="128.828031" style="fill-opacity: 0; stroke: #006400; stroke-width: 1.1; stroke-linejoin: miter"/>
      <use xlink:href="#m7a11aaf261" x="75.240213" y="111.537166" style="fill-opacity: 0; stroke: #006400; stroke-width: 1.1; stroke-linejoin: miter"/>
      <use xlink:href="#m7a11aaf261" x="90.95946" y="107.220924" style="fill-opacity: 0; stroke: #006400; stroke-width: 1.1; stroke-linejoin: miter"/>
      <use xlink:href="#m7a11aaf261" x="106.678707" y="105.759785" style="fill-opacity: 0; stroke: #006400; stroke-width: 1.1; stroke-linejoin: miter"/>
      <use xlink:href="#m7a11aaf261" x="138.117201" y="104.868527" style="fill-opacity: 0; stroke: #006400; stroke-width: 1.1; stroke-linejoin: miter"/>
      <use xlink:href="#m7a11aaf261" x="263.871177" y="104.49643" style="fill-opacity: 0; stroke: #006400; stroke-width: 1.1; stroke-linejoin: miter"/>
      <use xlink:href="#m7a11aaf261" x="389.625153" y="104.476836" style="fill-opacity: 0; stroke: #006400; stroke-width: 1.1; stroke-linejoin: miter"/>
     </g>
    </g>
    <g id="line2d_50">
     <path d="M 57.548012 437.16833 
L 59.520966 402.244371 
L 75.240213 255.805672 
L 90.95946 180.613044 
L 106.678707 141.649553 
L 138.117201 111.56845 
L 263.871177 99.146117 
L 389.625153 98.64109 
" clip-path="url(#p938779e902)" style="fill: none; stroke-dasharray: 7.68,1.92,1.2,1.92; stroke-dashoffset: 0; stroke: #000000; stroke-width: 1.2"/>
     <defs>
      <path id="mef715216fa" d="M 0 2 
C 0.530406 2 1.03916 1.789267 1.414214 1.414214 
C 1.789267 1.03916 2 0.530406 2 0 
C 2 -0.530406 1.789267 -1.03916 1.414214 -1.414214 
C 1.03916 -1.789267 0.530406 -2 0 -2 
C -0.530406 -2 -1.03916 -1.789267 -1.414214 -1.414214 
C -1.789267 -1.03916 -2 -0.530406 -2 0 
C -2 0.530406 -1.789267 1.03916 -1.414214 1.414214 
C -1.03916 1.789267 -0.530406 2 0 2 
z
" style="stroke: #000000; stroke-width: 1.1"/>
     </defs>
     <g clip-path="url(#p938779e902)">
      <use xlink:href="#mef715216fa" x="16.293037" y="1656.846554" style="fill-opacity: 0; stroke: #000000; stroke-width: 1.1"/>
      <use xlink:href="#mef715216fa" x="24.15266" y="1797.561726" style="fill-opacity: 0; stroke: #000000; stroke-width: 1.1"/>
      <use xlink:href="#mef715216fa" x="32.012284" y="1271.37877" style="fill-opacity: 0; stroke: #000000; stroke-width: 1.1"/>
      <use xlink:href="#mef715216fa" x="39.871907" y="853.043265" style="fill-opacity: 0; stroke: #000000; stroke-width: 1.1"/>
      <use xlink:href="#mef715216fa" x="47.731531" y="610.933354" style="fill-opacity: 0; stroke: #000000; stroke-width: 1.1"/>
      <use xlink:href="#mef715216fa" x="59.520966" y="402.244371" style="fill-opacity: 0; stroke: #000000; stroke-width: 1.1"/>
      <use xlink:href="#mef715216fa" x="75.240213" y="255.805672" style="fill-opacity: 0; stroke: #000000; stroke-width: 1.1"/>
      <use xlink:href="#mef715216fa" x="90.95946" y="180.613044" style="fill-opacity: 0; stroke: #000000; stroke-width: 1.1"/>
      <use xlink:href="#mef715216fa" x="106.678707" y="141.649553" style="fill-opacity: 0; stroke: #000000; stroke-width: 1.1"/>
      <use xlink:href="#mef715216fa" x="138.117201" y="111.56845" style="fill-opacity: 0; stroke: #000000; stroke-width: 1.1"/>
      <use xlink:href="#mef715216fa" x="263.871177" y="99.146117" style="fill-opacity: 0; stroke: #000000; stroke-width: 1.1"/>
      <use xlink:href="#mef715216fa" x="389.625153" y="98.64109" style="fill-opacity: 0; stroke: #000000; stroke-width: 1.1"/>
     </g>
    </g>
    <g id="line2d_51">
     <path d="M 78.193214 437.16833 
L 90.95946 364.129195 
L 106.678707 302.516211 
L 138.117201 225.876767 
L 263.871177 122.241614 
L 389.625153 103.239248 
" clip-path="url(#p938779e902)" style="fill: none; stroke-dasharray: 7.68,1.92,1.2,1.92; stroke-dashoffset: 0; stroke: #8b0000; stroke-width: 1.2"/>
     <defs>
      <path id="m1e66ff3d08" d="M 0 -2 
L -2 2 
L 2 2 
z
" style="stroke: #8b0000; stroke-width: 1.1; stroke-linejoin: miter"/>
     </defs>
     <g clip-path="url(#p938779e902)">
      <use xlink:href="#m1e66ff3d08" x="16.293037" y="1588.939942" style="fill-opacity: 0; stroke: #8b0000; stroke-width: 1.1; stroke-linejoin: miter"/>
      <use xlink:href="#m1e66ff3d08" x="24.15266" y="652.993536" style="fill-opacity: 0; stroke: #8b0000; stroke-width: 1.1; stroke-linejoin: miter"/>
      <use xlink:href="#m1e66ff3d08" x="32.012284" y="521.540141" style="fill-opacity: 0; stroke: #8b0000; stroke-width: 1.1; stroke-linejoin: miter"/>
      <use xlink:href="#m1e66ff3d08" x="39.871907" y="580.01545" style="fill-opacity: 0; stroke: #8b0000; stroke-width: 1.1; stroke-linejoin: miter"/>
      <use xlink:href="#m1e66ff3d08" x="47.731531" y="628.989153" style="fill-opacity: 0; stroke: #8b0000; stroke-width: 1.1; stroke-linejoin: miter"/>
      <use xlink:href="#m1e66ff3d08" x="59.520966" y="576.718584" style="fill-opacity: 0; stroke: #8b0000; stroke-width: 1.1; stroke-linejoin: miter"/>
      <use xlink:href="#m1e66ff3d08" x="75.240213" y="454.063244" style="fill-opacity: 0; stroke: #8b0000; stroke-width: 1.1; stroke-linejoin: miter"/>
      <use xlink:href="#m1e66ff3d08" x="90.95946" y="364.129195" style="fill-opacity: 0; stroke: #8b0000; stroke-width: 1.1; stroke-linejoin: miter"/>
      <use xlink:href="#m1e66ff3d08" x="106.678707" y="302.516211" style="fill-opacity: 0; stroke: #8b0000; stroke-width: 1.1; stroke-linejoin: miter"/>
      <use xlink:href="#m1e66ff3d08" x="138.117201" y="225.876767" style="fill-opacity: 0; stroke: #8b0000; stroke-width: 1.1; stroke-linejoin: miter"/>
      <use xlink:href="#m1e66ff3d08" x="263.871177" y="122.241614" style="fill-opacity: 0; stroke: #8b0000; stroke-width: 1.1; stroke-linejoin: miter"/>
      <use xlink:href="#m1e66ff3d08" x="389.625153" y="103.239248" style="fill-opacity: 0; stroke: #8b0000; stroke-width: 1.1; stroke-linejoin: miter"/>
     </g>
    </g>
    <g id="patch_12">
     <path d="M 126.091977 256.58496 
L 126.091977 67.65696 
" style="fill: none; stroke: #000000; stroke-width: 0.8; stroke-linejoin: miter; stroke-linecap: square"/>
    </g>
    <g id="patch_13">
     <path d="M 401.650377 256.58496 
L 401.650377 67.65696 
" style="fill: none; stroke: #000000; stroke-width: 0.8; stroke-linejoin: miter; stroke-linecap: square"/>
    </g>
    <g id="patch_14">
     <path d="M 126.091977 256.58496 
L 401.650377 256.58496 
" style="fill: none; stroke: #000000; stroke-width: 0.8; stroke-linejoin: miter; stroke-linecap: square"/>
    </g>
    <g id="patch_15">
     <path d="M 126.091977 67.65696 
L 401.650377 67.65696 
" style="fill: none; stroke: #000000; stroke-width: 0.8; stroke-linejoin: miter; stroke-linecap: square"/>
    </g>
   </g>
   <g id="legend_2">
    <g id="patch_16">
     <path d="M 448.419463 377.056 
L 575.922377 377.056 
Q 579.122377 377.056 579.122377 373.856 
L 579.122377 307.583213 
Q 579.122377 304.383213 575.922377 304.383213 
L 448.419463 304.383213 
Q 445.219463 304.383213 445.219463 307.583213 
L 445.219463 373.856 
Q 445.219463 377.056 448.419463 377.056 
z
" style="fill: #ffffff; opacity: 0.8; stroke: #cccccc; stroke-linejoin: miter"/>
    </g>
    <g id="line2d_52">
     <path d="M 451.619463 316.383213 
L 467.619463 316.383213 
L 483.619463 316.383213 
" style="fill: none; stroke: #006400; stroke-width: 1.5; stroke-linecap: square"/>
     <g>
      <use xlink:href="#m920d3da3ad" x="467.619463" y="316.383213" style="fill-opacity: 0; stroke: #006400; stroke-width: 1.1; stroke-linejoin: miter"/>
     </g>
    </g>
    <g id="text_26">
     <!-- $1/t = 100$ -->
     <g transform="translate(496.419463 321.983213) scale(0.16 -0.16)">
      <use xlink:href="#Utopia-Regular-11" transform="scale(0.916563)"/>
      <use xlink:href="#Utopia-Regular-f" transform="translate(48.617672 0) scale(0.916563)"/>
      <use xlink:href="#Utopia-Italic-54" transform="translate(92.752246 0) scale(0.916563)"/>
      <use xlink:href="#Fourier-Math-Symbols-65" transform="translate(150.845447 0) scale(0.916563)"/>
      <use xlink:href="#Utopia-Regular-11" transform="translate(233.845263 0) scale(0.916563)"/>
      <use xlink:href="#Utopia-Regular-10" transform="translate(282.462935 0) scale(0.916563)"/>
      <use xlink:href="#Utopia-Regular-10" transform="translate(331.080607 0) scale(0.916563)"/>
     </g>
    </g>
    <g id="line2d_53">
     <path d="M 451.619463 339.007475 
L 467.619463 339.007475 
L 483.619463 339.007475 
" style="fill: none; stroke: #000000; stroke-width: 1.5; stroke-linecap: square"/>
     <g>
      <use xlink:href="#mbf2bfc565a" x="467.619463" y="339.007475" style="fill-opacity: 0; stroke: #000000; stroke-width: 1.1"/>
     </g>
    </g>
    <g id="text_27">
     <!-- $1/t = 1000$ -->
     <g transform="translate(496.419463 344.607475) scale(0.16 -0.16)">
      <use xlink:href="#Utopia-Regular-11" transform="scale(0.916563)"/>
      <use xlink:href="#Utopia-Regular-f" transform="translate(48.617672 0) scale(0.916563)"/>
      <use xlink:href="#Utopia-Italic-54" transform="translate(92.752246 0) scale(0.916563)"/>
      <use xlink:href="#Fourier-Math-Symbols-65" transform="translate(150.845447 0) scale(0.916563)"/>
      <use xlink:href="#Utopia-Regular-11" transform="translate(233.845263 0) scale(0.916563)"/>
      <use xlink:href="#Utopia-Regular-10" transform="translate(282.462935 0) scale(0.916563)"/>
      <use xlink:href="#Utopia-Regular-10" transform="translate(331.080607 0) scale(0.916563)"/>
      <use xlink:href="#Utopia-Regular-10" transform="translate(379.698278 0) scale(0.916563)"/>
     </g>
    </g>
    <g id="line2d_54">
     <path d="M 451.619463 361.631738 
L 467.619463 361.631738 
L 483.619463 361.631738 
" style="fill: none; stroke: #8b0000; stroke-width: 1.5; stroke-linecap: square"/>
     <g>
      <use xlink:href="#m591ead8a2d" x="467.619463" y="361.631738" style="fill-opacity: 0; stroke: #8b0000; stroke-width: 1.1; stroke-linejoin: miter"/>
     </g>
    </g>
    <g id="text_28">
     <!-- $1/t = 10000$ -->
     <g transform="translate(496.419463 367.231738) scale(0.16 -0.16)">
      <use xlink:href="#Utopia-Regular-11" transform="scale(0.916563)"/>
      <use xlink:href="#Utopia-Regular-f" transform="translate(48.617672 0) scale(0.916563)"/>
      <use xlink:href="#Utopia-Italic-54" transform="translate(92.752246 0) scale(0.916563)"/>
      <use xlink:href="#Fourier-Math-Symbols-65" transform="translate(150.845447 0) scale(0.916563)"/>
      <use xlink:href="#Utopia-Regular-11" transform="translate(233.845263 0) scale(0.916563)"/>
      <use xlink:href="#Utopia-Regular-10" transform="translate(282.462935 0) scale(0.916563)"/>
      <use xlink:href="#Utopia-Regular-10" transform="translate(331.080607 0) scale(0.916563)"/>
      <use xlink:href="#Utopia-Regular-10" transform="translate(379.698278 0) scale(0.916563)"/>
      <use xlink:href="#Utopia-Regular-10" transform="translate(428.31595 0) scale(0.916563)"/>
     </g>
    </g>
   </g>
  </g>
 </g>
 <defs>
  <clipPath id="p3b0d24a3fa">
   <rect x="57.202377" y="7.2" width="529.92" height="377.856"/>
  </clipPath>
  <clipPath id="p938779e902">
   <rect x="126.091977" y="67.65696" width="275.5584" height="188.928"/>
  </clipPath>
 </defs>
</svg>
