<?xml version="1.0" encoding="utf-8" standalone="no"?>
<!DOCTYPE svg PUBLIC "-//W3C//DTD SVG 1.1//EN"
  "http://www.w3.org/Graphics/SVG/1.1/DTD/svg11.dtd">
<svg xmlns:xlink="http://www.w3.org/1999/xlink" width="1051.221094pt" height="406.51456pt" viewBox="0 0 1051.221094 406.51456" xmlns="http://www.w3.org/2000/svg" version="1.1">
 <metadata>
  <rdf:RDF xmlns:dc="http://purl.org/dc/elements/1.1/" xmlns:cc="http://creativecommons.org/ns#" xmlns:rdf="http://www.w3.org/1999/02/22-rdf-syntax-ns#">
   <cc:Work>
    <dc:type rdf:resource="http://purl.org/dc/dcmitype/StillImage"/>
    <dc:date>2026-06-21T15:35:24.540062</dc:date>
    <dc:format>image/svg+xml</dc:format>
    <dc:creator>
     <cc:Agent>
      <dc:title>Matplotlib v3.11.0, https://matplotlib.org/</dc:title>
     </cc:Agent>
    </dc:creator>
   </cc:Work>
  </rdf:RDF>
 </metadata>
 <defs>
  <style type="text/css">*{stroke-linejoin: round; stroke-linecap: butt}</style>
 </defs>
 <g id="figure_1">
  <g id="patch_1">
   <path d="M 0 406.51456 
L 1051.221094 406.51456 
L 1051.221094 0 
L 0 0 
z
" style="fill: #ffffff"/>
  </g>
  <g id="axes_1">
   <g id="patch_2">
    <path d="M 70.435313 312.048 
L 440.522269 312.048 
L 440.522269 7.2 
L 70.435313 7.2 
z
" style="fill: #ffffff"/>
   </g>
   <g id="line2d_1">
    <path d="M 70.435313 34.913455 
L 440.522269 34.913455 
" clip-path="url(#p5cda40cd59)" style="fill: none; stroke-dasharray: 7.8,3.9; stroke-dashoffset: 0; stroke: #666666; stroke-width: 1.3"/>
   </g>
   <g id="matplotlib.axis_1">
    <g id="xtick_1">
     <g id="line2d_2">
      <path d="M 117.843146 312.048 
L 117.843146 7.2 
" clip-path="url(#p5cda40cd59)" style="fill: none; stroke-dasharray: 2.775,1.2; stroke-dashoffset: 0; stroke: #b0b0b0; stroke-opacity: 0.4; stroke-width: 0.75"/>
     </g>
     <g id="line2d_3">
      <defs>
       <path id="m918783b018" d="M 0 0 
L 0 3.5 
" style="stroke: #000000; stroke-width: 0.8"/>
      </defs>
      <g>
       <use xlink:href="#m918783b018" x="117.843146" y="312.048" style="stroke: #000000; stroke-width: 0.8"/>
      </g>
     </g>
     <g id="text_1">
      <!-- 100 -->
      <g transform="translate(101.618771 331.964016) scale(0.17 -0.17)">
       <defs>
        <path id="DejaVuSerif-14" d="M 909 0 
L 909 331 
L 1722 331 
L 1722 4213 
L 781 3603 
L 781 4013 
L 1919 4750 
L 2350 4750 
L 2350 331 
L 3163 331 
L 3163 0 
L 909 0 
z
" transform="scale(0.015625)"/>
        <path id="DejaVuSerif-13" d="M 2034 219 
Q 2513 219 2750 744 
Q 2988 1269 2988 2328 
Q 2988 3391 2750 3916 
Q 2513 4441 2034 4441 
Q 1556 4441 1318 3916 
Q 1081 3391 1081 2328 
Q 1081 1269 1318 744 
Q 1556 219 2034 219 
z
M 2034 -91 
Q 1275 -91 848 546 
Q 422 1184 422 2328 
Q 422 3475 848 4112 
Q 1275 4750 2034 4750 
Q 2797 4750 3222 4112 
Q 3647 3475 3647 2328 
Q 3647 1184 3222 546 
Q 2797 -91 2034 -91 
z
" transform="scale(0.015625)"/>
       </defs>
       <use xlink:href="#DejaVuSerif-14"/>
       <use xlink:href="#DejaVuSerif-13" transform="translate(63.625 0)"/>
       <use xlink:href="#DejaVuSerif-13" transform="translate(127.25 0)"/>
      </g>
     </g>
    </g>
    <g id="xtick_2">
     <g id="line2d_4">
      <path d="M 194.307393 312.048 
L 194.307393 7.2 
" clip-path="url(#p5cda40cd59)" style="fill: none; stroke-dasharray: 2.775,1.2; stroke-dashoffset: 0; stroke: #b0b0b0; stroke-opacity: 0.4; stroke-width: 0.75"/>
     </g>
     <g id="line2d_5">
      <g>
       <use xlink:href="#m918783b018" x="194.307393" y="312.048" style="stroke: #000000; stroke-width: 0.8"/>
      </g>
     </g>
     <g id="text_2">
      <!-- 150 -->
      <g transform="translate(178.083018 331.964016) scale(0.17 -0.17)">
       <defs>
        <path id="DejaVuSerif-18" d="M 3219 4666 
L 3219 4153 
L 1081 4153 
L 1081 2816 
Q 1244 2928 1461 2984 
Q 1678 3041 1947 3041 
Q 2703 3041 3140 2622 
Q 3578 2203 3578 1478 
Q 3578 738 3136 323 
Q 2694 -91 1894 -91 
Q 1572 -91 1234 -12 
Q 897 66 544 225 
L 544 1131 
L 897 1131 
Q 925 688 1179 453 
Q 1434 219 1894 219 
Q 2388 219 2653 544 
Q 2919 869 2919 1478 
Q 2919 2084 2655 2407 
Q 2391 2731 1894 2731 
Q 1613 2731 1398 2631 
Q 1184 2531 1019 2322 
L 750 2322 
L 750 4666 
L 3219 4666 
z
" transform="scale(0.015625)"/>
       </defs>
       <use xlink:href="#DejaVuSerif-14"/>
       <use xlink:href="#DejaVuSerif-18" transform="translate(63.625 0)"/>
       <use xlink:href="#DejaVuSerif-13" transform="translate(127.25 0)"/>
      </g>
     </g>
    </g>
    <g id="xtick_3">
     <g id="line2d_6">
      <path d="M 270.77164 312.048 
L 270.77164 7.2 
" clip-path="url(#p5cda40cd59)" style="fill: none; stroke-dasharray: 2.775,1.2; stroke-dashoffset: 0; stroke: #b0b0b0; stroke-opacity: 0.4; stroke-width: 0.75"/>
     </g>
     <g id="line2d_7">
      <g>
       <use xlink:href="#m918783b018" x="270.77164" y="312.048" style="stroke: #000000; stroke-width: 0.8"/>
      </g>
     </g>
     <g id="text_3">
      <!-- 200 -->
      <g transform="translate(254.547265 331.964016) scale(0.17 -0.17)">
       <defs>
        <path id="DejaVuSerif-15" d="M 819 3553 
L 469 3553 
L 469 4384 
Q 803 4563 1142 4656 
Q 1481 4750 1806 4750 
Q 2534 4750 2956 4397 
Q 3378 4044 3378 3438 
Q 3378 2753 2422 1800 
Q 2347 1728 2309 1691 
L 1131 513 
L 3078 513 
L 3078 1088 
L 3444 1088 
L 3444 0 
L 434 0 
L 434 341 
L 1850 1753 
Q 2319 2222 2519 2614 
Q 2719 3006 2719 3438 
Q 2719 3909 2473 4175 
Q 2228 4441 1797 4441 
Q 1350 4441 1106 4219 
Q 863 3997 819 3553 
z
" transform="scale(0.015625)"/>
       </defs>
       <use xlink:href="#DejaVuSerif-15"/>
       <use xlink:href="#DejaVuSerif-13" transform="translate(63.625 0)"/>
       <use xlink:href="#DejaVuSerif-13" transform="translate(127.25 0)"/>
      </g>
     </g>
    </g>
    <g id="xtick_4">
     <g id="line2d_8">
      <path d="M 347.235887 312.048 
L 347.235887 7.2 
" clip-path="url(#p5cda40cd59)" style="fill: none; stroke-dasharray: 2.775,1.2; stroke-dashoffset: 0; stroke: #b0b0b0; stroke-opacity: 0.4; stroke-width: 0.75"/>
     </g>
     <g id="line2d_9">
      <g>
       <use xlink:href="#m918783b018" x="347.235887" y="312.048" style="stroke: #000000; stroke-width: 0.8"/>
      </g>
     </g>
     <g id="text_4">
      <!-- 250 -->
      <g transform="translate(331.011512 331.964016) scale(0.17 -0.17)">
       <use xlink:href="#DejaVuSerif-15"/>
       <use xlink:href="#DejaVuSerif-18" transform="translate(63.625 0)"/>
       <use xlink:href="#DejaVuSerif-13" transform="translate(127.25 0)"/>
      </g>
     </g>
    </g>
    <g id="xtick_5">
     <g id="line2d_10">
      <path d="M 423.700135 312.048 
L 423.700135 7.2 
" clip-path="url(#p5cda40cd59)" style="fill: none; stroke-dasharray: 2.775,1.2; stroke-dashoffset: 0; stroke: #b0b0b0; stroke-opacity: 0.4; stroke-width: 0.75"/>
     </g>
     <g id="line2d_11">
      <g>
       <use xlink:href="#m918783b018" x="423.700135" y="312.048" style="stroke: #000000; stroke-width: 0.8"/>
      </g>
     </g>
     <g id="text_5">
      <!-- 300 -->
      <g transform="translate(407.47576 331.964016) scale(0.17 -0.17)">
       <defs>
        <path id="DejaVuSerif-16" d="M 622 4469 
Q 988 4606 1323 4678 
Q 1659 4750 1953 4750 
Q 2638 4750 3022 4454 
Q 3406 4159 3406 3634 
Q 3406 3213 3140 2930 
Q 2875 2647 2388 2547 
Q 2963 2466 3280 2130 
Q 3597 1794 3597 1259 
Q 3597 606 3158 257 
Q 2719 -91 1894 -91 
Q 1528 -91 1179 -12 
Q 831 66 488 225 
L 488 1131 
L 838 1131 
Q 869 681 1141 450 
Q 1413 219 1906 219 
Q 2384 219 2661 495 
Q 2938 772 2938 1253 
Q 2938 1803 2653 2086 
Q 2369 2369 1819 2369 
L 1522 2369 
L 1522 2688 
L 1678 2688 
Q 2225 2688 2498 2914 
Q 2772 3141 2772 3597 
Q 2772 4006 2547 4223 
Q 2322 4441 1900 4441 
Q 1478 4441 1245 4241 
Q 1013 4041 972 3647 
L 622 3647 
L 622 4469 
z
" transform="scale(0.015625)"/>
       </defs>
       <use xlink:href="#DejaVuSerif-16"/>
       <use xlink:href="#DejaVuSerif-13" transform="translate(63.625 0)"/>
       <use xlink:href="#DejaVuSerif-13" transform="translate(127.25 0)"/>
      </g>
     </g>
    </g>
    <g id="text_6">
     <!-- dofs -->
     <g transform="translate(234.224103 355.244875) scale(0.2 -0.2)">
      <defs>
       <path id="DejaVuSerif-47" d="M 3359 331 
L 3909 331 
L 3909 0 
L 2784 0 
L 2784 519 
Q 2616 206 2355 57 
Q 2094 -91 1709 -91 
Q 1097 -91 708 395 
Q 319 881 319 1663 
Q 319 2444 706 2928 
Q 1094 3413 1709 3413 
Q 2094 3413 2355 3264 
Q 2616 3116 2784 2803 
L 2784 4531 
L 2241 4531 
L 2241 4863 
L 3359 4863 
L 3359 331 
z
M 2784 1497 
L 2784 1825 
Q 2784 2422 2554 2737 
Q 2325 3053 1888 3053 
Q 1444 3053 1217 2703 
Q 991 2353 991 1663 
Q 991 975 1217 622 
Q 1444 269 1888 269 
Q 2325 269 2554 583 
Q 2784 897 2784 1497 
z
" transform="scale(0.015625)"/>
       <path id="DejaVuSerif-52" d="M 1925 219 
Q 2388 219 2623 584 
Q 2859 950 2859 1663 
Q 2859 2375 2623 2739 
Q 2388 3103 1925 3103 
Q 1463 3103 1227 2739 
Q 991 2375 991 1663 
Q 991 950 1228 584 
Q 1466 219 1925 219 
z
M 1925 -91 
Q 1200 -91 759 389 
Q 319 869 319 1663 
Q 319 2456 758 2934 
Q 1197 3413 1925 3413 
Q 2653 3413 3092 2934 
Q 3531 2456 3531 1663 
Q 3531 869 3092 389 
Q 2653 -91 1925 -91 
z
" transform="scale(0.015625)"/>
       <path id="DejaVuSerif-49" d="M 2753 4078 
L 2450 4078 
Q 2447 4313 2317 4434 
Q 2188 4556 1941 4556 
Q 1619 4556 1487 4379 
Q 1356 4203 1356 3750 
L 1356 3322 
L 2284 3322 
L 2284 2988 
L 1356 2988 
L 1356 331 
L 2094 331 
L 2094 0 
L 231 0 
L 231 331 
L 781 331 
L 781 2988 
L 231 2988 
L 231 3322 
L 781 3322 
L 781 3738 
Q 781 4294 1070 4578 
Q 1359 4863 1919 4863 
Q 2128 4863 2337 4825 
Q 2547 4788 2753 4709 
L 2753 4078 
z
" transform="scale(0.015625)"/>
       <path id="DejaVuSerif-56" d="M 359 184 
L 359 959 
L 691 959 
Q 703 588 923 403 
Q 1144 219 1575 219 
Q 1963 219 2166 364 
Q 2369 509 2369 788 
Q 2369 1006 2220 1140 
Q 2072 1275 1594 1428 
L 1178 1569 
Q 750 1706 558 1912 
Q 366 2119 366 2438 
Q 366 2894 700 3153 
Q 1034 3413 1625 3413 
Q 1888 3413 2178 3344 
Q 2469 3275 2778 3144 
L 2778 2419 
L 2447 2419 
Q 2434 2741 2221 2922 
Q 2009 3103 1644 3103 
Q 1281 3103 1095 2975 
Q 909 2847 909 2591 
Q 909 2381 1050 2254 
Q 1191 2128 1613 1997 
L 2069 1856 
Q 2541 1709 2748 1489 
Q 2956 1269 2956 922 
Q 2956 450 2595 179 
Q 2234 -91 1600 -91 
Q 1278 -91 972 -22 
Q 666 47 359 184 
z
" transform="scale(0.015625)"/>
      </defs>
      <use xlink:href="#DejaVuSerif-47"/>
      <use xlink:href="#DejaVuSerif-52" transform="translate(64.015625 0)"/>
      <use xlink:href="#DejaVuSerif-49" transform="translate(124.21875 0)"/>
      <use xlink:href="#DejaVuSerif-56" transform="translate(161.234375 0)"/>
     </g>
    </g>
   </g>
   <g id="matplotlib.axis_2">
    <g id="ytick_1">
     <g id="line2d_12">
      <path d="M 70.435313 312.048 
L 440.522269 312.048 
" clip-path="url(#p5cda40cd59)" style="fill: none; stroke-dasharray: 2.775,1.2; stroke-dashoffset: 0; stroke: #b0b0b0; stroke-opacity: 0.4; stroke-width: 0.75"/>
     </g>
     <g id="line2d_13">
      <defs>
       <path id="mcb0f664ade" d="M 0 0 
L -3.5 0 
" style="stroke: #000000; stroke-width: 0.8"/>
      </defs>
      <g>
       <use xlink:href="#mcb0f664ade" x="70.435313" y="312.048" style="stroke: #000000; stroke-width: 0.8"/>
      </g>
     </g>
     <g id="text_7">
      <!-- 0.0 -->
      <g transform="translate(36.4 318.506008) scale(0.17 -0.17)">
       <defs>
        <path id="DejaVuSerif-11" d="M 603 325 
Q 603 500 722 622 
Q 841 744 1019 744 
Q 1191 744 1312 622 
Q 1434 500 1434 325 
Q 1434 153 1312 31 
Q 1191 -91 1019 -91 
Q 841 -91 722 29 
Q 603 150 603 325 
z
" transform="scale(0.015625)"/>
       </defs>
       <use xlink:href="#DejaVuSerif-13"/>
       <use xlink:href="#DejaVuSerif-11" transform="translate(63.625 0)"/>
       <use xlink:href="#DejaVuSerif-13" transform="translate(95.40625 0)"/>
      </g>
     </g>
    </g>
    <g id="ytick_2">
     <g id="line2d_14">
      <path d="M 70.435313 256.621091 
L 440.522269 256.621091 
" clip-path="url(#p5cda40cd59)" style="fill: none; stroke-dasharray: 2.775,1.2; stroke-dashoffset: 0; stroke: #b0b0b0; stroke-opacity: 0.4; stroke-width: 0.75"/>
     </g>
     <g id="line2d_15">
      <g>
       <use xlink:href="#mcb0f664ade" x="70.435313" y="256.621091" style="stroke: #000000; stroke-width: 0.8"/>
      </g>
     </g>
     <g id="text_8">
      <!-- 0.2 -->
      <g transform="translate(36.4 263.079099) scale(0.17 -0.17)">
       <use xlink:href="#DejaVuSerif-13"/>
       <use xlink:href="#DejaVuSerif-11" transform="translate(63.625 0)"/>
       <use xlink:href="#DejaVuSerif-15" transform="translate(95.40625 0)"/>
      </g>
     </g>
    </g>
    <g id="ytick_3">
     <g id="line2d_16">
      <path d="M 70.435313 201.194182 
L 440.522269 201.194182 
" clip-path="url(#p5cda40cd59)" style="fill: none; stroke-dasharray: 2.775,1.2; stroke-dashoffset: 0; stroke: #b0b0b0; stroke-opacity: 0.4; stroke-width: 0.75"/>
     </g>
     <g id="line2d_17">
      <g>
       <use xlink:href="#mcb0f664ade" x="70.435313" y="201.194182" style="stroke: #000000; stroke-width: 0.8"/>
      </g>
     </g>
     <g id="text_9">
      <!-- 0.4 -->
      <g transform="translate(36.4 207.65219) scale(0.17 -0.17)">
       <defs>
        <path id="DejaVuSerif-17" d="M 2234 1581 
L 2234 4063 
L 641 1581 
L 2234 1581 
z
M 3609 0 
L 1484 0 
L 1484 331 
L 2234 331 
L 2234 1247 
L 197 1247 
L 197 1588 
L 2241 4750 
L 2859 4750 
L 2859 1581 
L 3750 1581 
L 3750 1247 
L 2859 1247 
L 2859 331 
L 3609 331 
L 3609 0 
z
" transform="scale(0.015625)"/>
       </defs>
       <use xlink:href="#DejaVuSerif-13"/>
       <use xlink:href="#DejaVuSerif-11" transform="translate(63.625 0)"/>
       <use xlink:href="#DejaVuSerif-17" transform="translate(95.40625 0)"/>
      </g>
     </g>
    </g>
    <g id="ytick_4">
     <g id="line2d_18">
      <path d="M 70.435313 145.767273 
L 440.522269 145.767273 
" clip-path="url(#p5cda40cd59)" style="fill: none; stroke-dasharray: 2.775,1.2; stroke-dashoffset: 0; stroke: #b0b0b0; stroke-opacity: 0.4; stroke-width: 0.75"/>
     </g>
     <g id="line2d_19">
      <g>
       <use xlink:href="#mcb0f664ade" x="70.435313" y="145.767273" style="stroke: #000000; stroke-width: 0.8"/>
      </g>
     </g>
     <g id="text_10">
      <!-- 0.6 -->
      <g transform="translate(36.4 152.225281) scale(0.17 -0.17)">
       <defs>
        <path id="DejaVuSerif-19" d="M 2094 219 
Q 2534 219 2771 542 
Q 3009 866 3009 1472 
Q 3009 2078 2771 2401 
Q 2534 2725 2094 2725 
Q 1647 2725 1412 2412 
Q 1178 2100 1178 1509 
Q 1178 888 1415 553 
Q 1653 219 2094 219 
z
M 1075 2569 
Q 1288 2803 1556 2918 
Q 1825 3034 2163 3034 
Q 2859 3034 3264 2615 
Q 3669 2197 3669 1472 
Q 3669 763 3233 336 
Q 2797 -91 2069 -91 
Q 1278 -91 853 498 
Q 428 1088 428 2181 
Q 428 3406 931 4078 
Q 1434 4750 2350 4750 
Q 2597 4750 2869 4703 
Q 3141 4656 3425 4563 
L 3425 3794 
L 3072 3794 
Q 3034 4109 2831 4275 
Q 2628 4441 2284 4441 
Q 1678 4441 1381 3981 
Q 1084 3522 1075 2569 
z
" transform="scale(0.015625)"/>
       </defs>
       <use xlink:href="#DejaVuSerif-13"/>
       <use xlink:href="#DejaVuSerif-11" transform="translate(63.625 0)"/>
       <use xlink:href="#DejaVuSerif-19" transform="translate(95.40625 0)"/>
      </g>
     </g>
    </g>
    <g id="ytick_5">
     <g id="line2d_20">
      <path d="M 70.435313 90.340364 
L 440.522269 90.340364 
" clip-path="url(#p5cda40cd59)" style="fill: none; stroke-dasharray: 2.775,1.2; stroke-dashoffset: 0; stroke: #b0b0b0; stroke-opacity: 0.4; stroke-width: 0.75"/>
     </g>
     <g id="line2d_21">
      <g>
       <use xlink:href="#mcb0f664ade" x="70.435313" y="90.340364" style="stroke: #000000; stroke-width: 0.8"/>
      </g>
     </g>
     <g id="text_11">
      <!-- 0.8 -->
      <g transform="translate(36.4 96.798371) scale(0.17 -0.17)">
       <defs>
        <path id="DejaVuSerif-1b" d="M 2981 1275 
Q 2981 1775 2732 2051 
Q 2484 2328 2034 2328 
Q 1584 2328 1336 2051 
Q 1088 1775 1088 1275 
Q 1088 772 1336 495 
Q 1584 219 2034 219 
Q 2484 219 2732 495 
Q 2981 772 2981 1275 
z
M 2853 3541 
Q 2853 3966 2637 4203 
Q 2422 4441 2034 4441 
Q 1650 4441 1433 4203 
Q 1216 3966 1216 3541 
Q 1216 3113 1433 2875 
Q 1650 2638 2034 2638 
Q 2422 2638 2637 2875 
Q 2853 3113 2853 3541 
z
M 2516 2484 
Q 3047 2413 3344 2092 
Q 3641 1772 3641 1275 
Q 3641 619 3225 264 
Q 2809 -91 2034 -91 
Q 1263 -91 845 264 
Q 428 619 428 1275 
Q 428 1772 725 2092 
Q 1022 2413 1556 2484 
Q 1084 2569 832 2842 
Q 581 3116 581 3541 
Q 581 4103 968 4426 
Q 1356 4750 2034 4750 
Q 2713 4750 3100 4426 
Q 3488 4103 3488 3541 
Q 3488 3116 3236 2842 
Q 2984 2569 2516 2484 
z
" transform="scale(0.015625)"/>
       </defs>
       <use xlink:href="#DejaVuSerif-13"/>
       <use xlink:href="#DejaVuSerif-11" transform="translate(63.625 0)"/>
       <use xlink:href="#DejaVuSerif-1b" transform="translate(95.40625 0)"/>
      </g>
     </g>
    </g>
    <g id="ytick_6">
     <g id="line2d_22">
      <path d="M 70.435313 34.913455 
L 440.522269 34.913455 
" clip-path="url(#p5cda40cd59)" style="fill: none; stroke-dasharray: 2.775,1.2; stroke-dashoffset: 0; stroke: #b0b0b0; stroke-opacity: 0.4; stroke-width: 0.75"/>
     </g>
     <g id="line2d_23">
      <g>
       <use xlink:href="#mcb0f664ade" x="70.435313" y="34.913455" style="stroke: #000000; stroke-width: 0.8"/>
      </g>
     </g>
     <g id="text_12">
      <!-- 1.0 -->
      <g transform="translate(36.4 41.371462) scale(0.17 -0.17)">
       <use xlink:href="#DejaVuSerif-14"/>
       <use xlink:href="#DejaVuSerif-11" transform="translate(63.625 0)"/>
       <use xlink:href="#DejaVuSerif-13" transform="translate(95.40625 0)"/>
      </g>
     </g>
    </g>
    <g id="text_13">
     <!-- $u_A / u_A^{\mathrm{ref}}$ -->
     <g transform="translate(25.4 191.624) rotate(-90) scale(0.2 -0.2)">
      <defs>
       <path id="Cmmi10-60" d="M 678 697 
Q 678 906 734 1126 
Q 791 1347 892 1617 
Q 994 1888 1069 2088 
Q 1153 2322 1153 2472 
Q 1153 2663 1013 2663 
Q 759 2663 595 2402 
Q 431 2141 353 1819 
Q 341 1778 300 1778 
L 225 1778 
Q 172 1778 172 1838 
L 172 1856 
Q 275 2238 487 2533 
Q 700 2828 1025 2828 
Q 1253 2828 1411 2678 
Q 1569 2528 1569 2297 
Q 1569 2178 1516 2047 
Q 1488 1969 1388 1706 
Q 1288 1444 1234 1272 
Q 1181 1100 1147 934 
Q 1113 769 1113 603 
Q 1113 391 1203 244 
Q 1294 97 1497 97 
Q 1906 97 2216 603 
Q 2222 628 2226 651 
Q 2231 675 2234 697 
L 2694 2553 
Q 2716 2638 2794 2698 
Q 2872 2759 2963 2759 
Q 3041 2759 3098 2709 
Q 3156 2659 3156 2578 
Q 3156 2541 3150 2528 
L 2688 684 
Q 2644 494 2644 372 
Q 2644 97 2828 97 
Q 3034 97 3136 351 
Q 3238 606 3309 941 
Q 3322 978 3359 978 
L 3438 978 
Q 3463 978 3478 956 
Q 3494 934 3494 916 
Q 3425 641 3361 444 
Q 3297 247 3159 87 
Q 3022 -72 2816 -72 
Q 2613 -72 2452 39 
Q 2291 150 2234 341 
Q 2088 153 1894 40 
Q 1700 -72 1484 -72 
Q 1116 -72 897 129 
Q 678 331 678 697 
z
" transform="scale(0.015625)"/>
       <path id="Cmmi10-5c" d="M 288 0 
Q 225 0 225 84 
Q 250 225 306 225 
Q 566 225 755 328 
Q 944 431 1081 647 
Q 1094 659 1094 659 
L 3378 4513 
Q 3428 4581 3500 4581 
L 3584 4581 
Q 3603 4581 3622 4573 
Q 3641 4566 3655 4548 
Q 3669 4531 3669 4513 
L 4056 378 
Q 4056 350 4084 294 
Q 4147 225 4563 225 
Q 4628 225 4628 141 
Q 4606 56 4592 28 
Q 4578 0 4519 0 
L 2919 0 
Q 2859 0 2859 84 
Q 2894 225 2944 225 
Q 3450 225 3481 397 
L 3384 1453 
L 1806 1453 
L 1294 594 
Q 1247 525 1247 434 
Q 1247 322 1355 273 
Q 1463 225 1594 225 
Q 1656 225 1656 141 
Q 1634 50 1621 25 
Q 1609 0 1550 0 
L 288 0 
z
M 1931 1678 
L 3359 1678 
L 3169 3750 
L 1931 1678 
z
" transform="scale(0.015625)"/>
       <path id="Cmmi10-62" d="M 359 -1472 
Q 359 -1453 366 -1447 
L 2591 4722 
Q 2603 4759 2634 4779 
Q 2666 4800 2706 4800 
Q 2763 4800 2798 4765 
Q 2834 4731 2834 4672 
L 2834 4647 
L 609 -1522 
Q 572 -1600 488 -1600 
Q 434 -1600 396 -1562 
Q 359 -1525 359 -1472 
z
" transform="scale(0.015625)"/>
       <path id="Cmr10-84" d="M 166 0 
L 166 225 
Q 384 225 525 259 
Q 666 294 666 428 
L 666 2175 
Q 666 2347 614 2423 
Q 563 2500 466 2517 
Q 369 2534 166 2534 
L 166 2759 
L 1081 2828 
L 1081 2203 
Q 1184 2481 1375 2654 
Q 1566 2828 1838 2828 
Q 2028 2828 2178 2715 
Q 2328 2603 2328 2419 
Q 2328 2303 2245 2217 
Q 2163 2131 2041 2131 
Q 1922 2131 1837 2215 
Q 1753 2300 1753 2419 
Q 1753 2591 1875 2663 
L 1838 2663 
Q 1578 2663 1414 2475 
Q 1250 2288 1181 2009 
Q 1113 1731 1113 1478 
L 1113 428 
Q 1113 225 1734 225 
L 1734 0 
L 166 0 
z
" transform="scale(0.015625)"/>
       <path id="Cmr10-82" d="M 1594 -72 
Q 1203 -72 876 133 
Q 550 338 364 680 
Q 178 1022 178 1403 
Q 178 1778 348 2115 
Q 519 2453 823 2661 
Q 1128 2869 1503 2869 
Q 1797 2869 2014 2770 
Q 2231 2672 2372 2497 
Q 2513 2322 2584 2084 
Q 2656 1847 2656 1563 
Q 2656 1478 2591 1478 
L 738 1478 
L 738 1409 
Q 738 878 952 497 
Q 1166 116 1650 116 
Q 1847 116 2014 203 
Q 2181 291 2304 447 
Q 2428 603 2472 781 
Q 2478 803 2495 820 
Q 2513 838 2534 838 
L 2591 838 
Q 2656 838 2656 756 
Q 2566 394 2266 161 
Q 1966 -72 1594 -72 
z
M 744 1638 
L 2203 1638 
Q 2203 1878 2136 2125 
Q 2069 2372 1912 2536 
Q 1756 2700 1503 2700 
Q 1141 2700 942 2361 
Q 744 2022 744 1638 
z
" transform="scale(0.015625)"/>
       <path id="Cmr10-50" d="M 206 0 
L 206 225 
Q 422 225 562 259 
Q 703 294 703 428 
L 703 2534 
L 213 2534 
L 213 2759 
L 703 2759 
L 703 3525 
Q 703 3731 789 3911 
Q 875 4091 1020 4225 
Q 1166 4359 1355 4436 
Q 1544 4513 1747 4513 
Q 1963 4513 2136 4384 
Q 2309 4256 2309 4044 
Q 2309 3922 2226 3839 
Q 2144 3756 2022 3756 
Q 1900 3756 1814 3839 
Q 1728 3922 1728 4044 
Q 1728 4244 1900 4313 
Q 1797 4347 1716 4347 
Q 1528 4347 1395 4214 
Q 1263 4081 1197 3890 
Q 1131 3700 1131 3513 
L 1131 2759 
L 1869 2759 
L 1869 2534 
L 1153 2534 
L 1153 428 
Q 1153 297 1340 261 
Q 1528 225 1772 225 
L 1772 0 
L 206 0 
z
" transform="scale(0.015625)"/>
      </defs>
      <use xlink:href="#Cmmi10-60" transform="translate(0 0.349828)"/>
      <use xlink:href="#Cmmi10-5c" transform="translate(57.177734 -15.310432) scale(0.7)"/>
      <use xlink:href="#Cmmi10-62" transform="translate(115.39815 0.349828)"/>
      <use xlink:href="#Cmmi10-60" transform="translate(165.39815 0.349828)"/>
      <use xlink:href="#Cmr10-84" transform="translate(233.836066 41.639063) scale(0.7)"/>
      <use xlink:href="#Cmr10-82" transform="translate(261.213996 41.639063) scale(0.7)"/>
      <use xlink:href="#Cmr10-50" transform="translate(292.283332 41.639063) scale(0.7)"/>
      <use xlink:href="#Cmmi10-5c" transform="translate(222.575884 -34.253125) scale(0.7)"/>
     </g>
    </g>
   </g>
   <g id="line2d_24">
    <path d="M 87.257447 100.115323 
L 111.726006 78.982362 
L 136.194565 57.329982 
L 185.131683 38.542841 
L 234.068802 35.587319 
L 331.943038 34.968091 
" clip-path="url(#p5cda40cd59)" style="fill: none; stroke-dasharray: 5.18,2.24; stroke-dashoffset: 0; stroke: #cc0000; stroke-width: 1.4"/>
    <defs>
     <path id="mf7f1bf746d" d="M -3.5 3.5 
L 3.5 3.5 
L 3.5 -3.5 
L -3.5 -3.5 
z
" style="stroke: #cc0000; stroke-width: 1.2; stroke-linejoin: miter"/>
    </defs>
    <g clip-path="url(#p5cda40cd59)">
     <use xlink:href="#mf7f1bf746d" x="87.257447" y="100.115323" style="fill-opacity: 0; stroke: #cc0000; stroke-width: 1.2; stroke-linejoin: miter"/>
     <use xlink:href="#mf7f1bf746d" x="111.726006" y="78.982362" style="fill-opacity: 0; stroke: #cc0000; stroke-width: 1.2; stroke-linejoin: miter"/>
     <use xlink:href="#mf7f1bf746d" x="136.194565" y="57.329982" style="fill-opacity: 0; stroke: #cc0000; stroke-width: 1.2; stroke-linejoin: miter"/>
     <use xlink:href="#mf7f1bf746d" x="185.131683" y="38.542841" style="fill-opacity: 0; stroke: #cc0000; stroke-width: 1.2; stroke-linejoin: miter"/>
     <use xlink:href="#mf7f1bf746d" x="234.068802" y="35.587319" style="fill-opacity: 0; stroke: #cc0000; stroke-width: 1.2; stroke-linejoin: miter"/>
     <use xlink:href="#mf7f1bf746d" x="331.943038" y="34.968091" style="fill-opacity: 0; stroke: #cc0000; stroke-width: 1.2; stroke-linejoin: miter"/>
    </g>
   </g>
   <g id="line2d_25">
    <path d="M 87.257447 36.856098 
L 111.726006 35.28384 
L 136.194565 35.01493 
L 185.131683 34.928656 
L 234.068802 34.915586 
L 331.943038 34.910923 
" clip-path="url(#p5cda40cd59)" style="fill: none; stroke: #cc0000; stroke-width: 1.4; stroke-linecap: square"/>
    <g clip-path="url(#p5cda40cd59)">
     <use xlink:href="#mf7f1bf746d" x="87.257447" y="36.856098" style="fill-opacity: 0; stroke: #cc0000; stroke-width: 1.2; stroke-linejoin: miter"/>
     <use xlink:href="#mf7f1bf746d" x="111.726006" y="35.28384" style="fill-opacity: 0; stroke: #cc0000; stroke-width: 1.2; stroke-linejoin: miter"/>
     <use xlink:href="#mf7f1bf746d" x="136.194565" y="35.01493" style="fill-opacity: 0; stroke: #cc0000; stroke-width: 1.2; stroke-linejoin: miter"/>
     <use xlink:href="#mf7f1bf746d" x="185.131683" y="34.928656" style="fill-opacity: 0; stroke: #cc0000; stroke-width: 1.2; stroke-linejoin: miter"/>
     <use xlink:href="#mf7f1bf746d" x="234.068802" y="34.915586" style="fill-opacity: 0; stroke: #cc0000; stroke-width: 1.2; stroke-linejoin: miter"/>
     <use xlink:href="#mf7f1bf746d" x="331.943038" y="34.910923" style="fill-opacity: 0; stroke: #cc0000; stroke-width: 1.2; stroke-linejoin: miter"/>
    </g>
   </g>
   <g id="line2d_26">
    <path d="M 117.843146 100.100414 
L 148.428845 78.974339 
L 179.014544 57.319934 
L 240.185941 38.532451 
L 301.357339 35.576396 
L 423.700135 34.956958 
" clip-path="url(#p5cda40cd59)" style="fill: none; stroke-dasharray: 5.18,2.24; stroke-dashoffset: 0; stroke: #000000; stroke-width: 1.4"/>
    <defs>
     <path id="m455c7fdaae" d="M 0 -3.5 
L -3.5 3.5 
L 3.5 3.5 
z
" style="stroke: #000000; stroke-width: 1.2; stroke-linejoin: miter"/>
    </defs>
    <g clip-path="url(#p5cda40cd59)">
     <use xlink:href="#m455c7fdaae" x="117.843146" y="100.100414" style="fill-opacity: 0; stroke: #000000; stroke-width: 1.2; stroke-linejoin: miter"/>
     <use xlink:href="#m455c7fdaae" x="148.428845" y="78.974339" style="fill-opacity: 0; stroke: #000000; stroke-width: 1.2; stroke-linejoin: miter"/>
     <use xlink:href="#m455c7fdaae" x="179.014544" y="57.319934" style="fill-opacity: 0; stroke: #000000; stroke-width: 1.2; stroke-linejoin: miter"/>
     <use xlink:href="#m455c7fdaae" x="240.185941" y="38.532451" style="fill-opacity: 0; stroke: #000000; stroke-width: 1.2; stroke-linejoin: miter"/>
     <use xlink:href="#m455c7fdaae" x="301.357339" y="35.576396" style="fill-opacity: 0; stroke: #000000; stroke-width: 1.2; stroke-linejoin: miter"/>
     <use xlink:href="#m455c7fdaae" x="423.700135" y="34.956958" style="fill-opacity: 0; stroke: #000000; stroke-width: 1.2; stroke-linejoin: miter"/>
    </g>
   </g>
   <g id="line2d_27">
    <path d="M 117.843146 36.842234 
L 148.428845 35.271648 
L 179.014544 35.003211 
L 240.185941 34.917281 
L 301.357339 34.904334 
L 423.700135 34.89976 
" clip-path="url(#p5cda40cd59)" style="fill: none; stroke: #000000; stroke-width: 1.4; stroke-linecap: square"/>
    <g clip-path="url(#p5cda40cd59)">
     <use xlink:href="#m455c7fdaae" x="117.843146" y="36.842234" style="fill-opacity: 0; stroke: #000000; stroke-width: 1.2; stroke-linejoin: miter"/>
     <use xlink:href="#m455c7fdaae" x="148.428845" y="35.271648" style="fill-opacity: 0; stroke: #000000; stroke-width: 1.2; stroke-linejoin: miter"/>
     <use xlink:href="#m455c7fdaae" x="179.014544" y="35.003211" style="fill-opacity: 0; stroke: #000000; stroke-width: 1.2; stroke-linejoin: miter"/>
     <use xlink:href="#m455c7fdaae" x="240.185941" y="34.917281" style="fill-opacity: 0; stroke: #000000; stroke-width: 1.2; stroke-linejoin: miter"/>
     <use xlink:href="#m455c7fdaae" x="301.357339" y="34.904334" style="fill-opacity: 0; stroke: #000000; stroke-width: 1.2; stroke-linejoin: miter"/>
     <use xlink:href="#m455c7fdaae" x="423.700135" y="34.89976" style="fill-opacity: 0; stroke: #000000; stroke-width: 1.2; stroke-linejoin: miter"/>
    </g>
   </g>
   <g id="line2d_28">
    <path d="M 117.843146 172.498609 
L 148.428845 88.867105 
L 179.014544 60.755512 
L 240.185941 39.547659 
L 301.357339 35.816563 
L 423.700135 34.978137 
" clip-path="url(#p5cda40cd59)" style="fill: none; stroke-dasharray: 5.18,2.24; stroke-dashoffset: 0; stroke: #006400; stroke-width: 1.4"/>
    <defs>
     <path id="md4bd7e0ded" d="M 0 3.5 
C 0.928211 3.5 1.81853 3.131218 2.474874 2.474874 
C 3.131218 1.81853 3.5 0.928211 3.5 0 
C 3.5 -0.928211 3.131218 -1.81853 2.474874 -2.474874 
C 1.81853 -3.131218 0.928211 -3.5 0 -3.5 
C -0.928211 -3.5 -1.81853 -3.131218 -2.474874 -2.474874 
C -3.131218 -1.81853 -3.5 -0.928211 -3.5 0 
C -3.5 0.928211 -3.131218 1.81853 -2.474874 2.474874 
C -1.81853 3.131218 -0.928211 3.5 0 3.5 
z
" style="stroke: #006400; stroke-width: 1.2"/>
    </defs>
    <g clip-path="url(#p5cda40cd59)">
     <use xlink:href="#md4bd7e0ded" x="117.843146" y="172.498609" style="fill-opacity: 0; stroke: #006400; stroke-width: 1.2"/>
     <use xlink:href="#md4bd7e0ded" x="148.428845" y="88.867105" style="fill-opacity: 0; stroke: #006400; stroke-width: 1.2"/>
     <use xlink:href="#md4bd7e0ded" x="179.014544" y="60.755512" style="fill-opacity: 0; stroke: #006400; stroke-width: 1.2"/>
     <use xlink:href="#md4bd7e0ded" x="240.185941" y="39.547659" style="fill-opacity: 0; stroke: #006400; stroke-width: 1.2"/>
     <use xlink:href="#md4bd7e0ded" x="301.357339" y="35.816563" style="fill-opacity: 0; stroke: #006400; stroke-width: 1.2"/>
     <use xlink:href="#md4bd7e0ded" x="423.700135" y="34.978137" style="fill-opacity: 0; stroke: #006400; stroke-width: 1.2"/>
    </g>
   </g>
   <g id="line2d_29">
    <path d="M 117.843146 56.209461 
L 148.428845 50.647398 
L 179.014544 43.320895 
L 240.185941 36.271265 
L 301.357339 35.157702 
L 423.700135 34.921014 
" clip-path="url(#p5cda40cd59)" style="fill: none; stroke: #006400; stroke-width: 1.4; stroke-linecap: square"/>
    <g clip-path="url(#p5cda40cd59)">
     <use xlink:href="#md4bd7e0ded" x="117.843146" y="56.209461" style="fill-opacity: 0; stroke: #006400; stroke-width: 1.2"/>
     <use xlink:href="#md4bd7e0ded" x="148.428845" y="50.647398" style="fill-opacity: 0; stroke: #006400; stroke-width: 1.2"/>
     <use xlink:href="#md4bd7e0ded" x="179.014544" y="43.320895" style="fill-opacity: 0; stroke: #006400; stroke-width: 1.2"/>
     <use xlink:href="#md4bd7e0ded" x="240.185941" y="36.271265" style="fill-opacity: 0; stroke: #006400; stroke-width: 1.2"/>
     <use xlink:href="#md4bd7e0ded" x="301.357339" y="35.157702" style="fill-opacity: 0; stroke: #006400; stroke-width: 1.2"/>
     <use xlink:href="#md4bd7e0ded" x="423.700135" y="34.921014" style="fill-opacity: 0; stroke: #006400; stroke-width: 1.2"/>
    </g>
   </g>
   <g id="patch_3">
    <path d="M 70.435313 312.048 
L 70.435313 7.2 
" style="fill: none; stroke: #000000; stroke-width: 0.8; stroke-linejoin: miter; stroke-linecap: square"/>
   </g>
   <g id="patch_4">
    <path d="M 440.522269 312.048 
L 440.522269 7.2 
" style="fill: none; stroke: #000000; stroke-width: 0.8; stroke-linejoin: miter; stroke-linecap: square"/>
   </g>
   <g id="patch_5">
    <path d="M 70.435313 312.048 
L 440.522269 312.048 
" style="fill: none; stroke: #000000; stroke-width: 0.8; stroke-linejoin: miter; stroke-linecap: square"/>
   </g>
   <g id="patch_6">
    <path d="M 70.435313 7.2 
L 440.522269 7.2 
" style="fill: none; stroke: #000000; stroke-width: 0.8; stroke-linejoin: miter; stroke-linecap: square"/>
   </g>
   <g id="text_14">
    <!-- (a)  $R/t = 100$ -->
    <g transform="translate(192.378791 394.31456) scale(0.2 -0.2)">
     <defs>
      <path id="DejaVuSerif-b" d="M 2041 -997 
Q 1281 -656 893 83 
Q 506 822 506 1931 
Q 506 3044 893 3783 
Q 1281 4522 2041 4863 
L 2041 4556 
Q 1559 4225 1350 3623 
Q 1141 3022 1141 1931 
Q 1141 844 1350 242 
Q 1559 -359 2041 -691 
L 2041 -997 
z
" transform="scale(0.015625)"/>
      <path id="DejaVuSerif-44" d="M 2547 1044 
L 2547 1747 
L 1806 1747 
Q 1378 1747 1168 1562 
Q 959 1378 959 997 
Q 959 650 1171 447 
Q 1384 244 1747 244 
Q 2106 244 2326 466 
Q 2547 688 2547 1044 
z
M 3122 2075 
L 3122 331 
L 3634 331 
L 3634 0 
L 2547 0 
L 2547 359 
Q 2356 128 2106 18 
Q 1856 -91 1522 -91 
Q 969 -91 644 203 
Q 319 497 319 997 
Q 319 1513 691 1797 
Q 1063 2081 1741 2081 
L 2547 2081 
L 2547 2309 
Q 2547 2688 2317 2895 
Q 2088 3103 1672 3103 
Q 1328 3103 1125 2947 
Q 922 2791 872 2484 
L 575 2484 
L 575 3156 
Q 875 3284 1158 3348 
Q 1441 3413 1709 3413 
Q 2400 3413 2761 3070 
Q 3122 2728 3122 2075 
z
" transform="scale(0.015625)"/>
      <path id="DejaVuSerif-c" d="M 453 -997 
L 453 -691 
Q 934 -359 1145 242 
Q 1356 844 1356 1931 
Q 1356 3022 1145 3623 
Q 934 4225 453 4556 
L 453 4863 
Q 1216 4522 1603 3783 
Q 1991 3044 1991 1931 
Q 1991 822 1603 83 
Q 1216 -656 453 -997 
z
" transform="scale(0.015625)"/>
      <path id="DejaVuSerif-3" transform="scale(0.015625)"/>
      <path id="Cmmi10-70" d="M 313 0 
Q 250 0 250 84 
Q 253 100 262 139 
Q 272 178 289 201 
Q 306 225 331 225 
Q 722 225 878 269 
Q 959 297 997 441 
L 1875 3956 
Q 1888 4019 1888 4044 
Q 1888 4113 1813 4122 
Q 1691 4147 1350 4147 
Q 1288 4147 1288 4231 
Q 1291 4247 1300 4286 
Q 1309 4325 1326 4348 
Q 1344 4372 1369 4372 
L 3309 4372 
Q 3541 4372 3791 4319 
Q 4041 4266 4250 4152 
Q 4459 4038 4593 3848 
Q 4728 3659 4728 3406 
Q 4728 3084 4515 2831 
Q 4303 2578 3978 2408 
Q 3653 2238 3347 2169 
Q 3597 2078 3756 1879 
Q 3916 1681 3916 1422 
Q 3916 1388 3914 1370 
Q 3913 1353 3909 1331 
L 3859 763 
Q 3853 638 3847 550 
Q 3841 463 3841 409 
Q 3841 234 3892 129 
Q 3944 25 4097 25 
Q 4297 25 4448 211 
Q 4600 397 4647 616 
Q 4675 672 4709 672 
L 4769 672 
Q 4831 672 4831 588 
Q 4784 403 4682 237 
Q 4581 72 4426 -34 
Q 4272 -141 4091 -141 
Q 3716 -141 3452 26 
Q 3188 194 3188 550 
Q 3188 684 3213 788 
L 3353 1356 
Q 3378 1434 3378 1538 
Q 3378 1803 3198 1954 
Q 3019 2106 2747 2106 
L 1959 2106 
L 1538 416 
Q 1522 363 1522 325 
Q 1522 259 1600 250 
Q 1722 225 2059 225 
Q 2125 225 2125 141 
Q 2103 50 2090 25 
Q 2078 0 2016 0 
L 313 0 
z
M 1997 2272 
L 2706 2272 
Q 3403 2272 3756 2625 
Q 3919 2788 4014 3039 
Q 4109 3291 4109 3541 
Q 4109 3778 3970 3912 
Q 3831 4047 3626 4097 
Q 3422 4147 3175 4147 
L 2747 4147 
Q 2572 4147 2515 4117 
Q 2459 4088 2413 3928 
L 1997 2272 
z
" transform="scale(0.015625)"/>
      <path id="Cmmi10-30" d="M 397 519 
Q 397 613 416 697 
L 878 2534 
L 206 2534 
Q 141 2534 141 2619 
Q 166 2759 225 2759 
L 934 2759 
L 1191 3803 
Q 1216 3888 1291 3947 
Q 1366 4006 1459 4006 
Q 1541 4006 1595 3957 
Q 1650 3909 1650 3828 
Q 1650 3809 1648 3798 
Q 1647 3788 1644 3775 
L 1388 2759 
L 2047 2759 
Q 2113 2759 2113 2675 
Q 2109 2659 2100 2621 
Q 2091 2584 2075 2559 
Q 2059 2534 2028 2534 
L 1331 2534 
L 872 684 
Q 825 503 825 372 
Q 825 97 1013 97 
Q 1294 97 1511 361 
Q 1728 625 1844 941 
Q 1869 978 1894 978 
L 1972 978 
Q 1997 978 2012 961 
Q 2028 944 2028 922 
Q 2028 909 2022 903 
Q 1881 516 1612 222 
Q 1344 -72 997 -72 
Q 744 -72 570 93 
Q 397 259 397 519 
z
" transform="scale(0.015625)"/>
      <path id="Cmr10-29" d="M 481 850 
Q 428 850 393 890 
Q 359 931 359 978 
Q 359 1031 393 1068 
Q 428 1106 481 1106 
L 4500 1106 
Q 4547 1106 4581 1068 
Q 4616 1031 4616 978 
Q 4616 931 4581 890 
Q 4547 850 4500 850 
L 481 850 
z
M 481 2094 
Q 428 2094 393 2131 
Q 359 2169 359 2222 
Q 359 2269 393 2309 
Q 428 2350 481 2350 
L 4500 2350 
Q 4547 2350 4581 2309 
Q 4616 2269 4616 2222 
Q 4616 2169 4581 2131 
Q 4547 2094 4500 2094 
L 481 2094 
z
" transform="scale(0.015625)"/>
      <path id="Cmr10-64" d="M 594 0 
L 594 225 
Q 1394 225 1394 428 
L 1394 3788 
Q 1063 3628 556 3628 
L 556 3853 
Q 1341 3853 1741 4263 
L 1831 4263 
Q 1853 4263 1873 4245 
Q 1894 4228 1894 4206 
L 1894 428 
Q 1894 225 2694 225 
L 2694 0 
L 594 0 
z
" transform="scale(0.015625)"/>
      <path id="Cmr10-28" d="M 1600 -141 
Q 816 -141 533 504 
Q 250 1150 250 2041 
Q 250 2597 351 3087 
Q 453 3578 754 3920 
Q 1056 4263 1600 4263 
Q 2022 4263 2290 4056 
Q 2559 3850 2700 3523 
Q 2841 3197 2892 2823 
Q 2944 2450 2944 2041 
Q 2944 1491 2842 1011 
Q 2741 531 2444 195 
Q 2147 -141 1600 -141 
z
M 1600 25 
Q 1956 25 2131 390 
Q 2306 756 2347 1200 
Q 2388 1644 2388 2144 
Q 2388 2625 2347 3031 
Q 2306 3438 2132 3767 
Q 1959 4097 1600 4097 
Q 1238 4097 1063 3765 
Q 888 3434 847 3029 
Q 806 2625 806 2144 
Q 806 1788 823 1472 
Q 841 1156 916 820 
Q 991 484 1158 254 
Q 1325 25 1600 25 
z
" transform="scale(0.015625)"/>
     </defs>
     <use xlink:href="#DejaVuSerif-b" transform="translate(0 0.015625)"/>
     <use xlink:href="#DejaVuSerif-44" transform="translate(39.013672 0.015625)"/>
     <use xlink:href="#DejaVuSerif-c" transform="translate(98.632812 0.015625)"/>
     <use xlink:href="#DejaVuSerif-3" transform="translate(137.646484 0.015625)"/>
     <use xlink:href="#DejaVuSerif-3" transform="translate(169.433594 0.015625)"/>
     <use xlink:href="#Cmmi10-70" transform="translate(201.220703 0.015625)"/>
     <use xlink:href="#Cmmi10-62" transform="translate(277.099609 0.015625)"/>
     <use xlink:href="#Cmmi10-30" transform="translate(327.099609 0.015625)"/>
     <use xlink:href="#Cmr10-29" transform="translate(383.183651 0.015625)"/>
     <use xlink:href="#Cmr10-64" transform="translate(480.869255 0.015625)"/>
     <use xlink:href="#Cmr10-28" transform="translate(530.869255 0.015625)"/>
     <use xlink:href="#Cmr10-28" transform="translate(580.869255 0.015625)"/>
    </g>
   </g>
  </g>
  <g id="axes_2">
   <g id="patch_7">
    <path d="M 466.428356 312.048 
L 836.515313 312.048 
L 836.515313 7.2 
L 466.428356 7.2 
z
" style="fill: #ffffff"/>
   </g>
   <g id="line2d_30">
    <path d="M 466.428356 34.913455 
L 836.515313 34.913455 
" clip-path="url(#p2c7c74f06a)" style="fill: none; stroke-dasharray: 7.8,3.9; stroke-dashoffset: 0; stroke: #666666; stroke-width: 1.3"/>
   </g>
   <g id="matplotlib.axis_3">
    <g id="xtick_6">
     <g id="line2d_31">
      <path d="M 515.292651 312.048 
L 515.292651 7.2 
" clip-path="url(#p2c7c74f06a)" style="fill: none; stroke-dasharray: 2.775,1.2; stroke-dashoffset: 0; stroke: #b0b0b0; stroke-opacity: 0.4; stroke-width: 0.75"/>
     </g>
     <g id="line2d_32">
      <g>
       <use xlink:href="#m918783b018" x="515.292651" y="312.048" style="stroke: #000000; stroke-width: 0.8"/>
      </g>
     </g>
     <g id="text_15">
      <!-- 200 -->
      <g transform="translate(499.068276 331.964016) scale(0.17 -0.17)">
       <use xlink:href="#DejaVuSerif-15"/>
       <use xlink:href="#DejaVuSerif-13" transform="translate(63.625 0)"/>
       <use xlink:href="#DejaVuSerif-13" transform="translate(127.25 0)"/>
      </g>
     </g>
    </g>
    <g id="xtick_7">
     <g id="line2d_33">
      <path d="M 568.696252 312.048 
L 568.696252 7.2 
" clip-path="url(#p2c7c74f06a)" style="fill: none; stroke-dasharray: 2.775,1.2; stroke-dashoffset: 0; stroke: #b0b0b0; stroke-opacity: 0.4; stroke-width: 0.75"/>
     </g>
     <g id="line2d_34">
      <g>
       <use xlink:href="#m918783b018" x="568.696252" y="312.048" style="stroke: #000000; stroke-width: 0.8"/>
      </g>
     </g>
     <g id="text_16">
      <!-- 400 -->
      <g transform="translate(552.471877 331.964016) scale(0.17 -0.17)">
       <use xlink:href="#DejaVuSerif-17"/>
       <use xlink:href="#DejaVuSerif-13" transform="translate(63.625 0)"/>
       <use xlink:href="#DejaVuSerif-13" transform="translate(127.25 0)"/>
      </g>
     </g>
    </g>
    <g id="xtick_8">
     <g id="line2d_35">
      <path d="M 622.099854 312.048 
L 622.099854 7.2 
" clip-path="url(#p2c7c74f06a)" style="fill: none; stroke-dasharray: 2.775,1.2; stroke-dashoffset: 0; stroke: #b0b0b0; stroke-opacity: 0.4; stroke-width: 0.75"/>
     </g>
     <g id="line2d_36">
      <g>
       <use xlink:href="#m918783b018" x="622.099854" y="312.048" style="stroke: #000000; stroke-width: 0.8"/>
      </g>
     </g>
     <g id="text_17">
      <!-- 600 -->
      <g transform="translate(605.875479 331.964016) scale(0.17 -0.17)">
       <use xlink:href="#DejaVuSerif-19"/>
       <use xlink:href="#DejaVuSerif-13" transform="translate(63.625 0)"/>
       <use xlink:href="#DejaVuSerif-13" transform="translate(127.25 0)"/>
      </g>
     </g>
    </g>
    <g id="xtick_9">
     <g id="line2d_37">
      <path d="M 675.503455 312.048 
L 675.503455 7.2 
" clip-path="url(#p2c7c74f06a)" style="fill: none; stroke-dasharray: 2.775,1.2; stroke-dashoffset: 0; stroke: #b0b0b0; stroke-opacity: 0.4; stroke-width: 0.75"/>
     </g>
     <g id="line2d_38">
      <g>
       <use xlink:href="#m918783b018" x="675.503455" y="312.048" style="stroke: #000000; stroke-width: 0.8"/>
      </g>
     </g>
     <g id="text_18">
      <!-- 800 -->
      <g transform="translate(659.27908 331.964016) scale(0.17 -0.17)">
       <use xlink:href="#DejaVuSerif-1b"/>
       <use xlink:href="#DejaVuSerif-13" transform="translate(63.625 0)"/>
       <use xlink:href="#DejaVuSerif-13" transform="translate(127.25 0)"/>
      </g>
     </g>
    </g>
    <g id="xtick_10">
     <g id="line2d_39">
      <path d="M 728.907056 312.048 
L 728.907056 7.2 
" clip-path="url(#p2c7c74f06a)" style="fill: none; stroke-dasharray: 2.775,1.2; stroke-dashoffset: 0; stroke: #b0b0b0; stroke-opacity: 0.4; stroke-width: 0.75"/>
     </g>
     <g id="line2d_40">
      <g>
       <use xlink:href="#m918783b018" x="728.907056" y="312.048" style="stroke: #000000; stroke-width: 0.8"/>
      </g>
     </g>
     <g id="text_19">
      <!-- 1000 -->
      <g transform="translate(707.274556 331.964016) scale(0.17 -0.17)">
       <use xlink:href="#DejaVuSerif-14"/>
       <use xlink:href="#DejaVuSerif-13" transform="translate(63.625 0)"/>
       <use xlink:href="#DejaVuSerif-13" transform="translate(127.25 0)"/>
       <use xlink:href="#DejaVuSerif-13" transform="translate(190.875 0)"/>
      </g>
     </g>
    </g>
    <g id="xtick_11">
     <g id="line2d_41">
      <path d="M 782.310657 312.048 
L 782.310657 7.2 
" clip-path="url(#p2c7c74f06a)" style="fill: none; stroke-dasharray: 2.775,1.2; stroke-dashoffset: 0; stroke: #b0b0b0; stroke-opacity: 0.4; stroke-width: 0.75"/>
     </g>
     <g id="line2d_42">
      <g>
       <use xlink:href="#m918783b018" x="782.310657" y="312.048" style="stroke: #000000; stroke-width: 0.8"/>
      </g>
     </g>
     <g id="text_20">
      <!-- 1200 -->
      <g transform="translate(760.678157 331.964016) scale(0.17 -0.17)">
       <use xlink:href="#DejaVuSerif-14"/>
       <use xlink:href="#DejaVuSerif-15" transform="translate(63.625 0)"/>
       <use xlink:href="#DejaVuSerif-13" transform="translate(127.25 0)"/>
       <use xlink:href="#DejaVuSerif-13" transform="translate(190.875 0)"/>
      </g>
     </g>
    </g>
    <g id="xtick_12">
     <g id="line2d_43">
      <path d="M 835.714258 312.048 
L 835.714258 7.2 
" clip-path="url(#p2c7c74f06a)" style="fill: none; stroke-dasharray: 2.775,1.2; stroke-dashoffset: 0; stroke: #b0b0b0; stroke-opacity: 0.4; stroke-width: 0.75"/>
     </g>
     <g id="line2d_44">
      <g>
       <use xlink:href="#m918783b018" x="835.714258" y="312.048" style="stroke: #000000; stroke-width: 0.8"/>
      </g>
     </g>
     <g id="text_21">
      <!-- 1400 -->
      <g transform="translate(814.081758 331.964016) scale(0.17 -0.17)">
       <use xlink:href="#DejaVuSerif-14"/>
       <use xlink:href="#DejaVuSerif-17" transform="translate(63.625 0)"/>
       <use xlink:href="#DejaVuSerif-13" transform="translate(127.25 0)"/>
       <use xlink:href="#DejaVuSerif-13" transform="translate(190.875 0)"/>
      </g>
     </g>
    </g>
    <g id="text_22">
     <!-- dofs -->
     <g transform="translate(630.217147 355.244875) scale(0.2 -0.2)">
      <use xlink:href="#DejaVuSerif-47"/>
      <use xlink:href="#DejaVuSerif-52" transform="translate(64.015625 0)"/>
      <use xlink:href="#DejaVuSerif-49" transform="translate(124.21875 0)"/>
      <use xlink:href="#DejaVuSerif-56" transform="translate(161.234375 0)"/>
     </g>
    </g>
   </g>
   <g id="matplotlib.axis_4">
    <g id="ytick_7">
     <g id="line2d_45">
      <path d="M 466.428356 312.048 
L 836.515313 312.048 
" clip-path="url(#p2c7c74f06a)" style="fill: none; stroke-dasharray: 2.775,1.2; stroke-dashoffset: 0; stroke: #b0b0b0; stroke-opacity: 0.4; stroke-width: 0.75"/>
     </g>
     <g id="line2d_46">
      <g>
       <use xlink:href="#mcb0f664ade" x="466.428356" y="312.048" style="stroke: #000000; stroke-width: 0.8"/>
      </g>
     </g>
    </g>
    <g id="ytick_8">
     <g id="line2d_47">
      <path d="M 466.428356 256.621091 
L 836.515313 256.621091 
" clip-path="url(#p2c7c74f06a)" style="fill: none; stroke-dasharray: 2.775,1.2; stroke-dashoffset: 0; stroke: #b0b0b0; stroke-opacity: 0.4; stroke-width: 0.75"/>
     </g>
     <g id="line2d_48">
      <g>
       <use xlink:href="#mcb0f664ade" x="466.428356" y="256.621091" style="stroke: #000000; stroke-width: 0.8"/>
      </g>
     </g>
    </g>
    <g id="ytick_9">
     <g id="line2d_49">
      <path d="M 466.428356 201.194182 
L 836.515313 201.194182 
" clip-path="url(#p2c7c74f06a)" style="fill: none; stroke-dasharray: 2.775,1.2; stroke-dashoffset: 0; stroke: #b0b0b0; stroke-opacity: 0.4; stroke-width: 0.75"/>
     </g>
     <g id="line2d_50">
      <g>
       <use xlink:href="#mcb0f664ade" x="466.428356" y="201.194182" style="stroke: #000000; stroke-width: 0.8"/>
      </g>
     </g>
    </g>
    <g id="ytick_10">
     <g id="line2d_51">
      <path d="M 466.428356 145.767273 
L 836.515313 145.767273 
" clip-path="url(#p2c7c74f06a)" style="fill: none; stroke-dasharray: 2.775,1.2; stroke-dashoffset: 0; stroke: #b0b0b0; stroke-opacity: 0.4; stroke-width: 0.75"/>
     </g>
     <g id="line2d_52">
      <g>
       <use xlink:href="#mcb0f664ade" x="466.428356" y="145.767273" style="stroke: #000000; stroke-width: 0.8"/>
      </g>
     </g>
    </g>
    <g id="ytick_11">
     <g id="line2d_53">
      <path d="M 466.428356 90.340364 
L 836.515313 90.340364 
" clip-path="url(#p2c7c74f06a)" style="fill: none; stroke-dasharray: 2.775,1.2; stroke-dashoffset: 0; stroke: #b0b0b0; stroke-opacity: 0.4; stroke-width: 0.75"/>
     </g>
     <g id="line2d_54">
      <g>
       <use xlink:href="#mcb0f664ade" x="466.428356" y="90.340364" style="stroke: #000000; stroke-width: 0.8"/>
      </g>
     </g>
    </g>
    <g id="ytick_12">
     <g id="line2d_55">
      <path d="M 466.428356 34.913455 
L 836.515313 34.913455 
" clip-path="url(#p2c7c74f06a)" style="fill: none; stroke-dasharray: 2.775,1.2; stroke-dashoffset: 0; stroke: #b0b0b0; stroke-opacity: 0.4; stroke-width: 0.75"/>
     </g>
     <g id="line2d_56">
      <g>
       <use xlink:href="#mcb0f664ade" x="466.428356" y="34.913455" style="stroke: #000000; stroke-width: 0.8"/>
      </g>
     </g>
    </g>
   </g>
   <g id="line2d_57">
    <path d="M 483.25049 311.511686 
L 491.795067 273.868506 
L 508.884219 96.773306 
L 543.062524 68.569795 
L 611.419133 36.382306 
L 748.132352 34.937238 
" clip-path="url(#p2c7c74f06a)" style="fill: none; stroke-dasharray: 5.18,2.24; stroke-dashoffset: 0; stroke: #cc0000; stroke-width: 1.4"/>
    <g clip-path="url(#p2c7c74f06a)">
     <use xlink:href="#mf7f1bf746d" x="483.25049" y="311.511686" style="fill-opacity: 0; stroke: #cc0000; stroke-width: 1.2; stroke-linejoin: miter"/>
     <use xlink:href="#mf7f1bf746d" x="491.795067" y="273.868506" style="fill-opacity: 0; stroke: #cc0000; stroke-width: 1.2; stroke-linejoin: miter"/>
     <use xlink:href="#mf7f1bf746d" x="508.884219" y="96.773306" style="fill-opacity: 0; stroke: #cc0000; stroke-width: 1.2; stroke-linejoin: miter"/>
     <use xlink:href="#mf7f1bf746d" x="543.062524" y="68.569795" style="fill-opacity: 0; stroke: #cc0000; stroke-width: 1.2; stroke-linejoin: miter"/>
     <use xlink:href="#mf7f1bf746d" x="611.419133" y="36.382306" style="fill-opacity: 0; stroke: #cc0000; stroke-width: 1.2; stroke-linejoin: miter"/>
     <use xlink:href="#mf7f1bf746d" x="748.132352" y="34.937238" style="fill-opacity: 0; stroke: #cc0000; stroke-width: 1.2; stroke-linejoin: miter"/>
    </g>
   </g>
   <g id="line2d_58">
    <path d="M 483.25049 36.85784 
L 491.795067 35.017999 
L 508.884219 34.919115 
L 543.062524 34.913787 
L 611.419133 34.913475 
L 748.132352 34.913455 
" clip-path="url(#p2c7c74f06a)" style="fill: none; stroke: #cc0000; stroke-width: 1.4; stroke-linecap: square"/>
    <g clip-path="url(#p2c7c74f06a)">
     <use xlink:href="#mf7f1bf746d" x="483.25049" y="36.85784" style="fill-opacity: 0; stroke: #cc0000; stroke-width: 1.2; stroke-linejoin: miter"/>
     <use xlink:href="#mf7f1bf746d" x="491.795067" y="35.017999" style="fill-opacity: 0; stroke: #cc0000; stroke-width: 1.2; stroke-linejoin: miter"/>
     <use xlink:href="#mf7f1bf746d" x="508.884219" y="34.919115" style="fill-opacity: 0; stroke: #cc0000; stroke-width: 1.2; stroke-linejoin: miter"/>
     <use xlink:href="#mf7f1bf746d" x="543.062524" y="34.913787" style="fill-opacity: 0; stroke: #cc0000; stroke-width: 1.2; stroke-linejoin: miter"/>
     <use xlink:href="#mf7f1bf746d" x="611.419133" y="34.913475" style="fill-opacity: 0; stroke: #cc0000; stroke-width: 1.2; stroke-linejoin: miter"/>
     <use xlink:href="#mf7f1bf746d" x="748.132352" y="34.913455" style="fill-opacity: 0; stroke: #cc0000; stroke-width: 1.2; stroke-linejoin: miter"/>
    </g>
   </g>
   <g id="line2d_59">
    <path d="M 488.59085 311.511678 
L 499.271571 273.868479 
L 520.633011 96.7738 
L 563.355892 68.569755 
L 648.801654 36.383041 
L 819.693178 34.936928 
" clip-path="url(#p2c7c74f06a)" style="fill: none; stroke-dasharray: 5.18,2.24; stroke-dashoffset: 0; stroke: #000000; stroke-width: 1.4"/>
    <g clip-path="url(#p2c7c74f06a)">
     <use xlink:href="#m455c7fdaae" x="488.59085" y="311.511678" style="fill-opacity: 0; stroke: #000000; stroke-width: 1.2; stroke-linejoin: miter"/>
     <use xlink:href="#m455c7fdaae" x="499.271571" y="273.868479" style="fill-opacity: 0; stroke: #000000; stroke-width: 1.2; stroke-linejoin: miter"/>
     <use xlink:href="#m455c7fdaae" x="520.633011" y="96.7738" style="fill-opacity: 0; stroke: #000000; stroke-width: 1.2; stroke-linejoin: miter"/>
     <use xlink:href="#m455c7fdaae" x="563.355892" y="68.569755" style="fill-opacity: 0; stroke: #000000; stroke-width: 1.2; stroke-linejoin: miter"/>
     <use xlink:href="#m455c7fdaae" x="648.801654" y="36.383041" style="fill-opacity: 0; stroke: #000000; stroke-width: 1.2; stroke-linejoin: miter"/>
     <use xlink:href="#m455c7fdaae" x="819.693178" y="34.936928" style="fill-opacity: 0; stroke: #000000; stroke-width: 1.2; stroke-linejoin: miter"/>
    </g>
   </g>
   <g id="line2d_60">
    <path d="M 488.59085 36.857838 
L 499.271571 35.017998 
L 520.633011 34.919114 
L 563.355892 34.913806 
L 648.801654 34.913474 
L 819.693178 34.913454 
" clip-path="url(#p2c7c74f06a)" style="fill: none; stroke: #000000; stroke-width: 1.4; stroke-linecap: square"/>
    <g clip-path="url(#p2c7c74f06a)">
     <use xlink:href="#m455c7fdaae" x="488.59085" y="36.857838" style="fill-opacity: 0; stroke: #000000; stroke-width: 1.2; stroke-linejoin: miter"/>
     <use xlink:href="#m455c7fdaae" x="499.271571" y="35.017998" style="fill-opacity: 0; stroke: #000000; stroke-width: 1.2; stroke-linejoin: miter"/>
     <use xlink:href="#m455c7fdaae" x="520.633011" y="34.919114" style="fill-opacity: 0; stroke: #000000; stroke-width: 1.2; stroke-linejoin: miter"/>
     <use xlink:href="#m455c7fdaae" x="563.355892" y="34.913806" style="fill-opacity: 0; stroke: #000000; stroke-width: 1.2; stroke-linejoin: miter"/>
     <use xlink:href="#m455c7fdaae" x="648.801654" y="34.913474" style="fill-opacity: 0; stroke: #000000; stroke-width: 1.2; stroke-linejoin: miter"/>
     <use xlink:href="#m455c7fdaae" x="819.693178" y="34.913454" style="fill-opacity: 0; stroke: #000000; stroke-width: 1.2; stroke-linejoin: miter"/>
    </g>
   </g>
   <g id="line2d_61">
    <path d="M 488.59085 312.01104 
L 499.271571 309.568748 
L 520.633011 214.066319 
L 563.355892 75.149157 
L 648.801654 36.87981 
L 819.693178 34.945093 
" clip-path="url(#p2c7c74f06a)" style="fill: none; stroke-dasharray: 5.18,2.24; stroke-dashoffset: 0; stroke: #006400; stroke-width: 1.4"/>
    <g clip-path="url(#p2c7c74f06a)">
     <use xlink:href="#md4bd7e0ded" x="488.59085" y="312.01104" style="fill-opacity: 0; stroke: #006400; stroke-width: 1.2"/>
     <use xlink:href="#md4bd7e0ded" x="499.271571" y="309.568748" style="fill-opacity: 0; stroke: #006400; stroke-width: 1.2"/>
     <use xlink:href="#md4bd7e0ded" x="520.633011" y="214.066319" style="fill-opacity: 0; stroke: #006400; stroke-width: 1.2"/>
     <use xlink:href="#md4bd7e0ded" x="563.355892" y="75.149157" style="fill-opacity: 0; stroke: #006400; stroke-width: 1.2"/>
     <use xlink:href="#md4bd7e0ded" x="648.801654" y="36.87981" style="fill-opacity: 0; stroke: #006400; stroke-width: 1.2"/>
     <use xlink:href="#md4bd7e0ded" x="819.693178" y="34.945093" style="fill-opacity: 0; stroke: #006400; stroke-width: 1.2"/>
    </g>
   </g>
   <g id="line2d_62">
    <path d="M 488.59085 305.589697 
L 499.271571 196.30742 
L 520.633011 55.680628 
L 563.355892 46.181244 
L 648.801654 35.447178 
L 819.693178 34.923608 
" clip-path="url(#p2c7c74f06a)" style="fill: none; stroke: #006400; stroke-width: 1.4; stroke-linecap: square"/>
    <g clip-path="url(#p2c7c74f06a)">
     <use xlink:href="#md4bd7e0ded" x="488.59085" y="305.589697" style="fill-opacity: 0; stroke: #006400; stroke-width: 1.2"/>
     <use xlink:href="#md4bd7e0ded" x="499.271571" y="196.30742" style="fill-opacity: 0; stroke: #006400; stroke-width: 1.2"/>
     <use xlink:href="#md4bd7e0ded" x="520.633011" y="55.680628" style="fill-opacity: 0; stroke: #006400; stroke-width: 1.2"/>
     <use xlink:href="#md4bd7e0ded" x="563.355892" y="46.181244" style="fill-opacity: 0; stroke: #006400; stroke-width: 1.2"/>
     <use xlink:href="#md4bd7e0ded" x="648.801654" y="35.447178" style="fill-opacity: 0; stroke: #006400; stroke-width: 1.2"/>
     <use xlink:href="#md4bd7e0ded" x="819.693178" y="34.923608" style="fill-opacity: 0; stroke: #006400; stroke-width: 1.2"/>
    </g>
   </g>
   <g id="patch_8">
    <path d="M 466.428356 312.048 
L 466.428356 7.2 
" style="fill: none; stroke: #000000; stroke-width: 0.8; stroke-linejoin: miter; stroke-linecap: square"/>
   </g>
   <g id="patch_9">
    <path d="M 836.515313 312.048 
L 836.515313 7.2 
" style="fill: none; stroke: #000000; stroke-width: 0.8; stroke-linejoin: miter; stroke-linecap: square"/>
   </g>
   <g id="patch_10">
    <path d="M 466.428356 312.048 
L 836.515313 312.048 
" style="fill: none; stroke: #000000; stroke-width: 0.8; stroke-linejoin: miter; stroke-linecap: square"/>
   </g>
   <g id="patch_11">
    <path d="M 466.428356 7.2 
L 836.515313 7.2 
" style="fill: none; stroke: #000000; stroke-width: 0.8; stroke-linejoin: miter; stroke-linecap: square"/>
   </g>
   <g id="text_23">
    <!-- (b)  $R/t = 10000$ -->
    <g transform="translate(577.871834 394.31456) scale(0.2 -0.2)">
     <defs>
      <path id="DejaVuSerif-45" d="M 738 331 
L 738 4531 
L 184 4531 
L 184 4863 
L 1313 4863 
L 1313 2803 
Q 1481 3116 1742 3264 
Q 2003 3413 2388 3413 
Q 3000 3413 3387 2928 
Q 3775 2444 3775 1663 
Q 3775 881 3387 395 
Q 3000 -91 2388 -91 
Q 2003 -91 1742 57 
Q 1481 206 1313 519 
L 1313 0 
L 184 0 
L 184 331 
L 738 331 
z
M 1313 1497 
Q 1313 897 1542 583 
Q 1772 269 2209 269 
Q 2650 269 2876 622 
Q 3103 975 3103 1663 
Q 3103 2353 2876 2703 
Q 2650 3053 2209 3053 
Q 1772 3053 1542 2737 
Q 1313 2422 1313 1825 
L 1313 1497 
z
" transform="scale(0.015625)"/>
     </defs>
     <use xlink:href="#DejaVuSerif-b" transform="translate(0 0.015625)"/>
     <use xlink:href="#DejaVuSerif-45" transform="translate(39.013672 0.015625)"/>
     <use xlink:href="#DejaVuSerif-c" transform="translate(103.027344 0.015625)"/>
     <use xlink:href="#DejaVuSerif-3" transform="translate(142.041016 0.015625)"/>
     <use xlink:href="#DejaVuSerif-3" transform="translate(173.828125 0.015625)"/>
     <use xlink:href="#Cmmi10-70" transform="translate(205.615234 0.015625)"/>
     <use xlink:href="#Cmmi10-62" transform="translate(281.494141 0.015625)"/>
     <use xlink:href="#Cmmi10-30" transform="translate(331.494141 0.015625)"/>
     <use xlink:href="#Cmr10-29" transform="translate(387.578182 0.015625)"/>
     <use xlink:href="#Cmr10-64" transform="translate(485.263786 0.015625)"/>
     <use xlink:href="#Cmr10-28" transform="translate(535.263786 0.015625)"/>
     <use xlink:href="#Cmr10-28" transform="translate(585.263786 0.015625)"/>
     <use xlink:href="#Cmr10-28" transform="translate(635.263786 0.015625)"/>
     <use xlink:href="#Cmr10-28" transform="translate(685.263786 0.015625)"/>
    </g>
   </g>
  </g>
  <g id="legend_1">
   <g id="patch_12">
    <path d="M 857.095312 154.207031 
L 1041.021094 154.207031 
Q 1044.021094 154.207031 1044.021094 151.207031 
L 1044.021094 17.7 
Q 1044.021094 14.7 1041.021094 14.7 
L 857.095312 14.7 
Q 854.095312 14.7 854.095312 17.7 
L 854.095312 151.207031 
Q 854.095312 154.207031 857.095312 154.207031 
z
" style="fill: #ffffff; opacity: 0.8; stroke: #cccccc; stroke-linejoin: miter"/>
   </g>
   <g id="line2d_63">
    <path d="M 860.095312 26.847656 
L 875.095312 26.847656 
L 890.095312 26.847656 
" style="fill: none; stroke-dasharray: 5.55,2.4; stroke-dashoffset: 0; stroke: #cc0000; stroke-width: 1.5"/>
    <defs>
     <path id="m8b0cc7c060" d="M -3 3 
L 3 3 
L 3 -3 
L -3 -3 
z
" style="stroke: #cc0000; stroke-width: 1.2; stroke-linejoin: miter"/>
    </defs>
    <g>
     <use xlink:href="#m8b0cc7c060" x="875.095312" y="26.847656" style="fill-opacity: 0; stroke: #cc0000; stroke-width: 1.2; stroke-linejoin: miter"/>
    </g>
   </g>
   <g id="text_24">
    <!-- RM-Hier-4p -->
    <g transform="translate(902.095312 32.097656) scale(0.15 -0.15)">
     <defs>
      <path id="DejaVuSerif-35" d="M 3066 2316 
Q 3284 2256 3442 2114 
Q 3600 1972 3725 1716 
L 4403 331 
L 4972 331 
L 4972 0 
L 3872 0 
L 3144 1484 
Q 2934 1916 2759 2042 
Q 2584 2169 2278 2169 
L 1581 2169 
L 1581 331 
L 2241 331 
L 2241 0 
L 353 0 
L 353 331 
L 947 331 
L 947 4331 
L 353 4331 
L 353 4666 
L 2719 4666 
Q 3400 4666 3770 4341 
Q 4141 4016 4141 3419 
Q 4141 2938 3870 2661 
Q 3600 2384 3066 2316 
z
M 1581 2503 
L 2503 2503 
Q 2975 2503 3200 2726 
Q 3425 2950 3425 3419 
Q 3425 3888 3200 4109 
Q 2975 4331 2503 4331 
L 1581 4331 
L 1581 2503 
z
" transform="scale(0.015625)"/>
      <path id="DejaVuSerif-30" d="M 353 0 
L 353 331 
L 947 331 
L 947 4331 
L 319 4331 
L 319 4666 
L 1678 4666 
L 3316 1344 
L 4953 4666 
L 6228 4666 
L 6228 4331 
L 5606 4331 
L 5606 331 
L 6203 331 
L 6203 0 
L 4378 0 
L 4378 331 
L 4972 331 
L 4972 3938 
L 3372 684 
L 2931 684 
L 1331 3938 
L 1331 331 
L 1925 331 
L 1925 0 
L 353 0 
z
" transform="scale(0.015625)"/>
      <path id="DejaVuSerif-10" d="M 281 1959 
L 1881 1959 
L 1881 1472 
L 281 1472 
L 281 1959 
z
" transform="scale(0.015625)"/>
      <path id="DejaVuSerif-2b" d="M 353 0 
L 353 331 
L 947 331 
L 947 4331 
L 353 4331 
L 353 4666 
L 2175 4666 
L 2175 4331 
L 1581 4331 
L 1581 2719 
L 4000 2719 
L 4000 4331 
L 3406 4331 
L 3406 4666 
L 5228 4666 
L 5228 4331 
L 4634 4331 
L 4634 331 
L 5228 331 
L 5228 0 
L 3406 0 
L 3406 331 
L 4000 331 
L 4000 2338 
L 1581 2338 
L 1581 331 
L 2175 331 
L 2175 0 
L 353 0 
z
" transform="scale(0.015625)"/>
      <path id="DejaVuSerif-4c" d="M 622 4353 
Q 622 4497 726 4603 
Q 831 4709 978 4709 
Q 1122 4709 1226 4603 
Q 1331 4497 1331 4353 
Q 1331 4206 1228 4103 
Q 1125 4000 978 4000 
Q 831 4000 726 4103 
Q 622 4206 622 4353 
z
M 1356 331 
L 1900 331 
L 1900 0 
L 231 0 
L 231 331 
L 781 331 
L 781 2988 
L 231 2988 
L 231 3322 
L 1356 3322 
L 1356 331 
z
" transform="scale(0.015625)"/>
      <path id="DejaVuSerif-48" d="M 3469 1600 
L 991 1600 
L 991 1575 
Q 991 903 1244 561 
Q 1497 219 1991 219 
Q 2369 219 2611 417 
Q 2853 616 2950 1006 
L 3413 1006 
Q 3275 459 2904 184 
Q 2534 -91 1931 -91 
Q 1203 -91 761 389 
Q 319 869 319 1663 
Q 319 2450 753 2931 
Q 1188 3413 1894 3413 
Q 2647 3413 3050 2948 
Q 3453 2484 3469 1600 
z
M 2791 1931 
Q 2772 2513 2545 2808 
Q 2319 3103 1894 3103 
Q 1497 3103 1269 2806 
Q 1041 2509 991 1931 
L 2791 1931 
z
" transform="scale(0.015625)"/>
      <path id="DejaVuSerif-55" d="M 3059 3328 
L 3059 2497 
L 2728 2497 
Q 2713 2744 2591 2866 
Q 2469 2988 2234 2988 
Q 1809 2988 1582 2694 
Q 1356 2400 1356 1850 
L 1356 331 
L 2022 331 
L 2022 0 
L 263 0 
L 263 331 
L 781 331 
L 781 2994 
L 231 2994 
L 231 3322 
L 1356 3322 
L 1356 2731 
Q 1525 3078 1790 3245 
Q 2056 3413 2438 3413 
Q 2578 3413 2733 3391 
Q 2888 3369 3059 3328 
z
" transform="scale(0.015625)"/>
      <path id="DejaVuSerif-53" d="M 1313 1825 
L 1313 1497 
Q 1313 897 1542 583 
Q 1772 269 2209 269 
Q 2650 269 2876 622 
Q 3103 975 3103 1663 
Q 3103 2353 2876 2703 
Q 2650 3053 2209 3053 
Q 1772 3053 1542 2737 
Q 1313 2422 1313 1825 
z
M 738 2988 
L 184 2988 
L 184 3322 
L 1313 3322 
L 1313 2803 
Q 1481 3116 1742 3264 
Q 2003 3413 2388 3413 
Q 3000 3413 3387 2928 
Q 3775 2444 3775 1663 
Q 3775 881 3387 395 
Q 3000 -91 2388 -91 
Q 2003 -91 1742 57 
Q 1481 206 1313 519 
L 1313 -997 
L 1856 -997 
L 1856 -1331 
L 184 -1331 
L 184 -997 
L 738 -997 
L 738 2988 
z
" transform="scale(0.015625)"/>
     </defs>
     <use xlink:href="#DejaVuSerif-35"/>
     <use xlink:href="#DejaVuSerif-30" transform="translate(75.296875 0)"/>
     <use xlink:href="#DejaVuSerif-10" transform="translate(177.6875 0)"/>
     <use xlink:href="#DejaVuSerif-2b" transform="translate(211.484375 0)"/>
     <use xlink:href="#DejaVuSerif-4c" transform="translate(298.6875 0)"/>
     <use xlink:href="#DejaVuSerif-48" transform="translate(330.671875 0)"/>
     <use xlink:href="#DejaVuSerif-55" transform="translate(389.859375 0)"/>
     <use xlink:href="#DejaVuSerif-10" transform="translate(437.65625 0)"/>
     <use xlink:href="#DejaVuSerif-17" transform="translate(471.453125 0)"/>
     <use xlink:href="#DejaVuSerif-53" transform="translate(535.078125 0)"/>
    </g>
   </g>
   <g id="line2d_64">
    <path d="M 860.095312 49.348828 
L 875.095312 49.348828 
L 890.095312 49.348828 
" style="fill: none; stroke: #cc0000; stroke-width: 1.5; stroke-linecap: square"/>
    <g>
     <use xlink:href="#m8b0cc7c060" x="875.095312" y="49.348828" style="fill-opacity: 0; stroke: #cc0000; stroke-width: 1.2; stroke-linejoin: miter"/>
    </g>
   </g>
   <g id="text_25">
    <!-- RM-Hier-4p-MMS -->
    <g transform="translate(902.095312 54.598828) scale(0.15 -0.15)">
     <defs>
      <path id="DejaVuSerif-36" d="M 594 225 
L 594 1288 
L 953 1284 
Q 969 753 1261 498 
Q 1553 244 2150 244 
Q 2706 244 2998 464 
Q 3291 684 3291 1106 
Q 3291 1444 3114 1625 
Q 2938 1806 2369 1978 
L 1753 2163 
Q 1084 2366 811 2669 
Q 538 2972 538 3500 
Q 538 4094 959 4422 
Q 1381 4750 2144 4750 
Q 2469 4750 2856 4679 
Q 3244 4609 3681 4475 
L 3681 3481 
L 3328 3481 
Q 3275 3975 2998 4195 
Q 2722 4416 2156 4416 
Q 1663 4416 1405 4214 
Q 1147 4013 1147 3628 
Q 1147 3294 1340 3103 
Q 1534 2913 2163 2725 
L 2741 2553 
Q 3375 2363 3645 2067 
Q 3916 1772 3916 1275 
Q 3916 597 3481 253 
Q 3047 -91 2188 -91 
Q 1803 -91 1404 -12 
Q 1006 66 594 225 
z
" transform="scale(0.015625)"/>
     </defs>
     <use xlink:href="#DejaVuSerif-35"/>
     <use xlink:href="#DejaVuSerif-30" transform="translate(75.296875 0)"/>
     <use xlink:href="#DejaVuSerif-10" transform="translate(177.6875 0)"/>
     <use xlink:href="#DejaVuSerif-2b" transform="translate(211.484375 0)"/>
     <use xlink:href="#DejaVuSerif-4c" transform="translate(298.6875 0)"/>
     <use xlink:href="#DejaVuSerif-48" transform="translate(330.671875 0)"/>
     <use xlink:href="#DejaVuSerif-55" transform="translate(389.859375 0)"/>
     <use xlink:href="#DejaVuSerif-10" transform="translate(437.65625 0)"/>
     <use xlink:href="#DejaVuSerif-17" transform="translate(471.453125 0)"/>
     <use xlink:href="#DejaVuSerif-53" transform="translate(535.078125 0)"/>
     <use xlink:href="#DejaVuSerif-10" transform="translate(599.09375 0)"/>
     <use xlink:href="#DejaVuSerif-30" transform="translate(632.890625 0)"/>
     <use xlink:href="#DejaVuSerif-30" transform="translate(735.28125 0)"/>
     <use xlink:href="#DejaVuSerif-36" transform="translate(837.671875 0)"/>
    </g>
   </g>
   <g id="line2d_65">
    <path d="M 860.095312 71.85 
L 875.095312 71.85 
L 890.095312 71.85 
" style="fill: none; stroke-dasharray: 5.55,2.4; stroke-dashoffset: 0; stroke: #000000; stroke-width: 1.5"/>
    <defs>
     <path id="m10cbba03f1" d="M 0 -3 
L -3 3 
L 3 3 
z
" style="stroke: #000000; stroke-width: 1.2; stroke-linejoin: miter"/>
    </defs>
    <g>
     <use xlink:href="#m10cbba03f1" x="875.095312" y="71.85" style="fill-opacity: 0; stroke: #000000; stroke-width: 1.2; stroke-linejoin: miter"/>
    </g>
   </g>
   <g id="text_26">
    <!-- RM-Hier-5p -->
    <g transform="translate(902.095312 77.1) scale(0.15 -0.15)">
     <use xlink:href="#DejaVuSerif-35"/>
     <use xlink:href="#DejaVuSerif-30" transform="translate(75.296875 0)"/>
     <use xlink:href="#DejaVuSerif-10" transform="translate(177.6875 0)"/>
     <use xlink:href="#DejaVuSerif-2b" transform="translate(211.484375 0)"/>
     <use xlink:href="#DejaVuSerif-4c" transform="translate(298.6875 0)"/>
     <use xlink:href="#DejaVuSerif-48" transform="translate(330.671875 0)"/>
     <use xlink:href="#DejaVuSerif-55" transform="translate(389.859375 0)"/>
     <use xlink:href="#DejaVuSerif-10" transform="translate(437.65625 0)"/>
     <use xlink:href="#DejaVuSerif-18" transform="translate(471.453125 0)"/>
     <use xlink:href="#DejaVuSerif-53" transform="translate(535.078125 0)"/>
    </g>
   </g>
   <g id="line2d_66">
    <path d="M 860.095312 94.351172 
L 875.095312 94.351172 
L 890.095312 94.351172 
" style="fill: none; stroke: #000000; stroke-width: 1.5; stroke-linecap: square"/>
    <g>
     <use xlink:href="#m10cbba03f1" x="875.095312" y="94.351172" style="fill-opacity: 0; stroke: #000000; stroke-width: 1.2; stroke-linejoin: miter"/>
    </g>
   </g>
   <g id="text_27">
    <!-- RM-Hier-5p-MMS -->
    <g transform="translate(902.095312 99.601172) scale(0.15 -0.15)">
     <use xlink:href="#DejaVuSerif-35"/>
     <use xlink:href="#DejaVuSerif-30" transform="translate(75.296875 0)"/>
     <use xlink:href="#DejaVuSerif-10" transform="translate(177.6875 0)"/>
     <use xlink:href="#DejaVuSerif-2b" transform="translate(211.484375 0)"/>
     <use xlink:href="#DejaVuSerif-4c" transform="translate(298.6875 0)"/>
     <use xlink:href="#DejaVuSerif-48" transform="translate(330.671875 0)"/>
     <use xlink:href="#DejaVuSerif-55" transform="translate(389.859375 0)"/>
     <use xlink:href="#DejaVuSerif-10" transform="translate(437.65625 0)"/>
     <use xlink:href="#DejaVuSerif-18" transform="translate(471.453125 0)"/>
     <use xlink:href="#DejaVuSerif-53" transform="translate(535.078125 0)"/>
     <use xlink:href="#DejaVuSerif-10" transform="translate(599.09375 0)"/>
     <use xlink:href="#DejaVuSerif-30" transform="translate(632.890625 0)"/>
     <use xlink:href="#DejaVuSerif-30" transform="translate(735.28125 0)"/>
     <use xlink:href="#DejaVuSerif-36" transform="translate(837.671875 0)"/>
    </g>
   </g>
   <g id="line2d_67">
    <path d="M 860.095312 116.852344 
L 875.095312 116.852344 
L 890.095312 116.852344 
" style="fill: none; stroke-dasharray: 5.55,2.4; stroke-dashoffset: 0; stroke: #006400; stroke-width: 1.5"/>
    <defs>
     <path id="m1a2935a68b" d="M 0 3 
C 0.795609 3 1.55874 2.683901 2.12132 2.12132 
C 2.683901 1.55874 3 0.795609 3 0 
C 3 -0.795609 2.683901 -1.55874 2.12132 -2.12132 
C 1.55874 -2.683901 0.795609 -3 0 -3 
C -0.795609 -3 -1.55874 -2.683901 -2.12132 -2.12132 
C -2.683901 -1.55874 -3 -0.795609 -3 0 
C -3 0.795609 -2.683901 1.55874 -2.12132 2.12132 
C -1.55874 2.683901 -0.795609 3 0 3 
z
" style="stroke: #006400; stroke-width: 1.2"/>
    </defs>
    <g>
     <use xlink:href="#m1a2935a68b" x="875.095312" y="116.852344" style="fill-opacity: 0; stroke: #006400; stroke-width: 1.2"/>
    </g>
   </g>
   <g id="text_28">
    <!-- RM-5p -->
    <g transform="translate(902.095312 122.102344) scale(0.15 -0.15)">
     <use xlink:href="#DejaVuSerif-35"/>
     <use xlink:href="#DejaVuSerif-30" transform="translate(75.296875 0)"/>
     <use xlink:href="#DejaVuSerif-10" transform="translate(177.6875 0)"/>
     <use xlink:href="#DejaVuSerif-18" transform="translate(211.484375 0)"/>
     <use xlink:href="#DejaVuSerif-53" transform="translate(275.109375 0)"/>
    </g>
   </g>
   <g id="line2d_68">
    <path d="M 860.095312 139.353516 
L 875.095312 139.353516 
L 890.095312 139.353516 
" style="fill: none; stroke: #006400; stroke-width: 1.5; stroke-linecap: square"/>
    <g>
     <use xlink:href="#m1a2935a68b" x="875.095312" y="139.353516" style="fill-opacity: 0; stroke: #006400; stroke-width: 1.2"/>
    </g>
   </g>
   <g id="text_29">
    <!-- RM-5p-MMS -->
    <g transform="translate(902.095312 144.603516) scale(0.15 -0.15)">
     <use xlink:href="#DejaVuSerif-35"/>
     <use xlink:href="#DejaVuSerif-30" transform="translate(75.296875 0)"/>
     <use xlink:href="#DejaVuSerif-10" transform="translate(177.6875 0)"/>
     <use xlink:href="#DejaVuSerif-18" transform="translate(211.484375 0)"/>
     <use xlink:href="#DejaVuSerif-53" transform="translate(275.109375 0)"/>
     <use xlink:href="#DejaVuSerif-10" transform="translate(339.125 0)"/>
     <use xlink:href="#DejaVuSerif-30" transform="translate(372.921875 0)"/>
     <use xlink:href="#DejaVuSerif-30" transform="translate(475.3125 0)"/>
     <use xlink:href="#DejaVuSerif-36" transform="translate(577.703125 0)"/>
    </g>
   </g>
  </g>
 </g>
 <defs>
  <clipPath id="p5cda40cd59">
   <rect x="70.435313" y="7.2" width="370.086957" height="304.848"/>
  </clipPath>
  <clipPath id="p2c7c74f06a">
   <rect x="466.428356" y="7.2" width="370.086957" height="304.848"/>
  </clipPath>
 </defs>
</svg>
