<?xml version="1.0" encoding="utf-8" standalone="no"?>
<!DOCTYPE svg PUBLIC "-//W3C//DTD SVG 1.1//EN"
  "http://www.w3.org/Graphics/SVG/1.1/DTD/svg11.dtd">
<svg xmlns:xlink="http://www.w3.org/1999/xlink" width="947.912294pt" height="416.84pt" viewBox="0 0 947.912294 416.84" xmlns="http://www.w3.org/2000/svg" version="1.1">
 <metadata>
  <rdf:RDF xmlns:dc="http://purl.org/dc/elements/1.1/" xmlns:cc="http://creativecommons.org/ns#" xmlns:rdf="http://www.w3.org/1999/02/22-rdf-syntax-ns#">
   <cc:Work>
    <dc:type rdf:resource="http://purl.org/dc/dcmitype/StillImage"/>
    <dc:date>2026-06-21T15:35:24.429058</dc:date>
    <dc:format>image/svg+xml</dc:format>
    <dc:creator>
     <cc:Agent>
      <dc:title>Matplotlib v3.11.0, https://matplotlib.org/</dc:title>
     </cc:Agent>
    </dc:creator>
   </cc:Work>
  </rdf:RDF>
 </metadata>
 <defs>
  <style type="text/css">*{stroke-linejoin: round; stroke-linecap: butt}</style>
 </defs>
 <g id="figure_1">
  <g id="patch_1">
   <path d="M 0 416.84 
L 947.912294 416.84 
L 947.912294 0 
L 0 0 
z
" style="fill: #ffffff"/>
  </g>
  <g id="axes_1">
   <g id="patch_2">
    <path d="M 65.435313 361.44 
L 729.995313 361.44 
L 729.995313 7.2 
L 65.435313 7.2 
z
" style="fill: #ffffff"/>
   </g>
   <g id="line2d_1">
    <path d="M 65.435313 24.068571 
L 729.995313 24.068571 
" clip-path="url(#p35ae20c448)" style="fill: none; stroke-dasharray: 7.8,3.9; stroke-dashoffset: 0; stroke: #666666; stroke-width: 1.3"/>
   </g>
   <g id="matplotlib.axis_1">
    <g id="xtick_1">
     <g id="line2d_2">
      <path d="M 65.435313 361.44 
L 65.435313 7.2 
" clip-path="url(#p35ae20c448)" style="fill: none; stroke-dasharray: 2.775,1.2; stroke-dashoffset: 0; stroke: #b0b0b0; stroke-opacity: 0.4; stroke-width: 0.75"/>
     </g>
     <g id="line2d_3">
      <defs>
       <path id="maed09ab656" d="M 0 0 
L 0 3.5 
" style="stroke: #000000; stroke-width: 0.8"/>
      </defs>
      <g>
       <use xlink:href="#maed09ab656" x="65.435313" y="361.44" style="stroke: #000000; stroke-width: 0.8"/>
      </g>
     </g>
     <g id="text_1">
      <!-- 1 -->
      <g transform="translate(60.027188 381.356016) scale(0.17 -0.17)">
       <defs>
        <path id="DejaVuSerif-14" d="M 909 0 
L 909 331 
L 1722 331 
L 1722 4213 
L 781 3603 
L 781 4013 
L 1919 4750 
L 2350 4750 
L 2350 331 
L 3163 331 
L 3163 0 
L 909 0 
z
" transform="scale(0.015625)"/>
       </defs>
       <use xlink:href="#DejaVuSerif-14"/>
      </g>
     </g>
    </g>
    <g id="xtick_2">
     <g id="line2d_4">
      <path d="M 226.973755 361.44 
L 226.973755 7.2 
" clip-path="url(#p35ae20c448)" style="fill: none; stroke-dasharray: 2.775,1.2; stroke-dashoffset: 0; stroke: #b0b0b0; stroke-opacity: 0.4; stroke-width: 0.75"/>
     </g>
     <g id="line2d_5">
      <g>
       <use xlink:href="#maed09ab656" x="226.973755" y="361.44" style="stroke: #000000; stroke-width: 0.8"/>
      </g>
     </g>
     <g id="text_2">
      <!-- 10 -->
      <g transform="translate(216.157505 381.356016) scale(0.17 -0.17)">
       <defs>
        <path id="DejaVuSerif-13" d="M 2034 219 
Q 2513 219 2750 744 
Q 2988 1269 2988 2328 
Q 2988 3391 2750 3916 
Q 2513 4441 2034 4441 
Q 1556 4441 1318 3916 
Q 1081 3391 1081 2328 
Q 1081 1269 1318 744 
Q 1556 219 2034 219 
z
M 2034 -91 
Q 1275 -91 848 546 
Q 422 1184 422 2328 
Q 422 3475 848 4112 
Q 1275 4750 2034 4750 
Q 2797 4750 3222 4112 
Q 3647 3475 3647 2328 
Q 3647 1184 3222 546 
Q 2797 -91 2034 -91 
z
" transform="scale(0.015625)"/>
       </defs>
       <use xlink:href="#DejaVuSerif-14"/>
       <use xlink:href="#DejaVuSerif-13" transform="translate(63.625 0)"/>
      </g>
     </g>
    </g>
    <g id="xtick_3">
     <g id="line2d_6">
      <path d="M 388.512197 361.44 
L 388.512197 7.2 
" clip-path="url(#p35ae20c448)" style="fill: none; stroke-dasharray: 2.775,1.2; stroke-dashoffset: 0; stroke: #b0b0b0; stroke-opacity: 0.4; stroke-width: 0.75"/>
     </g>
     <g id="line2d_7">
      <g>
       <use xlink:href="#maed09ab656" x="388.512197" y="361.44" style="stroke: #000000; stroke-width: 0.8"/>
      </g>
     </g>
     <g id="text_3">
      <!-- 100 -->
      <g transform="translate(372.287822 381.356016) scale(0.17 -0.17)">
       <use xlink:href="#DejaVuSerif-14"/>
       <use xlink:href="#DejaVuSerif-13" transform="translate(63.625 0)"/>
       <use xlink:href="#DejaVuSerif-13" transform="translate(127.25 0)"/>
      </g>
     </g>
    </g>
    <g id="xtick_4">
     <g id="line2d_8">
      <path d="M 550.050639 361.44 
L 550.050639 7.2 
" clip-path="url(#p35ae20c448)" style="fill: none; stroke-dasharray: 2.775,1.2; stroke-dashoffset: 0; stroke: #b0b0b0; stroke-opacity: 0.4; stroke-width: 0.75"/>
     </g>
     <g id="line2d_9">
      <g>
       <use xlink:href="#maed09ab656" x="550.050639" y="361.44" style="stroke: #000000; stroke-width: 0.8"/>
      </g>
     </g>
     <g id="text_4">
      <!-- 1000 -->
      <g transform="translate(528.418139 381.356016) scale(0.17 -0.17)">
       <use xlink:href="#DejaVuSerif-14"/>
       <use xlink:href="#DejaVuSerif-13" transform="translate(63.625 0)"/>
       <use xlink:href="#DejaVuSerif-13" transform="translate(127.25 0)"/>
       <use xlink:href="#DejaVuSerif-13" transform="translate(190.875 0)"/>
      </g>
     </g>
    </g>
    <g id="xtick_5">
     <g id="line2d_10">
      <path d="M 711.589081 361.44 
L 711.589081 7.2 
" clip-path="url(#p35ae20c448)" style="fill: none; stroke-dasharray: 2.775,1.2; stroke-dashoffset: 0; stroke: #b0b0b0; stroke-opacity: 0.4; stroke-width: 0.75"/>
     </g>
     <g id="line2d_11">
      <g>
       <use xlink:href="#maed09ab656" x="711.589081" y="361.44" style="stroke: #000000; stroke-width: 0.8"/>
      </g>
     </g>
     <g id="text_5">
      <!-- 10000 -->
      <g transform="translate(684.548456 381.356016) scale(0.17 -0.17)">
       <use xlink:href="#DejaVuSerif-14"/>
       <use xlink:href="#DejaVuSerif-13" transform="translate(63.625 0)"/>
       <use xlink:href="#DejaVuSerif-13" transform="translate(127.25 0)"/>
       <use xlink:href="#DejaVuSerif-13" transform="translate(190.875 0)"/>
       <use xlink:href="#DejaVuSerif-13" transform="translate(254.5 0)"/>
      </g>
     </g>
    </g>
    <g id="xtick_6">
     <g id="line2d_12">
      <path d="M 114.063229 361.44 
L 114.063229 7.2 
" clip-path="url(#p35ae20c448)" style="fill: none; stroke-dasharray: 2.775,1.2; stroke-dashoffset: 0; stroke: #b0b0b0; stroke-opacity: 0.4; stroke-width: 0.75"/>
     </g>
     <g id="line2d_13">
      <defs>
       <path id="m1a1812429b" d="M 0 0 
L 0 2 
" style="stroke: #000000; stroke-width: 0.6"/>
      </defs>
      <g>
       <use xlink:href="#m1a1812429b" x="114.063229" y="361.44" style="stroke: #000000; stroke-width: 0.6"/>
      </g>
     </g>
    </g>
    <g id="xtick_7">
     <g id="line2d_14">
      <path d="M 142.508737 361.44 
L 142.508737 7.2 
" clip-path="url(#p35ae20c448)" style="fill: none; stroke-dasharray: 2.775,1.2; stroke-dashoffset: 0; stroke: #b0b0b0; stroke-opacity: 0.4; stroke-width: 0.75"/>
     </g>
     <g id="line2d_15">
      <g>
       <use xlink:href="#m1a1812429b" x="142.508737" y="361.44" style="stroke: #000000; stroke-width: 0.6"/>
      </g>
     </g>
    </g>
    <g id="xtick_8">
     <g id="line2d_16">
      <path d="M 162.691146 361.44 
L 162.691146 7.2 
" clip-path="url(#p35ae20c448)" style="fill: none; stroke-dasharray: 2.775,1.2; stroke-dashoffset: 0; stroke: #b0b0b0; stroke-opacity: 0.4; stroke-width: 0.75"/>
     </g>
     <g id="line2d_17">
      <g>
       <use xlink:href="#m1a1812429b" x="162.691146" y="361.44" style="stroke: #000000; stroke-width: 0.6"/>
      </g>
     </g>
    </g>
    <g id="xtick_9">
     <g id="line2d_18">
      <path d="M 178.345838 361.44 
L 178.345838 7.2 
" clip-path="url(#p35ae20c448)" style="fill: none; stroke-dasharray: 2.775,1.2; stroke-dashoffset: 0; stroke: #b0b0b0; stroke-opacity: 0.4; stroke-width: 0.75"/>
     </g>
     <g id="line2d_19">
      <g>
       <use xlink:href="#m1a1812429b" x="178.345838" y="361.44" style="stroke: #000000; stroke-width: 0.6"/>
      </g>
     </g>
    </g>
    <g id="xtick_10">
     <g id="line2d_20">
      <path d="M 191.136653 361.44 
L 191.136653 7.2 
" clip-path="url(#p35ae20c448)" style="fill: none; stroke-dasharray: 2.775,1.2; stroke-dashoffset: 0; stroke: #b0b0b0; stroke-opacity: 0.4; stroke-width: 0.75"/>
     </g>
     <g id="line2d_21">
      <g>
       <use xlink:href="#m1a1812429b" x="191.136653" y="361.44" style="stroke: #000000; stroke-width: 0.6"/>
      </g>
     </g>
    </g>
    <g id="xtick_11">
     <g id="line2d_22">
      <path d="M 201.951133 361.44 
L 201.951133 7.2 
" clip-path="url(#p35ae20c448)" style="fill: none; stroke-dasharray: 2.775,1.2; stroke-dashoffset: 0; stroke: #b0b0b0; stroke-opacity: 0.4; stroke-width: 0.75"/>
     </g>
     <g id="line2d_23">
      <g>
       <use xlink:href="#m1a1812429b" x="201.951133" y="361.44" style="stroke: #000000; stroke-width: 0.6"/>
      </g>
     </g>
    </g>
    <g id="xtick_12">
     <g id="line2d_24">
      <path d="M 211.319062 361.44 
L 211.319062 7.2 
" clip-path="url(#p35ae20c448)" style="fill: none; stroke-dasharray: 2.775,1.2; stroke-dashoffset: 0; stroke: #b0b0b0; stroke-opacity: 0.4; stroke-width: 0.75"/>
     </g>
     <g id="line2d_25">
      <g>
       <use xlink:href="#m1a1812429b" x="211.319062" y="361.44" style="stroke: #000000; stroke-width: 0.6"/>
      </g>
     </g>
    </g>
    <g id="xtick_13">
     <g id="line2d_26">
      <path d="M 219.582161 361.44 
L 219.582161 7.2 
" clip-path="url(#p35ae20c448)" style="fill: none; stroke-dasharray: 2.775,1.2; stroke-dashoffset: 0; stroke: #b0b0b0; stroke-opacity: 0.4; stroke-width: 0.75"/>
     </g>
     <g id="line2d_27">
      <g>
       <use xlink:href="#m1a1812429b" x="219.582161" y="361.44" style="stroke: #000000; stroke-width: 0.6"/>
      </g>
     </g>
    </g>
    <g id="xtick_14">
     <g id="line2d_28">
      <path d="M 275.601671 361.44 
L 275.601671 7.2 
" clip-path="url(#p35ae20c448)" style="fill: none; stroke-dasharray: 2.775,1.2; stroke-dashoffset: 0; stroke: #b0b0b0; stroke-opacity: 0.4; stroke-width: 0.75"/>
     </g>
     <g id="line2d_29">
      <g>
       <use xlink:href="#m1a1812429b" x="275.601671" y="361.44" style="stroke: #000000; stroke-width: 0.6"/>
      </g>
     </g>
    </g>
    <g id="xtick_15">
     <g id="line2d_30">
      <path d="M 304.047179 361.44 
L 304.047179 7.2 
" clip-path="url(#p35ae20c448)" style="fill: none; stroke-dasharray: 2.775,1.2; stroke-dashoffset: 0; stroke: #b0b0b0; stroke-opacity: 0.4; stroke-width: 0.75"/>
     </g>
     <g id="line2d_31">
      <g>
       <use xlink:href="#m1a1812429b" x="304.047179" y="361.44" style="stroke: #000000; stroke-width: 0.6"/>
      </g>
     </g>
    </g>
    <g id="xtick_16">
     <g id="line2d_32">
      <path d="M 324.229588 361.44 
L 324.229588 7.2 
" clip-path="url(#p35ae20c448)" style="fill: none; stroke-dasharray: 2.775,1.2; stroke-dashoffset: 0; stroke: #b0b0b0; stroke-opacity: 0.4; stroke-width: 0.75"/>
     </g>
     <g id="line2d_33">
      <g>
       <use xlink:href="#m1a1812429b" x="324.229588" y="361.44" style="stroke: #000000; stroke-width: 0.6"/>
      </g>
     </g>
    </g>
    <g id="xtick_17">
     <g id="line2d_34">
      <path d="M 339.88428 361.44 
L 339.88428 7.2 
" clip-path="url(#p35ae20c448)" style="fill: none; stroke-dasharray: 2.775,1.2; stroke-dashoffset: 0; stroke: #b0b0b0; stroke-opacity: 0.4; stroke-width: 0.75"/>
     </g>
     <g id="line2d_35">
      <g>
       <use xlink:href="#m1a1812429b" x="339.88428" y="361.44" style="stroke: #000000; stroke-width: 0.6"/>
      </g>
     </g>
    </g>
    <g id="xtick_18">
     <g id="line2d_36">
      <path d="M 352.675095 361.44 
L 352.675095 7.2 
" clip-path="url(#p35ae20c448)" style="fill: none; stroke-dasharray: 2.775,1.2; stroke-dashoffset: 0; stroke: #b0b0b0; stroke-opacity: 0.4; stroke-width: 0.75"/>
     </g>
     <g id="line2d_37">
      <g>
       <use xlink:href="#m1a1812429b" x="352.675095" y="361.44" style="stroke: #000000; stroke-width: 0.6"/>
      </g>
     </g>
    </g>
    <g id="xtick_19">
     <g id="line2d_38">
      <path d="M 363.489575 361.44 
L 363.489575 7.2 
" clip-path="url(#p35ae20c448)" style="fill: none; stroke-dasharray: 2.775,1.2; stroke-dashoffset: 0; stroke: #b0b0b0; stroke-opacity: 0.4; stroke-width: 0.75"/>
     </g>
     <g id="line2d_39">
      <g>
       <use xlink:href="#m1a1812429b" x="363.489575" y="361.44" style="stroke: #000000; stroke-width: 0.6"/>
      </g>
     </g>
    </g>
    <g id="xtick_20">
     <g id="line2d_40">
      <path d="M 372.857504 361.44 
L 372.857504 7.2 
" clip-path="url(#p35ae20c448)" style="fill: none; stroke-dasharray: 2.775,1.2; stroke-dashoffset: 0; stroke: #b0b0b0; stroke-opacity: 0.4; stroke-width: 0.75"/>
     </g>
     <g id="line2d_41">
      <g>
       <use xlink:href="#m1a1812429b" x="372.857504" y="361.44" style="stroke: #000000; stroke-width: 0.6"/>
      </g>
     </g>
    </g>
    <g id="xtick_21">
     <g id="line2d_42">
      <path d="M 381.120603 361.44 
L 381.120603 7.2 
" clip-path="url(#p35ae20c448)" style="fill: none; stroke-dasharray: 2.775,1.2; stroke-dashoffset: 0; stroke: #b0b0b0; stroke-opacity: 0.4; stroke-width: 0.75"/>
     </g>
     <g id="line2d_43">
      <g>
       <use xlink:href="#m1a1812429b" x="381.120603" y="361.44" style="stroke: #000000; stroke-width: 0.6"/>
      </g>
     </g>
    </g>
    <g id="xtick_22">
     <g id="line2d_44">
      <path d="M 437.140113 361.44 
L 437.140113 7.2 
" clip-path="url(#p35ae20c448)" style="fill: none; stroke-dasharray: 2.775,1.2; stroke-dashoffset: 0; stroke: #b0b0b0; stroke-opacity: 0.4; stroke-width: 0.75"/>
     </g>
     <g id="line2d_45">
      <g>
       <use xlink:href="#m1a1812429b" x="437.140113" y="361.44" style="stroke: #000000; stroke-width: 0.6"/>
      </g>
     </g>
    </g>
    <g id="xtick_23">
     <g id="line2d_46">
      <path d="M 465.585621 361.44 
L 465.585621 7.2 
" clip-path="url(#p35ae20c448)" style="fill: none; stroke-dasharray: 2.775,1.2; stroke-dashoffset: 0; stroke: #b0b0b0; stroke-opacity: 0.4; stroke-width: 0.75"/>
     </g>
     <g id="line2d_47">
      <g>
       <use xlink:href="#m1a1812429b" x="465.585621" y="361.44" style="stroke: #000000; stroke-width: 0.6"/>
      </g>
     </g>
    </g>
    <g id="xtick_24">
     <g id="line2d_48">
      <path d="M 485.76803 361.44 
L 485.76803 7.2 
" clip-path="url(#p35ae20c448)" style="fill: none; stroke-dasharray: 2.775,1.2; stroke-dashoffset: 0; stroke: #b0b0b0; stroke-opacity: 0.4; stroke-width: 0.75"/>
     </g>
     <g id="line2d_49">
      <g>
       <use xlink:href="#m1a1812429b" x="485.76803" y="361.44" style="stroke: #000000; stroke-width: 0.6"/>
      </g>
     </g>
    </g>
    <g id="xtick_25">
     <g id="line2d_50">
      <path d="M 501.422722 361.44 
L 501.422722 7.2 
" clip-path="url(#p35ae20c448)" style="fill: none; stroke-dasharray: 2.775,1.2; stroke-dashoffset: 0; stroke: #b0b0b0; stroke-opacity: 0.4; stroke-width: 0.75"/>
     </g>
     <g id="line2d_51">
      <g>
       <use xlink:href="#m1a1812429b" x="501.422722" y="361.44" style="stroke: #000000; stroke-width: 0.6"/>
      </g>
     </g>
    </g>
    <g id="xtick_26">
     <g id="line2d_52">
      <path d="M 514.213537 361.44 
L 514.213537 7.2 
" clip-path="url(#p35ae20c448)" style="fill: none; stroke-dasharray: 2.775,1.2; stroke-dashoffset: 0; stroke: #b0b0b0; stroke-opacity: 0.4; stroke-width: 0.75"/>
     </g>
     <g id="line2d_53">
      <g>
       <use xlink:href="#m1a1812429b" x="514.213537" y="361.44" style="stroke: #000000; stroke-width: 0.6"/>
      </g>
     </g>
    </g>
    <g id="xtick_27">
     <g id="line2d_54">
      <path d="M 525.028017 361.44 
L 525.028017 7.2 
" clip-path="url(#p35ae20c448)" style="fill: none; stroke-dasharray: 2.775,1.2; stroke-dashoffset: 0; stroke: #b0b0b0; stroke-opacity: 0.4; stroke-width: 0.75"/>
     </g>
     <g id="line2d_55">
      <g>
       <use xlink:href="#m1a1812429b" x="525.028017" y="361.44" style="stroke: #000000; stroke-width: 0.6"/>
      </g>
     </g>
    </g>
    <g id="xtick_28">
     <g id="line2d_56">
      <path d="M 534.395946 361.44 
L 534.395946 7.2 
" clip-path="url(#p35ae20c448)" style="fill: none; stroke-dasharray: 2.775,1.2; stroke-dashoffset: 0; stroke: #b0b0b0; stroke-opacity: 0.4; stroke-width: 0.75"/>
     </g>
     <g id="line2d_57">
      <g>
       <use xlink:href="#m1a1812429b" x="534.395946" y="361.44" style="stroke: #000000; stroke-width: 0.6"/>
      </g>
     </g>
    </g>
    <g id="xtick_29">
     <g id="line2d_58">
      <path d="M 542.659045 361.44 
L 542.659045 7.2 
" clip-path="url(#p35ae20c448)" style="fill: none; stroke-dasharray: 2.775,1.2; stroke-dashoffset: 0; stroke: #b0b0b0; stroke-opacity: 0.4; stroke-width: 0.75"/>
     </g>
     <g id="line2d_59">
      <g>
       <use xlink:href="#m1a1812429b" x="542.659045" y="361.44" style="stroke: #000000; stroke-width: 0.6"/>
      </g>
     </g>
    </g>
    <g id="xtick_30">
     <g id="line2d_60">
      <path d="M 598.678555 361.44 
L 598.678555 7.2 
" clip-path="url(#p35ae20c448)" style="fill: none; stroke-dasharray: 2.775,1.2; stroke-dashoffset: 0; stroke: #b0b0b0; stroke-opacity: 0.4; stroke-width: 0.75"/>
     </g>
     <g id="line2d_61">
      <g>
       <use xlink:href="#m1a1812429b" x="598.678555" y="361.44" style="stroke: #000000; stroke-width: 0.6"/>
      </g>
     </g>
    </g>
    <g id="xtick_31">
     <g id="line2d_62">
      <path d="M 627.124063 361.44 
L 627.124063 7.2 
" clip-path="url(#p35ae20c448)" style="fill: none; stroke-dasharray: 2.775,1.2; stroke-dashoffset: 0; stroke: #b0b0b0; stroke-opacity: 0.4; stroke-width: 0.75"/>
     </g>
     <g id="line2d_63">
      <g>
       <use xlink:href="#m1a1812429b" x="627.124063" y="361.44" style="stroke: #000000; stroke-width: 0.6"/>
      </g>
     </g>
    </g>
    <g id="xtick_32">
     <g id="line2d_64">
      <path d="M 647.306472 361.44 
L 647.306472 7.2 
" clip-path="url(#p35ae20c448)" style="fill: none; stroke-dasharray: 2.775,1.2; stroke-dashoffset: 0; stroke: #b0b0b0; stroke-opacity: 0.4; stroke-width: 0.75"/>
     </g>
     <g id="line2d_65">
      <g>
       <use xlink:href="#m1a1812429b" x="647.306472" y="361.44" style="stroke: #000000; stroke-width: 0.6"/>
      </g>
     </g>
    </g>
    <g id="xtick_33">
     <g id="line2d_66">
      <path d="M 662.961164 361.44 
L 662.961164 7.2 
" clip-path="url(#p35ae20c448)" style="fill: none; stroke-dasharray: 2.775,1.2; stroke-dashoffset: 0; stroke: #b0b0b0; stroke-opacity: 0.4; stroke-width: 0.75"/>
     </g>
     <g id="line2d_67">
      <g>
       <use xlink:href="#m1a1812429b" x="662.961164" y="361.44" style="stroke: #000000; stroke-width: 0.6"/>
      </g>
     </g>
    </g>
    <g id="xtick_34">
     <g id="line2d_68">
      <path d="M 675.751979 361.44 
L 675.751979 7.2 
" clip-path="url(#p35ae20c448)" style="fill: none; stroke-dasharray: 2.775,1.2; stroke-dashoffset: 0; stroke: #b0b0b0; stroke-opacity: 0.4; stroke-width: 0.75"/>
     </g>
     <g id="line2d_69">
      <g>
       <use xlink:href="#m1a1812429b" x="675.751979" y="361.44" style="stroke: #000000; stroke-width: 0.6"/>
      </g>
     </g>
    </g>
    <g id="xtick_35">
     <g id="line2d_70">
      <path d="M 686.56646 361.44 
L 686.56646 7.2 
" clip-path="url(#p35ae20c448)" style="fill: none; stroke-dasharray: 2.775,1.2; stroke-dashoffset: 0; stroke: #b0b0b0; stroke-opacity: 0.4; stroke-width: 0.75"/>
     </g>
     <g id="line2d_71">
      <g>
       <use xlink:href="#m1a1812429b" x="686.56646" y="361.44" style="stroke: #000000; stroke-width: 0.6"/>
      </g>
     </g>
    </g>
    <g id="xtick_36">
     <g id="line2d_72">
      <path d="M 695.934388 361.44 
L 695.934388 7.2 
" clip-path="url(#p35ae20c448)" style="fill: none; stroke-dasharray: 2.775,1.2; stroke-dashoffset: 0; stroke: #b0b0b0; stroke-opacity: 0.4; stroke-width: 0.75"/>
     </g>
     <g id="line2d_73">
      <g>
       <use xlink:href="#m1a1812429b" x="695.934388" y="361.44" style="stroke: #000000; stroke-width: 0.6"/>
      </g>
     </g>
    </g>
    <g id="xtick_37">
     <g id="line2d_74">
      <path d="M 704.197487 361.44 
L 704.197487 7.2 
" clip-path="url(#p35ae20c448)" style="fill: none; stroke-dasharray: 2.775,1.2; stroke-dashoffset: 0; stroke: #b0b0b0; stroke-opacity: 0.4; stroke-width: 0.75"/>
     </g>
     <g id="line2d_75">
      <g>
       <use xlink:href="#m1a1812429b" x="704.197487" y="361.44" style="stroke: #000000; stroke-width: 0.6"/>
      </g>
     </g>
    </g>
    <g id="text_6">
     <!-- slenderness  $R/t$ -->
     <g transform="translate(314.715313 404.64) scale(0.2 -0.2)">
      <defs>
       <path id="DejaVuSerif-56" d="M 359 184 
L 359 959 
L 691 959 
Q 703 588 923 403 
Q 1144 219 1575 219 
Q 1963 219 2166 364 
Q 2369 509 2369 788 
Q 2369 1006 2220 1140 
Q 2072 1275 1594 1428 
L 1178 1569 
Q 750 1706 558 1912 
Q 366 2119 366 2438 
Q 366 2894 700 3153 
Q 1034 3413 1625 3413 
Q 1888 3413 2178 3344 
Q 2469 3275 2778 3144 
L 2778 2419 
L 2447 2419 
Q 2434 2741 2221 2922 
Q 2009 3103 1644 3103 
Q 1281 3103 1095 2975 
Q 909 2847 909 2591 
Q 909 2381 1050 2254 
Q 1191 2128 1613 1997 
L 2069 1856 
Q 2541 1709 2748 1489 
Q 2956 1269 2956 922 
Q 2956 450 2595 179 
Q 2234 -91 1600 -91 
Q 1278 -91 972 -22 
Q 666 47 359 184 
z
" transform="scale(0.015625)"/>
       <path id="DejaVuSerif-4f" d="M 1313 331 
L 1856 331 
L 1856 0 
L 184 0 
L 184 331 
L 738 331 
L 738 4531 
L 184 4531 
L 184 4863 
L 1313 4863 
L 1313 331 
z
" transform="scale(0.015625)"/>
       <path id="DejaVuSerif-48" d="M 3469 1600 
L 991 1600 
L 991 1575 
Q 991 903 1244 561 
Q 1497 219 1991 219 
Q 2369 219 2611 417 
Q 2853 616 2950 1006 
L 3413 1006 
Q 3275 459 2904 184 
Q 2534 -91 1931 -91 
Q 1203 -91 761 389 
Q 319 869 319 1663 
Q 319 2450 753 2931 
Q 1188 3413 1894 3413 
Q 2647 3413 3050 2948 
Q 3453 2484 3469 1600 
z
M 2791 1931 
Q 2772 2513 2545 2808 
Q 2319 3103 1894 3103 
Q 1497 3103 1269 2806 
Q 1041 2509 991 1931 
L 2791 1931 
z
" transform="scale(0.015625)"/>
       <path id="DejaVuSerif-51" d="M 263 0 
L 263 331 
L 781 331 
L 781 2988 
L 231 2988 
L 231 3322 
L 1356 3322 
L 1356 2731 
Q 1516 3069 1770 3241 
Q 2025 3413 2363 3413 
Q 2913 3413 3172 3097 
Q 3431 2781 3431 2113 
L 3431 331 
L 3944 331 
L 3944 0 
L 2356 0 
L 2356 331 
L 2853 331 
L 2853 1931 
Q 2853 2541 2703 2767 
Q 2553 2994 2175 2994 
Q 1775 2994 1565 2701 
Q 1356 2409 1356 1850 
L 1356 331 
L 1856 331 
L 1856 0 
L 263 0 
z
" transform="scale(0.015625)"/>
       <path id="DejaVuSerif-47" d="M 3359 331 
L 3909 331 
L 3909 0 
L 2784 0 
L 2784 519 
Q 2616 206 2355 57 
Q 2094 -91 1709 -91 
Q 1097 -91 708 395 
Q 319 881 319 1663 
Q 319 2444 706 2928 
Q 1094 3413 1709 3413 
Q 2094 3413 2355 3264 
Q 2616 3116 2784 2803 
L 2784 4531 
L 2241 4531 
L 2241 4863 
L 3359 4863 
L 3359 331 
z
M 2784 1497 
L 2784 1825 
Q 2784 2422 2554 2737 
Q 2325 3053 1888 3053 
Q 1444 3053 1217 2703 
Q 991 2353 991 1663 
Q 991 975 1217 622 
Q 1444 269 1888 269 
Q 2325 269 2554 583 
Q 2784 897 2784 1497 
z
" transform="scale(0.015625)"/>
       <path id="DejaVuSerif-55" d="M 3059 3328 
L 3059 2497 
L 2728 2497 
Q 2713 2744 2591 2866 
Q 2469 2988 2234 2988 
Q 1809 2988 1582 2694 
Q 1356 2400 1356 1850 
L 1356 331 
L 2022 331 
L 2022 0 
L 263 0 
L 263 331 
L 781 331 
L 781 2994 
L 231 2994 
L 231 3322 
L 1356 3322 
L 1356 2731 
Q 1525 3078 1790 3245 
Q 2056 3413 2438 3413 
Q 2578 3413 2733 3391 
Q 2888 3369 3059 3328 
z
" transform="scale(0.015625)"/>
       <path id="DejaVuSerif-3" transform="scale(0.015625)"/>
       <path id="Cmmi10-70" d="M 313 0 
Q 250 0 250 84 
Q 253 100 262 139 
Q 272 178 289 201 
Q 306 225 331 225 
Q 722 225 878 269 
Q 959 297 997 441 
L 1875 3956 
Q 1888 4019 1888 4044 
Q 1888 4113 1813 4122 
Q 1691 4147 1350 4147 
Q 1288 4147 1288 4231 
Q 1291 4247 1300 4286 
Q 1309 4325 1326 4348 
Q 1344 4372 1369 4372 
L 3309 4372 
Q 3541 4372 3791 4319 
Q 4041 4266 4250 4152 
Q 4459 4038 4593 3848 
Q 4728 3659 4728 3406 
Q 4728 3084 4515 2831 
Q 4303 2578 3978 2408 
Q 3653 2238 3347 2169 
Q 3597 2078 3756 1879 
Q 3916 1681 3916 1422 
Q 3916 1388 3914 1370 
Q 3913 1353 3909 1331 
L 3859 763 
Q 3853 638 3847 550 
Q 3841 463 3841 409 
Q 3841 234 3892 129 
Q 3944 25 4097 25 
Q 4297 25 4448 211 
Q 4600 397 4647 616 
Q 4675 672 4709 672 
L 4769 672 
Q 4831 672 4831 588 
Q 4784 403 4682 237 
Q 4581 72 4426 -34 
Q 4272 -141 4091 -141 
Q 3716 -141 3452 26 
Q 3188 194 3188 550 
Q 3188 684 3213 788 
L 3353 1356 
Q 3378 1434 3378 1538 
Q 3378 1803 3198 1954 
Q 3019 2106 2747 2106 
L 1959 2106 
L 1538 416 
Q 1522 363 1522 325 
Q 1522 259 1600 250 
Q 1722 225 2059 225 
Q 2125 225 2125 141 
Q 2103 50 2090 25 
Q 2078 0 2016 0 
L 313 0 
z
M 1997 2272 
L 2706 2272 
Q 3403 2272 3756 2625 
Q 3919 2788 4014 3039 
Q 4109 3291 4109 3541 
Q 4109 3778 3970 3912 
Q 3831 4047 3626 4097 
Q 3422 4147 3175 4147 
L 2747 4147 
Q 2572 4147 2515 4117 
Q 2459 4088 2413 3928 
L 1997 2272 
z
" transform="scale(0.015625)"/>
       <path id="Cmmi10-62" d="M 359 -1472 
Q 359 -1453 366 -1447 
L 2591 4722 
Q 2603 4759 2634 4779 
Q 2666 4800 2706 4800 
Q 2763 4800 2798 4765 
Q 2834 4731 2834 4672 
L 2834 4647 
L 609 -1522 
Q 572 -1600 488 -1600 
Q 434 -1600 396 -1562 
Q 359 -1525 359 -1472 
z
" transform="scale(0.015625)"/>
       <path id="Cmmi10-30" d="M 397 519 
Q 397 613 416 697 
L 878 2534 
L 206 2534 
Q 141 2534 141 2619 
Q 166 2759 225 2759 
L 934 2759 
L 1191 3803 
Q 1216 3888 1291 3947 
Q 1366 4006 1459 4006 
Q 1541 4006 1595 3957 
Q 1650 3909 1650 3828 
Q 1650 3809 1648 3798 
Q 1647 3788 1644 3775 
L 1388 2759 
L 2047 2759 
Q 2113 2759 2113 2675 
Q 2109 2659 2100 2621 
Q 2091 2584 2075 2559 
Q 2059 2534 2028 2534 
L 1331 2534 
L 872 684 
Q 825 503 825 372 
Q 825 97 1013 97 
Q 1294 97 1511 361 
Q 1728 625 1844 941 
Q 1869 978 1894 978 
L 1972 978 
Q 1997 978 2012 961 
Q 2028 944 2028 922 
Q 2028 909 2022 903 
Q 1881 516 1612 222 
Q 1344 -72 997 -72 
Q 744 -72 570 93 
Q 397 259 397 519 
z
" transform="scale(0.015625)"/>
      </defs>
      <use xlink:href="#DejaVuSerif-56" transform="translate(0 0.015625)"/>
      <use xlink:href="#DejaVuSerif-4f" transform="translate(51.318359 0.015625)"/>
      <use xlink:href="#DejaVuSerif-48" transform="translate(83.300781 0.015625)"/>
      <use xlink:href="#DejaVuSerif-51" transform="translate(142.480469 0.015625)"/>
      <use xlink:href="#DejaVuSerif-47" transform="translate(206.884766 0.015625)"/>
      <use xlink:href="#DejaVuSerif-48" transform="translate(270.898438 0.015625)"/>
      <use xlink:href="#DejaVuSerif-55" transform="translate(330.078125 0.015625)"/>
      <use xlink:href="#DejaVuSerif-51" transform="translate(377.880859 0.015625)"/>
      <use xlink:href="#DejaVuSerif-48" transform="translate(442.285156 0.015625)"/>
      <use xlink:href="#DejaVuSerif-56" transform="translate(501.464844 0.015625)"/>
      <use xlink:href="#DejaVuSerif-56" transform="translate(552.783203 0.015625)"/>
      <use xlink:href="#DejaVuSerif-3" transform="translate(604.101562 0.015625)"/>
      <use xlink:href="#DejaVuSerif-3" transform="translate(635.888672 0.015625)"/>
      <use xlink:href="#Cmmi10-70" transform="translate(667.675781 0.015625)"/>
      <use xlink:href="#Cmmi10-62" transform="translate(743.554688 0.015625)"/>
      <use xlink:href="#Cmmi10-30" transform="translate(793.554688 0.015625)"/>
     </g>
    </g>
   </g>
   <g id="matplotlib.axis_2">
    <g id="ytick_1">
     <g id="line2d_76">
      <path d="M 65.435313 361.44 
L 729.995313 361.44 
" clip-path="url(#p35ae20c448)" style="fill: none; stroke-dasharray: 2.775,1.2; stroke-dashoffset: 0; stroke: #b0b0b0; stroke-opacity: 0.4; stroke-width: 0.75"/>
     </g>
     <g id="line2d_77">
      <defs>
       <path id="mc8a2d83934" d="M 0 0 
L -3.5 0 
" style="stroke: #000000; stroke-width: 0.8"/>
      </defs>
      <g>
       <use xlink:href="#mc8a2d83934" x="65.435313" y="361.44" style="stroke: #000000; stroke-width: 0.8"/>
      </g>
     </g>
     <g id="text_7">
      <!-- 0.0 -->
      <g transform="translate(31.4 367.898008) scale(0.17 -0.17)">
       <defs>
        <path id="DejaVuSerif-11" d="M 603 325 
Q 603 500 722 622 
Q 841 744 1019 744 
Q 1191 744 1312 622 
Q 1434 500 1434 325 
Q 1434 153 1312 31 
Q 1191 -91 1019 -91 
Q 841 -91 722 29 
Q 603 150 603 325 
z
" transform="scale(0.015625)"/>
       </defs>
       <use xlink:href="#DejaVuSerif-13"/>
       <use xlink:href="#DejaVuSerif-11" transform="translate(63.625 0)"/>
       <use xlink:href="#DejaVuSerif-13" transform="translate(95.40625 0)"/>
      </g>
     </g>
    </g>
    <g id="ytick_2">
     <g id="line2d_78">
      <path d="M 65.435313 289.847559 
L 729.995313 289.847559 
" clip-path="url(#p35ae20c448)" style="fill: none; stroke-dasharray: 2.775,1.2; stroke-dashoffset: 0; stroke: #b0b0b0; stroke-opacity: 0.4; stroke-width: 0.75"/>
     </g>
     <g id="line2d_79">
      <g>
       <use xlink:href="#mc8a2d83934" x="65.435313" y="289.847559" style="stroke: #000000; stroke-width: 0.8"/>
      </g>
     </g>
     <g id="text_8">
      <!-- 0.2 -->
      <g transform="translate(31.4 296.305567) scale(0.17 -0.17)">
       <defs>
        <path id="DejaVuSerif-15" d="M 819 3553 
L 469 3553 
L 469 4384 
Q 803 4563 1142 4656 
Q 1481 4750 1806 4750 
Q 2534 4750 2956 4397 
Q 3378 4044 3378 3438 
Q 3378 2753 2422 1800 
Q 2347 1728 2309 1691 
L 1131 513 
L 3078 513 
L 3078 1088 
L 3444 1088 
L 3444 0 
L 434 0 
L 434 341 
L 1850 1753 
Q 2319 2222 2519 2614 
Q 2719 3006 2719 3438 
Q 2719 3909 2473 4175 
Q 2228 4441 1797 4441 
Q 1350 4441 1106 4219 
Q 863 3997 819 3553 
z
" transform="scale(0.015625)"/>
       </defs>
       <use xlink:href="#DejaVuSerif-13"/>
       <use xlink:href="#DejaVuSerif-11" transform="translate(63.625 0)"/>
       <use xlink:href="#DejaVuSerif-15" transform="translate(95.40625 0)"/>
      </g>
     </g>
    </g>
    <g id="ytick_3">
     <g id="line2d_80">
      <path d="M 65.435313 218.255119 
L 729.995313 218.255119 
" clip-path="url(#p35ae20c448)" style="fill: none; stroke-dasharray: 2.775,1.2; stroke-dashoffset: 0; stroke: #b0b0b0; stroke-opacity: 0.4; stroke-width: 0.75"/>
     </g>
     <g id="line2d_81">
      <g>
       <use xlink:href="#mc8a2d83934" x="65.435313" y="218.255119" style="stroke: #000000; stroke-width: 0.8"/>
      </g>
     </g>
     <g id="text_9">
      <!-- 0.4 -->
      <g transform="translate(31.4 224.713126) scale(0.17 -0.17)">
       <defs>
        <path id="DejaVuSerif-17" d="M 2234 1581 
L 2234 4063 
L 641 1581 
L 2234 1581 
z
M 3609 0 
L 1484 0 
L 1484 331 
L 2234 331 
L 2234 1247 
L 197 1247 
L 197 1588 
L 2241 4750 
L 2859 4750 
L 2859 1581 
L 3750 1581 
L 3750 1247 
L 2859 1247 
L 2859 331 
L 3609 331 
L 3609 0 
z
" transform="scale(0.015625)"/>
       </defs>
       <use xlink:href="#DejaVuSerif-13"/>
       <use xlink:href="#DejaVuSerif-11" transform="translate(63.625 0)"/>
       <use xlink:href="#DejaVuSerif-17" transform="translate(95.40625 0)"/>
      </g>
     </g>
    </g>
    <g id="ytick_4">
     <g id="line2d_82">
      <path d="M 65.435313 146.662678 
L 729.995313 146.662678 
" clip-path="url(#p35ae20c448)" style="fill: none; stroke-dasharray: 2.775,1.2; stroke-dashoffset: 0; stroke: #b0b0b0; stroke-opacity: 0.4; stroke-width: 0.75"/>
     </g>
     <g id="line2d_83">
      <g>
       <use xlink:href="#mc8a2d83934" x="65.435313" y="146.662678" style="stroke: #000000; stroke-width: 0.8"/>
      </g>
     </g>
     <g id="text_10">
      <!-- 0.6 -->
      <g transform="translate(31.4 153.120686) scale(0.17 -0.17)">
       <defs>
        <path id="DejaVuSerif-19" d="M 2094 219 
Q 2534 219 2771 542 
Q 3009 866 3009 1472 
Q 3009 2078 2771 2401 
Q 2534 2725 2094 2725 
Q 1647 2725 1412 2412 
Q 1178 2100 1178 1509 
Q 1178 888 1415 553 
Q 1653 219 2094 219 
z
M 1075 2569 
Q 1288 2803 1556 2918 
Q 1825 3034 2163 3034 
Q 2859 3034 3264 2615 
Q 3669 2197 3669 1472 
Q 3669 763 3233 336 
Q 2797 -91 2069 -91 
Q 1278 -91 853 498 
Q 428 1088 428 2181 
Q 428 3406 931 4078 
Q 1434 4750 2350 4750 
Q 2597 4750 2869 4703 
Q 3141 4656 3425 4563 
L 3425 3794 
L 3072 3794 
Q 3034 4109 2831 4275 
Q 2628 4441 2284 4441 
Q 1678 4441 1381 3981 
Q 1084 3522 1075 2569 
z
" transform="scale(0.015625)"/>
       </defs>
       <use xlink:href="#DejaVuSerif-13"/>
       <use xlink:href="#DejaVuSerif-11" transform="translate(63.625 0)"/>
       <use xlink:href="#DejaVuSerif-19" transform="translate(95.40625 0)"/>
      </g>
     </g>
    </g>
    <g id="ytick_5">
     <g id="line2d_84">
      <path d="M 65.435313 75.070237 
L 729.995313 75.070237 
" clip-path="url(#p35ae20c448)" style="fill: none; stroke-dasharray: 2.775,1.2; stroke-dashoffset: 0; stroke: #b0b0b0; stroke-opacity: 0.4; stroke-width: 0.75"/>
     </g>
     <g id="line2d_85">
      <g>
       <use xlink:href="#mc8a2d83934" x="65.435313" y="75.070237" style="stroke: #000000; stroke-width: 0.8"/>
      </g>
     </g>
     <g id="text_11">
      <!-- 0.8 -->
      <g transform="translate(31.4 81.528245) scale(0.17 -0.17)">
       <defs>
        <path id="DejaVuSerif-1b" d="M 2981 1275 
Q 2981 1775 2732 2051 
Q 2484 2328 2034 2328 
Q 1584 2328 1336 2051 
Q 1088 1775 1088 1275 
Q 1088 772 1336 495 
Q 1584 219 2034 219 
Q 2484 219 2732 495 
Q 2981 772 2981 1275 
z
M 2853 3541 
Q 2853 3966 2637 4203 
Q 2422 4441 2034 4441 
Q 1650 4441 1433 4203 
Q 1216 3966 1216 3541 
Q 1216 3113 1433 2875 
Q 1650 2638 2034 2638 
Q 2422 2638 2637 2875 
Q 2853 3113 2853 3541 
z
M 2516 2484 
Q 3047 2413 3344 2092 
Q 3641 1772 3641 1275 
Q 3641 619 3225 264 
Q 2809 -91 2034 -91 
Q 1263 -91 845 264 
Q 428 619 428 1275 
Q 428 1772 725 2092 
Q 1022 2413 1556 2484 
Q 1084 2569 832 2842 
Q 581 3116 581 3541 
Q 581 4103 968 4426 
Q 1356 4750 2034 4750 
Q 2713 4750 3100 4426 
Q 3488 4103 3488 3541 
Q 3488 3116 3236 2842 
Q 2984 2569 2516 2484 
z
" transform="scale(0.015625)"/>
       </defs>
       <use xlink:href="#DejaVuSerif-13"/>
       <use xlink:href="#DejaVuSerif-11" transform="translate(63.625 0)"/>
       <use xlink:href="#DejaVuSerif-1b" transform="translate(95.40625 0)"/>
      </g>
     </g>
    </g>
    <g id="text_12">
     <!-- radial tip deflection  $|w|$ -->
     <g transform="translate(22.4 303.32) rotate(-90) scale(0.2 -0.2)">
      <defs>
       <path id="DejaVuSerif-44" d="M 2547 1044 
L 2547 1747 
L 1806 1747 
Q 1378 1747 1168 1562 
Q 959 1378 959 997 
Q 959 650 1171 447 
Q 1384 244 1747 244 
Q 2106 244 2326 466 
Q 2547 688 2547 1044 
z
M 3122 2075 
L 3122 331 
L 3634 331 
L 3634 0 
L 2547 0 
L 2547 359 
Q 2356 128 2106 18 
Q 1856 -91 1522 -91 
Q 969 -91 644 203 
Q 319 497 319 997 
Q 319 1513 691 1797 
Q 1063 2081 1741 2081 
L 2547 2081 
L 2547 2309 
Q 2547 2688 2317 2895 
Q 2088 3103 1672 3103 
Q 1328 3103 1125 2947 
Q 922 2791 872 2484 
L 575 2484 
L 575 3156 
Q 875 3284 1158 3348 
Q 1441 3413 1709 3413 
Q 2400 3413 2761 3070 
Q 3122 2728 3122 2075 
z
" transform="scale(0.015625)"/>
       <path id="DejaVuSerif-4c" d="M 622 4353 
Q 622 4497 726 4603 
Q 831 4709 978 4709 
Q 1122 4709 1226 4603 
Q 1331 4497 1331 4353 
Q 1331 4206 1228 4103 
Q 1125 4000 978 4000 
Q 831 4000 726 4103 
Q 622 4206 622 4353 
z
M 1356 331 
L 1900 331 
L 1900 0 
L 231 0 
L 231 331 
L 781 331 
L 781 2988 
L 231 2988 
L 231 3322 
L 1356 3322 
L 1356 331 
z
" transform="scale(0.015625)"/>
       <path id="DejaVuSerif-57" d="M 691 2988 
L 184 2988 
L 184 3322 
L 691 3322 
L 691 4353 
L 1269 4353 
L 1269 3322 
L 2350 3322 
L 2350 2988 
L 1269 2988 
L 1269 878 
Q 1269 456 1350 337 
Q 1431 219 1650 219 
Q 1875 219 1978 351 
Q 2081 484 2088 781 
L 2522 781 
Q 2497 328 2275 118 
Q 2053 -91 1600 -91 
Q 1103 -91 897 129 
Q 691 350 691 878 
L 691 2988 
z
" transform="scale(0.015625)"/>
       <path id="DejaVuSerif-53" d="M 1313 1825 
L 1313 1497 
Q 1313 897 1542 583 
Q 1772 269 2209 269 
Q 2650 269 2876 622 
Q 3103 975 3103 1663 
Q 3103 2353 2876 2703 
Q 2650 3053 2209 3053 
Q 1772 3053 1542 2737 
Q 1313 2422 1313 1825 
z
M 738 2988 
L 184 2988 
L 184 3322 
L 1313 3322 
L 1313 2803 
Q 1481 3116 1742 3264 
Q 2003 3413 2388 3413 
Q 3000 3413 3387 2928 
Q 3775 2444 3775 1663 
Q 3775 881 3387 395 
Q 3000 -91 2388 -91 
Q 2003 -91 1742 57 
Q 1481 206 1313 519 
L 1313 -997 
L 1856 -997 
L 1856 -1331 
L 184 -1331 
L 184 -997 
L 738 -997 
L 738 2988 
z
" transform="scale(0.015625)"/>
       <path id="DejaVuSerif-49" d="M 2753 4078 
L 2450 4078 
Q 2447 4313 2317 4434 
Q 2188 4556 1941 4556 
Q 1619 4556 1487 4379 
Q 1356 4203 1356 3750 
L 1356 3322 
L 2284 3322 
L 2284 2988 
L 1356 2988 
L 1356 331 
L 2094 331 
L 2094 0 
L 231 0 
L 231 331 
L 781 331 
L 781 2988 
L 231 2988 
L 231 3322 
L 781 3322 
L 781 3738 
Q 781 4294 1070 4578 
Q 1359 4863 1919 4863 
Q 2128 4863 2337 4825 
Q 2547 4788 2753 4709 
L 2753 4078 
z
" transform="scale(0.015625)"/>
       <path id="DejaVuSerif-46" d="M 3291 997 
Q 3169 466 2822 187 
Q 2475 -91 1925 -91 
Q 1200 -91 759 389 
Q 319 869 319 1663 
Q 319 2459 759 2936 
Q 1200 3413 1925 3413 
Q 2241 3413 2553 3339 
Q 2866 3266 3181 3116 
L 3181 2266 
L 2847 2266 
Q 2781 2703 2561 2903 
Q 2341 3103 1931 3103 
Q 1466 3103 1228 2742 
Q 991 2381 991 1663 
Q 991 944 1227 581 
Q 1463 219 1931 219 
Q 2303 219 2525 412 
Q 2747 606 2828 997 
L 3291 997 
z
" transform="scale(0.015625)"/>
       <path id="DejaVuSerif-52" d="M 1925 219 
Q 2388 219 2623 584 
Q 2859 950 2859 1663 
Q 2859 2375 2623 2739 
Q 2388 3103 1925 3103 
Q 1463 3103 1227 2739 
Q 991 2375 991 1663 
Q 991 950 1228 584 
Q 1466 219 1925 219 
z
M 1925 -91 
Q 1200 -91 759 389 
Q 319 869 319 1663 
Q 319 2456 758 2934 
Q 1197 3413 1925 3413 
Q 2653 3413 3092 2934 
Q 3531 2456 3531 1663 
Q 3531 869 3092 389 
Q 2653 -91 1925 -91 
z
" transform="scale(0.015625)"/>
       <path id="Cmsy10-2f" d="M 763 -1484 
L 763 4684 
Q 763 4734 800 4767 
Q 838 4800 891 4800 
Q 938 4800 978 4767 
Q 1019 4734 1019 4684 
L 1019 -1484 
Q 1019 -1534 978 -1567 
Q 938 -1600 891 -1600 
Q 838 -1600 800 -1567 
Q 763 -1534 763 -1484 
z
" transform="scale(0.015625)"/>
       <path id="Cmmi10-6a" d="M 691 744 
Q 691 878 727 1053 
Q 763 1228 806 1364 
Q 850 1500 954 1781 
Q 1059 2063 1069 2088 
Q 1153 2322 1153 2472 
Q 1153 2663 1013 2663 
Q 759 2663 595 2402 
Q 431 2141 353 1819 
Q 341 1778 300 1778 
L 225 1778 
Q 172 1778 172 1838 
L 172 1856 
Q 275 2238 487 2533 
Q 700 2828 1025 2828 
Q 1253 2828 1411 2678 
Q 1569 2528 1569 2297 
Q 1569 2178 1516 2047 
Q 1441 1853 1339 1581 
Q 1238 1309 1181 1087 
Q 1125 866 1125 659 
Q 1125 409 1256 253 
Q 1388 97 1638 97 
Q 1978 97 2203 616 
Q 2194 653 2194 722 
Q 2194 894 2247 1113 
L 2606 2553 
Q 2628 2638 2706 2698 
Q 2784 2759 2875 2759 
Q 2950 2759 3008 2709 
Q 3066 2659 3066 2578 
Q 3066 2541 3059 2528 
L 2700 1100 
Q 2638 844 2638 641 
Q 2638 400 2748 248 
Q 2859 97 3097 97 
Q 3509 97 3775 641 
Q 3875 834 3998 1212 
Q 4122 1591 4122 1791 
Q 4122 1975 4062 2083 
Q 4003 2191 3898 2316 
Q 3794 2441 3794 2503 
Q 3794 2625 3898 2729 
Q 4003 2834 4128 2834 
Q 4281 2834 4348 2693 
Q 4416 2553 4416 2375 
Q 4416 2159 4344 1826 
Q 4272 1494 4162 1158 
Q 4053 822 3956 622 
Q 3606 -72 3084 -72 
Q 2816 -72 2594 31 
Q 2372 134 2266 359 
Q 2163 175 1995 51 
Q 1828 -72 1625 -72 
Q 1203 -72 947 129 
Q 691 331 691 744 
z
" transform="scale(0.015625)"/>
      </defs>
      <use xlink:href="#DejaVuSerif-55" transform="translate(0 0.015625)"/>
      <use xlink:href="#DejaVuSerif-44" transform="translate(47.802734 0.015625)"/>
      <use xlink:href="#DejaVuSerif-47" transform="translate(107.421875 0.015625)"/>
      <use xlink:href="#DejaVuSerif-4c" transform="translate(171.435547 0.015625)"/>
      <use xlink:href="#DejaVuSerif-44" transform="translate(203.417969 0.015625)"/>
      <use xlink:href="#DejaVuSerif-4f" transform="translate(263.037109 0.015625)"/>
      <use xlink:href="#DejaVuSerif-3" transform="translate(295.019531 0.015625)"/>
      <use xlink:href="#DejaVuSerif-57" transform="translate(326.806641 0.015625)"/>
      <use xlink:href="#DejaVuSerif-4c" transform="translate(366.992188 0.015625)"/>
      <use xlink:href="#DejaVuSerif-53" transform="translate(398.974609 0.015625)"/>
      <use xlink:href="#DejaVuSerif-3" transform="translate(462.988281 0.015625)"/>
      <use xlink:href="#DejaVuSerif-47" transform="translate(494.775391 0.015625)"/>
      <use xlink:href="#DejaVuSerif-48" transform="translate(558.789062 0.015625)"/>
      <use xlink:href="#DejaVuSerif-49" transform="translate(617.96875 0.015625)"/>
      <use xlink:href="#DejaVuSerif-4f" transform="translate(654.980469 0.015625)"/>
      <use xlink:href="#DejaVuSerif-48" transform="translate(686.962891 0.015625)"/>
      <use xlink:href="#DejaVuSerif-46" transform="translate(746.142578 0.015625)"/>
      <use xlink:href="#DejaVuSerif-57" transform="translate(802.148438 0.015625)"/>
      <use xlink:href="#DejaVuSerif-4c" transform="translate(842.333984 0.015625)"/>
      <use xlink:href="#DejaVuSerif-52" transform="translate(874.316406 0.015625)"/>
      <use xlink:href="#DejaVuSerif-51" transform="translate(934.521484 0.015625)"/>
      <use xlink:href="#DejaVuSerif-3" transform="translate(998.925781 0.015625)"/>
      <use xlink:href="#DejaVuSerif-3" transform="translate(1030.712891 0.015625)"/>
      <use xlink:href="#Cmsy10-2f" transform="translate(1062.5 0.015625)"/>
      <use xlink:href="#Cmmi10-6a" transform="translate(1090.185547 0.015625)"/>
      <use xlink:href="#Cmsy10-2f" transform="translate(1161.669922 0.015625)"/>
     </g>
    </g>
   </g>
   <g id="line2d_86">
    <path d="M 226.973755 24.48531 
L 388.512197 51.357467 
L 550.050639 104.673578 
L 711.589081 314.961961 
" clip-path="url(#p35ae20c448)" style="fill: none; stroke-dasharray: 5.18,2.24; stroke-dashoffset: 0; stroke: #cc0000; stroke-width: 1.4"/>
    <defs>
     <path id="m25632b9520" d="M -3.5 3.5 
L 3.5 3.5 
L 3.5 -3.5 
L -3.5 -3.5 
z
" style="stroke: #cc0000; stroke-width: 1.2; stroke-linejoin: miter"/>
    </defs>
    <g clip-path="url(#p35ae20c448)">
     <use xlink:href="#m25632b9520" x="226.973755" y="24.48531" style="fill-opacity: 0; stroke: #cc0000; stroke-width: 1.2; stroke-linejoin: miter"/>
     <use xlink:href="#m25632b9520" x="388.512197" y="51.357467" style="fill-opacity: 0; stroke: #cc0000; stroke-width: 1.2; stroke-linejoin: miter"/>
     <use xlink:href="#m25632b9520" x="550.050639" y="104.673578" style="fill-opacity: 0; stroke: #cc0000; stroke-width: 1.2; stroke-linejoin: miter"/>
     <use xlink:href="#m25632b9520" x="711.589081" y="314.961961" style="fill-opacity: 0; stroke: #cc0000; stroke-width: 1.2; stroke-linejoin: miter"/>
    </g>
   </g>
   <g id="line2d_87">
    <path d="M 226.973755 23.806133 
L 388.512197 24.192103 
L 550.050639 24.195803 
L 711.589081 24.19584 
" clip-path="url(#p35ae20c448)" style="fill: none; stroke: #cc0000; stroke-width: 1.4; stroke-linecap: square"/>
    <g clip-path="url(#p35ae20c448)">
     <use xlink:href="#m25632b9520" x="226.973755" y="23.806133" style="fill-opacity: 0; stroke: #cc0000; stroke-width: 1.2; stroke-linejoin: miter"/>
     <use xlink:href="#m25632b9520" x="388.512197" y="24.192103" style="fill-opacity: 0; stroke: #cc0000; stroke-width: 1.2; stroke-linejoin: miter"/>
     <use xlink:href="#m25632b9520" x="550.050639" y="24.195803" style="fill-opacity: 0; stroke: #cc0000; stroke-width: 1.2; stroke-linejoin: miter"/>
     <use xlink:href="#m25632b9520" x="711.589081" y="24.19584" style="fill-opacity: 0; stroke: #cc0000; stroke-width: 1.2; stroke-linejoin: miter"/>
    </g>
   </g>
   <g id="line2d_88">
    <path d="M 226.973755 23.101933 
L 388.512197 51.345236 
L 550.050639 104.673518 
L 711.589081 314.961928 
" clip-path="url(#p35ae20c448)" style="fill: none; stroke-dasharray: 5.18,2.24; stroke-dashoffset: 0; stroke: #000000; stroke-width: 1.4"/>
    <defs>
     <path id="me2566ec7aa" d="M 0 -3.5 
L -3.5 3.5 
L 3.5 3.5 
z
" style="stroke: #000000; stroke-width: 1.2; stroke-linejoin: miter"/>
    </defs>
    <g clip-path="url(#p35ae20c448)">
     <use xlink:href="#me2566ec7aa" x="226.973755" y="23.101933" style="fill-opacity: 0; stroke: #000000; stroke-width: 1.2; stroke-linejoin: miter"/>
     <use xlink:href="#me2566ec7aa" x="388.512197" y="51.345236" style="fill-opacity: 0; stroke: #000000; stroke-width: 1.2; stroke-linejoin: miter"/>
     <use xlink:href="#me2566ec7aa" x="550.050639" y="104.673518" style="fill-opacity: 0; stroke: #000000; stroke-width: 1.2; stroke-linejoin: miter"/>
     <use xlink:href="#me2566ec7aa" x="711.589081" y="314.961928" style="fill-opacity: 0; stroke: #000000; stroke-width: 1.2; stroke-linejoin: miter"/>
    </g>
   </g>
   <g id="line2d_89">
    <path d="M 226.973755 22.395828 
L 388.512197 24.177838 
L 550.050639 24.19566 
L 711.589081 24.195838 
" clip-path="url(#p35ae20c448)" style="fill: none; stroke: #000000; stroke-width: 1.4; stroke-linecap: square"/>
    <g clip-path="url(#p35ae20c448)">
     <use xlink:href="#me2566ec7aa" x="226.973755" y="22.395828" style="fill-opacity: 0; stroke: #000000; stroke-width: 1.2; stroke-linejoin: miter"/>
     <use xlink:href="#me2566ec7aa" x="388.512197" y="24.177838" style="fill-opacity: 0; stroke: #000000; stroke-width: 1.2; stroke-linejoin: miter"/>
     <use xlink:href="#me2566ec7aa" x="550.050639" y="24.19566" style="fill-opacity: 0; stroke: #000000; stroke-width: 1.2; stroke-linejoin: miter"/>
     <use xlink:href="#me2566ec7aa" x="711.589081" y="24.195838" style="fill-opacity: 0; stroke: #000000; stroke-width: 1.2; stroke-linejoin: miter"/>
    </g>
   </g>
   <g id="line2d_90">
    <path d="M 226.973755 23.186566 
L 388.512197 55.527557 
L 550.050639 218.463516 
L 711.589081 358.421867 
" clip-path="url(#p35ae20c448)" style="fill: none; stroke-dasharray: 5.18,2.24; stroke-dashoffset: 0; stroke: #006400; stroke-width: 1.4"/>
    <defs>
     <path id="md4046019ab" d="M 0 3.5 
C 0.928211 3.5 1.81853 3.131218 2.474874 2.474874 
C 3.131218 1.81853 3.5 0.928211 3.5 0 
C 3.5 -0.928211 3.131218 -1.81853 2.474874 -2.474874 
C 1.81853 -3.131218 0.928211 -3.5 0 -3.5 
C -0.928211 -3.5 -1.81853 -3.131218 -2.474874 -2.474874 
C -3.131218 -1.81853 -3.5 -0.928211 -3.5 0 
C -3.5 0.928211 -3.131218 1.81853 -2.474874 2.474874 
C -1.81853 3.131218 -0.928211 3.5 0 3.5 
z
" style="stroke: #006400; stroke-width: 1.2"/>
    </defs>
    <g clip-path="url(#p35ae20c448)">
     <use xlink:href="#md4046019ab" x="226.973755" y="23.186566" style="fill-opacity: 0; stroke: #006400; stroke-width: 1.2"/>
     <use xlink:href="#md4046019ab" x="388.512197" y="55.527557" style="fill-opacity: 0; stroke: #006400; stroke-width: 1.2"/>
     <use xlink:href="#md4046019ab" x="550.050639" y="218.463516" style="fill-opacity: 0; stroke: #006400; stroke-width: 1.2"/>
     <use xlink:href="#md4046019ab" x="711.589081" y="358.421867" style="fill-opacity: 0; stroke: #006400; stroke-width: 1.2"/>
    </g>
   </g>
   <g id="line2d_91">
    <path d="M 226.973755 22.524261 
L 388.512197 34.303421 
L 550.050639 50.597015 
L 711.589081 220.5425 
" clip-path="url(#p35ae20c448)" style="fill: none; stroke: #006400; stroke-width: 1.4; stroke-linecap: square"/>
    <g clip-path="url(#p35ae20c448)">
     <use xlink:href="#md4046019ab" x="226.973755" y="22.524261" style="fill-opacity: 0; stroke: #006400; stroke-width: 1.2"/>
     <use xlink:href="#md4046019ab" x="388.512197" y="34.303421" style="fill-opacity: 0; stroke: #006400; stroke-width: 1.2"/>
     <use xlink:href="#md4046019ab" x="550.050639" y="50.597015" style="fill-opacity: 0; stroke: #006400; stroke-width: 1.2"/>
     <use xlink:href="#md4046019ab" x="711.589081" y="220.5425" style="fill-opacity: 0; stroke: #006400; stroke-width: 1.2"/>
    </g>
   </g>
   <g id="patch_3">
    <path d="M 65.435313 361.44 
L 65.435313 7.2 
" style="fill: none; stroke: #000000; stroke-width: 0.8; stroke-linejoin: miter; stroke-linecap: square"/>
   </g>
   <g id="patch_4">
    <path d="M 729.995313 361.44 
L 729.995313 7.2 
" style="fill: none; stroke: #000000; stroke-width: 0.8; stroke-linejoin: miter; stroke-linecap: square"/>
   </g>
   <g id="patch_5">
    <path d="M 65.435313 361.44 
L 729.995313 361.44 
" style="fill: none; stroke: #000000; stroke-width: 0.8; stroke-linejoin: miter; stroke-linecap: square"/>
   </g>
   <g id="patch_6">
    <path d="M 65.435313 7.2 
L 729.995313 7.2 
" style="fill: none; stroke: #000000; stroke-width: 0.8; stroke-linejoin: miter; stroke-linecap: square"/>
   </g>
   <g id="legend_1">
    <g id="patch_7">
     <path d="M 753.786513 154.207031 
L 937.712294 154.207031 
Q 940.712294 154.207031 940.712294 151.207031 
L 940.712294 17.7 
Q 940.712294 14.7 937.712294 14.7 
L 753.786513 14.7 
Q 750.786513 14.7 750.786513 17.7 
L 750.786513 151.207031 
Q 750.786513 154.207031 753.786513 154.207031 
z
" style="fill: #ffffff; opacity: 0.8; stroke: #cccccc; stroke-linejoin: miter"/>
    </g>
    <g id="line2d_92">
     <path d="M 756.786513 26.847656 
L 771.786513 26.847656 
L 786.786513 26.847656 
" style="fill: none; stroke-dasharray: 5.55,2.4; stroke-dashoffset: 0; stroke: #cc0000; stroke-width: 1.5"/>
     <defs>
      <path id="m81339219eb" d="M -3 3 
L 3 3 
L 3 -3 
L -3 -3 
z
" style="stroke: #cc0000; stroke-width: 1.2; stroke-linejoin: miter"/>
     </defs>
     <g>
      <use xlink:href="#m81339219eb" x="771.786513" y="26.847656" style="fill-opacity: 0; stroke: #cc0000; stroke-width: 1.2; stroke-linejoin: miter"/>
     </g>
    </g>
    <g id="text_13">
     <!-- RM-Hier-4p -->
     <g transform="translate(798.786513 32.097656) scale(0.15 -0.15)">
      <defs>
       <path id="DejaVuSerif-35" d="M 3066 2316 
Q 3284 2256 3442 2114 
Q 3600 1972 3725 1716 
L 4403 331 
L 4972 331 
L 4972 0 
L 3872 0 
L 3144 1484 
Q 2934 1916 2759 2042 
Q 2584 2169 2278 2169 
L 1581 2169 
L 1581 331 
L 2241 331 
L 2241 0 
L 353 0 
L 353 331 
L 947 331 
L 947 4331 
L 353 4331 
L 353 4666 
L 2719 4666 
Q 3400 4666 3770 4341 
Q 4141 4016 4141 3419 
Q 4141 2938 3870 2661 
Q 3600 2384 3066 2316 
z
M 1581 2503 
L 2503 2503 
Q 2975 2503 3200 2726 
Q 3425 2950 3425 3419 
Q 3425 3888 3200 4109 
Q 2975 4331 2503 4331 
L 1581 4331 
L 1581 2503 
z
" transform="scale(0.015625)"/>
       <path id="DejaVuSerif-30" d="M 353 0 
L 353 331 
L 947 331 
L 947 4331 
L 319 4331 
L 319 4666 
L 1678 4666 
L 3316 1344 
L 4953 4666 
L 6228 4666 
L 6228 4331 
L 5606 4331 
L 5606 331 
L 6203 331 
L 6203 0 
L 4378 0 
L 4378 331 
L 4972 331 
L 4972 3938 
L 3372 684 
L 2931 684 
L 1331 3938 
L 1331 331 
L 1925 331 
L 1925 0 
L 353 0 
z
" transform="scale(0.015625)"/>
       <path id="DejaVuSerif-10" d="M 281 1959 
L 1881 1959 
L 1881 1472 
L 281 1472 
L 281 1959 
z
" transform="scale(0.015625)"/>
       <path id="DejaVuSerif-2b" d="M 353 0 
L 353 331 
L 947 331 
L 947 4331 
L 353 4331 
L 353 4666 
L 2175 4666 
L 2175 4331 
L 1581 4331 
L 1581 2719 
L 4000 2719 
L 4000 4331 
L 3406 4331 
L 3406 4666 
L 5228 4666 
L 5228 4331 
L 4634 4331 
L 4634 331 
L 5228 331 
L 5228 0 
L 3406 0 
L 3406 331 
L 4000 331 
L 4000 2338 
L 1581 2338 
L 1581 331 
L 2175 331 
L 2175 0 
L 353 0 
z
" transform="scale(0.015625)"/>
      </defs>
      <use xlink:href="#DejaVuSerif-35"/>
      <use xlink:href="#DejaVuSerif-30" transform="translate(75.296875 0)"/>
      <use xlink:href="#DejaVuSerif-10" transform="translate(177.6875 0)"/>
      <use xlink:href="#DejaVuSerif-2b" transform="translate(211.484375 0)"/>
      <use xlink:href="#DejaVuSerif-4c" transform="translate(298.6875 0)"/>
      <use xlink:href="#DejaVuSerif-48" transform="translate(330.671875 0)"/>
      <use xlink:href="#DejaVuSerif-55" transform="translate(389.859375 0)"/>
      <use xlink:href="#DejaVuSerif-10" transform="translate(437.65625 0)"/>
      <use xlink:href="#DejaVuSerif-17" transform="translate(471.453125 0)"/>
      <use xlink:href="#DejaVuSerif-53" transform="translate(535.078125 0)"/>
     </g>
    </g>
    <g id="line2d_93">
     <path d="M 756.786513 49.348828 
L 771.786513 49.348828 
L 786.786513 49.348828 
" style="fill: none; stroke: #cc0000; stroke-width: 1.5; stroke-linecap: square"/>
     <g>
      <use xlink:href="#m81339219eb" x="771.786513" y="49.348828" style="fill-opacity: 0; stroke: #cc0000; stroke-width: 1.2; stroke-linejoin: miter"/>
     </g>
    </g>
    <g id="text_14">
     <!-- RM-Hier-4p-MMS -->
     <g transform="translate(798.786513 54.598828) scale(0.15 -0.15)">
      <defs>
       <path id="DejaVuSerif-36" d="M 594 225 
L 594 1288 
L 953 1284 
Q 969 753 1261 498 
Q 1553 244 2150 244 
Q 2706 244 2998 464 
Q 3291 684 3291 1106 
Q 3291 1444 3114 1625 
Q 2938 1806 2369 1978 
L 1753 2163 
Q 1084 2366 811 2669 
Q 538 2972 538 3500 
Q 538 4094 959 4422 
Q 1381 4750 2144 4750 
Q 2469 4750 2856 4679 
Q 3244 4609 3681 4475 
L 3681 3481 
L 3328 3481 
Q 3275 3975 2998 4195 
Q 2722 4416 2156 4416 
Q 1663 4416 1405 4214 
Q 1147 4013 1147 3628 
Q 1147 3294 1340 3103 
Q 1534 2913 2163 2725 
L 2741 2553 
Q 3375 2363 3645 2067 
Q 3916 1772 3916 1275 
Q 3916 597 3481 253 
Q 3047 -91 2188 -91 
Q 1803 -91 1404 -12 
Q 1006 66 594 225 
z
" transform="scale(0.015625)"/>
      </defs>
      <use xlink:href="#DejaVuSerif-35"/>
      <use xlink:href="#DejaVuSerif-30" transform="translate(75.296875 0)"/>
      <use xlink:href="#DejaVuSerif-10" transform="translate(177.6875 0)"/>
      <use xlink:href="#DejaVuSerif-2b" transform="translate(211.484375 0)"/>
      <use xlink:href="#DejaVuSerif-4c" transform="translate(298.6875 0)"/>
      <use xlink:href="#DejaVuSerif-48" transform="translate(330.671875 0)"/>
      <use xlink:href="#DejaVuSerif-55" transform="translate(389.859375 0)"/>
      <use xlink:href="#DejaVuSerif-10" transform="translate(437.65625 0)"/>
      <use xlink:href="#DejaVuSerif-17" transform="translate(471.453125 0)"/>
      <use xlink:href="#DejaVuSerif-53" transform="translate(535.078125 0)"/>
      <use xlink:href="#DejaVuSerif-10" transform="translate(599.09375 0)"/>
      <use xlink:href="#DejaVuSerif-30" transform="translate(632.890625 0)"/>
      <use xlink:href="#DejaVuSerif-30" transform="translate(735.28125 0)"/>
      <use xlink:href="#DejaVuSerif-36" transform="translate(837.671875 0)"/>
     </g>
    </g>
    <g id="line2d_94">
     <path d="M 756.786513 71.85 
L 771.786513 71.85 
L 786.786513 71.85 
" style="fill: none; stroke-dasharray: 5.55,2.4; stroke-dashoffset: 0; stroke: #000000; stroke-width: 1.5"/>
     <defs>
      <path id="mfb26dc14c6" d="M 0 -3 
L -3 3 
L 3 3 
z
" style="stroke: #000000; stroke-width: 1.2; stroke-linejoin: miter"/>
     </defs>
     <g>
      <use xlink:href="#mfb26dc14c6" x="771.786513" y="71.85" style="fill-opacity: 0; stroke: #000000; stroke-width: 1.2; stroke-linejoin: miter"/>
     </g>
    </g>
    <g id="text_15">
     <!-- RM-Hier-5p -->
     <g transform="translate(798.786513 77.1) scale(0.15 -0.15)">
      <defs>
       <path id="DejaVuSerif-18" d="M 3219 4666 
L 3219 4153 
L 1081 4153 
L 1081 2816 
Q 1244 2928 1461 2984 
Q 1678 3041 1947 3041 
Q 2703 3041 3140 2622 
Q 3578 2203 3578 1478 
Q 3578 738 3136 323 
Q 2694 -91 1894 -91 
Q 1572 -91 1234 -12 
Q 897 66 544 225 
L 544 1131 
L 897 1131 
Q 925 688 1179 453 
Q 1434 219 1894 219 
Q 2388 219 2653 544 
Q 2919 869 2919 1478 
Q 2919 2084 2655 2407 
Q 2391 2731 1894 2731 
Q 1613 2731 1398 2631 
Q 1184 2531 1019 2322 
L 750 2322 
L 750 4666 
L 3219 4666 
z
" transform="scale(0.015625)"/>
      </defs>
      <use xlink:href="#DejaVuSerif-35"/>
      <use xlink:href="#DejaVuSerif-30" transform="translate(75.296875 0)"/>
      <use xlink:href="#DejaVuSerif-10" transform="translate(177.6875 0)"/>
      <use xlink:href="#DejaVuSerif-2b" transform="translate(211.484375 0)"/>
      <use xlink:href="#DejaVuSerif-4c" transform="translate(298.6875 0)"/>
      <use xlink:href="#DejaVuSerif-48" transform="translate(330.671875 0)"/>
      <use xlink:href="#DejaVuSerif-55" transform="translate(389.859375 0)"/>
      <use xlink:href="#DejaVuSerif-10" transform="translate(437.65625 0)"/>
      <use xlink:href="#DejaVuSerif-18" transform="translate(471.453125 0)"/>
      <use xlink:href="#DejaVuSerif-53" transform="translate(535.078125 0)"/>
     </g>
    </g>
    <g id="line2d_95">
     <path d="M 756.786513 94.351172 
L 771.786513 94.351172 
L 786.786513 94.351172 
" style="fill: none; stroke: #000000; stroke-width: 1.5; stroke-linecap: square"/>
     <g>
      <use xlink:href="#mfb26dc14c6" x="771.786513" y="94.351172" style="fill-opacity: 0; stroke: #000000; stroke-width: 1.2; stroke-linejoin: miter"/>
     </g>
    </g>
    <g id="text_16">
     <!-- RM-Hier-5p-MMS -->
     <g transform="translate(798.786513 99.601172) scale(0.15 -0.15)">
      <use xlink:href="#DejaVuSerif-35"/>
      <use xlink:href="#DejaVuSerif-30" transform="translate(75.296875 0)"/>
      <use xlink:href="#DejaVuSerif-10" transform="translate(177.6875 0)"/>
      <use xlink:href="#DejaVuSerif-2b" transform="translate(211.484375 0)"/>
      <use xlink:href="#DejaVuSerif-4c" transform="translate(298.6875 0)"/>
      <use xlink:href="#DejaVuSerif-48" transform="translate(330.671875 0)"/>
      <use xlink:href="#DejaVuSerif-55" transform="translate(389.859375 0)"/>
      <use xlink:href="#DejaVuSerif-10" transform="translate(437.65625 0)"/>
      <use xlink:href="#DejaVuSerif-18" transform="translate(471.453125 0)"/>
      <use xlink:href="#DejaVuSerif-53" transform="translate(535.078125 0)"/>
      <use xlink:href="#DejaVuSerif-10" transform="translate(599.09375 0)"/>
      <use xlink:href="#DejaVuSerif-30" transform="translate(632.890625 0)"/>
      <use xlink:href="#DejaVuSerif-30" transform="translate(735.28125 0)"/>
      <use xlink:href="#DejaVuSerif-36" transform="translate(837.671875 0)"/>
     </g>
    </g>
    <g id="line2d_96">
     <path d="M 756.786513 116.852344 
L 771.786513 116.852344 
L 786.786513 116.852344 
" style="fill: none; stroke-dasharray: 5.55,2.4; stroke-dashoffset: 0; stroke: #006400; stroke-width: 1.5"/>
     <defs>
      <path id="m6f4c89c3b1" d="M 0 3 
C 0.795609 3 1.55874 2.683901 2.12132 2.12132 
C 2.683901 1.55874 3 0.795609 3 0 
C 3 -0.795609 2.683901 -1.55874 2.12132 -2.12132 
C 1.55874 -2.683901 0.795609 -3 0 -3 
C -0.795609 -3 -1.55874 -2.683901 -2.12132 -2.12132 
C -2.683901 -1.55874 -3 -0.795609 -3 0 
C -3 0.795609 -2.683901 1.55874 -2.12132 2.12132 
C -1.55874 2.683901 -0.795609 3 0 3 
z
" style="stroke: #006400; stroke-width: 1.2"/>
     </defs>
     <g>
      <use xlink:href="#m6f4c89c3b1" x="771.786513" y="116.852344" style="fill-opacity: 0; stroke: #006400; stroke-width: 1.2"/>
     </g>
    </g>
    <g id="text_17">
     <!-- RM-5p -->
     <g transform="translate(798.786513 122.102344) scale(0.15 -0.15)">
      <use xlink:href="#DejaVuSerif-35"/>
      <use xlink:href="#DejaVuSerif-30" transform="translate(75.296875 0)"/>
      <use xlink:href="#DejaVuSerif-10" transform="translate(177.6875 0)"/>
      <use xlink:href="#DejaVuSerif-18" transform="translate(211.484375 0)"/>
      <use xlink:href="#DejaVuSerif-53" transform="translate(275.109375 0)"/>
     </g>
    </g>
    <g id="line2d_97">
     <path d="M 756.786513 139.353516 
L 771.786513 139.353516 
L 786.786513 139.353516 
" style="fill: none; stroke: #006400; stroke-width: 1.5; stroke-linecap: square"/>
     <g>
      <use xlink:href="#m6f4c89c3b1" x="771.786513" y="139.353516" style="fill-opacity: 0; stroke: #006400; stroke-width: 1.2"/>
     </g>
    </g>
    <g id="text_18">
     <!-- RM-5p-MMS -->
     <g transform="translate(798.786513 144.603516) scale(0.15 -0.15)">
      <use xlink:href="#DejaVuSerif-35"/>
      <use xlink:href="#DejaVuSerif-30" transform="translate(75.296875 0)"/>
      <use xlink:href="#DejaVuSerif-10" transform="translate(177.6875 0)"/>
      <use xlink:href="#DejaVuSerif-18" transform="translate(211.484375 0)"/>
      <use xlink:href="#DejaVuSerif-53" transform="translate(275.109375 0)"/>
      <use xlink:href="#DejaVuSerif-10" transform="translate(339.125 0)"/>
      <use xlink:href="#DejaVuSerif-30" transform="translate(372.921875 0)"/>
      <use xlink:href="#DejaVuSerif-30" transform="translate(475.3125 0)"/>
      <use xlink:href="#DejaVuSerif-36" transform="translate(577.703125 0)"/>
     </g>
    </g>
   </g>
  </g>
 </g>
 <defs>
  <clipPath id="p35ae20c448">
   <rect x="65.435313" y="7.2" width="664.56" height="354.24"/>
  </clipPath>
 </defs>
</svg>
