<?xml version="1.0" encoding="utf-8" standalone="no"?>
<!DOCTYPE svg PUBLIC "-//W3C//DTD SVG 1.1//EN"
  "http://www.w3.org/Graphics/SVG/1.1/DTD/svg11.dtd">
<svg xmlns:xlink="http://www.w3.org/1999/xlink" width="586.37pt" height="443.324672pt" viewBox="0 0 586.37 443.324672" xmlns="http://www.w3.org/2000/svg" version="1.1">
 <metadata>
  <rdf:RDF xmlns:dc="http://purl.org/dc/elements/1.1/" xmlns:cc="http://creativecommons.org/ns#" xmlns:rdf="http://www.w3.org/1999/02/22-rdf-syntax-ns#">
   <cc:Work>
    <dc:type rdf:resource="http://purl.org/dc/dcmitype/StillImage"/>
    <dc:date>2026-06-20T22:45:42.648527</dc:date>
    <dc:format>image/svg+xml</dc:format>
    <dc:creator>
     <cc:Agent>
      <dc:title>Matplotlib v3.11.0, https://matplotlib.org/</dc:title>
     </cc:Agent>
    </dc:creator>
   </cc:Work>
  </rdf:RDF>
 </metadata>
 <defs>
  <style type="text/css">*{stroke-linejoin: round; stroke-linecap: butt}</style>
 </defs>
 <g id="figure_1">
  <g id="patch_1">
   <path d="M 0 443.324672 
L 586.37 443.324672 
L 586.37 0 
L 0 0 
z
" style="fill: #ffffff"/>
  </g>
  <g id="axes_1">
   <g id="patch_2">
    <path d="M 82.37 385.056 
L 579.17 385.056 
L 579.17 7.2 
L 82.37 7.2 
z
" style="fill: #ffffff"/>
   </g>
   <g id="line2d_1">
    <path d="M 82.37 24.375273 
L 579.17 367.880727 
" clip-path="url(#p70cd7e956d)" style="fill: none; stroke: #000000; stroke-width: 2.4; stroke-linecap: square"/>
   </g>
   <g id="matplotlib.axis_1">
    <g id="xtick_1">
     <g id="line2d_2">
      <path d="M 254.209518 385.056 
L 254.209518 7.2 
" clip-path="url(#p70cd7e956d)" style="fill: none; stroke-dasharray: 2.775,1.2; stroke-dashoffset: 0; stroke: #b0b0b0; stroke-opacity: 0.4; stroke-width: 0.75"/>
     </g>
     <g id="line2d_3">
      <defs>
       <path id="m6ffa06f14b" d="M 0 0 
L 0 3.5 
" style="stroke: #000000; stroke-width: 0.8"/>
      </defs>
      <g>
       <use xlink:href="#m6ffa06f14b" x="254.209518" y="385.056" style="stroke: #000000; stroke-width: 0.8"/>
      </g>
     </g>
     <g id="text_1">
      <!-- $\mathdefault{10^{1}}$ -->
      <g transform="translate(238.739518 408.036) scale(0.17 -0.17)">
       <defs>
        <path id="DejaVuSerif-14" d="M 909 0 
L 909 331 
L 1722 331 
L 1722 4213 
L 781 3603 
L 781 4013 
L 1919 4750 
L 2350 4750 
L 2350 331 
L 3163 331 
L 3163 0 
L 909 0 
z
" transform="scale(0.015625)"/>
        <path id="DejaVuSerif-13" d="M 2034 219 
Q 2513 219 2750 744 
Q 2988 1269 2988 2328 
Q 2988 3391 2750 3916 
Q 2513 4441 2034 4441 
Q 1556 4441 1318 3916 
Q 1081 3391 1081 2328 
Q 1081 1269 1318 744 
Q 1556 219 2034 219 
z
M 2034 -91 
Q 1275 -91 848 546 
Q 422 1184 422 2328 
Q 422 3475 848 4112 
Q 1275 4750 2034 4750 
Q 2797 4750 3222 4112 
Q 3647 3475 3647 2328 
Q 3647 1184 3222 546 
Q 2797 -91 2034 -91 
z
" transform="scale(0.015625)"/>
       </defs>
       <use xlink:href="#DejaVuSerif-14" transform="translate(0 0.757641)"/>
       <use xlink:href="#DejaVuSerif-13" transform="translate(63.623047 0.757641)"/>
       <use xlink:href="#DejaVuSerif-14" transform="translate(131.250385 42.046875) scale(0.7)"/>
      </g>
     </g>
    </g>
    <g id="xtick_2">
     <g id="line2d_4">
      <path d="M 104.951818 385.056 
L 104.951818 7.2 
" clip-path="url(#p70cd7e956d)" style="fill: none; stroke-dasharray: 2.775,1.2; stroke-dashoffset: 0; stroke: #b0b0b0; stroke-opacity: 0.4; stroke-width: 0.75"/>
     </g>
     <g id="line2d_5">
      <defs>
       <path id="m71d93b12c3" d="M 0 0 
L 0 2 
" style="stroke: #000000; stroke-width: 0.6"/>
      </defs>
      <g>
       <use xlink:href="#m71d93b12c3" x="104.951818" y="385.056" style="stroke: #000000; stroke-width: 0.6"/>
      </g>
     </g>
     <g id="text_2">
      <!-- $\mathdefault{4\times10^{0}}$ -->
      <g transform="translate(86.501818 399.856) scale(0.1 -0.1)">
       <defs>
        <path id="DejaVuSerif-17" d="M 2234 1581 
L 2234 4063 
L 641 1581 
L 2234 1581 
z
M 3609 0 
L 1484 0 
L 1484 331 
L 2234 331 
L 2234 1247 
L 197 1247 
L 197 1588 
L 2241 4750 
L 2859 4750 
L 2859 1581 
L 3750 1581 
L 3750 1247 
L 2859 1247 
L 2859 331 
L 3609 331 
L 3609 0 
z
" transform="scale(0.015625)"/>
        <path id="DejaVuSerif-99" d="M 4481 3450 
L 3034 2003 
L 4481 563 
L 4122 213 
L 2681 1650 
L 1241 213 
L 884 563 
L 2322 2003 
L 884 3450 
L 1241 3803 
L 2681 2363 
L 4122 3803 
L 4481 3450 
z
" transform="scale(0.015625)"/>
       </defs>
       <use xlink:href="#DejaVuSerif-17" transform="translate(0 0.757641)"/>
       <use xlink:href="#DejaVuSerif-99" transform="translate(83.623104 0.757641)"/>
       <use xlink:href="#DejaVuSerif-14" transform="translate(187.412224 0.757641)"/>
       <use xlink:href="#DejaVuSerif-13" transform="translate(251.035271 0.757641)"/>
       <use xlink:href="#DejaVuSerif-13" transform="translate(318.662608 42.046875) scale(0.7)"/>
      </g>
     </g>
    </g>
    <g id="xtick_3">
     <g id="line2d_6">
      <path d="M 141.300427 385.056 
L 141.300427 7.2 
" clip-path="url(#p70cd7e956d)" style="fill: none; stroke-dasharray: 2.775,1.2; stroke-dashoffset: 0; stroke: #b0b0b0; stroke-opacity: 0.4; stroke-width: 0.75"/>
     </g>
     <g id="line2d_7">
      <g>
       <use xlink:href="#m71d93b12c3" x="141.300427" y="385.056" style="stroke: #000000; stroke-width: 0.6"/>
      </g>
     </g>
    </g>
    <g id="xtick_4">
     <g id="line2d_8">
      <path d="M 170.999402 385.056 
L 170.999402 7.2 
" clip-path="url(#p70cd7e956d)" style="fill: none; stroke-dasharray: 2.775,1.2; stroke-dashoffset: 0; stroke: #b0b0b0; stroke-opacity: 0.4; stroke-width: 0.75"/>
     </g>
     <g id="line2d_9">
      <g>
       <use xlink:href="#m71d93b12c3" x="170.999402" y="385.056" style="stroke: #000000; stroke-width: 0.6"/>
      </g>
     </g>
     <g id="text_3">
      <!-- $\mathdefault{6\times10^{0}}$ -->
      <g transform="translate(152.549402 399.856) scale(0.1 -0.1)">
       <defs>
        <path id="DejaVuSerif-19" d="M 2094 219 
Q 2534 219 2771 542 
Q 3009 866 3009 1472 
Q 3009 2078 2771 2401 
Q 2534 2725 2094 2725 
Q 1647 2725 1412 2412 
Q 1178 2100 1178 1509 
Q 1178 888 1415 553 
Q 1653 219 2094 219 
z
M 1075 2569 
Q 1288 2803 1556 2918 
Q 1825 3034 2163 3034 
Q 2859 3034 3264 2615 
Q 3669 2197 3669 1472 
Q 3669 763 3233 336 
Q 2797 -91 2069 -91 
Q 1278 -91 853 498 
Q 428 1088 428 2181 
Q 428 3406 931 4078 
Q 1434 4750 2350 4750 
Q 2597 4750 2869 4703 
Q 3141 4656 3425 4563 
L 3425 3794 
L 3072 3794 
Q 3034 4109 2831 4275 
Q 2628 4441 2284 4441 
Q 1678 4441 1381 3981 
Q 1084 3522 1075 2569 
z
" transform="scale(0.015625)"/>
       </defs>
       <use xlink:href="#DejaVuSerif-19" transform="translate(0 0.757641)"/>
       <use xlink:href="#DejaVuSerif-99" transform="translate(83.623104 0.757641)"/>
       <use xlink:href="#DejaVuSerif-14" transform="translate(187.412224 0.757641)"/>
       <use xlink:href="#DejaVuSerif-13" transform="translate(251.035271 0.757641)"/>
       <use xlink:href="#DejaVuSerif-13" transform="translate(318.662608 42.046875) scale(0.7)"/>
      </g>
     </g>
    </g>
    <g id="xtick_5">
     <g id="line2d_10">
      <path d="M 196.109528 385.056 
L 196.109528 7.2 
" clip-path="url(#p70cd7e956d)" style="fill: none; stroke-dasharray: 2.775,1.2; stroke-dashoffset: 0; stroke: #b0b0b0; stroke-opacity: 0.4; stroke-width: 0.75"/>
     </g>
     <g id="line2d_11">
      <g>
       <use xlink:href="#m71d93b12c3" x="196.109528" y="385.056" style="stroke: #000000; stroke-width: 0.6"/>
      </g>
     </g>
    </g>
    <g id="xtick_6">
     <g id="line2d_12">
      <path d="M 217.860909 385.056 
L 217.860909 7.2 
" clip-path="url(#p70cd7e956d)" style="fill: none; stroke-dasharray: 2.775,1.2; stroke-dashoffset: 0; stroke: #b0b0b0; stroke-opacity: 0.4; stroke-width: 0.75"/>
     </g>
     <g id="line2d_13">
      <g>
       <use xlink:href="#m71d93b12c3" x="217.860909" y="385.056" style="stroke: #000000; stroke-width: 0.6"/>
      </g>
     </g>
    </g>
    <g id="xtick_7">
     <g id="line2d_14">
      <path d="M 237.046987 385.056 
L 237.046987 7.2 
" clip-path="url(#p70cd7e956d)" style="fill: none; stroke-dasharray: 2.775,1.2; stroke-dashoffset: 0; stroke: #b0b0b0; stroke-opacity: 0.4; stroke-width: 0.75"/>
     </g>
     <g id="line2d_15">
      <g>
       <use xlink:href="#m71d93b12c3" x="237.046987" y="385.056" style="stroke: #000000; stroke-width: 0.6"/>
      </g>
     </g>
    </g>
    <g id="xtick_8">
     <g id="line2d_16">
      <path d="M 367.118609 385.056 
L 367.118609 7.2 
" clip-path="url(#p70cd7e956d)" style="fill: none; stroke-dasharray: 2.775,1.2; stroke-dashoffset: 0; stroke: #b0b0b0; stroke-opacity: 0.4; stroke-width: 0.75"/>
     </g>
     <g id="line2d_17">
      <g>
       <use xlink:href="#m71d93b12c3" x="367.118609" y="385.056" style="stroke: #000000; stroke-width: 0.6"/>
      </g>
     </g>
     <g id="text_4">
      <!-- $\mathdefault{2\times10^{1}}$ -->
      <g transform="translate(348.668609 399.856) scale(0.1 -0.1)">
       <defs>
        <path id="DejaVuSerif-15" d="M 819 3553 
L 469 3553 
L 469 4384 
Q 803 4563 1142 4656 
Q 1481 4750 1806 4750 
Q 2534 4750 2956 4397 
Q 3378 4044 3378 3438 
Q 3378 2753 2422 1800 
Q 2347 1728 2309 1691 
L 1131 513 
L 3078 513 
L 3078 1088 
L 3444 1088 
L 3444 0 
L 434 0 
L 434 341 
L 1850 1753 
Q 2319 2222 2519 2614 
Q 2719 3006 2719 3438 
Q 2719 3909 2473 4175 
Q 2228 4441 1797 4441 
Q 1350 4441 1106 4219 
Q 863 3997 819 3553 
z
" transform="scale(0.015625)"/>
       </defs>
       <use xlink:href="#DejaVuSerif-15" transform="translate(0 0.757641)"/>
       <use xlink:href="#DejaVuSerif-99" transform="translate(83.623104 0.757641)"/>
       <use xlink:href="#DejaVuSerif-14" transform="translate(187.412224 0.757641)"/>
       <use xlink:href="#DejaVuSerif-13" transform="translate(251.035271 0.757641)"/>
       <use xlink:href="#DejaVuSerif-14" transform="translate(318.662608 42.046875) scale(0.7)"/>
      </g>
     </g>
    </g>
    <g id="xtick_9">
     <g id="line2d_18">
      <path d="M 433.166193 385.056 
L 433.166193 7.2 
" clip-path="url(#p70cd7e956d)" style="fill: none; stroke-dasharray: 2.775,1.2; stroke-dashoffset: 0; stroke: #b0b0b0; stroke-opacity: 0.4; stroke-width: 0.75"/>
     </g>
     <g id="line2d_19">
      <g>
       <use xlink:href="#m71d93b12c3" x="433.166193" y="385.056" style="stroke: #000000; stroke-width: 0.6"/>
      </g>
     </g>
     <g id="text_5">
      <!-- $\mathdefault{3\times10^{1}}$ -->
      <g transform="translate(414.716193 399.856) scale(0.1 -0.1)">
       <defs>
        <path id="DejaVuSerif-16" d="M 622 4469 
Q 988 4606 1323 4678 
Q 1659 4750 1953 4750 
Q 2638 4750 3022 4454 
Q 3406 4159 3406 3634 
Q 3406 3213 3140 2930 
Q 2875 2647 2388 2547 
Q 2963 2466 3280 2130 
Q 3597 1794 3597 1259 
Q 3597 606 3158 257 
Q 2719 -91 1894 -91 
Q 1528 -91 1179 -12 
Q 831 66 488 225 
L 488 1131 
L 838 1131 
Q 869 681 1141 450 
Q 1413 219 1906 219 
Q 2384 219 2661 495 
Q 2938 772 2938 1253 
Q 2938 1803 2653 2086 
Q 2369 2369 1819 2369 
L 1522 2369 
L 1522 2688 
L 1678 2688 
Q 2225 2688 2498 2914 
Q 2772 3141 2772 3597 
Q 2772 4006 2547 4223 
Q 2322 4441 1900 4441 
Q 1478 4441 1245 4241 
Q 1013 4041 972 3647 
L 622 3647 
L 622 4469 
z
" transform="scale(0.015625)"/>
       </defs>
       <use xlink:href="#DejaVuSerif-16" transform="translate(0 0.757641)"/>
       <use xlink:href="#DejaVuSerif-99" transform="translate(83.623104 0.757641)"/>
       <use xlink:href="#DejaVuSerif-14" transform="translate(187.412224 0.757641)"/>
       <use xlink:href="#DejaVuSerif-13" transform="translate(251.035271 0.757641)"/>
       <use xlink:href="#DejaVuSerif-14" transform="translate(318.662608 42.046875) scale(0.7)"/>
      </g>
     </g>
    </g>
    <g id="xtick_10">
     <g id="line2d_20">
      <path d="M 480.027699 385.056 
L 480.027699 7.2 
" clip-path="url(#p70cd7e956d)" style="fill: none; stroke-dasharray: 2.775,1.2; stroke-dashoffset: 0; stroke: #b0b0b0; stroke-opacity: 0.4; stroke-width: 0.75"/>
     </g>
     <g id="line2d_21">
      <g>
       <use xlink:href="#m71d93b12c3" x="480.027699" y="385.056" style="stroke: #000000; stroke-width: 0.6"/>
      </g>
     </g>
     <g id="text_6">
      <!-- $\mathdefault{4\times10^{1}}$ -->
      <g transform="translate(461.577699 399.856) scale(0.1 -0.1)">
       <use xlink:href="#DejaVuSerif-17" transform="translate(0 0.757641)"/>
       <use xlink:href="#DejaVuSerif-99" transform="translate(83.623104 0.757641)"/>
       <use xlink:href="#DejaVuSerif-14" transform="translate(187.412224 0.757641)"/>
       <use xlink:href="#DejaVuSerif-13" transform="translate(251.035271 0.757641)"/>
       <use xlink:href="#DejaVuSerif-14" transform="translate(318.662608 42.046875) scale(0.7)"/>
      </g>
     </g>
    </g>
    <g id="xtick_11">
     <g id="line2d_22">
      <path d="M 516.376308 385.056 
L 516.376308 7.2 
" clip-path="url(#p70cd7e956d)" style="fill: none; stroke-dasharray: 2.775,1.2; stroke-dashoffset: 0; stroke: #b0b0b0; stroke-opacity: 0.4; stroke-width: 0.75"/>
     </g>
     <g id="line2d_23">
      <g>
       <use xlink:href="#m71d93b12c3" x="516.376308" y="385.056" style="stroke: #000000; stroke-width: 0.6"/>
      </g>
     </g>
    </g>
    <g id="xtick_12">
     <g id="line2d_24">
      <path d="M 546.075284 385.056 
L 546.075284 7.2 
" clip-path="url(#p70cd7e956d)" style="fill: none; stroke-dasharray: 2.775,1.2; stroke-dashoffset: 0; stroke: #b0b0b0; stroke-opacity: 0.4; stroke-width: 0.75"/>
     </g>
     <g id="line2d_25">
      <g>
       <use xlink:href="#m71d93b12c3" x="546.075284" y="385.056" style="stroke: #000000; stroke-width: 0.6"/>
      </g>
     </g>
     <g id="text_7">
      <!-- $\mathdefault{6\times10^{1}}$ -->
      <g transform="translate(527.625284 399.856) scale(0.1 -0.1)">
       <use xlink:href="#DejaVuSerif-19" transform="translate(0 0.757641)"/>
       <use xlink:href="#DejaVuSerif-99" transform="translate(83.623104 0.757641)"/>
       <use xlink:href="#DejaVuSerif-14" transform="translate(187.412224 0.757641)"/>
       <use xlink:href="#DejaVuSerif-13" transform="translate(251.035271 0.757641)"/>
       <use xlink:href="#DejaVuSerif-14" transform="translate(318.662608 42.046875) scale(0.7)"/>
      </g>
     </g>
    </g>
    <g id="xtick_13">
     <g id="line2d_26">
      <path d="M 571.18541 385.056 
L 571.18541 7.2 
" clip-path="url(#p70cd7e956d)" style="fill: none; stroke-dasharray: 2.775,1.2; stroke-dashoffset: 0; stroke: #b0b0b0; stroke-opacity: 0.4; stroke-width: 0.75"/>
     </g>
     <g id="line2d_27">
      <g>
       <use xlink:href="#m71d93b12c3" x="571.18541" y="385.056" style="stroke: #000000; stroke-width: 0.6"/>
      </g>
     </g>
    </g>
    <g id="text_8">
     <!-- elements per side  $n_{\mathrm{el}}$ -->
     <g transform="translate(222.57 431.319984) scale(0.2 -0.2)">
      <defs>
       <path id="DejaVuSerif-48" d="M 3469 1600 
L 991 1600 
L 991 1575 
Q 991 903 1244 561 
Q 1497 219 1991 219 
Q 2369 219 2611 417 
Q 2853 616 2950 1006 
L 3413 1006 
Q 3275 459 2904 184 
Q 2534 -91 1931 -91 
Q 1203 -91 761 389 
Q 319 869 319 1663 
Q 319 2450 753 2931 
Q 1188 3413 1894 3413 
Q 2647 3413 3050 2948 
Q 3453 2484 3469 1600 
z
M 2791 1931 
Q 2772 2513 2545 2808 
Q 2319 3103 1894 3103 
Q 1497 3103 1269 2806 
Q 1041 2509 991 1931 
L 2791 1931 
z
" transform="scale(0.015625)"/>
       <path id="DejaVuSerif-4f" d="M 1313 331 
L 1856 331 
L 1856 0 
L 184 0 
L 184 331 
L 738 331 
L 738 4531 
L 184 4531 
L 184 4863 
L 1313 4863 
L 1313 331 
z
" transform="scale(0.015625)"/>
       <path id="DejaVuSerif-50" d="M 3316 2675 
Q 3481 3041 3739 3227 
Q 3997 3413 4341 3413 
Q 4863 3413 5119 3089 
Q 5375 2766 5375 2113 
L 5375 331 
L 5894 331 
L 5894 0 
L 4300 0 
L 4300 331 
L 4800 331 
L 4800 2047 
Q 4800 2556 4650 2772 
Q 4500 2988 4153 2988 
Q 3769 2988 3567 2697 
Q 3366 2406 3366 1850 
L 3366 331 
L 3866 331 
L 3866 0 
L 2291 0 
L 2291 331 
L 2791 331 
L 2791 2069 
Q 2791 2566 2641 2777 
Q 2491 2988 2144 2988 
Q 1759 2988 1557 2697 
Q 1356 2406 1356 1850 
L 1356 331 
L 1856 331 
L 1856 0 
L 263 0 
L 263 331 
L 781 331 
L 781 2994 
L 231 2994 
L 231 3322 
L 1356 3322 
L 1356 2731 
Q 1516 3063 1762 3238 
Q 2009 3413 2322 3413 
Q 2709 3413 2968 3220 
Q 3228 3028 3316 2675 
z
" transform="scale(0.015625)"/>
       <path id="DejaVuSerif-51" d="M 263 0 
L 263 331 
L 781 331 
L 781 2988 
L 231 2988 
L 231 3322 
L 1356 3322 
L 1356 2731 
Q 1516 3069 1770 3241 
Q 2025 3413 2363 3413 
Q 2913 3413 3172 3097 
Q 3431 2781 3431 2113 
L 3431 331 
L 3944 331 
L 3944 0 
L 2356 0 
L 2356 331 
L 2853 331 
L 2853 1931 
Q 2853 2541 2703 2767 
Q 2553 2994 2175 2994 
Q 1775 2994 1565 2701 
Q 1356 2409 1356 1850 
L 1356 331 
L 1856 331 
L 1856 0 
L 263 0 
z
" transform="scale(0.015625)"/>
       <path id="DejaVuSerif-57" d="M 691 2988 
L 184 2988 
L 184 3322 
L 691 3322 
L 691 4353 
L 1269 4353 
L 1269 3322 
L 2350 3322 
L 2350 2988 
L 1269 2988 
L 1269 878 
Q 1269 456 1350 337 
Q 1431 219 1650 219 
Q 1875 219 1978 351 
Q 2081 484 2088 781 
L 2522 781 
Q 2497 328 2275 118 
Q 2053 -91 1600 -91 
Q 1103 -91 897 129 
Q 691 350 691 878 
L 691 2988 
z
" transform="scale(0.015625)"/>
       <path id="DejaVuSerif-56" d="M 359 184 
L 359 959 
L 691 959 
Q 703 588 923 403 
Q 1144 219 1575 219 
Q 1963 219 2166 364 
Q 2369 509 2369 788 
Q 2369 1006 2220 1140 
Q 2072 1275 1594 1428 
L 1178 1569 
Q 750 1706 558 1912 
Q 366 2119 366 2438 
Q 366 2894 700 3153 
Q 1034 3413 1625 3413 
Q 1888 3413 2178 3344 
Q 2469 3275 2778 3144 
L 2778 2419 
L 2447 2419 
Q 2434 2741 2221 2922 
Q 2009 3103 1644 3103 
Q 1281 3103 1095 2975 
Q 909 2847 909 2591 
Q 909 2381 1050 2254 
Q 1191 2128 1613 1997 
L 2069 1856 
Q 2541 1709 2748 1489 
Q 2956 1269 2956 922 
Q 2956 450 2595 179 
Q 2234 -91 1600 -91 
Q 1278 -91 972 -22 
Q 666 47 359 184 
z
" transform="scale(0.015625)"/>
       <path id="DejaVuSerif-3" transform="scale(0.015625)"/>
       <path id="DejaVuSerif-53" d="M 1313 1825 
L 1313 1497 
Q 1313 897 1542 583 
Q 1772 269 2209 269 
Q 2650 269 2876 622 
Q 3103 975 3103 1663 
Q 3103 2353 2876 2703 
Q 2650 3053 2209 3053 
Q 1772 3053 1542 2737 
Q 1313 2422 1313 1825 
z
M 738 2988 
L 184 2988 
L 184 3322 
L 1313 3322 
L 1313 2803 
Q 1481 3116 1742 3264 
Q 2003 3413 2388 3413 
Q 3000 3413 3387 2928 
Q 3775 2444 3775 1663 
Q 3775 881 3387 395 
Q 3000 -91 2388 -91 
Q 2003 -91 1742 57 
Q 1481 206 1313 519 
L 1313 -997 
L 1856 -997 
L 1856 -1331 
L 184 -1331 
L 184 -997 
L 738 -997 
L 738 2988 
z
" transform="scale(0.015625)"/>
       <path id="DejaVuSerif-55" d="M 3059 3328 
L 3059 2497 
L 2728 2497 
Q 2713 2744 2591 2866 
Q 2469 2988 2234 2988 
Q 1809 2988 1582 2694 
Q 1356 2400 1356 1850 
L 1356 331 
L 2022 331 
L 2022 0 
L 263 0 
L 263 331 
L 781 331 
L 781 2994 
L 231 2994 
L 231 3322 
L 1356 3322 
L 1356 2731 
Q 1525 3078 1790 3245 
Q 2056 3413 2438 3413 
Q 2578 3413 2733 3391 
Q 2888 3369 3059 3328 
z
" transform="scale(0.015625)"/>
       <path id="DejaVuSerif-4c" d="M 622 4353 
Q 622 4497 726 4603 
Q 831 4709 978 4709 
Q 1122 4709 1226 4603 
Q 1331 4497 1331 4353 
Q 1331 4206 1228 4103 
Q 1125 4000 978 4000 
Q 831 4000 726 4103 
Q 622 4206 622 4353 
z
M 1356 331 
L 1900 331 
L 1900 0 
L 231 0 
L 231 331 
L 781 331 
L 781 2988 
L 231 2988 
L 231 3322 
L 1356 3322 
L 1356 331 
z
" transform="scale(0.015625)"/>
       <path id="DejaVuSerif-47" d="M 3359 331 
L 3909 331 
L 3909 0 
L 2784 0 
L 2784 519 
Q 2616 206 2355 57 
Q 2094 -91 1709 -91 
Q 1097 -91 708 395 
Q 319 881 319 1663 
Q 319 2444 706 2928 
Q 1094 3413 1709 3413 
Q 2094 3413 2355 3264 
Q 2616 3116 2784 2803 
L 2784 4531 
L 2241 4531 
L 2241 4863 
L 3359 4863 
L 3359 331 
z
M 2784 1497 
L 2784 1825 
Q 2784 2422 2554 2737 
Q 2325 3053 1888 3053 
Q 1444 3053 1217 2703 
Q 991 2353 991 1663 
Q 991 975 1217 622 
Q 1444 269 1888 269 
Q 2325 269 2554 583 
Q 2784 897 2784 1497 
z
" transform="scale(0.015625)"/>
       <path id="Cmmi10-7a" d="M 494 109 
Q 494 147 500 166 
L 978 2075 
Q 1025 2253 1025 2388 
Q 1025 2663 838 2663 
Q 638 2663 541 2423 
Q 444 2184 353 1819 
Q 353 1800 334 1789 
Q 316 1778 300 1778 
L 225 1778 
Q 203 1778 187 1801 
Q 172 1825 172 1844 
Q 241 2122 305 2315 
Q 369 2509 505 2668 
Q 641 2828 844 2828 
Q 1084 2828 1268 2676 
Q 1453 2525 1453 2291 
Q 1644 2541 1900 2684 
Q 2156 2828 2444 2828 
Q 2672 2828 2837 2750 
Q 3003 2672 3095 2514 
Q 3188 2356 3188 2138 
Q 3188 1875 3070 1503 
Q 2953 1131 2778 672 
Q 2688 463 2688 288 
Q 2688 97 2834 97 
Q 3084 97 3251 365 
Q 3419 634 3488 941 
Q 3500 978 3541 978 
L 3616 978 
Q 3641 978 3658 962 
Q 3675 947 3675 922 
Q 3675 916 3669 903 
Q 3581 541 3364 234 
Q 3147 -72 2822 -72 
Q 2597 -72 2437 83 
Q 2278 238 2278 459 
Q 2278 578 2328 709 
Q 2409 919 2514 1209 
Q 2619 1500 2686 1765 
Q 2753 2031 2753 2234 
Q 2753 2413 2679 2538 
Q 2606 2663 2431 2663 
Q 2197 2663 2000 2559 
Q 1803 2456 1656 2286 
Q 1509 2116 1388 1881 
L 953 141 
Q 931 53 854 -9 
Q 778 -72 684 -72 
Q 606 -72 550 -22 
Q 494 28 494 109 
z
" transform="scale(0.015625)"/>
       <path id="Cmr10-82" d="M 1594 -72 
Q 1203 -72 876 133 
Q 550 338 364 680 
Q 178 1022 178 1403 
Q 178 1778 348 2115 
Q 519 2453 823 2661 
Q 1128 2869 1503 2869 
Q 1797 2869 2014 2770 
Q 2231 2672 2372 2497 
Q 2513 2322 2584 2084 
Q 2656 1847 2656 1563 
Q 2656 1478 2591 1478 
L 738 1478 
L 738 1409 
Q 738 878 952 497 
Q 1166 116 1650 116 
Q 1847 116 2014 203 
Q 2181 291 2304 447 
Q 2428 603 2472 781 
Q 2478 803 2495 820 
Q 2513 838 2534 838 
L 2591 838 
Q 2656 838 2656 756 
Q 2566 394 2266 161 
Q 1966 -72 1594 -72 
z
M 744 1638 
L 2203 1638 
Q 2203 1878 2136 2125 
Q 2069 2372 1912 2536 
Q 1756 2700 1503 2700 
Q 1141 2700 942 2361 
Q 744 2022 744 1638 
z
" transform="scale(0.015625)"/>
       <path id="Cmr10-6a" d="M 197 0 
L 197 225 
Q 416 225 556 259 
Q 697 294 697 428 
L 697 3788 
Q 697 3959 645 4036 
Q 594 4113 497 4130 
Q 400 4147 197 4147 
L 197 4372 
L 1147 4441 
L 1147 428 
Q 1147 294 1287 259 
Q 1428 225 1644 225 
L 1644 0 
L 197 0 
z
" transform="scale(0.015625)"/>
      </defs>
      <use xlink:href="#DejaVuSerif-48" transform="translate(0 0.015625)"/>
      <use xlink:href="#DejaVuSerif-4f" transform="translate(59.179688 0.015625)"/>
      <use xlink:href="#DejaVuSerif-48" transform="translate(91.162109 0.015625)"/>
      <use xlink:href="#DejaVuSerif-50" transform="translate(150.341797 0.015625)"/>
      <use xlink:href="#DejaVuSerif-48" transform="translate(245.166016 0.015625)"/>
      <use xlink:href="#DejaVuSerif-51" transform="translate(304.345703 0.015625)"/>
      <use xlink:href="#DejaVuSerif-57" transform="translate(368.75 0.015625)"/>
      <use xlink:href="#DejaVuSerif-56" transform="translate(408.935547 0.015625)"/>
      <use xlink:href="#DejaVuSerif-3" transform="translate(460.253906 0.015625)"/>
      <use xlink:href="#DejaVuSerif-53" transform="translate(492.041016 0.015625)"/>
      <use xlink:href="#DejaVuSerif-48" transform="translate(556.054688 0.015625)"/>
      <use xlink:href="#DejaVuSerif-55" transform="translate(615.234375 0.015625)"/>
      <use xlink:href="#DejaVuSerif-3" transform="translate(663.037109 0.015625)"/>
      <use xlink:href="#DejaVuSerif-56" transform="translate(694.824219 0.015625)"/>
      <use xlink:href="#DejaVuSerif-4c" transform="translate(746.142578 0.015625)"/>
      <use xlink:href="#DejaVuSerif-47" transform="translate(778.125 0.015625)"/>
      <use xlink:href="#DejaVuSerif-48" transform="translate(842.138672 0.015625)"/>
      <use xlink:href="#DejaVuSerif-3" transform="translate(901.318359 0.015625)"/>
      <use xlink:href="#DejaVuSerif-3" transform="translate(933.105469 0.015625)"/>
      <use xlink:href="#Cmmi10-7a" transform="translate(964.892578 0.015625)"/>
      <use xlink:href="#Cmr10-82" transform="translate(1024.902344 -14.984337) scale(0.7)"/>
      <use xlink:href="#Cmr10-6a" transform="translate(1055.97168 -14.984337) scale(0.7)"/>
     </g>
    </g>
   </g>
   <g id="matplotlib.axis_2">
    <g id="ytick_1">
     <g id="line2d_28">
      <path d="M 82.37 373.141495 
L 579.17 373.141495 
" clip-path="url(#p70cd7e956d)" style="fill: none; stroke-dasharray: 2.775,1.2; stroke-dashoffset: 0; stroke: #b0b0b0; stroke-opacity: 0.4; stroke-width: 0.75"/>
     </g>
     <g id="line2d_29">
      <defs>
       <path id="m7050364aa2" d="M 0 0 
L -3.5 0 
" style="stroke: #000000; stroke-width: 0.8"/>
      </defs>
      <g>
       <use xlink:href="#m7050364aa2" x="82.37" y="373.141495" style="stroke: #000000; stroke-width: 0.8"/>
      </g>
     </g>
     <g id="text_9">
      <!-- $\mathdefault{10^{-5}}$ -->
      <g transform="translate(34.4 381.046495) scale(0.17 -0.17)">
       <defs>
        <path id="DejaVuSerif-8cf" d="M 678 2259 
L 4684 2259 
L 4684 1753 
L 678 1753 
L 678 2259 
z
" transform="scale(0.015625)"/>
        <path id="DejaVuSerif-18" d="M 3219 4666 
L 3219 4153 
L 1081 4153 
L 1081 2816 
Q 1244 2928 1461 2984 
Q 1678 3041 1947 3041 
Q 2703 3041 3140 2622 
Q 3578 2203 3578 1478 
Q 3578 738 3136 323 
Q 2694 -91 1894 -91 
Q 1572 -91 1234 -12 
Q 897 66 544 225 
L 544 1131 
L 897 1131 
Q 925 688 1179 453 
Q 1434 219 1894 219 
Q 2388 219 2653 544 
Q 2919 869 2919 1478 
Q 2919 2084 2655 2407 
Q 2391 2731 1894 2731 
Q 1613 2731 1398 2631 
Q 1184 2531 1019 2322 
L 750 2322 
L 750 4666 
L 3219 4666 
z
" transform="scale(0.015625)"/>
       </defs>
       <use xlink:href="#DejaVuSerif-14" transform="translate(0 0.676391)"/>
       <use xlink:href="#DejaVuSerif-13" transform="translate(63.623047 0.676391)"/>
       <use xlink:href="#DejaVuSerif-8cf" transform="translate(131.250385 41.965625) scale(0.7)"/>
       <use xlink:href="#DejaVuSerif-18" transform="translate(189.902728 41.965625) scale(0.7)"/>
      </g>
     </g>
    </g>
    <g id="ytick_2">
     <g id="line2d_30">
      <path d="M 82.37 308.306244 
L 579.17 308.306244 
" clip-path="url(#p70cd7e956d)" style="fill: none; stroke-dasharray: 2.775,1.2; stroke-dashoffset: 0; stroke: #b0b0b0; stroke-opacity: 0.4; stroke-width: 0.75"/>
     </g>
     <g id="line2d_31">
      <g>
       <use xlink:href="#m7050364aa2" x="82.37" y="308.306244" style="stroke: #000000; stroke-width: 0.8"/>
      </g>
     </g>
     <g id="text_10">
      <!-- $\mathdefault{10^{-4}}$ -->
      <g transform="translate(34.4 316.296244) scale(0.17 -0.17)">
       <use xlink:href="#DejaVuSerif-14" transform="translate(0 0.757641)"/>
       <use xlink:href="#DejaVuSerif-13" transform="translate(63.623047 0.757641)"/>
       <use xlink:href="#DejaVuSerif-8cf" transform="translate(131.250385 42.046875) scale(0.7)"/>
       <use xlink:href="#DejaVuSerif-17" transform="translate(189.902728 42.046875) scale(0.7)"/>
      </g>
     </g>
    </g>
    <g id="ytick_3">
     <g id="line2d_32">
      <path d="M 82.37 243.470993 
L 579.17 243.470993 
" clip-path="url(#p70cd7e956d)" style="fill: none; stroke-dasharray: 2.775,1.2; stroke-dashoffset: 0; stroke: #b0b0b0; stroke-opacity: 0.4; stroke-width: 0.75"/>
     </g>
     <g id="line2d_33">
      <g>
       <use xlink:href="#m7050364aa2" x="82.37" y="243.470993" style="stroke: #000000; stroke-width: 0.8"/>
      </g>
     </g>
     <g id="text_11">
      <!-- $\mathdefault{10^{-3}}$ -->
      <g transform="translate(34.4 251.460993) scale(0.17 -0.17)">
       <use xlink:href="#DejaVuSerif-14" transform="translate(0 0.757641)"/>
       <use xlink:href="#DejaVuSerif-13" transform="translate(63.623047 0.757641)"/>
       <use xlink:href="#DejaVuSerif-8cf" transform="translate(131.250385 42.046875) scale(0.7)"/>
       <use xlink:href="#DejaVuSerif-16" transform="translate(189.902728 42.046875) scale(0.7)"/>
      </g>
     </g>
    </g>
    <g id="ytick_4">
     <g id="line2d_34">
      <path d="M 82.37 178.635742 
L 579.17 178.635742 
" clip-path="url(#p70cd7e956d)" style="fill: none; stroke-dasharray: 2.775,1.2; stroke-dashoffset: 0; stroke: #b0b0b0; stroke-opacity: 0.4; stroke-width: 0.75"/>
     </g>
     <g id="line2d_35">
      <g>
       <use xlink:href="#m7050364aa2" x="82.37" y="178.635742" style="stroke: #000000; stroke-width: 0.8"/>
      </g>
     </g>
     <g id="text_12">
      <!-- $\mathdefault{10^{-2}}$ -->
      <g transform="translate(34.4 186.625742) scale(0.17 -0.17)">
       <use xlink:href="#DejaVuSerif-14" transform="translate(0 0.757641)"/>
       <use xlink:href="#DejaVuSerif-13" transform="translate(63.623047 0.757641)"/>
       <use xlink:href="#DejaVuSerif-8cf" transform="translate(131.250385 42.046875) scale(0.7)"/>
       <use xlink:href="#DejaVuSerif-15" transform="translate(189.902728 42.046875) scale(0.7)"/>
      </g>
     </g>
    </g>
    <g id="ytick_5">
     <g id="line2d_36">
      <path d="M 82.37 113.800491 
L 579.17 113.800491 
" clip-path="url(#p70cd7e956d)" style="fill: none; stroke-dasharray: 2.775,1.2; stroke-dashoffset: 0; stroke: #b0b0b0; stroke-opacity: 0.4; stroke-width: 0.75"/>
     </g>
     <g id="line2d_37">
      <g>
       <use xlink:href="#m7050364aa2" x="82.37" y="113.800491" style="stroke: #000000; stroke-width: 0.8"/>
      </g>
     </g>
     <g id="text_13">
      <!-- $\mathdefault{10^{-1}}$ -->
      <g transform="translate(34.4 121.790491) scale(0.17 -0.17)">
       <use xlink:href="#DejaVuSerif-14" transform="translate(0 0.757641)"/>
       <use xlink:href="#DejaVuSerif-13" transform="translate(63.623047 0.757641)"/>
       <use xlink:href="#DejaVuSerif-8cf" transform="translate(131.250385 42.046875) scale(0.7)"/>
       <use xlink:href="#DejaVuSerif-14" transform="translate(189.902728 42.046875) scale(0.7)"/>
      </g>
     </g>
    </g>
    <g id="ytick_6">
     <g id="line2d_38">
      <path d="M 82.37 48.96524 
L 579.17 48.96524 
" clip-path="url(#p70cd7e956d)" style="fill: none; stroke-dasharray: 2.775,1.2; stroke-dashoffset: 0; stroke: #b0b0b0; stroke-opacity: 0.4; stroke-width: 0.75"/>
     </g>
     <g id="line2d_39">
      <g>
       <use xlink:href="#m7050364aa2" x="82.37" y="48.96524" style="stroke: #000000; stroke-width: 0.8"/>
      </g>
     </g>
     <g id="text_14">
      <!-- $\mathdefault{10^{0}}$ -->
      <g transform="translate(44.43 56.95524) scale(0.17 -0.17)">
       <use xlink:href="#DejaVuSerif-14" transform="translate(0 0.757641)"/>
       <use xlink:href="#DejaVuSerif-13" transform="translate(63.623047 0.757641)"/>
       <use xlink:href="#DejaVuSerif-13" transform="translate(131.250385 42.046875) scale(0.7)"/>
      </g>
     </g>
    </g>
    <g id="ytick_7">
     <g id="line2d_40">
      <path d="M 82.37 383.184603 
L 579.17 383.184603 
" clip-path="url(#p70cd7e956d)" style="fill: none; stroke-dasharray: 2.775,1.2; stroke-dashoffset: 0; stroke: #b0b0b0; stroke-opacity: 0.4; stroke-width: 0.75"/>
     </g>
     <g id="line2d_41">
      <defs>
       <path id="m448e459f26" d="M 0 0 
L -2 0 
" style="stroke: #000000; stroke-width: 0.6"/>
      </defs>
      <g>
       <use xlink:href="#m448e459f26" x="82.37" y="383.184603" style="stroke: #000000; stroke-width: 0.6"/>
      </g>
     </g>
    </g>
    <g id="ytick_8">
     <g id="line2d_42">
      <path d="M 82.37 379.42468 
L 579.17 379.42468 
" clip-path="url(#p70cd7e956d)" style="fill: none; stroke-dasharray: 2.775,1.2; stroke-dashoffset: 0; stroke: #b0b0b0; stroke-opacity: 0.4; stroke-width: 0.75"/>
     </g>
     <g id="line2d_43">
      <g>
       <use xlink:href="#m448e459f26" x="82.37" y="379.42468" style="stroke: #000000; stroke-width: 0.6"/>
      </g>
     </g>
    </g>
    <g id="ytick_9">
     <g id="line2d_44">
      <path d="M 82.37 376.108194 
L 579.17 376.108194 
" clip-path="url(#p70cd7e956d)" style="fill: none; stroke-dasharray: 2.775,1.2; stroke-dashoffset: 0; stroke: #b0b0b0; stroke-opacity: 0.4; stroke-width: 0.75"/>
     </g>
     <g id="line2d_45">
      <g>
       <use xlink:href="#m448e459f26" x="82.37" y="376.108194" style="stroke: #000000; stroke-width: 0.6"/>
      </g>
     </g>
    </g>
    <g id="ytick_10">
     <g id="line2d_46">
      <path d="M 82.37 353.62414 
L 579.17 353.62414 
" clip-path="url(#p70cd7e956d)" style="fill: none; stroke-dasharray: 2.775,1.2; stroke-dashoffset: 0; stroke: #b0b0b0; stroke-opacity: 0.4; stroke-width: 0.75"/>
     </g>
     <g id="line2d_47">
      <g>
       <use xlink:href="#m448e459f26" x="82.37" y="353.62414" style="stroke: #000000; stroke-width: 0.6"/>
      </g>
     </g>
    </g>
    <g id="ytick_11">
     <g id="line2d_48">
      <path d="M 82.37 342.207219 
L 579.17 342.207219 
" clip-path="url(#p70cd7e956d)" style="fill: none; stroke-dasharray: 2.775,1.2; stroke-dashoffset: 0; stroke: #b0b0b0; stroke-opacity: 0.4; stroke-width: 0.75"/>
     </g>
     <g id="line2d_49">
      <g>
       <use xlink:href="#m448e459f26" x="82.37" y="342.207219" style="stroke: #000000; stroke-width: 0.6"/>
      </g>
     </g>
    </g>
    <g id="ytick_12">
     <g id="line2d_50">
      <path d="M 82.37 334.106785 
L 579.17 334.106785 
" clip-path="url(#p70cd7e956d)" style="fill: none; stroke-dasharray: 2.775,1.2; stroke-dashoffset: 0; stroke: #b0b0b0; stroke-opacity: 0.4; stroke-width: 0.75"/>
     </g>
     <g id="line2d_51">
      <g>
       <use xlink:href="#m448e459f26" x="82.37" y="334.106785" style="stroke: #000000; stroke-width: 0.6"/>
      </g>
     </g>
    </g>
    <g id="ytick_13">
     <g id="line2d_52">
      <path d="M 82.37 327.8236 
L 579.17 327.8236 
" clip-path="url(#p70cd7e956d)" style="fill: none; stroke-dasharray: 2.775,1.2; stroke-dashoffset: 0; stroke: #b0b0b0; stroke-opacity: 0.4; stroke-width: 0.75"/>
     </g>
     <g id="line2d_53">
      <g>
       <use xlink:href="#m448e459f26" x="82.37" y="327.8236" style="stroke: #000000; stroke-width: 0.6"/>
      </g>
     </g>
    </g>
    <g id="ytick_14">
     <g id="line2d_54">
      <path d="M 82.37 322.689864 
L 579.17 322.689864 
" clip-path="url(#p70cd7e956d)" style="fill: none; stroke-dasharray: 2.775,1.2; stroke-dashoffset: 0; stroke: #b0b0b0; stroke-opacity: 0.4; stroke-width: 0.75"/>
     </g>
     <g id="line2d_55">
      <g>
       <use xlink:href="#m448e459f26" x="82.37" y="322.689864" style="stroke: #000000; stroke-width: 0.6"/>
      </g>
     </g>
    </g>
    <g id="ytick_15">
     <g id="line2d_56">
      <path d="M 82.37 318.349352 
L 579.17 318.349352 
" clip-path="url(#p70cd7e956d)" style="fill: none; stroke-dasharray: 2.775,1.2; stroke-dashoffset: 0; stroke: #b0b0b0; stroke-opacity: 0.4; stroke-width: 0.75"/>
     </g>
     <g id="line2d_57">
      <g>
       <use xlink:href="#m448e459f26" x="82.37" y="318.349352" style="stroke: #000000; stroke-width: 0.6"/>
      </g>
     </g>
    </g>
    <g id="ytick_16">
     <g id="line2d_58">
      <path d="M 82.37 314.589429 
L 579.17 314.589429 
" clip-path="url(#p70cd7e956d)" style="fill: none; stroke-dasharray: 2.775,1.2; stroke-dashoffset: 0; stroke: #b0b0b0; stroke-opacity: 0.4; stroke-width: 0.75"/>
     </g>
     <g id="line2d_59">
      <g>
       <use xlink:href="#m448e459f26" x="82.37" y="314.589429" style="stroke: #000000; stroke-width: 0.6"/>
      </g>
     </g>
    </g>
    <g id="ytick_17">
     <g id="line2d_60">
      <path d="M 82.37 311.272943 
L 579.17 311.272943 
" clip-path="url(#p70cd7e956d)" style="fill: none; stroke-dasharray: 2.775,1.2; stroke-dashoffset: 0; stroke: #b0b0b0; stroke-opacity: 0.4; stroke-width: 0.75"/>
     </g>
     <g id="line2d_61">
      <g>
       <use xlink:href="#m448e459f26" x="82.37" y="311.272943" style="stroke: #000000; stroke-width: 0.6"/>
      </g>
     </g>
    </g>
    <g id="ytick_18">
     <g id="line2d_62">
      <path d="M 82.37 288.788889 
L 579.17 288.788889 
" clip-path="url(#p70cd7e956d)" style="fill: none; stroke-dasharray: 2.775,1.2; stroke-dashoffset: 0; stroke: #b0b0b0; stroke-opacity: 0.4; stroke-width: 0.75"/>
     </g>
     <g id="line2d_63">
      <g>
       <use xlink:href="#m448e459f26" x="82.37" y="288.788889" style="stroke: #000000; stroke-width: 0.6"/>
      </g>
     </g>
    </g>
    <g id="ytick_19">
     <g id="line2d_64">
      <path d="M 82.37 277.371968 
L 579.17 277.371968 
" clip-path="url(#p70cd7e956d)" style="fill: none; stroke-dasharray: 2.775,1.2; stroke-dashoffset: 0; stroke: #b0b0b0; stroke-opacity: 0.4; stroke-width: 0.75"/>
     </g>
     <g id="line2d_65">
      <g>
       <use xlink:href="#m448e459f26" x="82.37" y="277.371968" style="stroke: #000000; stroke-width: 0.6"/>
      </g>
     </g>
    </g>
    <g id="ytick_20">
     <g id="line2d_66">
      <path d="M 82.37 269.271533 
L 579.17 269.271533 
" clip-path="url(#p70cd7e956d)" style="fill: none; stroke-dasharray: 2.775,1.2; stroke-dashoffset: 0; stroke: #b0b0b0; stroke-opacity: 0.4; stroke-width: 0.75"/>
     </g>
     <g id="line2d_67">
      <g>
       <use xlink:href="#m448e459f26" x="82.37" y="269.271533" style="stroke: #000000; stroke-width: 0.6"/>
      </g>
     </g>
    </g>
    <g id="ytick_21">
     <g id="line2d_68">
      <path d="M 82.37 262.988348 
L 579.17 262.988348 
" clip-path="url(#p70cd7e956d)" style="fill: none; stroke-dasharray: 2.775,1.2; stroke-dashoffset: 0; stroke: #b0b0b0; stroke-opacity: 0.4; stroke-width: 0.75"/>
     </g>
     <g id="line2d_69">
      <g>
       <use xlink:href="#m448e459f26" x="82.37" y="262.988348" style="stroke: #000000; stroke-width: 0.6"/>
      </g>
     </g>
    </g>
    <g id="ytick_22">
     <g id="line2d_70">
      <path d="M 82.37 257.854612 
L 579.17 257.854612 
" clip-path="url(#p70cd7e956d)" style="fill: none; stroke-dasharray: 2.775,1.2; stroke-dashoffset: 0; stroke: #b0b0b0; stroke-opacity: 0.4; stroke-width: 0.75"/>
     </g>
     <g id="line2d_71">
      <g>
       <use xlink:href="#m448e459f26" x="82.37" y="257.854612" style="stroke: #000000; stroke-width: 0.6"/>
      </g>
     </g>
    </g>
    <g id="ytick_23">
     <g id="line2d_72">
      <path d="M 82.37 253.5141 
L 579.17 253.5141 
" clip-path="url(#p70cd7e956d)" style="fill: none; stroke-dasharray: 2.775,1.2; stroke-dashoffset: 0; stroke: #b0b0b0; stroke-opacity: 0.4; stroke-width: 0.75"/>
     </g>
     <g id="line2d_73">
      <g>
       <use xlink:href="#m448e459f26" x="82.37" y="253.5141" style="stroke: #000000; stroke-width: 0.6"/>
      </g>
     </g>
    </g>
    <g id="ytick_24">
     <g id="line2d_74">
      <path d="M 82.37 249.754178 
L 579.17 249.754178 
" clip-path="url(#p70cd7e956d)" style="fill: none; stroke-dasharray: 2.775,1.2; stroke-dashoffset: 0; stroke: #b0b0b0; stroke-opacity: 0.4; stroke-width: 0.75"/>
     </g>
     <g id="line2d_75">
      <g>
       <use xlink:href="#m448e459f26" x="82.37" y="249.754178" style="stroke: #000000; stroke-width: 0.6"/>
      </g>
     </g>
    </g>
    <g id="ytick_25">
     <g id="line2d_76">
      <path d="M 82.37 246.437691 
L 579.17 246.437691 
" clip-path="url(#p70cd7e956d)" style="fill: none; stroke-dasharray: 2.775,1.2; stroke-dashoffset: 0; stroke: #b0b0b0; stroke-opacity: 0.4; stroke-width: 0.75"/>
     </g>
     <g id="line2d_77">
      <g>
       <use xlink:href="#m448e459f26" x="82.37" y="246.437691" style="stroke: #000000; stroke-width: 0.6"/>
      </g>
     </g>
    </g>
    <g id="ytick_26">
     <g id="line2d_78">
      <path d="M 82.37 223.953638 
L 579.17 223.953638 
" clip-path="url(#p70cd7e956d)" style="fill: none; stroke-dasharray: 2.775,1.2; stroke-dashoffset: 0; stroke: #b0b0b0; stroke-opacity: 0.4; stroke-width: 0.75"/>
     </g>
     <g id="line2d_79">
      <g>
       <use xlink:href="#m448e459f26" x="82.37" y="223.953638" style="stroke: #000000; stroke-width: 0.6"/>
      </g>
     </g>
    </g>
    <g id="ytick_27">
     <g id="line2d_80">
      <path d="M 82.37 212.536717 
L 579.17 212.536717 
" clip-path="url(#p70cd7e956d)" style="fill: none; stroke-dasharray: 2.775,1.2; stroke-dashoffset: 0; stroke: #b0b0b0; stroke-opacity: 0.4; stroke-width: 0.75"/>
     </g>
     <g id="line2d_81">
      <g>
       <use xlink:href="#m448e459f26" x="82.37" y="212.536717" style="stroke: #000000; stroke-width: 0.6"/>
      </g>
     </g>
    </g>
    <g id="ytick_28">
     <g id="line2d_82">
      <path d="M 82.37 204.436282 
L 579.17 204.436282 
" clip-path="url(#p70cd7e956d)" style="fill: none; stroke-dasharray: 2.775,1.2; stroke-dashoffset: 0; stroke: #b0b0b0; stroke-opacity: 0.4; stroke-width: 0.75"/>
     </g>
     <g id="line2d_83">
      <g>
       <use xlink:href="#m448e459f26" x="82.37" y="204.436282" style="stroke: #000000; stroke-width: 0.6"/>
      </g>
     </g>
    </g>
    <g id="ytick_29">
     <g id="line2d_84">
      <path d="M 82.37 198.153097 
L 579.17 198.153097 
" clip-path="url(#p70cd7e956d)" style="fill: none; stroke-dasharray: 2.775,1.2; stroke-dashoffset: 0; stroke: #b0b0b0; stroke-opacity: 0.4; stroke-width: 0.75"/>
     </g>
     <g id="line2d_85">
      <g>
       <use xlink:href="#m448e459f26" x="82.37" y="198.153097" style="stroke: #000000; stroke-width: 0.6"/>
      </g>
     </g>
    </g>
    <g id="ytick_30">
     <g id="line2d_86">
      <path d="M 82.37 193.019361 
L 579.17 193.019361 
" clip-path="url(#p70cd7e956d)" style="fill: none; stroke-dasharray: 2.775,1.2; stroke-dashoffset: 0; stroke: #b0b0b0; stroke-opacity: 0.4; stroke-width: 0.75"/>
     </g>
     <g id="line2d_87">
      <g>
       <use xlink:href="#m448e459f26" x="82.37" y="193.019361" style="stroke: #000000; stroke-width: 0.6"/>
      </g>
     </g>
    </g>
    <g id="ytick_31">
     <g id="line2d_88">
      <path d="M 82.37 188.678849 
L 579.17 188.678849 
" clip-path="url(#p70cd7e956d)" style="fill: none; stroke-dasharray: 2.775,1.2; stroke-dashoffset: 0; stroke: #b0b0b0; stroke-opacity: 0.4; stroke-width: 0.75"/>
     </g>
     <g id="line2d_89">
      <g>
       <use xlink:href="#m448e459f26" x="82.37" y="188.678849" style="stroke: #000000; stroke-width: 0.6"/>
      </g>
     </g>
    </g>
    <g id="ytick_32">
     <g id="line2d_90">
      <path d="M 82.37 184.918927 
L 579.17 184.918927 
" clip-path="url(#p70cd7e956d)" style="fill: none; stroke-dasharray: 2.775,1.2; stroke-dashoffset: 0; stroke: #b0b0b0; stroke-opacity: 0.4; stroke-width: 0.75"/>
     </g>
     <g id="line2d_91">
      <g>
       <use xlink:href="#m448e459f26" x="82.37" y="184.918927" style="stroke: #000000; stroke-width: 0.6"/>
      </g>
     </g>
    </g>
    <g id="ytick_33">
     <g id="line2d_92">
      <path d="M 82.37 181.60244 
L 579.17 181.60244 
" clip-path="url(#p70cd7e956d)" style="fill: none; stroke-dasharray: 2.775,1.2; stroke-dashoffset: 0; stroke: #b0b0b0; stroke-opacity: 0.4; stroke-width: 0.75"/>
     </g>
     <g id="line2d_93">
      <g>
       <use xlink:href="#m448e459f26" x="82.37" y="181.60244" style="stroke: #000000; stroke-width: 0.6"/>
      </g>
     </g>
    </g>
    <g id="ytick_34">
     <g id="line2d_94">
      <path d="M 82.37 159.118386 
L 579.17 159.118386 
" clip-path="url(#p70cd7e956d)" style="fill: none; stroke-dasharray: 2.775,1.2; stroke-dashoffset: 0; stroke: #b0b0b0; stroke-opacity: 0.4; stroke-width: 0.75"/>
     </g>
     <g id="line2d_95">
      <g>
       <use xlink:href="#m448e459f26" x="82.37" y="159.118386" style="stroke: #000000; stroke-width: 0.6"/>
      </g>
     </g>
    </g>
    <g id="ytick_35">
     <g id="line2d_96">
      <path d="M 82.37 147.701465 
L 579.17 147.701465 
" clip-path="url(#p70cd7e956d)" style="fill: none; stroke-dasharray: 2.775,1.2; stroke-dashoffset: 0; stroke: #b0b0b0; stroke-opacity: 0.4; stroke-width: 0.75"/>
     </g>
     <g id="line2d_97">
      <g>
       <use xlink:href="#m448e459f26" x="82.37" y="147.701465" style="stroke: #000000; stroke-width: 0.6"/>
      </g>
     </g>
    </g>
    <g id="ytick_36">
     <g id="line2d_98">
      <path d="M 82.37 139.601031 
L 579.17 139.601031 
" clip-path="url(#p70cd7e956d)" style="fill: none; stroke-dasharray: 2.775,1.2; stroke-dashoffset: 0; stroke: #b0b0b0; stroke-opacity: 0.4; stroke-width: 0.75"/>
     </g>
     <g id="line2d_99">
      <g>
       <use xlink:href="#m448e459f26" x="82.37" y="139.601031" style="stroke: #000000; stroke-width: 0.6"/>
      </g>
     </g>
    </g>
    <g id="ytick_37">
     <g id="line2d_100">
      <path d="M 82.37 133.317846 
L 579.17 133.317846 
" clip-path="url(#p70cd7e956d)" style="fill: none; stroke-dasharray: 2.775,1.2; stroke-dashoffset: 0; stroke: #b0b0b0; stroke-opacity: 0.4; stroke-width: 0.75"/>
     </g>
     <g id="line2d_101">
      <g>
       <use xlink:href="#m448e459f26" x="82.37" y="133.317846" style="stroke: #000000; stroke-width: 0.6"/>
      </g>
     </g>
    </g>
    <g id="ytick_38">
     <g id="line2d_102">
      <path d="M 82.37 128.18411 
L 579.17 128.18411 
" clip-path="url(#p70cd7e956d)" style="fill: none; stroke-dasharray: 2.775,1.2; stroke-dashoffset: 0; stroke: #b0b0b0; stroke-opacity: 0.4; stroke-width: 0.75"/>
     </g>
     <g id="line2d_103">
      <g>
       <use xlink:href="#m448e459f26" x="82.37" y="128.18411" style="stroke: #000000; stroke-width: 0.6"/>
      </g>
     </g>
    </g>
    <g id="ytick_39">
     <g id="line2d_104">
      <path d="M 82.37 123.843598 
L 579.17 123.843598 
" clip-path="url(#p70cd7e956d)" style="fill: none; stroke-dasharray: 2.775,1.2; stroke-dashoffset: 0; stroke: #b0b0b0; stroke-opacity: 0.4; stroke-width: 0.75"/>
     </g>
     <g id="line2d_105">
      <g>
       <use xlink:href="#m448e459f26" x="82.37" y="123.843598" style="stroke: #000000; stroke-width: 0.6"/>
      </g>
     </g>
    </g>
    <g id="ytick_40">
     <g id="line2d_106">
      <path d="M 82.37 120.083676 
L 579.17 120.083676 
" clip-path="url(#p70cd7e956d)" style="fill: none; stroke-dasharray: 2.775,1.2; stroke-dashoffset: 0; stroke: #b0b0b0; stroke-opacity: 0.4; stroke-width: 0.75"/>
     </g>
     <g id="line2d_107">
      <g>
       <use xlink:href="#m448e459f26" x="82.37" y="120.083676" style="stroke: #000000; stroke-width: 0.6"/>
      </g>
     </g>
    </g>
    <g id="ytick_41">
     <g id="line2d_108">
      <path d="M 82.37 116.767189 
L 579.17 116.767189 
" clip-path="url(#p70cd7e956d)" style="fill: none; stroke-dasharray: 2.775,1.2; stroke-dashoffset: 0; stroke: #b0b0b0; stroke-opacity: 0.4; stroke-width: 0.75"/>
     </g>
     <g id="line2d_109">
      <g>
       <use xlink:href="#m448e459f26" x="82.37" y="116.767189" style="stroke: #000000; stroke-width: 0.6"/>
      </g>
     </g>
    </g>
    <g id="ytick_42">
     <g id="line2d_110">
      <path d="M 82.37 94.283135 
L 579.17 94.283135 
" clip-path="url(#p70cd7e956d)" style="fill: none; stroke-dasharray: 2.775,1.2; stroke-dashoffset: 0; stroke: #b0b0b0; stroke-opacity: 0.4; stroke-width: 0.75"/>
     </g>
     <g id="line2d_111">
      <g>
       <use xlink:href="#m448e459f26" x="82.37" y="94.283135" style="stroke: #000000; stroke-width: 0.6"/>
      </g>
     </g>
    </g>
    <g id="ytick_43">
     <g id="line2d_112">
      <path d="M 82.37 82.866214 
L 579.17 82.866214 
" clip-path="url(#p70cd7e956d)" style="fill: none; stroke-dasharray: 2.775,1.2; stroke-dashoffset: 0; stroke: #b0b0b0; stroke-opacity: 0.4; stroke-width: 0.75"/>
     </g>
     <g id="line2d_113">
      <g>
       <use xlink:href="#m448e459f26" x="82.37" y="82.866214" style="stroke: #000000; stroke-width: 0.6"/>
      </g>
     </g>
    </g>
    <g id="ytick_44">
     <g id="line2d_114">
      <path d="M 82.37 74.76578 
L 579.17 74.76578 
" clip-path="url(#p70cd7e956d)" style="fill: none; stroke-dasharray: 2.775,1.2; stroke-dashoffset: 0; stroke: #b0b0b0; stroke-opacity: 0.4; stroke-width: 0.75"/>
     </g>
     <g id="line2d_115">
      <g>
       <use xlink:href="#m448e459f26" x="82.37" y="74.76578" style="stroke: #000000; stroke-width: 0.6"/>
      </g>
     </g>
    </g>
    <g id="ytick_45">
     <g id="line2d_116">
      <path d="M 82.37 68.482595 
L 579.17 68.482595 
" clip-path="url(#p70cd7e956d)" style="fill: none; stroke-dasharray: 2.775,1.2; stroke-dashoffset: 0; stroke: #b0b0b0; stroke-opacity: 0.4; stroke-width: 0.75"/>
     </g>
     <g id="line2d_117">
      <g>
       <use xlink:href="#m448e459f26" x="82.37" y="68.482595" style="stroke: #000000; stroke-width: 0.6"/>
      </g>
     </g>
    </g>
    <g id="ytick_46">
     <g id="line2d_118">
      <path d="M 82.37 63.348859 
L 579.17 63.348859 
" clip-path="url(#p70cd7e956d)" style="fill: none; stroke-dasharray: 2.775,1.2; stroke-dashoffset: 0; stroke: #b0b0b0; stroke-opacity: 0.4; stroke-width: 0.75"/>
     </g>
     <g id="line2d_119">
      <g>
       <use xlink:href="#m448e459f26" x="82.37" y="63.348859" style="stroke: #000000; stroke-width: 0.6"/>
      </g>
     </g>
    </g>
    <g id="ytick_47">
     <g id="line2d_120">
      <path d="M 82.37 59.008347 
L 579.17 59.008347 
" clip-path="url(#p70cd7e956d)" style="fill: none; stroke-dasharray: 2.775,1.2; stroke-dashoffset: 0; stroke: #b0b0b0; stroke-opacity: 0.4; stroke-width: 0.75"/>
     </g>
     <g id="line2d_121">
      <g>
       <use xlink:href="#m448e459f26" x="82.37" y="59.008347" style="stroke: #000000; stroke-width: 0.6"/>
      </g>
     </g>
    </g>
    <g id="ytick_48">
     <g id="line2d_122">
      <path d="M 82.37 55.248425 
L 579.17 55.248425 
" clip-path="url(#p70cd7e956d)" style="fill: none; stroke-dasharray: 2.775,1.2; stroke-dashoffset: 0; stroke: #b0b0b0; stroke-opacity: 0.4; stroke-width: 0.75"/>
     </g>
     <g id="line2d_123">
      <g>
       <use xlink:href="#m448e459f26" x="82.37" y="55.248425" style="stroke: #000000; stroke-width: 0.6"/>
      </g>
     </g>
    </g>
    <g id="ytick_49">
     <g id="line2d_124">
      <path d="M 82.37 51.931938 
L 579.17 51.931938 
" clip-path="url(#p70cd7e956d)" style="fill: none; stroke-dasharray: 2.775,1.2; stroke-dashoffset: 0; stroke: #b0b0b0; stroke-opacity: 0.4; stroke-width: 0.75"/>
     </g>
     <g id="line2d_125">
      <g>
       <use xlink:href="#m448e459f26" x="82.37" y="51.931938" style="stroke: #000000; stroke-width: 0.6"/>
      </g>
     </g>
    </g>
    <g id="ytick_50">
     <g id="line2d_126">
      <path d="M 82.37 29.447884 
L 579.17 29.447884 
" clip-path="url(#p70cd7e956d)" style="fill: none; stroke-dasharray: 2.775,1.2; stroke-dashoffset: 0; stroke: #b0b0b0; stroke-opacity: 0.4; stroke-width: 0.75"/>
     </g>
     <g id="line2d_127">
      <g>
       <use xlink:href="#m448e459f26" x="82.37" y="29.447884" style="stroke: #000000; stroke-width: 0.6"/>
      </g>
     </g>
    </g>
    <g id="ytick_51">
     <g id="line2d_128">
      <path d="M 82.37 18.030963 
L 579.17 18.030963 
" clip-path="url(#p70cd7e956d)" style="fill: none; stroke-dasharray: 2.775,1.2; stroke-dashoffset: 0; stroke: #b0b0b0; stroke-opacity: 0.4; stroke-width: 0.75"/>
     </g>
     <g id="line2d_129">
      <g>
       <use xlink:href="#m448e459f26" x="82.37" y="18.030963" style="stroke: #000000; stroke-width: 0.6"/>
      </g>
     </g>
    </g>
    <g id="ytick_52">
     <g id="line2d_130">
      <path d="M 82.37 9.930529 
L 579.17 9.930529 
" clip-path="url(#p70cd7e956d)" style="fill: none; stroke-dasharray: 2.775,1.2; stroke-dashoffset: 0; stroke: #b0b0b0; stroke-opacity: 0.4; stroke-width: 0.75"/>
     </g>
     <g id="line2d_131">
      <g>
       <use xlink:href="#m448e459f26" x="82.37" y="9.930529" style="stroke: #000000; stroke-width: 0.6"/>
      </g>
     </g>
    </g>
    <g id="text_15">
     <!-- relative energy error  $|U/U^{\mathrm{ref}}-1|$ -->
     <g transform="translate(25.4 360.028) rotate(-90) scale(0.2 -0.2)">
      <defs>
       <path id="DejaVuSerif-44" d="M 2547 1044 
L 2547 1747 
L 1806 1747 
Q 1378 1747 1168 1562 
Q 959 1378 959 997 
Q 959 650 1171 447 
Q 1384 244 1747 244 
Q 2106 244 2326 466 
Q 2547 688 2547 1044 
z
M 3122 2075 
L 3122 331 
L 3634 331 
L 3634 0 
L 2547 0 
L 2547 359 
Q 2356 128 2106 18 
Q 1856 -91 1522 -91 
Q 969 -91 644 203 
Q 319 497 319 997 
Q 319 1513 691 1797 
Q 1063 2081 1741 2081 
L 2547 2081 
L 2547 2309 
Q 2547 2688 2317 2895 
Q 2088 3103 1672 3103 
Q 1328 3103 1125 2947 
Q 922 2791 872 2484 
L 575 2484 
L 575 3156 
Q 875 3284 1158 3348 
Q 1441 3413 1709 3413 
Q 2400 3413 2761 3070 
Q 3122 2728 3122 2075 
z
" transform="scale(0.015625)"/>
       <path id="DejaVuSerif-59" d="M 1581 0 
L 359 2988 
L -19 2988 
L -19 3322 
L 1509 3322 
L 1509 2988 
L 978 2988 
L 1913 703 
L 2847 2988 
L 2350 2988 
L 2350 3322 
L 3597 3322 
L 3597 2988 
L 3225 2988 
L 2003 0 
L 1581 0 
z
" transform="scale(0.015625)"/>
       <path id="DejaVuSerif-4a" d="M 3359 2988 
L 3359 72 
Q 3359 -644 2965 -1033 
Q 2572 -1422 1844 -1422 
Q 1516 -1422 1216 -1362 
Q 916 -1303 641 -1184 
L 641 -488 
L 941 -488 
Q 997 -813 1206 -963 
Q 1416 -1113 1806 -1113 
Q 2313 -1113 2548 -827 
Q 2784 -541 2784 72 
L 2784 519 
Q 2616 206 2355 57 
Q 2094 -91 1709 -91 
Q 1097 -91 708 395 
Q 319 881 319 1663 
Q 319 2444 706 2928 
Q 1094 3413 1709 3413 
Q 2094 3413 2355 3264 
Q 2616 3116 2784 2803 
L 2784 3322 
L 3909 3322 
L 3909 2988 
L 3359 2988 
z
M 2784 1825 
Q 2784 2422 2554 2737 
Q 2325 3053 1888 3053 
Q 1444 3053 1217 2703 
Q 991 2353 991 1663 
Q 991 975 1217 622 
Q 1444 269 1888 269 
Q 2325 269 2554 583 
Q 2784 897 2784 1497 
L 2784 1825 
z
" transform="scale(0.015625)"/>
       <path id="DejaVuSerif-5c" d="M 1381 -609 
L 1600 -56 
L 359 2988 
L -19 2988 
L -19 3322 
L 1509 3322 
L 1509 2988 
L 978 2988 
L 1913 703 
L 2847 2988 
L 2350 2988 
L 2350 3322 
L 3597 3322 
L 3597 2988 
L 3225 2988 
L 1703 -750 
Q 1547 -1138 1356 -1280 
Q 1166 -1422 819 -1422 
Q 672 -1422 517 -1397 
Q 363 -1372 206 -1325 
L 206 -691 
L 500 -691 
Q 519 -903 608 -995 
Q 697 -1088 884 -1088 
Q 1056 -1088 1161 -992 
Q 1266 -897 1381 -609 
z
" transform="scale(0.015625)"/>
       <path id="DejaVuSerif-52" d="M 1925 219 
Q 2388 219 2623 584 
Q 2859 950 2859 1663 
Q 2859 2375 2623 2739 
Q 2388 3103 1925 3103 
Q 1463 3103 1227 2739 
Q 991 2375 991 1663 
Q 991 950 1228 584 
Q 1466 219 1925 219 
z
M 1925 -91 
Q 1200 -91 759 389 
Q 319 869 319 1663 
Q 319 2456 758 2934 
Q 1197 3413 1925 3413 
Q 2653 3413 3092 2934 
Q 3531 2456 3531 1663 
Q 3531 869 3092 389 
Q 2653 -91 1925 -91 
z
" transform="scale(0.015625)"/>
       <path id="Cmsy10-2f" d="M 763 -1484 
L 763 4684 
Q 763 4734 800 4767 
Q 838 4800 891 4800 
Q 938 4800 978 4767 
Q 1019 4734 1019 4684 
L 1019 -1484 
Q 1019 -1534 978 -1567 
Q 938 -1600 891 -1600 
Q 838 -1600 800 -1567 
Q 763 -1534 763 -1484 
z
" transform="scale(0.015625)"/>
       <path id="Cmmi10-4a" d="M 941 891 
Q 941 656 1033 472 
Q 1125 288 1300 186 
Q 1475 84 1709 84 
Q 1984 84 2245 196 
Q 2506 309 2715 509 
Q 2925 709 3073 965 
Q 3222 1222 3284 1472 
L 3859 3781 
Q 3872 3850 3872 3878 
Q 3872 4147 3378 4147 
Q 3316 4147 3316 4231 
Q 3338 4313 3350 4342 
Q 3363 4372 3425 4372 
L 4813 4372 
Q 4841 4372 4859 4344 
Q 4878 4316 4878 4288 
Q 4878 4284 4865 4239 
Q 4853 4194 4836 4170 
Q 4819 4147 4794 4147 
Q 4181 4147 4084 3756 
L 3506 1447 
Q 3434 1147 3264 864 
Q 3094 581 2845 351 
Q 2597 122 2298 -9 
Q 2000 -141 1691 -141 
Q 1338 -141 1045 14 
Q 753 169 587 447 
Q 422 725 422 1088 
Q 422 1297 469 1472 
L 1088 3956 
Q 1100 4019 1100 4044 
Q 1100 4113 1025 4122 
Q 903 4147 563 4147 
Q 500 4147 500 4231 
Q 522 4313 534 4342 
Q 547 4372 609 4372 
L 2328 4372 
Q 2394 4372 2394 4288 
Q 2391 4272 2381 4234 
Q 2372 4197 2356 4172 
Q 2341 4147 2309 4147 
Q 1919 4147 1766 4103 
Q 1681 4072 1644 3928 
L 1025 1447 
Q 941 1109 941 891 
z
" transform="scale(0.015625)"/>
       <path id="Cmmi10-62" d="M 359 -1472 
Q 359 -1453 366 -1447 
L 2591 4722 
Q 2603 4759 2634 4779 
Q 2666 4800 2706 4800 
Q 2763 4800 2798 4765 
Q 2834 4731 2834 4672 
L 2834 4647 
L 609 -1522 
Q 572 -1600 488 -1600 
Q 434 -1600 396 -1562 
Q 359 -1525 359 -1472 
z
" transform="scale(0.015625)"/>
       <path id="Cmr10-84" d="M 166 0 
L 166 225 
Q 384 225 525 259 
Q 666 294 666 428 
L 666 2175 
Q 666 2347 614 2423 
Q 563 2500 466 2517 
Q 369 2534 166 2534 
L 166 2759 
L 1081 2828 
L 1081 2203 
Q 1184 2481 1375 2654 
Q 1566 2828 1838 2828 
Q 2028 2828 2178 2715 
Q 2328 2603 2328 2419 
Q 2328 2303 2245 2217 
Q 2163 2131 2041 2131 
Q 1922 2131 1837 2215 
Q 1753 2300 1753 2419 
Q 1753 2591 1875 2663 
L 1838 2663 
Q 1578 2663 1414 2475 
Q 1250 2288 1181 2009 
Q 1113 1731 1113 1478 
L 1113 428 
Q 1113 225 1734 225 
L 1734 0 
L 166 0 
z
" transform="scale(0.015625)"/>
       <path id="Cmr10-50" d="M 206 0 
L 206 225 
Q 422 225 562 259 
Q 703 294 703 428 
L 703 2534 
L 213 2534 
L 213 2759 
L 703 2759 
L 703 3525 
Q 703 3731 789 3911 
Q 875 4091 1020 4225 
Q 1166 4359 1355 4436 
Q 1544 4513 1747 4513 
Q 1963 4513 2136 4384 
Q 2309 4256 2309 4044 
Q 2309 3922 2226 3839 
Q 2144 3756 2022 3756 
Q 1900 3756 1814 3839 
Q 1728 3922 1728 4044 
Q 1728 4244 1900 4313 
Q 1797 4347 1716 4347 
Q 1528 4347 1395 4214 
Q 1263 4081 1197 3890 
Q 1131 3700 1131 3513 
L 1131 2759 
L 1869 2759 
L 1869 2534 
L 1153 2534 
L 1153 428 
Q 1153 297 1340 261 
Q 1528 225 1772 225 
L 1772 0 
L 206 0 
z
" transform="scale(0.015625)"/>
       <path id="Cmsy10-11" d="M 653 1472 
Q 600 1472 565 1512 
Q 531 1553 531 1600 
Q 531 1647 565 1687 
Q 600 1728 653 1728 
L 4325 1728 
Q 4375 1728 4408 1687 
Q 4441 1647 4441 1600 
Q 4441 1553 4408 1512 
Q 4375 1472 4325 1472 
L 653 1472 
z
" transform="scale(0.015625)"/>
       <path id="Cmr10-64" d="M 594 0 
L 594 225 
Q 1394 225 1394 428 
L 1394 3788 
Q 1063 3628 556 3628 
L 556 3853 
Q 1341 3853 1741 4263 
L 1831 4263 
Q 1853 4263 1873 4245 
Q 1894 4228 1894 4206 
L 1894 428 
Q 1894 225 2694 225 
L 2694 0 
L 594 0 
z
" transform="scale(0.015625)"/>
      </defs>
      <use xlink:href="#DejaVuSerif-55" transform="translate(0 0.349828)"/>
      <use xlink:href="#DejaVuSerif-48" transform="translate(47.802734 0.349828)"/>
      <use xlink:href="#DejaVuSerif-4f" transform="translate(106.982422 0.349828)"/>
      <use xlink:href="#DejaVuSerif-44" transform="translate(138.964844 0.349828)"/>
      <use xlink:href="#DejaVuSerif-57" transform="translate(198.583984 0.349828)"/>
      <use xlink:href="#DejaVuSerif-4c" transform="translate(238.769531 0.349828)"/>
      <use xlink:href="#DejaVuSerif-59" transform="translate(270.751953 0.349828)"/>
      <use xlink:href="#DejaVuSerif-48" transform="translate(327.246094 0.349828)"/>
      <use xlink:href="#DejaVuSerif-3" transform="translate(386.425781 0.349828)"/>
      <use xlink:href="#DejaVuSerif-48" transform="translate(418.212891 0.349828)"/>
      <use xlink:href="#DejaVuSerif-51" transform="translate(477.392578 0.349828)"/>
      <use xlink:href="#DejaVuSerif-48" transform="translate(541.796875 0.349828)"/>
      <use xlink:href="#DejaVuSerif-55" transform="translate(600.976562 0.349828)"/>
      <use xlink:href="#DejaVuSerif-4a" transform="translate(648.779297 0.349828)"/>
      <use xlink:href="#DejaVuSerif-5c" transform="translate(712.792969 0.349828)"/>
      <use xlink:href="#DejaVuSerif-3" transform="translate(769.287109 0.349828)"/>
      <use xlink:href="#DejaVuSerif-48" transform="translate(801.074219 0.349828)"/>
      <use xlink:href="#DejaVuSerif-55" transform="translate(860.253906 0.349828)"/>
      <use xlink:href="#DejaVuSerif-55" transform="translate(908.056641 0.349828)"/>
      <use xlink:href="#DejaVuSerif-52" transform="translate(955.859375 0.349828)"/>
      <use xlink:href="#DejaVuSerif-55" transform="translate(1016.064453 0.349828)"/>
      <use xlink:href="#DejaVuSerif-3" transform="translate(1063.867188 0.349828)"/>
      <use xlink:href="#DejaVuSerif-3" transform="translate(1095.654297 0.349828)"/>
      <use xlink:href="#Cmsy10-2f" transform="translate(1127.441406 0.349828)"/>
      <use xlink:href="#Cmmi10-4a" transform="translate(1155.126953 0.349828)"/>
      <use xlink:href="#Cmmi10-62" transform="translate(1223.339844 0.349828)"/>
      <use xlink:href="#Cmmi10-4a" transform="translate(1273.339844 0.349828)"/>
      <use xlink:href="#Cmr10-84" transform="translate(1357.879166 41.639062) scale(0.7)"/>
      <use xlink:href="#Cmr10-82" transform="translate(1385.257096 41.639062) scale(0.7)"/>
      <use xlink:href="#Cmr10-50" transform="translate(1416.326432 41.639062) scale(0.7)"/>
      <use xlink:href="#Cmsy10-11" transform="translate(1463.409209 0.349828)"/>
      <use xlink:href="#Cmr10-64" transform="translate(1561.094813 0.349828)"/>
      <use xlink:href="#Cmsy10-2f" transform="translate(1611.094813 0.349828)"/>
     </g>
    </g>
   </g>
   <g id="line2d_132">
    <path d="M 104.951818 83.818938 
L 170.999402 112.664004 
L 217.860909 134.953765 
L 283.908493 162.94524 
L 330.77 180.09913 
L 396.817584 201.272726 
L 443.679091 214.381885 
L 509.726675 231.25112 
L 556.588182 244.530743 
" clip-path="url(#p70cd7e956d)" style="fill: none; stroke: #006400; stroke-width: 1.2; stroke-linecap: square"/>
    <defs>
     <path id="m9acf0f5695" d="M -3 3 
L 3 3 
L 3 -3 
L -3 -3 
z
" style="stroke: #006400; stroke-width: 1.1; stroke-linejoin: miter"/>
    </defs>
    <g clip-path="url(#p70cd7e956d)">
     <use xlink:href="#m9acf0f5695" x="104.951818" y="83.818938" style="fill-opacity: 0; stroke: #006400; stroke-width: 1.1; stroke-linejoin: miter"/>
     <use xlink:href="#m9acf0f5695" x="170.999402" y="112.664004" style="fill-opacity: 0; stroke: #006400; stroke-width: 1.1; stroke-linejoin: miter"/>
     <use xlink:href="#m9acf0f5695" x="217.860909" y="134.953765" style="fill-opacity: 0; stroke: #006400; stroke-width: 1.1; stroke-linejoin: miter"/>
     <use xlink:href="#m9acf0f5695" x="283.908493" y="162.94524" style="fill-opacity: 0; stroke: #006400; stroke-width: 1.1; stroke-linejoin: miter"/>
     <use xlink:href="#m9acf0f5695" x="330.77" y="180.09913" style="fill-opacity: 0; stroke: #006400; stroke-width: 1.1; stroke-linejoin: miter"/>
     <use xlink:href="#m9acf0f5695" x="396.817584" y="201.272726" style="fill-opacity: 0; stroke: #006400; stroke-width: 1.1; stroke-linejoin: miter"/>
     <use xlink:href="#m9acf0f5695" x="443.679091" y="214.381885" style="fill-opacity: 0; stroke: #006400; stroke-width: 1.1; stroke-linejoin: miter"/>
     <use xlink:href="#m9acf0f5695" x="509.726675" y="231.25112" style="fill-opacity: 0; stroke: #006400; stroke-width: 1.1; stroke-linejoin: miter"/>
     <use xlink:href="#m9acf0f5695" x="556.588182" y="244.530743" style="fill-opacity: 0; stroke: #006400; stroke-width: 1.1; stroke-linejoin: miter"/>
    </g>
   </g>
   <g id="line2d_133">
    <path d="M 104.951818 51.630476 
L 170.999402 60.187855 
L 217.860909 73.362343 
L 283.908493 103.16704 
L 330.77 127.853953 
L 396.817584 162.900678 
L 443.679091 185.89501 
L 509.726675 215.806807 
L 556.588182 237.340563 
" clip-path="url(#p70cd7e956d)" style="fill: none; stroke: #000000; stroke-width: 1.2; stroke-linecap: square"/>
    <defs>
     <path id="m7a36bf9a9d" d="M -3 3 
L 3 3 
L 3 -3 
L -3 -3 
z
" style="stroke: #000000; stroke-width: 1.1; stroke-linejoin: miter"/>
    </defs>
    <g clip-path="url(#p70cd7e956d)">
     <use xlink:href="#m7a36bf9a9d" x="104.951818" y="51.630476" style="fill-opacity: 0; stroke: #000000; stroke-width: 1.1; stroke-linejoin: miter"/>
     <use xlink:href="#m7a36bf9a9d" x="170.999402" y="60.187855" style="fill-opacity: 0; stroke: #000000; stroke-width: 1.1; stroke-linejoin: miter"/>
     <use xlink:href="#m7a36bf9a9d" x="217.860909" y="73.362343" style="fill-opacity: 0; stroke: #000000; stroke-width: 1.1; stroke-linejoin: miter"/>
     <use xlink:href="#m7a36bf9a9d" x="283.908493" y="103.16704" style="fill-opacity: 0; stroke: #000000; stroke-width: 1.1; stroke-linejoin: miter"/>
     <use xlink:href="#m7a36bf9a9d" x="330.77" y="127.853953" style="fill-opacity: 0; stroke: #000000; stroke-width: 1.1; stroke-linejoin: miter"/>
     <use xlink:href="#m7a36bf9a9d" x="396.817584" y="162.900678" style="fill-opacity: 0; stroke: #000000; stroke-width: 1.1; stroke-linejoin: miter"/>
     <use xlink:href="#m7a36bf9a9d" x="443.679091" y="185.89501" style="fill-opacity: 0; stroke: #000000; stroke-width: 1.1; stroke-linejoin: miter"/>
     <use xlink:href="#m7a36bf9a9d" x="509.726675" y="215.806807" style="fill-opacity: 0; stroke: #000000; stroke-width: 1.1; stroke-linejoin: miter"/>
     <use xlink:href="#m7a36bf9a9d" x="556.588182" y="237.340563" style="fill-opacity: 0; stroke: #000000; stroke-width: 1.1; stroke-linejoin: miter"/>
    </g>
   </g>
   <g id="line2d_134">
    <path d="M 104.951818 49.026364 
L 170.999402 49.326379 
L 217.860909 50.353845 
L 283.908493 56.441724 
L 330.77 67.344888 
L 396.817584 94.460554 
L 443.679091 118.926915 
L 509.726675 155.915791 
L 556.588182 184.245589 
" clip-path="url(#p70cd7e956d)" style="fill: none; stroke: #8b0000; stroke-width: 1.2; stroke-linecap: square"/>
    <defs>
     <path id="mbe32d84939" d="M -3 3 
L 3 3 
L 3 -3 
L -3 -3 
z
" style="stroke: #8b0000; stroke-width: 1.1; stroke-linejoin: miter"/>
    </defs>
    <g clip-path="url(#p70cd7e956d)">
     <use xlink:href="#mbe32d84939" x="104.951818" y="49.026364" style="fill-opacity: 0; stroke: #8b0000; stroke-width: 1.1; stroke-linejoin: miter"/>
     <use xlink:href="#mbe32d84939" x="170.999402" y="49.326379" style="fill-opacity: 0; stroke: #8b0000; stroke-width: 1.1; stroke-linejoin: miter"/>
     <use xlink:href="#mbe32d84939" x="217.860909" y="50.353845" style="fill-opacity: 0; stroke: #8b0000; stroke-width: 1.1; stroke-linejoin: miter"/>
     <use xlink:href="#mbe32d84939" x="283.908493" y="56.441724" style="fill-opacity: 0; stroke: #8b0000; stroke-width: 1.1; stroke-linejoin: miter"/>
     <use xlink:href="#mbe32d84939" x="330.77" y="67.344888" style="fill-opacity: 0; stroke: #8b0000; stroke-width: 1.1; stroke-linejoin: miter"/>
     <use xlink:href="#mbe32d84939" x="396.817584" y="94.460554" style="fill-opacity: 0; stroke: #8b0000; stroke-width: 1.1; stroke-linejoin: miter"/>
     <use xlink:href="#mbe32d84939" x="443.679091" y="118.926915" style="fill-opacity: 0; stroke: #8b0000; stroke-width: 1.1; stroke-linejoin: miter"/>
     <use xlink:href="#mbe32d84939" x="509.726675" y="155.915791" style="fill-opacity: 0; stroke: #8b0000; stroke-width: 1.1; stroke-linejoin: miter"/>
     <use xlink:href="#mbe32d84939" x="556.588182" y="184.245589" style="fill-opacity: 0; stroke: #8b0000; stroke-width: 1.1; stroke-linejoin: miter"/>
    </g>
   </g>
   <g id="patch_3">
    <path d="M 82.37 385.056 
L 82.37 7.2 
" style="fill: none; stroke: #000000; stroke-width: 0.8; stroke-linejoin: miter; stroke-linecap: square"/>
   </g>
   <g id="patch_4">
    <path d="M 579.17 385.056 
L 579.17 7.2 
" style="fill: none; stroke: #000000; stroke-width: 0.8; stroke-linejoin: miter; stroke-linecap: square"/>
   </g>
   <g id="patch_5">
    <path d="M 82.37 385.056 
L 579.17 385.056 
" style="fill: none; stroke: #000000; stroke-width: 0.8; stroke-linejoin: miter; stroke-linecap: square"/>
   </g>
   <g id="patch_6">
    <path d="M 82.37 7.2 
L 579.17 7.2 
" style="fill: none; stroke: #000000; stroke-width: 0.8; stroke-linejoin: miter; stroke-linecap: square"/>
   </g>
   <g id="legend_1">
    <g id="patch_7">
     <path d="M 93.57 377.056 
L 225.41 377.056 
Q 228.61 377.056 228.61 373.856 
L 228.61 284.982719 
Q 228.61 281.782719 225.41 281.782719 
L 93.57 281.782719 
Q 90.37 281.782719 90.37 284.982719 
L 90.37 373.856 
Q 90.37 377.056 93.57 377.056 
z
" style="fill: #ffffff; opacity: 0.8; stroke: #cccccc; stroke-linejoin: miter"/>
    </g>
    <g id="text_16">
     <!-- $p = 3$ -->
     <g transform="translate(148.59 295.781156) scale(0.1 -0.1)">
      <defs>
       <path id="Cmmi10-80" d="M -159 -1241 
Q -219 -1241 -219 -1159 
Q -197 -1019 -134 -1019 
Q 66 -1019 145 -983 
Q 225 -947 269 -800 
L 991 2081 
Q 1038 2200 1038 2388 
Q 1038 2663 850 2663 
Q 650 2663 553 2423 
Q 456 2184 366 1819 
Q 366 1778 313 1778 
L 238 1778 
Q 222 1778 203 1801 
Q 184 1825 184 1844 
Q 253 2122 317 2315 
Q 381 2509 517 2668 
Q 653 2828 856 2828 
Q 1075 2828 1240 2704 
Q 1406 2581 1453 2369 
Q 1628 2572 1840 2700 
Q 2053 2828 2278 2828 
Q 2547 2828 2745 2684 
Q 2944 2541 3044 2308 
Q 3144 2075 3144 1806 
Q 3144 1394 2933 953 
Q 2722 513 2361 220 
Q 2000 -72 1588 -72 
Q 1400 -72 1248 34 
Q 1097 141 1013 313 
L 722 -825 
Q 706 -919 703 -934 
Q 703 -1019 1125 -1019 
Q 1191 -1019 1191 -1100 
Q 1169 -1184 1155 -1212 
Q 1141 -1241 1081 -1241 
L -159 -1241 
z
M 1594 97 
Q 1816 97 2006 280 
Q 2197 463 2316 691 
Q 2403 863 2479 1111 
Q 2556 1359 2612 1640 
Q 2669 1922 2669 2088 
Q 2669 2234 2630 2362 
Q 2591 2491 2502 2577 
Q 2413 2663 2266 2663 
Q 2031 2663 1823 2495 
Q 1616 2328 1447 2081 
L 1447 2059 
L 1094 647 
Q 1138 419 1263 258 
Q 1388 97 1594 97 
z
" transform="scale(0.015625)"/>
       <path id="Cmr10-29" d="M 481 850 
Q 428 850 393 890 
Q 359 931 359 978 
Q 359 1031 393 1068 
Q 428 1106 481 1106 
L 4500 1106 
Q 4547 1106 4581 1068 
Q 4616 1031 4616 978 
Q 4616 931 4581 890 
Q 4547 850 4500 850 
L 481 850 
z
M 481 2094 
Q 428 2094 393 2131 
Q 359 2169 359 2222 
Q 359 2269 393 2309 
Q 428 2350 481 2350 
L 4500 2350 
Q 4547 2350 4581 2309 
Q 4616 2269 4616 2222 
Q 4616 2169 4581 2131 
Q 4547 2094 4500 2094 
L 481 2094 
z
" transform="scale(0.015625)"/>
       <path id="Cmr10-6e" d="M 609 494 
Q 759 275 1012 169 
Q 1266 63 1556 63 
Q 1928 63 2084 380 
Q 2241 697 2241 1100 
Q 2241 1281 2208 1462 
Q 2175 1644 2097 1800 
Q 2019 1956 1883 2050 
Q 1747 2144 1550 2144 
L 1125 2144 
Q 1069 2144 1069 2203 
L 1069 2259 
Q 1069 2309 1125 2309 
L 1478 2338 
Q 1703 2338 1851 2506 
Q 2000 2675 2069 2917 
Q 2138 3159 2138 3378 
Q 2138 3684 1994 3881 
Q 1850 4078 1556 4078 
Q 1313 4078 1091 3986 
Q 869 3894 738 3706 
Q 750 3709 759 3711 
Q 769 3713 781 3713 
Q 925 3713 1022 3613 
Q 1119 3513 1119 3372 
Q 1119 3234 1022 3134 
Q 925 3034 781 3034 
Q 641 3034 541 3134 
Q 441 3234 441 3372 
Q 441 3647 606 3850 
Q 772 4053 1033 4158 
Q 1294 4263 1556 4263 
Q 1750 4263 1965 4205 
Q 2181 4147 2356 4039 
Q 2531 3931 2642 3762 
Q 2753 3594 2753 3378 
Q 2753 3109 2633 2881 
Q 2513 2653 2303 2487 
Q 2094 2322 1844 2241 
Q 2122 2188 2372 2031 
Q 2622 1875 2773 1631 
Q 2925 1388 2925 1106 
Q 2925 753 2731 467 
Q 2538 181 2222 20 
Q 1906 -141 1556 -141 
Q 1256 -141 954 -26 
Q 653 88 461 316 
Q 269 544 269 863 
Q 269 1022 375 1128 
Q 481 1234 641 1234 
Q 744 1234 830 1186 
Q 916 1138 964 1050 
Q 1013 963 1013 863 
Q 1013 706 903 600 
Q 794 494 641 494 
L 609 494 
z
" transform="scale(0.015625)"/>
      </defs>
      <use xlink:href="#Cmmi10-80" transform="translate(0 0.390625)"/>
      <use xlink:href="#Cmr10-29" transform="translate(70.293026 0.390625)"/>
      <use xlink:href="#Cmr10-6e" transform="translate(167.97863 0.390625)"/>
     </g>
    </g>
    <g id="line2d_135">
     <path d="M 96.77 312.741 
L 112.77 312.741 
L 128.77 312.741 
" style="fill: none; stroke: #006400; stroke-width: 2; stroke-linecap: square"/>
    </g>
    <g id="text_17">
     <!-- $1/t = 100$ -->
     <g transform="translate(141.57 318.341) scale(0.16 -0.16)">
      <defs>
       <path id="Cmmi10-30" d="M 397 519 
Q 397 613 416 697 
L 878 2534 
L 206 2534 
Q 141 2534 141 2619 
Q 166 2759 225 2759 
L 934 2759 
L 1191 3803 
Q 1216 3888 1291 3947 
Q 1366 4006 1459 4006 
Q 1541 4006 1595 3957 
Q 1650 3909 1650 3828 
Q 1650 3809 1648 3798 
Q 1647 3788 1644 3775 
L 1388 2759 
L 2047 2759 
Q 2113 2759 2113 2675 
Q 2109 2659 2100 2621 
Q 2091 2584 2075 2559 
Q 2059 2534 2028 2534 
L 1331 2534 
L 872 684 
Q 825 503 825 372 
Q 825 97 1013 97 
Q 1294 97 1511 361 
Q 1728 625 1844 941 
Q 1869 978 1894 978 
L 1972 978 
Q 1997 978 2012 961 
Q 2028 944 2028 922 
Q 2028 909 2022 903 
Q 1881 516 1612 222 
Q 1344 -72 997 -72 
Q 744 -72 570 93 
Q 397 259 397 519 
z
" transform="scale(0.015625)"/>
       <path id="Cmr10-28" d="M 1600 -141 
Q 816 -141 533 504 
Q 250 1150 250 2041 
Q 250 2597 351 3087 
Q 453 3578 754 3920 
Q 1056 4263 1600 4263 
Q 2022 4263 2290 4056 
Q 2559 3850 2700 3523 
Q 2841 3197 2892 2823 
Q 2944 2450 2944 2041 
Q 2944 1491 2842 1011 
Q 2741 531 2444 195 
Q 2147 -141 1600 -141 
z
M 1600 25 
Q 1956 25 2131 390 
Q 2306 756 2347 1200 
Q 2388 1644 2388 2144 
Q 2388 2625 2347 3031 
Q 2306 3438 2132 3767 
Q 1959 4097 1600 4097 
Q 1238 4097 1063 3765 
Q 888 3434 847 3029 
Q 806 2625 806 2144 
Q 806 1788 823 1472 
Q 841 1156 916 820 
Q 991 484 1158 254 
Q 1325 25 1600 25 
z
" transform="scale(0.015625)"/>
      </defs>
      <use xlink:href="#Cmr10-64"/>
      <use xlink:href="#Cmmi10-62" transform="translate(50 0)"/>
      <use xlink:href="#Cmmi10-30" transform="translate(100 0)"/>
      <use xlink:href="#Cmr10-29" transform="translate(156.084042 0)"/>
      <use xlink:href="#Cmr10-64" transform="translate(253.769646 0)"/>
      <use xlink:href="#Cmr10-28" transform="translate(303.769646 0)"/>
      <use xlink:href="#Cmr10-28" transform="translate(353.769646 0)"/>
     </g>
    </g>
    <g id="line2d_136">
     <path d="M 96.77 336.8985 
L 112.77 336.8985 
L 128.77 336.8985 
" style="fill: none; stroke: #000000; stroke-width: 2; stroke-linecap: square"/>
    </g>
    <g id="text_18">
     <!-- $1/t = 1000$ -->
     <g transform="translate(141.57 342.4985) scale(0.16 -0.16)">
      <use xlink:href="#Cmr10-64"/>
      <use xlink:href="#Cmmi10-62" transform="translate(50 0)"/>
      <use xlink:href="#Cmmi10-30" transform="translate(100 0)"/>
      <use xlink:href="#Cmr10-29" transform="translate(156.084042 0)"/>
      <use xlink:href="#Cmr10-64" transform="translate(253.769646 0)"/>
      <use xlink:href="#Cmr10-28" transform="translate(303.769646 0)"/>
      <use xlink:href="#Cmr10-28" transform="translate(353.769646 0)"/>
      <use xlink:href="#Cmr10-28" transform="translate(403.769646 0)"/>
     </g>
    </g>
    <g id="line2d_137">
     <path d="M 96.77 361.056 
L 112.77 361.056 
L 128.77 361.056 
" style="fill: none; stroke: #8b0000; stroke-width: 2; stroke-linecap: square"/>
    </g>
    <g id="text_19">
     <!-- $1/t = 10000$ -->
     <g transform="translate(141.57 366.656) scale(0.16 -0.16)">
      <use xlink:href="#Cmr10-64"/>
      <use xlink:href="#Cmmi10-62" transform="translate(50 0)"/>
      <use xlink:href="#Cmmi10-30" transform="translate(100 0)"/>
      <use xlink:href="#Cmr10-29" transform="translate(156.084042 0)"/>
      <use xlink:href="#Cmr10-64" transform="translate(253.769646 0)"/>
      <use xlink:href="#Cmr10-28" transform="translate(303.769646 0)"/>
      <use xlink:href="#Cmr10-28" transform="translate(353.769646 0)"/>
      <use xlink:href="#Cmr10-28" transform="translate(403.769646 0)"/>
      <use xlink:href="#Cmr10-28" transform="translate(453.769646 0)"/>
     </g>
    </g>
   </g>
   <g id="legend_2">
    <g id="patch_8">
     <path d="M 429.93 39.57 
L 570.07 39.57 
Q 572.67 39.57 572.67 36.97 
L 572.67 16.3 
Q 572.67 13.7 570.07 13.7 
L 429.93 13.7 
Q 427.33 13.7 427.33 16.3 
L 427.33 36.97 
Q 427.33 39.57 429.93 39.57 
z
" style="fill: #ffffff; opacity: 0.8; stroke: #cccccc; stroke-linejoin: miter"/>
    </g>
    <g id="line2d_138">
     <path d="M 432.53 26.57 
L 445.53 26.57 
L 458.53 26.57 
" style="fill: none; stroke: #000000; stroke-width: 2.4; stroke-linecap: square"/>
    </g>
    <g id="text_20">
     <!-- $O(h^{2(p-1)})$, $p=3$ -->
     <g transform="translate(468.93 31.12) scale(0.13 -0.13)">
      <defs>
       <path id="Cmmi10-35" d="M 1947 -141 
Q 1466 -141 1094 79 
Q 722 300 520 692 
Q 319 1084 319 1563 
Q 319 2259 714 2950 
Q 1109 3641 1756 4077 
Q 2403 4513 3109 4513 
Q 3475 4513 3778 4381 
Q 4081 4250 4290 4017 
Q 4500 3784 4614 3471 
Q 4728 3159 4728 2791 
Q 4728 2263 4503 1739 
Q 4278 1216 3879 786 
Q 3481 356 2984 107 
Q 2488 -141 1947 -141 
z
M 1997 50 
Q 2463 50 2866 345 
Q 3269 641 3553 1108 
Q 3838 1575 3989 2089 
Q 4141 2603 4141 3047 
Q 4141 3394 4022 3683 
Q 3903 3972 3656 4148 
Q 3409 4325 3066 4325 
Q 2728 4325 2409 4162 
Q 2091 4000 1831 3731 
Q 1566 3459 1359 3057 
Q 1153 2656 1047 2214 
Q 941 1772 941 1381 
Q 941 838 1208 444 
Q 1475 50 1997 50 
z
" transform="scale(0.015625)"/>
       <path id="Cmr10-77" d="M 1984 -1588 
Q 1628 -1306 1370 -942 
Q 1113 -578 948 -165 
Q 784 247 703 697 
Q 622 1147 622 1600 
Q 622 2059 703 2509 
Q 784 2959 951 3375 
Q 1119 3791 1378 4153 
Q 1638 4516 1984 4788 
Q 1984 4800 2016 4800 
L 2075 4800 
Q 2094 4800 2109 4783 
Q 2125 4766 2125 4744 
Q 2125 4716 2113 4703 
Q 1800 4397 1592 4047 
Q 1384 3697 1257 3301 
Q 1131 2906 1075 2482 
Q 1019 2059 1019 1600 
Q 1019 -434 2106 -1491 
Q 2125 -1509 2125 -1544 
Q 2125 -1559 2108 -1579 
Q 2091 -1600 2075 -1600 
L 2016 -1600 
Q 1984 -1600 1984 -1588 
z
" transform="scale(0.015625)"/>
       <path id="Cmmi10-5f" d="M 341 116 
Q 341 153 347 172 
L 1275 3872 
Q 1300 3981 1306 4044 
Q 1306 4147 891 4147 
Q 825 4147 825 4231 
Q 828 4247 839 4287 
Q 850 4328 867 4350 
Q 884 4372 916 4372 
L 1778 4441 
L 1797 4441 
Q 1797 4434 1819 4423 
Q 1841 4413 1844 4409 
Q 1856 4378 1856 4359 
L 1356 2363 
Q 1750 2828 2291 2828 
Q 2516 2828 2680 2750 
Q 2844 2672 2936 2514 
Q 3028 2356 3028 2138 
Q 3028 1875 2911 1503 
Q 2794 1131 2619 672 
Q 2528 463 2528 288 
Q 2528 97 2675 97 
Q 2925 97 3092 364 
Q 3259 631 3328 941 
Q 3341 978 3378 978 
L 3456 978 
Q 3481 978 3497 961 
Q 3513 944 3513 922 
Q 3513 916 3506 903 
Q 3450 672 3339 448 
Q 3228 225 3059 76 
Q 2891 -72 2663 -72 
Q 2438 -72 2278 83 
Q 2119 238 2119 459 
Q 2119 578 2169 709 
Q 2350 1191 2470 1569 
Q 2591 1947 2591 2234 
Q 2591 2419 2519 2541 
Q 2447 2663 2278 2663 
Q 1934 2663 1678 2452 
Q 1422 2241 1234 1894 
L 800 147 
Q 775 50 703 -11 
Q 631 -72 538 -72 
Q 456 -72 398 -17 
Q 341 38 341 116 
z
" transform="scale(0.015625)"/>
       <path id="Cmr10-31" d="M 319 0 
L 319 172 
Q 319 188 331 206 
L 1325 1306 
Q 1550 1550 1690 1715 
Q 1831 1881 1968 2097 
Q 2106 2313 2186 2536 
Q 2266 2759 2266 3009 
Q 2266 3272 2169 3511 
Q 2072 3750 1880 3894 
Q 1688 4038 1416 4038 
Q 1138 4038 916 3870 
Q 694 3703 603 3438 
Q 628 3444 672 3444 
Q 816 3444 917 3347 
Q 1019 3250 1019 3097 
Q 1019 2950 917 2848 
Q 816 2747 672 2747 
Q 522 2747 420 2851 
Q 319 2956 319 3097 
Q 319 3338 409 3548 
Q 500 3759 670 3923 
Q 841 4088 1055 4175 
Q 1269 4263 1509 4263 
Q 1875 4263 2190 4108 
Q 2506 3953 2690 3670 
Q 2875 3388 2875 3009 
Q 2875 2731 2753 2481 
Q 2631 2231 2440 2026 
Q 2250 1822 1953 1562 
Q 1656 1303 1563 1216 
L 838 519 
L 1453 519 
Q 1906 519 2211 526 
Q 2516 534 2534 550 
Q 2609 631 2688 1141 
L 2875 1141 
L 2694 0 
L 319 0 
z
" transform="scale(0.015625)"/>
       <path id="Cmr10-44" d="M 416 -1600 
Q 359 -1600 359 -1544 
Q 359 -1516 372 -1503 
Q 1466 -434 1466 1600 
Q 1466 3634 384 4691 
Q 359 4706 359 4744 
Q 359 4766 376 4783 
Q 394 4800 416 4800 
L 475 4800 
Q 494 4800 506 4788 
Q 966 4425 1272 3906 
Q 1578 3388 1720 2800 
Q 1863 2213 1863 1600 
Q 1863 1147 1786 708 
Q 1709 269 1542 -157 
Q 1375 -584 1119 -945 
Q 863 -1306 506 -1588 
Q 494 -1600 475 -1600 
L 416 -1600 
z
" transform="scale(0.015625)"/>
       <path id="DejaVuSerif-f" d="M 231 -622 
Q 525 -406 662 -114 
Q 800 178 800 594 
L 800 709 
L 1416 709 
Q 1391 175 1164 -208 
Q 938 -591 481 -872 
L 231 -622 
z
" transform="scale(0.015625)"/>
      </defs>
      <use xlink:href="#Cmmi10-35" transform="translate(0 0.210766)"/>
      <use xlink:href="#Cmr10-77" transform="translate(76.220703 0.210766)"/>
      <use xlink:href="#Cmmi10-5f" transform="translate(115.039062 0.210766)"/>
      <use xlink:href="#Cmr10-31" transform="translate(189.209088 41.5) scale(0.7)"/>
      <use xlink:href="#Cmr10-77" transform="translate(224.209088 41.5) scale(0.7)"/>
      <use xlink:href="#Cmmi10-80" transform="translate(251.38194 41.5) scale(0.7)"/>
      <use xlink:href="#Cmsy10-11" transform="translate(300.587058 41.5) scale(0.7)"/>
      <use xlink:href="#Cmr10-64" transform="translate(368.966981 41.5) scale(0.7)"/>
      <use xlink:href="#Cmr10-44" transform="translate(403.966981 41.5) scale(0.7)"/>
      <use xlink:href="#Cmr10-44" transform="translate(436.860248 0.210766)"/>
      <use xlink:href="#DejaVuSerif-f" transform="translate(475.678607 0.210766)"/>
      <use xlink:href="#DejaVuSerif-3" transform="translate(507.465717 0.210766)"/>
      <use xlink:href="#Cmmi10-80" transform="translate(539.252826 0.210766)"/>
      <use xlink:href="#Cmr10-29" transform="translate(609.545852 0.210766)"/>
      <use xlink:href="#Cmr10-6e" transform="translate(707.231456 0.210766)"/>
     </g>
    </g>
   </g>
   <g id="legend_3">
    <g id="patch_9">
     <path d="M 429.93 39.57 
L 570.07 39.57 
Q 572.67 39.57 572.67 36.97 
L 572.67 16.3 
Q 572.67 13.7 570.07 13.7 
L 429.93 13.7 
Q 427.33 13.7 427.33 16.3 
L 427.33 36.97 
Q 427.33 39.57 429.93 39.57 
z
" style="fill: #ffffff; opacity: 0.8; stroke: #cccccc; stroke-linejoin: miter"/>
    </g>
    <g id="line2d_139">
     <path d="M 432.53 26.57 
L 445.53 26.57 
L 458.53 26.57 
" style="fill: none; stroke: #000000; stroke-width: 2.4; stroke-linecap: square"/>
    </g>
    <g id="text_21">
     <!-- $O(h^{2(p-1)})$, $p=3$ -->
     <g transform="translate(468.93 31.12) scale(0.13 -0.13)">
      <use xlink:href="#Cmmi10-35" transform="translate(0 0.210766)"/>
      <use xlink:href="#Cmr10-77" transform="translate(76.220703 0.210766)"/>
      <use xlink:href="#Cmmi10-5f" transform="translate(115.039062 0.210766)"/>
      <use xlink:href="#Cmr10-31" transform="translate(189.209088 41.5) scale(0.7)"/>
      <use xlink:href="#Cmr10-77" transform="translate(224.209088 41.5) scale(0.7)"/>
      <use xlink:href="#Cmmi10-80" transform="translate(251.38194 41.5) scale(0.7)"/>
      <use xlink:href="#Cmsy10-11" transform="translate(300.587058 41.5) scale(0.7)"/>
      <use xlink:href="#Cmr10-64" transform="translate(368.966981 41.5) scale(0.7)"/>
      <use xlink:href="#Cmr10-44" transform="translate(403.966981 41.5) scale(0.7)"/>
      <use xlink:href="#Cmr10-44" transform="translate(436.860248 0.210766)"/>
      <use xlink:href="#DejaVuSerif-f" transform="translate(475.678607 0.210766)"/>
      <use xlink:href="#DejaVuSerif-3" transform="translate(507.465717 0.210766)"/>
      <use xlink:href="#Cmmi10-80" transform="translate(539.252826 0.210766)"/>
      <use xlink:href="#Cmr10-29" transform="translate(609.545852 0.210766)"/>
      <use xlink:href="#Cmr10-6e" transform="translate(707.231456 0.210766)"/>
     </g>
    </g>
   </g>
  </g>
 </g>
 <defs>
  <clipPath id="p70cd7e956d">
   <rect x="82.37" y="7.2" width="496.8" height="377.856"/>
  </clipPath>
 </defs>
</svg>
