<?xml version="1.0" encoding="utf-8" standalone="no"?>
<!DOCTYPE svg PUBLIC "-//W3C//DTD SVG 1.1//EN"
  "http://www.w3.org/Graphics/SVG/1.1/DTD/svg11.dtd">
<svg xmlns:xlink="http://www.w3.org/1999/xlink" width="616.371562pt" height="446.718695pt" viewBox="0 0 616.371562 446.718695" xmlns="http://www.w3.org/2000/svg" version="1.1">
 <metadata>
  <rdf:RDF xmlns:dc="http://purl.org/dc/elements/1.1/" xmlns:cc="http://creativecommons.org/ns#" xmlns:rdf="http://www.w3.org/1999/02/22-rdf-syntax-ns#">
   <cc:Work>
    <dc:type rdf:resource="http://purl.org/dc/dcmitype/StillImage"/>
    <dc:date>2026-06-20T22:45:42.443460</dc:date>
    <dc:format>image/svg+xml</dc:format>
    <dc:creator>
     <cc:Agent>
      <dc:title>Matplotlib v3.11.0, https://matplotlib.org/</dc:title>
     </cc:Agent>
    </dc:creator>
   </cc:Work>
  </rdf:RDF>
 </metadata>
 <defs>
  <style type="text/css">*{stroke-linejoin: round; stroke-linecap: butt}</style>
 </defs>
 <g id="figure_1">
  <g id="patch_1">
   <path d="M 0 446.718695 
L 616.371562 446.718695 
L 616.371562 0 
L 0 0 
z
" style="fill: #ffffff"/>
  </g>
  <g id="axes_1">
   <g id="patch_2">
    <path d="M 79.251563 391.514008 
L 609.171562 391.514008 
L 609.171562 13.658008 
L 79.251563 13.658008 
z
" style="fill: #ffffff"/>
   </g>
   <g id="line2d_1">
    <path d="M 79.251563 202.586008 
L 609.171562 202.586008 
" clip-path="url(#pd7348472de)" style="fill: none; stroke-dasharray: 7.8,3.9; stroke-dashoffset: 0; stroke: #000000; stroke-width: 1.3"/>
   </g>
   <g id="matplotlib.axis_1">
    <g id="xtick_1">
     <g id="line2d_2">
      <path d="M 87.798659 391.514008 
L 87.798659 13.658008 
" clip-path="url(#pd7348472de)" style="fill: none; stroke-dasharray: 2.775,1.2; stroke-dashoffset: 0; stroke: #b0b0b0; stroke-opacity: 0.4; stroke-width: 0.75"/>
     </g>
     <g id="line2d_3">
      <defs>
       <path id="m8368a10e62" d="M 0 0 
L 0 3.5 
" style="stroke: #000000; stroke-width: 0.8"/>
      </defs>
      <g>
       <use xlink:href="#m8368a10e62" x="87.798659" y="391.514008" style="stroke: #000000; stroke-width: 0.8"/>
      </g>
     </g>
     <g id="text_1">
      <!-- 0 -->
      <g transform="translate(82.390534 411.430023) scale(0.17 -0.17)">
       <defs>
        <path id="DejaVuSerif-13" d="M 2034 219 
Q 2513 219 2750 744 
Q 2988 1269 2988 2328 
Q 2988 3391 2750 3916 
Q 2513 4441 2034 4441 
Q 1556 4441 1318 3916 
Q 1081 3391 1081 2328 
Q 1081 1269 1318 744 
Q 1556 219 2034 219 
z
M 2034 -91 
Q 1275 -91 848 546 
Q 422 1184 422 2328 
Q 422 3475 848 4112 
Q 1275 4750 2034 4750 
Q 2797 4750 3222 4112 
Q 3647 3475 3647 2328 
Q 3647 1184 3222 546 
Q 2797 -91 2034 -91 
z
" transform="scale(0.015625)"/>
       </defs>
       <use xlink:href="#DejaVuSerif-13"/>
      </g>
     </g>
    </g>
    <g id="xtick_2">
     <g id="line2d_4">
      <path d="M 165.499539 391.514008 
L 165.499539 13.658008 
" clip-path="url(#pd7348472de)" style="fill: none; stroke-dasharray: 2.775,1.2; stroke-dashoffset: 0; stroke: #b0b0b0; stroke-opacity: 0.4; stroke-width: 0.75"/>
     </g>
     <g id="line2d_5">
      <g>
       <use xlink:href="#m8368a10e62" x="165.499539" y="391.514008" style="stroke: #000000; stroke-width: 0.8"/>
      </g>
     </g>
     <g id="text_2">
      <!-- 5 -->
      <g transform="translate(160.091414 411.430023) scale(0.17 -0.17)">
       <defs>
        <path id="DejaVuSerif-18" d="M 3219 4666 
L 3219 4153 
L 1081 4153 
L 1081 2816 
Q 1244 2928 1461 2984 
Q 1678 3041 1947 3041 
Q 2703 3041 3140 2622 
Q 3578 2203 3578 1478 
Q 3578 738 3136 323 
Q 2694 -91 1894 -91 
Q 1572 -91 1234 -12 
Q 897 66 544 225 
L 544 1131 
L 897 1131 
Q 925 688 1179 453 
Q 1434 219 1894 219 
Q 2388 219 2653 544 
Q 2919 869 2919 1478 
Q 2919 2084 2655 2407 
Q 2391 2731 1894 2731 
Q 1613 2731 1398 2631 
Q 1184 2531 1019 2322 
L 750 2322 
L 750 4666 
L 3219 4666 
z
" transform="scale(0.015625)"/>
       </defs>
       <use xlink:href="#DejaVuSerif-18"/>
      </g>
     </g>
    </g>
    <g id="xtick_3">
     <g id="line2d_6">
      <path d="M 243.200419 391.514008 
L 243.200419 13.658008 
" clip-path="url(#pd7348472de)" style="fill: none; stroke-dasharray: 2.775,1.2; stroke-dashoffset: 0; stroke: #b0b0b0; stroke-opacity: 0.4; stroke-width: 0.75"/>
     </g>
     <g id="line2d_7">
      <g>
       <use xlink:href="#m8368a10e62" x="243.200419" y="391.514008" style="stroke: #000000; stroke-width: 0.8"/>
      </g>
     </g>
     <g id="text_3">
      <!-- 10 -->
      <g transform="translate(232.384169 411.430023) scale(0.17 -0.17)">
       <defs>
        <path id="DejaVuSerif-14" d="M 909 0 
L 909 331 
L 1722 331 
L 1722 4213 
L 781 3603 
L 781 4013 
L 1919 4750 
L 2350 4750 
L 2350 331 
L 3163 331 
L 3163 0 
L 909 0 
z
" transform="scale(0.015625)"/>
       </defs>
       <use xlink:href="#DejaVuSerif-14"/>
       <use xlink:href="#DejaVuSerif-13" transform="translate(63.625 0)"/>
      </g>
     </g>
    </g>
    <g id="xtick_4">
     <g id="line2d_8">
      <path d="M 320.901299 391.514008 
L 320.901299 13.658008 
" clip-path="url(#pd7348472de)" style="fill: none; stroke-dasharray: 2.775,1.2; stroke-dashoffset: 0; stroke: #b0b0b0; stroke-opacity: 0.4; stroke-width: 0.75"/>
     </g>
     <g id="line2d_9">
      <g>
       <use xlink:href="#m8368a10e62" x="320.901299" y="391.514008" style="stroke: #000000; stroke-width: 0.8"/>
      </g>
     </g>
     <g id="text_4">
      <!-- 15 -->
      <g transform="translate(310.085049 411.430023) scale(0.17 -0.17)">
       <use xlink:href="#DejaVuSerif-14"/>
       <use xlink:href="#DejaVuSerif-18" transform="translate(63.625 0)"/>
      </g>
     </g>
    </g>
    <g id="xtick_5">
     <g id="line2d_10">
      <path d="M 398.602178 391.514008 
L 398.602178 13.658008 
" clip-path="url(#pd7348472de)" style="fill: none; stroke-dasharray: 2.775,1.2; stroke-dashoffset: 0; stroke: #b0b0b0; stroke-opacity: 0.4; stroke-width: 0.75"/>
     </g>
     <g id="line2d_11">
      <g>
       <use xlink:href="#m8368a10e62" x="398.602178" y="391.514008" style="stroke: #000000; stroke-width: 0.8"/>
      </g>
     </g>
     <g id="text_5">
      <!-- 20 -->
      <g transform="translate(387.785928 411.430023) scale(0.17 -0.17)">
       <defs>
        <path id="DejaVuSerif-15" d="M 819 3553 
L 469 3553 
L 469 4384 
Q 803 4563 1142 4656 
Q 1481 4750 1806 4750 
Q 2534 4750 2956 4397 
Q 3378 4044 3378 3438 
Q 3378 2753 2422 1800 
Q 2347 1728 2309 1691 
L 1131 513 
L 3078 513 
L 3078 1088 
L 3444 1088 
L 3444 0 
L 434 0 
L 434 341 
L 1850 1753 
Q 2319 2222 2519 2614 
Q 2719 3006 2719 3438 
Q 2719 3909 2473 4175 
Q 2228 4441 1797 4441 
Q 1350 4441 1106 4219 
Q 863 3997 819 3553 
z
" transform="scale(0.015625)"/>
       </defs>
       <use xlink:href="#DejaVuSerif-15"/>
       <use xlink:href="#DejaVuSerif-13" transform="translate(63.625 0)"/>
      </g>
     </g>
    </g>
    <g id="xtick_6">
     <g id="line2d_12">
      <path d="M 476.303058 391.514008 
L 476.303058 13.658008 
" clip-path="url(#pd7348472de)" style="fill: none; stroke-dasharray: 2.775,1.2; stroke-dashoffset: 0; stroke: #b0b0b0; stroke-opacity: 0.4; stroke-width: 0.75"/>
     </g>
     <g id="line2d_13">
      <g>
       <use xlink:href="#m8368a10e62" x="476.303058" y="391.514008" style="stroke: #000000; stroke-width: 0.8"/>
      </g>
     </g>
     <g id="text_6">
      <!-- 25 -->
      <g transform="translate(465.486808 411.430023) scale(0.17 -0.17)">
       <use xlink:href="#DejaVuSerif-15"/>
       <use xlink:href="#DejaVuSerif-18" transform="translate(63.625 0)"/>
      </g>
     </g>
    </g>
    <g id="xtick_7">
     <g id="line2d_14">
      <path d="M 554.003938 391.514008 
L 554.003938 13.658008 
" clip-path="url(#pd7348472de)" style="fill: none; stroke-dasharray: 2.775,1.2; stroke-dashoffset: 0; stroke: #b0b0b0; stroke-opacity: 0.4; stroke-width: 0.75"/>
     </g>
     <g id="line2d_15">
      <g>
       <use xlink:href="#m8368a10e62" x="554.003938" y="391.514008" style="stroke: #000000; stroke-width: 0.8"/>
      </g>
     </g>
     <g id="text_7">
      <!-- 30 -->
      <g transform="translate(543.187688 411.430023) scale(0.17 -0.17)">
       <defs>
        <path id="DejaVuSerif-16" d="M 622 4469 
Q 988 4606 1323 4678 
Q 1659 4750 1953 4750 
Q 2638 4750 3022 4454 
Q 3406 4159 3406 3634 
Q 3406 3213 3140 2930 
Q 2875 2647 2388 2547 
Q 2963 2466 3280 2130 
Q 3597 1794 3597 1259 
Q 3597 606 3158 257 
Q 2719 -91 1894 -91 
Q 1528 -91 1179 -12 
Q 831 66 488 225 
L 488 1131 
L 838 1131 
Q 869 681 1141 450 
Q 1413 219 1906 219 
Q 2384 219 2661 495 
Q 2938 772 2938 1253 
Q 2938 1803 2653 2086 
Q 2369 2369 1819 2369 
L 1522 2369 
L 1522 2688 
L 1678 2688 
Q 2225 2688 2498 2914 
Q 2772 3141 2772 3597 
Q 2772 4006 2547 4223 
Q 2322 4441 1900 4441 
Q 1478 4441 1245 4241 
Q 1013 4041 972 3647 
L 622 3647 
L 622 4469 
z
" transform="scale(0.015625)"/>
       </defs>
       <use xlink:href="#DejaVuSerif-16"/>
       <use xlink:href="#DejaVuSerif-13" transform="translate(63.625 0)"/>
      </g>
     </g>
    </g>
    <g id="text_8">
     <!-- elements per side  $n_{\mathrm{el}}$ -->
     <g transform="translate(236.011563 434.714008) scale(0.2 -0.2)">
      <defs>
       <path id="DejaVuSerif-48" d="M 3469 1600 
L 991 1600 
L 991 1575 
Q 991 903 1244 561 
Q 1497 219 1991 219 
Q 2369 219 2611 417 
Q 2853 616 2950 1006 
L 3413 1006 
Q 3275 459 2904 184 
Q 2534 -91 1931 -91 
Q 1203 -91 761 389 
Q 319 869 319 1663 
Q 319 2450 753 2931 
Q 1188 3413 1894 3413 
Q 2647 3413 3050 2948 
Q 3453 2484 3469 1600 
z
M 2791 1931 
Q 2772 2513 2545 2808 
Q 2319 3103 1894 3103 
Q 1497 3103 1269 2806 
Q 1041 2509 991 1931 
L 2791 1931 
z
" transform="scale(0.015625)"/>
       <path id="DejaVuSerif-4f" d="M 1313 331 
L 1856 331 
L 1856 0 
L 184 0 
L 184 331 
L 738 331 
L 738 4531 
L 184 4531 
L 184 4863 
L 1313 4863 
L 1313 331 
z
" transform="scale(0.015625)"/>
       <path id="DejaVuSerif-50" d="M 3316 2675 
Q 3481 3041 3739 3227 
Q 3997 3413 4341 3413 
Q 4863 3413 5119 3089 
Q 5375 2766 5375 2113 
L 5375 331 
L 5894 331 
L 5894 0 
L 4300 0 
L 4300 331 
L 4800 331 
L 4800 2047 
Q 4800 2556 4650 2772 
Q 4500 2988 4153 2988 
Q 3769 2988 3567 2697 
Q 3366 2406 3366 1850 
L 3366 331 
L 3866 331 
L 3866 0 
L 2291 0 
L 2291 331 
L 2791 331 
L 2791 2069 
Q 2791 2566 2641 2777 
Q 2491 2988 2144 2988 
Q 1759 2988 1557 2697 
Q 1356 2406 1356 1850 
L 1356 331 
L 1856 331 
L 1856 0 
L 263 0 
L 263 331 
L 781 331 
L 781 2994 
L 231 2994 
L 231 3322 
L 1356 3322 
L 1356 2731 
Q 1516 3063 1762 3238 
Q 2009 3413 2322 3413 
Q 2709 3413 2968 3220 
Q 3228 3028 3316 2675 
z
" transform="scale(0.015625)"/>
       <path id="DejaVuSerif-51" d="M 263 0 
L 263 331 
L 781 331 
L 781 2988 
L 231 2988 
L 231 3322 
L 1356 3322 
L 1356 2731 
Q 1516 3069 1770 3241 
Q 2025 3413 2363 3413 
Q 2913 3413 3172 3097 
Q 3431 2781 3431 2113 
L 3431 331 
L 3944 331 
L 3944 0 
L 2356 0 
L 2356 331 
L 2853 331 
L 2853 1931 
Q 2853 2541 2703 2767 
Q 2553 2994 2175 2994 
Q 1775 2994 1565 2701 
Q 1356 2409 1356 1850 
L 1356 331 
L 1856 331 
L 1856 0 
L 263 0 
z
" transform="scale(0.015625)"/>
       <path id="DejaVuSerif-57" d="M 691 2988 
L 184 2988 
L 184 3322 
L 691 3322 
L 691 4353 
L 1269 4353 
L 1269 3322 
L 2350 3322 
L 2350 2988 
L 1269 2988 
L 1269 878 
Q 1269 456 1350 337 
Q 1431 219 1650 219 
Q 1875 219 1978 351 
Q 2081 484 2088 781 
L 2522 781 
Q 2497 328 2275 118 
Q 2053 -91 1600 -91 
Q 1103 -91 897 129 
Q 691 350 691 878 
L 691 2988 
z
" transform="scale(0.015625)"/>
       <path id="DejaVuSerif-56" d="M 359 184 
L 359 959 
L 691 959 
Q 703 588 923 403 
Q 1144 219 1575 219 
Q 1963 219 2166 364 
Q 2369 509 2369 788 
Q 2369 1006 2220 1140 
Q 2072 1275 1594 1428 
L 1178 1569 
Q 750 1706 558 1912 
Q 366 2119 366 2438 
Q 366 2894 700 3153 
Q 1034 3413 1625 3413 
Q 1888 3413 2178 3344 
Q 2469 3275 2778 3144 
L 2778 2419 
L 2447 2419 
Q 2434 2741 2221 2922 
Q 2009 3103 1644 3103 
Q 1281 3103 1095 2975 
Q 909 2847 909 2591 
Q 909 2381 1050 2254 
Q 1191 2128 1613 1997 
L 2069 1856 
Q 2541 1709 2748 1489 
Q 2956 1269 2956 922 
Q 2956 450 2595 179 
Q 2234 -91 1600 -91 
Q 1278 -91 972 -22 
Q 666 47 359 184 
z
" transform="scale(0.015625)"/>
       <path id="DejaVuSerif-3" transform="scale(0.015625)"/>
       <path id="DejaVuSerif-53" d="M 1313 1825 
L 1313 1497 
Q 1313 897 1542 583 
Q 1772 269 2209 269 
Q 2650 269 2876 622 
Q 3103 975 3103 1663 
Q 3103 2353 2876 2703 
Q 2650 3053 2209 3053 
Q 1772 3053 1542 2737 
Q 1313 2422 1313 1825 
z
M 738 2988 
L 184 2988 
L 184 3322 
L 1313 3322 
L 1313 2803 
Q 1481 3116 1742 3264 
Q 2003 3413 2388 3413 
Q 3000 3413 3387 2928 
Q 3775 2444 3775 1663 
Q 3775 881 3387 395 
Q 3000 -91 2388 -91 
Q 2003 -91 1742 57 
Q 1481 206 1313 519 
L 1313 -997 
L 1856 -997 
L 1856 -1331 
L 184 -1331 
L 184 -997 
L 738 -997 
L 738 2988 
z
" transform="scale(0.015625)"/>
       <path id="DejaVuSerif-55" d="M 3059 3328 
L 3059 2497 
L 2728 2497 
Q 2713 2744 2591 2866 
Q 2469 2988 2234 2988 
Q 1809 2988 1582 2694 
Q 1356 2400 1356 1850 
L 1356 331 
L 2022 331 
L 2022 0 
L 263 0 
L 263 331 
L 781 331 
L 781 2994 
L 231 2994 
L 231 3322 
L 1356 3322 
L 1356 2731 
Q 1525 3078 1790 3245 
Q 2056 3413 2438 3413 
Q 2578 3413 2733 3391 
Q 2888 3369 3059 3328 
z
" transform="scale(0.015625)"/>
       <path id="DejaVuSerif-4c" d="M 622 4353 
Q 622 4497 726 4603 
Q 831 4709 978 4709 
Q 1122 4709 1226 4603 
Q 1331 4497 1331 4353 
Q 1331 4206 1228 4103 
Q 1125 4000 978 4000 
Q 831 4000 726 4103 
Q 622 4206 622 4353 
z
M 1356 331 
L 1900 331 
L 1900 0 
L 231 0 
L 231 331 
L 781 331 
L 781 2988 
L 231 2988 
L 231 3322 
L 1356 3322 
L 1356 331 
z
" transform="scale(0.015625)"/>
       <path id="DejaVuSerif-47" d="M 3359 331 
L 3909 331 
L 3909 0 
L 2784 0 
L 2784 519 
Q 2616 206 2355 57 
Q 2094 -91 1709 -91 
Q 1097 -91 708 395 
Q 319 881 319 1663 
Q 319 2444 706 2928 
Q 1094 3413 1709 3413 
Q 2094 3413 2355 3264 
Q 2616 3116 2784 2803 
L 2784 4531 
L 2241 4531 
L 2241 4863 
L 3359 4863 
L 3359 331 
z
M 2784 1497 
L 2784 1825 
Q 2784 2422 2554 2737 
Q 2325 3053 1888 3053 
Q 1444 3053 1217 2703 
Q 991 2353 991 1663 
Q 991 975 1217 622 
Q 1444 269 1888 269 
Q 2325 269 2554 583 
Q 2784 897 2784 1497 
z
" transform="scale(0.015625)"/>
       <path id="Cmmi10-7a" d="M 494 109 
Q 494 147 500 166 
L 978 2075 
Q 1025 2253 1025 2388 
Q 1025 2663 838 2663 
Q 638 2663 541 2423 
Q 444 2184 353 1819 
Q 353 1800 334 1789 
Q 316 1778 300 1778 
L 225 1778 
Q 203 1778 187 1801 
Q 172 1825 172 1844 
Q 241 2122 305 2315 
Q 369 2509 505 2668 
Q 641 2828 844 2828 
Q 1084 2828 1268 2676 
Q 1453 2525 1453 2291 
Q 1644 2541 1900 2684 
Q 2156 2828 2444 2828 
Q 2672 2828 2837 2750 
Q 3003 2672 3095 2514 
Q 3188 2356 3188 2138 
Q 3188 1875 3070 1503 
Q 2953 1131 2778 672 
Q 2688 463 2688 288 
Q 2688 97 2834 97 
Q 3084 97 3251 365 
Q 3419 634 3488 941 
Q 3500 978 3541 978 
L 3616 978 
Q 3641 978 3658 962 
Q 3675 947 3675 922 
Q 3675 916 3669 903 
Q 3581 541 3364 234 
Q 3147 -72 2822 -72 
Q 2597 -72 2437 83 
Q 2278 238 2278 459 
Q 2278 578 2328 709 
Q 2409 919 2514 1209 
Q 2619 1500 2686 1765 
Q 2753 2031 2753 2234 
Q 2753 2413 2679 2538 
Q 2606 2663 2431 2663 
Q 2197 2663 2000 2559 
Q 1803 2456 1656 2286 
Q 1509 2116 1388 1881 
L 953 141 
Q 931 53 854 -9 
Q 778 -72 684 -72 
Q 606 -72 550 -22 
Q 494 28 494 109 
z
" transform="scale(0.015625)"/>
       <path id="Cmr10-82" d="M 1594 -72 
Q 1203 -72 876 133 
Q 550 338 364 680 
Q 178 1022 178 1403 
Q 178 1778 348 2115 
Q 519 2453 823 2661 
Q 1128 2869 1503 2869 
Q 1797 2869 2014 2770 
Q 2231 2672 2372 2497 
Q 2513 2322 2584 2084 
Q 2656 1847 2656 1563 
Q 2656 1478 2591 1478 
L 738 1478 
L 738 1409 
Q 738 878 952 497 
Q 1166 116 1650 116 
Q 1847 116 2014 203 
Q 2181 291 2304 447 
Q 2428 603 2472 781 
Q 2478 803 2495 820 
Q 2513 838 2534 838 
L 2591 838 
Q 2656 838 2656 756 
Q 2566 394 2266 161 
Q 1966 -72 1594 -72 
z
M 744 1638 
L 2203 1638 
Q 2203 1878 2136 2125 
Q 2069 2372 1912 2536 
Q 1756 2700 1503 2700 
Q 1141 2700 942 2361 
Q 744 2022 744 1638 
z
" transform="scale(0.015625)"/>
       <path id="Cmr10-6a" d="M 197 0 
L 197 225 
Q 416 225 556 259 
Q 697 294 697 428 
L 697 3788 
Q 697 3959 645 4036 
Q 594 4113 497 4130 
Q 400 4147 197 4147 
L 197 4372 
L 1147 4441 
L 1147 428 
Q 1147 294 1287 259 
Q 1428 225 1644 225 
L 1644 0 
L 197 0 
z
" transform="scale(0.015625)"/>
      </defs>
      <use xlink:href="#DejaVuSerif-48" transform="translate(0 0.015625)"/>
      <use xlink:href="#DejaVuSerif-4f" transform="translate(59.179688 0.015625)"/>
      <use xlink:href="#DejaVuSerif-48" transform="translate(91.162109 0.015625)"/>
      <use xlink:href="#DejaVuSerif-50" transform="translate(150.341797 0.015625)"/>
      <use xlink:href="#DejaVuSerif-48" transform="translate(245.166016 0.015625)"/>
      <use xlink:href="#DejaVuSerif-51" transform="translate(304.345703 0.015625)"/>
      <use xlink:href="#DejaVuSerif-57" transform="translate(368.75 0.015625)"/>
      <use xlink:href="#DejaVuSerif-56" transform="translate(408.935547 0.015625)"/>
      <use xlink:href="#DejaVuSerif-3" transform="translate(460.253906 0.015625)"/>
      <use xlink:href="#DejaVuSerif-53" transform="translate(492.041016 0.015625)"/>
      <use xlink:href="#DejaVuSerif-48" transform="translate(556.054688 0.015625)"/>
      <use xlink:href="#DejaVuSerif-55" transform="translate(615.234375 0.015625)"/>
      <use xlink:href="#DejaVuSerif-3" transform="translate(663.037109 0.015625)"/>
      <use xlink:href="#DejaVuSerif-56" transform="translate(694.824219 0.015625)"/>
      <use xlink:href="#DejaVuSerif-4c" transform="translate(746.142578 0.015625)"/>
      <use xlink:href="#DejaVuSerif-47" transform="translate(778.125 0.015625)"/>
      <use xlink:href="#DejaVuSerif-48" transform="translate(842.138672 0.015625)"/>
      <use xlink:href="#DejaVuSerif-3" transform="translate(901.318359 0.015625)"/>
      <use xlink:href="#DejaVuSerif-3" transform="translate(933.105469 0.015625)"/>
      <use xlink:href="#Cmmi10-7a" transform="translate(964.892578 0.015625)"/>
      <use xlink:href="#Cmr10-82" transform="translate(1024.902344 -14.984337) scale(0.7)"/>
      <use xlink:href="#Cmr10-6a" transform="translate(1055.97168 -14.984337) scale(0.7)"/>
     </g>
    </g>
   </g>
   <g id="matplotlib.axis_2">
    <g id="ytick_1">
     <g id="line2d_16">
      <path d="M 79.251563 391.514008 
L 609.171562 391.514008 
" clip-path="url(#pd7348472de)" style="fill: none; stroke-dasharray: 2.775,1.2; stroke-dashoffset: 0; stroke: #b0b0b0; stroke-opacity: 0.4; stroke-width: 0.75"/>
     </g>
     <g id="line2d_17">
      <defs>
       <path id="m282e26385b" d="M 0 0 
L -3.5 0 
" style="stroke: #000000; stroke-width: 0.8"/>
      </defs>
      <g>
       <use xlink:href="#m282e26385b" x="79.251563" y="391.514008" style="stroke: #000000; stroke-width: 0.8"/>
      </g>
     </g>
     <g id="text_9">
      <!-- 0.00 -->
      <g transform="translate(34.4 397.972016) scale(0.17 -0.17)">
       <defs>
        <path id="DejaVuSerif-11" d="M 603 325 
Q 603 500 722 622 
Q 841 744 1019 744 
Q 1191 744 1312 622 
Q 1434 500 1434 325 
Q 1434 153 1312 31 
Q 1191 -91 1019 -91 
Q 841 -91 722 29 
Q 603 150 603 325 
z
" transform="scale(0.015625)"/>
       </defs>
       <use xlink:href="#DejaVuSerif-13"/>
       <use xlink:href="#DejaVuSerif-11" transform="translate(63.625 0)"/>
       <use xlink:href="#DejaVuSerif-13" transform="translate(95.40625 0)"/>
       <use xlink:href="#DejaVuSerif-13" transform="translate(159.03125 0)"/>
      </g>
     </g>
    </g>
    <g id="ytick_2">
     <g id="line2d_18">
      <path d="M 79.251563 344.282008 
L 609.171562 344.282008 
" clip-path="url(#pd7348472de)" style="fill: none; stroke-dasharray: 2.775,1.2; stroke-dashoffset: 0; stroke: #b0b0b0; stroke-opacity: 0.4; stroke-width: 0.75"/>
     </g>
     <g id="line2d_19">
      <g>
       <use xlink:href="#m282e26385b" x="79.251563" y="344.282008" style="stroke: #000000; stroke-width: 0.8"/>
      </g>
     </g>
     <g id="text_10">
      <!-- 0.25 -->
      <g transform="translate(34.4 350.740016) scale(0.17 -0.17)">
       <use xlink:href="#DejaVuSerif-13"/>
       <use xlink:href="#DejaVuSerif-11" transform="translate(63.625 0)"/>
       <use xlink:href="#DejaVuSerif-15" transform="translate(95.40625 0)"/>
       <use xlink:href="#DejaVuSerif-18" transform="translate(159.03125 0)"/>
      </g>
     </g>
    </g>
    <g id="ytick_3">
     <g id="line2d_20">
      <path d="M 79.251563 297.050008 
L 609.171562 297.050008 
" clip-path="url(#pd7348472de)" style="fill: none; stroke-dasharray: 2.775,1.2; stroke-dashoffset: 0; stroke: #b0b0b0; stroke-opacity: 0.4; stroke-width: 0.75"/>
     </g>
     <g id="line2d_21">
      <g>
       <use xlink:href="#m282e26385b" x="79.251563" y="297.050008" style="stroke: #000000; stroke-width: 0.8"/>
      </g>
     </g>
     <g id="text_11">
      <!-- 0.50 -->
      <g transform="translate(34.4 303.508016) scale(0.17 -0.17)">
       <use xlink:href="#DejaVuSerif-13"/>
       <use xlink:href="#DejaVuSerif-11" transform="translate(63.625 0)"/>
       <use xlink:href="#DejaVuSerif-18" transform="translate(95.40625 0)"/>
       <use xlink:href="#DejaVuSerif-13" transform="translate(159.03125 0)"/>
      </g>
     </g>
    </g>
    <g id="ytick_4">
     <g id="line2d_22">
      <path d="M 79.251563 249.818008 
L 609.171562 249.818008 
" clip-path="url(#pd7348472de)" style="fill: none; stroke-dasharray: 2.775,1.2; stroke-dashoffset: 0; stroke: #b0b0b0; stroke-opacity: 0.4; stroke-width: 0.75"/>
     </g>
     <g id="line2d_23">
      <g>
       <use xlink:href="#m282e26385b" x="79.251563" y="249.818008" style="stroke: #000000; stroke-width: 0.8"/>
      </g>
     </g>
     <g id="text_12">
      <!-- 0.75 -->
      <g transform="translate(34.4 256.276016) scale(0.17 -0.17)">
       <defs>
        <path id="DejaVuSerif-1a" d="M 3609 4347 
L 1784 0 
L 1319 0 
L 3059 4153 
L 903 4153 
L 903 3578 
L 538 3578 
L 538 4666 
L 3609 4666 
L 3609 4347 
z
" transform="scale(0.015625)"/>
       </defs>
       <use xlink:href="#DejaVuSerif-13"/>
       <use xlink:href="#DejaVuSerif-11" transform="translate(63.625 0)"/>
       <use xlink:href="#DejaVuSerif-1a" transform="translate(95.40625 0)"/>
       <use xlink:href="#DejaVuSerif-18" transform="translate(159.03125 0)"/>
      </g>
     </g>
    </g>
    <g id="ytick_5">
     <g id="line2d_24">
      <path d="M 79.251563 202.586008 
L 609.171562 202.586008 
" clip-path="url(#pd7348472de)" style="fill: none; stroke-dasharray: 2.775,1.2; stroke-dashoffset: 0; stroke: #b0b0b0; stroke-opacity: 0.4; stroke-width: 0.75"/>
     </g>
     <g id="line2d_25">
      <g>
       <use xlink:href="#m282e26385b" x="79.251563" y="202.586008" style="stroke: #000000; stroke-width: 0.8"/>
      </g>
     </g>
     <g id="text_13">
      <!-- 1.00 -->
      <g transform="translate(34.4 209.044016) scale(0.17 -0.17)">
       <use xlink:href="#DejaVuSerif-14"/>
       <use xlink:href="#DejaVuSerif-11" transform="translate(63.625 0)"/>
       <use xlink:href="#DejaVuSerif-13" transform="translate(95.40625 0)"/>
       <use xlink:href="#DejaVuSerif-13" transform="translate(159.03125 0)"/>
      </g>
     </g>
    </g>
    <g id="ytick_6">
     <g id="line2d_26">
      <path d="M 79.251563 155.354008 
L 609.171562 155.354008 
" clip-path="url(#pd7348472de)" style="fill: none; stroke-dasharray: 2.775,1.2; stroke-dashoffset: 0; stroke: #b0b0b0; stroke-opacity: 0.4; stroke-width: 0.75"/>
     </g>
     <g id="line2d_27">
      <g>
       <use xlink:href="#m282e26385b" x="79.251563" y="155.354008" style="stroke: #000000; stroke-width: 0.8"/>
      </g>
     </g>
     <g id="text_14">
      <!-- 1.25 -->
      <g transform="translate(34.4 161.812016) scale(0.17 -0.17)">
       <use xlink:href="#DejaVuSerif-14"/>
       <use xlink:href="#DejaVuSerif-11" transform="translate(63.625 0)"/>
       <use xlink:href="#DejaVuSerif-15" transform="translate(95.40625 0)"/>
       <use xlink:href="#DejaVuSerif-18" transform="translate(159.03125 0)"/>
      </g>
     </g>
    </g>
    <g id="ytick_7">
     <g id="line2d_28">
      <path d="M 79.251563 108.122008 
L 609.171562 108.122008 
" clip-path="url(#pd7348472de)" style="fill: none; stroke-dasharray: 2.775,1.2; stroke-dashoffset: 0; stroke: #b0b0b0; stroke-opacity: 0.4; stroke-width: 0.75"/>
     </g>
     <g id="line2d_29">
      <g>
       <use xlink:href="#m282e26385b" x="79.251563" y="108.122008" style="stroke: #000000; stroke-width: 0.8"/>
      </g>
     </g>
     <g id="text_15">
      <!-- 1.50 -->
      <g transform="translate(34.4 114.580016) scale(0.17 -0.17)">
       <use xlink:href="#DejaVuSerif-14"/>
       <use xlink:href="#DejaVuSerif-11" transform="translate(63.625 0)"/>
       <use xlink:href="#DejaVuSerif-18" transform="translate(95.40625 0)"/>
       <use xlink:href="#DejaVuSerif-13" transform="translate(159.03125 0)"/>
      </g>
     </g>
    </g>
    <g id="ytick_8">
     <g id="line2d_30">
      <path d="M 79.251563 60.890008 
L 609.171562 60.890008 
" clip-path="url(#pd7348472de)" style="fill: none; stroke-dasharray: 2.775,1.2; stroke-dashoffset: 0; stroke: #b0b0b0; stroke-opacity: 0.4; stroke-width: 0.75"/>
     </g>
     <g id="line2d_31">
      <g>
       <use xlink:href="#m282e26385b" x="79.251563" y="60.890008" style="stroke: #000000; stroke-width: 0.8"/>
      </g>
     </g>
     <g id="text_16">
      <!-- 1.75 -->
      <g transform="translate(34.4 67.348016) scale(0.17 -0.17)">
       <use xlink:href="#DejaVuSerif-14"/>
       <use xlink:href="#DejaVuSerif-11" transform="translate(63.625 0)"/>
       <use xlink:href="#DejaVuSerif-1a" transform="translate(95.40625 0)"/>
       <use xlink:href="#DejaVuSerif-18" transform="translate(159.03125 0)"/>
      </g>
     </g>
    </g>
    <g id="ytick_9">
     <g id="line2d_32">
      <path d="M 79.251563 13.658008 
L 609.171562 13.658008 
" clip-path="url(#pd7348472de)" style="fill: none; stroke-dasharray: 2.775,1.2; stroke-dashoffset: 0; stroke: #b0b0b0; stroke-opacity: 0.4; stroke-width: 0.75"/>
     </g>
     <g id="line2d_33">
      <g>
       <use xlink:href="#m282e26385b" x="79.251563" y="13.658008" style="stroke: #000000; stroke-width: 0.8"/>
      </g>
     </g>
     <g id="text_17">
      <!-- 2.00 -->
      <g transform="translate(34.4 20.116016) scale(0.17 -0.17)">
       <use xlink:href="#DejaVuSerif-15"/>
       <use xlink:href="#DejaVuSerif-11" transform="translate(63.625 0)"/>
       <use xlink:href="#DejaVuSerif-13" transform="translate(95.40625 0)"/>
       <use xlink:href="#DejaVuSerif-13" transform="translate(159.03125 0)"/>
      </g>
     </g>
    </g>
    <g id="text_18">
     <!-- normalized deflection  $|w^{h}|/|w^{\mathrm{ref}}|$ -->
     <g transform="translate(25.4 365.086008) rotate(-90) scale(0.2 -0.2)">
      <defs>
       <path id="DejaVuSerif-52" d="M 1925 219 
Q 2388 219 2623 584 
Q 2859 950 2859 1663 
Q 2859 2375 2623 2739 
Q 2388 3103 1925 3103 
Q 1463 3103 1227 2739 
Q 991 2375 991 1663 
Q 991 950 1228 584 
Q 1466 219 1925 219 
z
M 1925 -91 
Q 1200 -91 759 389 
Q 319 869 319 1663 
Q 319 2456 758 2934 
Q 1197 3413 1925 3413 
Q 2653 3413 3092 2934 
Q 3531 2456 3531 1663 
Q 3531 869 3092 389 
Q 2653 -91 1925 -91 
z
" transform="scale(0.015625)"/>
       <path id="DejaVuSerif-44" d="M 2547 1044 
L 2547 1747 
L 1806 1747 
Q 1378 1747 1168 1562 
Q 959 1378 959 997 
Q 959 650 1171 447 
Q 1384 244 1747 244 
Q 2106 244 2326 466 
Q 2547 688 2547 1044 
z
M 3122 2075 
L 3122 331 
L 3634 331 
L 3634 0 
L 2547 0 
L 2547 359 
Q 2356 128 2106 18 
Q 1856 -91 1522 -91 
Q 969 -91 644 203 
Q 319 497 319 997 
Q 319 1513 691 1797 
Q 1063 2081 1741 2081 
L 2547 2081 
L 2547 2309 
Q 2547 2688 2317 2895 
Q 2088 3103 1672 3103 
Q 1328 3103 1125 2947 
Q 922 2791 872 2484 
L 575 2484 
L 575 3156 
Q 875 3284 1158 3348 
Q 1441 3413 1709 3413 
Q 2400 3413 2761 3070 
Q 3122 2728 3122 2075 
z
" transform="scale(0.015625)"/>
       <path id="DejaVuSerif-5d" d="M 256 0 
L 256 269 
L 2338 2988 
L 691 2988 
L 691 2413 
L 359 2413 
L 359 3322 
L 3078 3322 
L 3078 3053 
L 997 331 
L 2803 331 
L 2803 934 
L 3138 934 
L 3138 0 
L 256 0 
z
" transform="scale(0.015625)"/>
       <path id="DejaVuSerif-49" d="M 2753 4078 
L 2450 4078 
Q 2447 4313 2317 4434 
Q 2188 4556 1941 4556 
Q 1619 4556 1487 4379 
Q 1356 4203 1356 3750 
L 1356 3322 
L 2284 3322 
L 2284 2988 
L 1356 2988 
L 1356 331 
L 2094 331 
L 2094 0 
L 231 0 
L 231 331 
L 781 331 
L 781 2988 
L 231 2988 
L 231 3322 
L 781 3322 
L 781 3738 
Q 781 4294 1070 4578 
Q 1359 4863 1919 4863 
Q 2128 4863 2337 4825 
Q 2547 4788 2753 4709 
L 2753 4078 
z
" transform="scale(0.015625)"/>
       <path id="DejaVuSerif-46" d="M 3291 997 
Q 3169 466 2822 187 
Q 2475 -91 1925 -91 
Q 1200 -91 759 389 
Q 319 869 319 1663 
Q 319 2459 759 2936 
Q 1200 3413 1925 3413 
Q 2241 3413 2553 3339 
Q 2866 3266 3181 3116 
L 3181 2266 
L 2847 2266 
Q 2781 2703 2561 2903 
Q 2341 3103 1931 3103 
Q 1466 3103 1228 2742 
Q 991 2381 991 1663 
Q 991 944 1227 581 
Q 1463 219 1931 219 
Q 2303 219 2525 412 
Q 2747 606 2828 997 
L 3291 997 
z
" transform="scale(0.015625)"/>
       <path id="Cmsy10-2f" d="M 763 -1484 
L 763 4684 
Q 763 4734 800 4767 
Q 838 4800 891 4800 
Q 938 4800 978 4767 
Q 1019 4734 1019 4684 
L 1019 -1484 
Q 1019 -1534 978 -1567 
Q 938 -1600 891 -1600 
Q 838 -1600 800 -1567 
Q 763 -1534 763 -1484 
z
" transform="scale(0.015625)"/>
       <path id="Cmmi10-6a" d="M 691 744 
Q 691 878 727 1053 
Q 763 1228 806 1364 
Q 850 1500 954 1781 
Q 1059 2063 1069 2088 
Q 1153 2322 1153 2472 
Q 1153 2663 1013 2663 
Q 759 2663 595 2402 
Q 431 2141 353 1819 
Q 341 1778 300 1778 
L 225 1778 
Q 172 1778 172 1838 
L 172 1856 
Q 275 2238 487 2533 
Q 700 2828 1025 2828 
Q 1253 2828 1411 2678 
Q 1569 2528 1569 2297 
Q 1569 2178 1516 2047 
Q 1441 1853 1339 1581 
Q 1238 1309 1181 1087 
Q 1125 866 1125 659 
Q 1125 409 1256 253 
Q 1388 97 1638 97 
Q 1978 97 2203 616 
Q 2194 653 2194 722 
Q 2194 894 2247 1113 
L 2606 2553 
Q 2628 2638 2706 2698 
Q 2784 2759 2875 2759 
Q 2950 2759 3008 2709 
Q 3066 2659 3066 2578 
Q 3066 2541 3059 2528 
L 2700 1100 
Q 2638 844 2638 641 
Q 2638 400 2748 248 
Q 2859 97 3097 97 
Q 3509 97 3775 641 
Q 3875 834 3998 1212 
Q 4122 1591 4122 1791 
Q 4122 1975 4062 2083 
Q 4003 2191 3898 2316 
Q 3794 2441 3794 2503 
Q 3794 2625 3898 2729 
Q 4003 2834 4128 2834 
Q 4281 2834 4348 2693 
Q 4416 2553 4416 2375 
Q 4416 2159 4344 1826 
Q 4272 1494 4162 1158 
Q 4053 822 3956 622 
Q 3606 -72 3084 -72 
Q 2816 -72 2594 31 
Q 2372 134 2266 359 
Q 2163 175 1995 51 
Q 1828 -72 1625 -72 
Q 1203 -72 947 129 
Q 691 331 691 744 
z
" transform="scale(0.015625)"/>
       <path id="Cmmi10-5f" d="M 341 116 
Q 341 153 347 172 
L 1275 3872 
Q 1300 3981 1306 4044 
Q 1306 4147 891 4147 
Q 825 4147 825 4231 
Q 828 4247 839 4287 
Q 850 4328 867 4350 
Q 884 4372 916 4372 
L 1778 4441 
L 1797 4441 
Q 1797 4434 1819 4423 
Q 1841 4413 1844 4409 
Q 1856 4378 1856 4359 
L 1356 2363 
Q 1750 2828 2291 2828 
Q 2516 2828 2680 2750 
Q 2844 2672 2936 2514 
Q 3028 2356 3028 2138 
Q 3028 1875 2911 1503 
Q 2794 1131 2619 672 
Q 2528 463 2528 288 
Q 2528 97 2675 97 
Q 2925 97 3092 364 
Q 3259 631 3328 941 
Q 3341 978 3378 978 
L 3456 978 
Q 3481 978 3497 961 
Q 3513 944 3513 922 
Q 3513 916 3506 903 
Q 3450 672 3339 448 
Q 3228 225 3059 76 
Q 2891 -72 2663 -72 
Q 2438 -72 2278 83 
Q 2119 238 2119 459 
Q 2119 578 2169 709 
Q 2350 1191 2470 1569 
Q 2591 1947 2591 2234 
Q 2591 2419 2519 2541 
Q 2447 2663 2278 2663 
Q 1934 2663 1678 2452 
Q 1422 2241 1234 1894 
L 800 147 
Q 775 50 703 -11 
Q 631 -72 538 -72 
Q 456 -72 398 -17 
Q 341 38 341 116 
z
" transform="scale(0.015625)"/>
       <path id="Cmmi10-62" d="M 359 -1472 
Q 359 -1453 366 -1447 
L 2591 4722 
Q 2603 4759 2634 4779 
Q 2666 4800 2706 4800 
Q 2763 4800 2798 4765 
Q 2834 4731 2834 4672 
L 2834 4647 
L 609 -1522 
Q 572 -1600 488 -1600 
Q 434 -1600 396 -1562 
Q 359 -1525 359 -1472 
z
" transform="scale(0.015625)"/>
       <path id="Cmr10-84" d="M 166 0 
L 166 225 
Q 384 225 525 259 
Q 666 294 666 428 
L 666 2175 
Q 666 2347 614 2423 
Q 563 2500 466 2517 
Q 369 2534 166 2534 
L 166 2759 
L 1081 2828 
L 1081 2203 
Q 1184 2481 1375 2654 
Q 1566 2828 1838 2828 
Q 2028 2828 2178 2715 
Q 2328 2603 2328 2419 
Q 2328 2303 2245 2217 
Q 2163 2131 2041 2131 
Q 1922 2131 1837 2215 
Q 1753 2300 1753 2419 
Q 1753 2591 1875 2663 
L 1838 2663 
Q 1578 2663 1414 2475 
Q 1250 2288 1181 2009 
Q 1113 1731 1113 1478 
L 1113 428 
Q 1113 225 1734 225 
L 1734 0 
L 166 0 
z
" transform="scale(0.015625)"/>
       <path id="Cmr10-50" d="M 206 0 
L 206 225 
Q 422 225 562 259 
Q 703 294 703 428 
L 703 2534 
L 213 2534 
L 213 2759 
L 703 2759 
L 703 3525 
Q 703 3731 789 3911 
Q 875 4091 1020 4225 
Q 1166 4359 1355 4436 
Q 1544 4513 1747 4513 
Q 1963 4513 2136 4384 
Q 2309 4256 2309 4044 
Q 2309 3922 2226 3839 
Q 2144 3756 2022 3756 
Q 1900 3756 1814 3839 
Q 1728 3922 1728 4044 
Q 1728 4244 1900 4313 
Q 1797 4347 1716 4347 
Q 1528 4347 1395 4214 
Q 1263 4081 1197 3890 
Q 1131 3700 1131 3513 
L 1131 2759 
L 1869 2759 
L 1869 2534 
L 1153 2534 
L 1153 428 
Q 1153 297 1340 261 
Q 1528 225 1772 225 
L 1772 0 
L 206 0 
z
" transform="scale(0.015625)"/>
      </defs>
      <use xlink:href="#DejaVuSerif-51" transform="translate(0 0.349828)"/>
      <use xlink:href="#DejaVuSerif-52" transform="translate(64.404297 0.349828)"/>
      <use xlink:href="#DejaVuSerif-55" transform="translate(124.609375 0.349828)"/>
      <use xlink:href="#DejaVuSerif-50" transform="translate(172.412109 0.349828)"/>
      <use xlink:href="#DejaVuSerif-44" transform="translate(267.236328 0.349828)"/>
      <use xlink:href="#DejaVuSerif-4f" transform="translate(326.855469 0.349828)"/>
      <use xlink:href="#DejaVuSerif-4c" transform="translate(358.837891 0.349828)"/>
      <use xlink:href="#DejaVuSerif-5d" transform="translate(390.820312 0.349828)"/>
      <use xlink:href="#DejaVuSerif-48" transform="translate(443.505859 0.349828)"/>
      <use xlink:href="#DejaVuSerif-47" transform="translate(502.685547 0.349828)"/>
      <use xlink:href="#DejaVuSerif-3" transform="translate(566.699219 0.349828)"/>
      <use xlink:href="#DejaVuSerif-47" transform="translate(598.486328 0.349828)"/>
      <use xlink:href="#DejaVuSerif-48" transform="translate(662.5 0.349828)"/>
      <use xlink:href="#DejaVuSerif-49" transform="translate(721.679688 0.349828)"/>
      <use xlink:href="#DejaVuSerif-4f" transform="translate(758.691406 0.349828)"/>
      <use xlink:href="#DejaVuSerif-48" transform="translate(790.673828 0.349828)"/>
      <use xlink:href="#DejaVuSerif-46" transform="translate(849.853516 0.349828)"/>
      <use xlink:href="#DejaVuSerif-57" transform="translate(905.859375 0.349828)"/>
      <use xlink:href="#DejaVuSerif-4c" transform="translate(946.044922 0.349828)"/>
      <use xlink:href="#DejaVuSerif-52" transform="translate(978.027344 0.349828)"/>
      <use xlink:href="#DejaVuSerif-51" transform="translate(1038.232422 0.349828)"/>
      <use xlink:href="#DejaVuSerif-3" transform="translate(1102.636719 0.349828)"/>
      <use xlink:href="#DejaVuSerif-3" transform="translate(1134.423828 0.349828)"/>
      <use xlink:href="#Cmsy10-2f" transform="translate(1166.210938 0.349828)"/>
      <use xlink:href="#Cmmi10-6a" transform="translate(1193.896484 0.349828)"/>
      <use xlink:href="#Cmmi10-5f" transform="translate(1276.660729 41.639062) scale(0.7)"/>
      <use xlink:href="#Cmsy10-2f" transform="translate(1322.713175 0.349828)"/>
      <use xlink:href="#Cmmi10-62" transform="translate(1350.398722 0.349828)"/>
      <use xlink:href="#Cmsy10-2f" transform="translate(1400.398722 0.349828)"/>
      <use xlink:href="#Cmmi10-6a" transform="translate(1428.084269 0.349828)"/>
      <use xlink:href="#Cmr10-84" transform="translate(1510.848514 41.639062) scale(0.7)"/>
      <use xlink:href="#Cmr10-82" transform="translate(1538.226443 41.639062) scale(0.7)"/>
      <use xlink:href="#Cmr10-50" transform="translate(1569.295779 41.639062) scale(0.7)"/>
      <use xlink:href="#Cmsy10-2f" transform="translate(1596.378499 0.349828)"/>
     </g>
    </g>
   </g>
   <g id="line2d_34">
    <path d="M 103.338835 377.52187 
L 118.879011 344.508068 
L 149.959363 254.798062 
L 181.039715 220.671678 
L 212.120067 210.75855 
L 274.280771 205.659768 
L 336.441475 204.298767 
L 398.602178 203.733503 
L 460.762882 203.439999 
L 585.08429 203.152642 
" clip-path="url(#pd7348472de)" style="fill: none; stroke: #006400; stroke-width: 1.2; stroke-linecap: square"/>
    <defs>
     <path id="m0321c065bb" d="M -3 3 
L 3 3 
L 3 -3 
L -3 -3 
z
" style="stroke: #006400; stroke-width: 1.1; stroke-linejoin: miter"/>
    </defs>
    <g clip-path="url(#pd7348472de)">
     <use xlink:href="#m0321c065bb" x="103.338835" y="377.52187" style="fill-opacity: 0; stroke: #006400; stroke-width: 1.1; stroke-linejoin: miter"/>
     <use xlink:href="#m0321c065bb" x="118.879011" y="344.508068" style="fill-opacity: 0; stroke: #006400; stroke-width: 1.1; stroke-linejoin: miter"/>
     <use xlink:href="#m0321c065bb" x="149.959363" y="254.798062" style="fill-opacity: 0; stroke: #006400; stroke-width: 1.1; stroke-linejoin: miter"/>
     <use xlink:href="#m0321c065bb" x="181.039715" y="220.671678" style="fill-opacity: 0; stroke: #006400; stroke-width: 1.1; stroke-linejoin: miter"/>
     <use xlink:href="#m0321c065bb" x="212.120067" y="210.75855" style="fill-opacity: 0; stroke: #006400; stroke-width: 1.1; stroke-linejoin: miter"/>
     <use xlink:href="#m0321c065bb" x="274.280771" y="205.659768" style="fill-opacity: 0; stroke: #006400; stroke-width: 1.1; stroke-linejoin: miter"/>
     <use xlink:href="#m0321c065bb" x="336.441475" y="204.298767" style="fill-opacity: 0; stroke: #006400; stroke-width: 1.1; stroke-linejoin: miter"/>
     <use xlink:href="#m0321c065bb" x="398.602178" y="203.733503" style="fill-opacity: 0; stroke: #006400; stroke-width: 1.1; stroke-linejoin: miter"/>
     <use xlink:href="#m0321c065bb" x="460.762882" y="203.439999" style="fill-opacity: 0; stroke: #006400; stroke-width: 1.1; stroke-linejoin: miter"/>
     <use xlink:href="#m0321c065bb" x="585.08429" y="203.152642" style="fill-opacity: 0; stroke: #006400; stroke-width: 1.1; stroke-linejoin: miter"/>
    </g>
   </g>
   <g id="line2d_35">
    <path d="M 103.338835 390.49901 
L 118.879011 389.195437 
L 149.959363 374.077933 
L 181.039715 330.752285 
L 212.120067 281.844727 
L 274.280771 228.831908 
L 336.441475 213.398065 
L 398.602178 208.04549 
L 460.762882 205.784177 
L 585.08429 204.080489 
" clip-path="url(#pd7348472de)" style="fill: none; stroke: #000000; stroke-width: 1.2; stroke-linecap: square"/>
    <defs>
     <path id="m72d1ec0773" d="M -3 3 
L 3 3 
L 3 -3 
L -3 -3 
z
" style="stroke: #000000; stroke-width: 1.1; stroke-linejoin: miter"/>
    </defs>
    <g clip-path="url(#pd7348472de)">
     <use xlink:href="#m72d1ec0773" x="103.338835" y="390.49901" style="fill-opacity: 0; stroke: #000000; stroke-width: 1.1; stroke-linejoin: miter"/>
     <use xlink:href="#m72d1ec0773" x="118.879011" y="389.195437" style="fill-opacity: 0; stroke: #000000; stroke-width: 1.1; stroke-linejoin: miter"/>
     <use xlink:href="#m72d1ec0773" x="149.959363" y="374.077933" style="fill-opacity: 0; stroke: #000000; stroke-width: 1.1; stroke-linejoin: miter"/>
     <use xlink:href="#m72d1ec0773" x="181.039715" y="330.752285" style="fill-opacity: 0; stroke: #000000; stroke-width: 1.1; stroke-linejoin: miter"/>
     <use xlink:href="#m72d1ec0773" x="212.120067" y="281.844727" style="fill-opacity: 0; stroke: #000000; stroke-width: 1.1; stroke-linejoin: miter"/>
     <use xlink:href="#m72d1ec0773" x="274.280771" y="228.831908" style="fill-opacity: 0; stroke: #000000; stroke-width: 1.1; stroke-linejoin: miter"/>
     <use xlink:href="#m72d1ec0773" x="336.441475" y="213.398065" style="fill-opacity: 0; stroke: #000000; stroke-width: 1.1; stroke-linejoin: miter"/>
     <use xlink:href="#m72d1ec0773" x="398.602178" y="208.04549" style="fill-opacity: 0; stroke: #000000; stroke-width: 1.1; stroke-linejoin: miter"/>
     <use xlink:href="#m72d1ec0773" x="460.762882" y="205.784177" style="fill-opacity: 0; stroke: #000000; stroke-width: 1.1; stroke-linejoin: miter"/>
     <use xlink:href="#m72d1ec0773" x="585.08429" y="204.080489" style="fill-opacity: 0; stroke: #000000; stroke-width: 1.1; stroke-linejoin: miter"/>
    </g>
   </g>
   <g id="line2d_36">
    <path d="M 103.338835 391.499449 
L 118.879011 391.472076 
L 149.959363 391.126621 
L 181.039715 389.200412 
L 212.120067 382.836711 
L 274.280771 349.217425 
L 336.441475 301.678635 
L 398.602178 262.932212 
L 460.762882 239.183851 
L 585.08429 217.928 
" clip-path="url(#pd7348472de)" style="fill: none; stroke: #8b0000; stroke-width: 1.2; stroke-linecap: square"/>
    <defs>
     <path id="m3ec0ce2cdb" d="M -3 3 
L 3 3 
L 3 -3 
L -3 -3 
z
" style="stroke: #8b0000; stroke-width: 1.1; stroke-linejoin: miter"/>
    </defs>
    <g clip-path="url(#pd7348472de)">
     <use xlink:href="#m3ec0ce2cdb" x="103.338835" y="391.499449" style="fill-opacity: 0; stroke: #8b0000; stroke-width: 1.1; stroke-linejoin: miter"/>
     <use xlink:href="#m3ec0ce2cdb" x="118.879011" y="391.472076" style="fill-opacity: 0; stroke: #8b0000; stroke-width: 1.1; stroke-linejoin: miter"/>
     <use xlink:href="#m3ec0ce2cdb" x="149.959363" y="391.126621" style="fill-opacity: 0; stroke: #8b0000; stroke-width: 1.1; stroke-linejoin: miter"/>
     <use xlink:href="#m3ec0ce2cdb" x="181.039715" y="389.200412" style="fill-opacity: 0; stroke: #8b0000; stroke-width: 1.1; stroke-linejoin: miter"/>
     <use xlink:href="#m3ec0ce2cdb" x="212.120067" y="382.836711" style="fill-opacity: 0; stroke: #8b0000; stroke-width: 1.1; stroke-linejoin: miter"/>
     <use xlink:href="#m3ec0ce2cdb" x="274.280771" y="349.217425" style="fill-opacity: 0; stroke: #8b0000; stroke-width: 1.1; stroke-linejoin: miter"/>
     <use xlink:href="#m3ec0ce2cdb" x="336.441475" y="301.678635" style="fill-opacity: 0; stroke: #8b0000; stroke-width: 1.1; stroke-linejoin: miter"/>
     <use xlink:href="#m3ec0ce2cdb" x="398.602178" y="262.932212" style="fill-opacity: 0; stroke: #8b0000; stroke-width: 1.1; stroke-linejoin: miter"/>
     <use xlink:href="#m3ec0ce2cdb" x="460.762882" y="239.183851" style="fill-opacity: 0; stroke: #8b0000; stroke-width: 1.1; stroke-linejoin: miter"/>
     <use xlink:href="#m3ec0ce2cdb" x="585.08429" y="217.928" style="fill-opacity: 0; stroke: #8b0000; stroke-width: 1.1; stroke-linejoin: miter"/>
    </g>
   </g>
   <g id="line2d_37">
    <path d="M 103.338835 356.526416 
L 118.879011 287.779614 
L 149.959363 229.548317 
L 181.039715 213.254031 
L 212.120067 208.431129 
L 274.280771 205.243875 
L 336.441475 204.156758 
L 398.602178 203.65952 
L 460.762882 203.391064 
L 585.08429 203.123114 
" clip-path="url(#pd7348472de)" style="fill: none; stroke-dasharray: 4.44,1.92; stroke-dashoffset: 0; stroke: #006400; stroke-width: 1.2"/>
    <g clip-path="url(#pd7348472de)">
     <use xlink:href="#m0321c065bb" x="103.338835" y="356.526416" style="fill-opacity: 0; stroke: #006400; stroke-width: 1.1; stroke-linejoin: miter"/>
     <use xlink:href="#m0321c065bb" x="118.879011" y="287.779614" style="fill-opacity: 0; stroke: #006400; stroke-width: 1.1; stroke-linejoin: miter"/>
     <use xlink:href="#m0321c065bb" x="149.959363" y="229.548317" style="fill-opacity: 0; stroke: #006400; stroke-width: 1.1; stroke-linejoin: miter"/>
     <use xlink:href="#m0321c065bb" x="181.039715" y="213.254031" style="fill-opacity: 0; stroke: #006400; stroke-width: 1.1; stroke-linejoin: miter"/>
     <use xlink:href="#m0321c065bb" x="212.120067" y="208.431129" style="fill-opacity: 0; stroke: #006400; stroke-width: 1.1; stroke-linejoin: miter"/>
     <use xlink:href="#m0321c065bb" x="274.280771" y="205.243875" style="fill-opacity: 0; stroke: #006400; stroke-width: 1.1; stroke-linejoin: miter"/>
     <use xlink:href="#m0321c065bb" x="336.441475" y="204.156758" style="fill-opacity: 0; stroke: #006400; stroke-width: 1.1; stroke-linejoin: miter"/>
     <use xlink:href="#m0321c065bb" x="398.602178" y="203.65952" style="fill-opacity: 0; stroke: #006400; stroke-width: 1.1; stroke-linejoin: miter"/>
     <use xlink:href="#m0321c065bb" x="460.762882" y="203.391064" style="fill-opacity: 0; stroke: #006400; stroke-width: 1.1; stroke-linejoin: miter"/>
     <use xlink:href="#m0321c065bb" x="585.08429" y="203.123114" style="fill-opacity: 0; stroke: #006400; stroke-width: 1.1; stroke-linejoin: miter"/>
    </g>
   </g>
   <g id="line2d_38">
    <path d="M 103.338835 389.709611 
L 118.879011 359.034329 
L 149.959363 292.045077 
L 181.039715 250.798809 
L 212.120067 228.140275 
L 274.280771 212.796063 
L 336.441475 207.831875 
L 398.602178 205.75931 
L 460.762882 204.733954 
L 585.08429 203.782815 
" clip-path="url(#pd7348472de)" style="fill: none; stroke-dasharray: 4.44,1.92; stroke-dashoffset: 0; stroke: #000000; stroke-width: 1.2"/>
    <g clip-path="url(#pd7348472de)">
     <use xlink:href="#m72d1ec0773" x="103.338835" y="389.709611" style="fill-opacity: 0; stroke: #000000; stroke-width: 1.1; stroke-linejoin: miter"/>
     <use xlink:href="#m72d1ec0773" x="118.879011" y="359.034329" style="fill-opacity: 0; stroke: #000000; stroke-width: 1.1; stroke-linejoin: miter"/>
     <use xlink:href="#m72d1ec0773" x="149.959363" y="292.045077" style="fill-opacity: 0; stroke: #000000; stroke-width: 1.1; stroke-linejoin: miter"/>
     <use xlink:href="#m72d1ec0773" x="181.039715" y="250.798809" style="fill-opacity: 0; stroke: #000000; stroke-width: 1.1; stroke-linejoin: miter"/>
     <use xlink:href="#m72d1ec0773" x="212.120067" y="228.140275" style="fill-opacity: 0; stroke: #000000; stroke-width: 1.1; stroke-linejoin: miter"/>
     <use xlink:href="#m72d1ec0773" x="274.280771" y="212.796063" style="fill-opacity: 0; stroke: #000000; stroke-width: 1.1; stroke-linejoin: miter"/>
     <use xlink:href="#m72d1ec0773" x="336.441475" y="207.831875" style="fill-opacity: 0; stroke: #000000; stroke-width: 1.1; stroke-linejoin: miter"/>
     <use xlink:href="#m72d1ec0773" x="398.602178" y="205.75931" style="fill-opacity: 0; stroke: #000000; stroke-width: 1.1; stroke-linejoin: miter"/>
     <use xlink:href="#m72d1ec0773" x="460.762882" y="204.733954" style="fill-opacity: 0; stroke: #000000; stroke-width: 1.1; stroke-linejoin: miter"/>
     <use xlink:href="#m72d1ec0773" x="585.08429" y="203.782815" style="fill-opacity: 0; stroke: #000000; stroke-width: 1.1; stroke-linejoin: miter"/>
    </g>
   </g>
   <g id="line2d_39">
    <path d="M 103.338835 391.476702 
L 118.879011 384.698371 
L 149.959363 353.495523 
L 181.039715 305.720577 
L 212.120067 272.77472 
L 274.280771 239.311819 
L 336.441475 224.332273 
L 398.602178 216.451856 
L 460.762882 212.118643 
L 585.08429 207.723752 
" clip-path="url(#pd7348472de)" style="fill: none; stroke-dasharray: 4.44,1.92; stroke-dashoffset: 0; stroke: #8b0000; stroke-width: 1.2"/>
    <g clip-path="url(#pd7348472de)">
     <use xlink:href="#m3ec0ce2cdb" x="103.338835" y="391.476702" style="fill-opacity: 0; stroke: #8b0000; stroke-width: 1.1; stroke-linejoin: miter"/>
     <use xlink:href="#m3ec0ce2cdb" x="118.879011" y="384.698371" style="fill-opacity: 0; stroke: #8b0000; stroke-width: 1.1; stroke-linejoin: miter"/>
     <use xlink:href="#m3ec0ce2cdb" x="149.959363" y="353.495523" style="fill-opacity: 0; stroke: #8b0000; stroke-width: 1.1; stroke-linejoin: miter"/>
     <use xlink:href="#m3ec0ce2cdb" x="181.039715" y="305.720577" style="fill-opacity: 0; stroke: #8b0000; stroke-width: 1.1; stroke-linejoin: miter"/>
     <use xlink:href="#m3ec0ce2cdb" x="212.120067" y="272.77472" style="fill-opacity: 0; stroke: #8b0000; stroke-width: 1.1; stroke-linejoin: miter"/>
     <use xlink:href="#m3ec0ce2cdb" x="274.280771" y="239.311819" style="fill-opacity: 0; stroke: #8b0000; stroke-width: 1.1; stroke-linejoin: miter"/>
     <use xlink:href="#m3ec0ce2cdb" x="336.441475" y="224.332273" style="fill-opacity: 0; stroke: #8b0000; stroke-width: 1.1; stroke-linejoin: miter"/>
     <use xlink:href="#m3ec0ce2cdb" x="398.602178" y="216.451856" style="fill-opacity: 0; stroke: #8b0000; stroke-width: 1.1; stroke-linejoin: miter"/>
     <use xlink:href="#m3ec0ce2cdb" x="460.762882" y="212.118643" style="fill-opacity: 0; stroke: #8b0000; stroke-width: 1.1; stroke-linejoin: miter"/>
     <use xlink:href="#m3ec0ce2cdb" x="585.08429" y="207.723752" style="fill-opacity: 0; stroke: #8b0000; stroke-width: 1.1; stroke-linejoin: miter"/>
    </g>
   </g>
   <g id="line2d_40">
    <path d="M 103.338835 375.1382 
L 118.879011 341.711262 
L 149.959363 253.102998 
L 181.039715 219.827962 
L 212.120067 210.183614 
L 274.280771 205.275908 
L 336.441475 203.98335 
L 398.602178 203.448908 
L 460.762882 203.171713 
L 585.08429 202.901165 
" clip-path="url(#pd7348472de)" style="fill: none; stroke: #006400; stroke-width: 1.2; stroke-linecap: square"/>
    <defs>
     <path id="m02177d8aba" d="M 0 3 
C 0.795609 3 1.55874 2.683901 2.12132 2.12132 
C 2.683901 1.55874 3 0.795609 3 0 
C 3 -0.795609 2.683901 -1.55874 2.12132 -2.12132 
C 1.55874 -2.683901 0.795609 -3 0 -3 
C -0.795609 -3 -1.55874 -2.683901 -2.12132 -2.12132 
C -2.683901 -1.55874 -3 -0.795609 -3 0 
C -3 0.795609 -2.683901 1.55874 -2.12132 2.12132 
C -1.55874 2.683901 -0.795609 3 0 3 
z
" style="stroke: #006400; stroke-width: 1.1"/>
    </defs>
    <g clip-path="url(#pd7348472de)">
     <use xlink:href="#m02177d8aba" x="103.338835" y="375.1382" style="fill-opacity: 0; stroke: #006400; stroke-width: 1.1"/>
     <use xlink:href="#m02177d8aba" x="118.879011" y="341.711262" style="fill-opacity: 0; stroke: #006400; stroke-width: 1.1"/>
     <use xlink:href="#m02177d8aba" x="149.959363" y="253.102998" style="fill-opacity: 0; stroke: #006400; stroke-width: 1.1"/>
     <use xlink:href="#m02177d8aba" x="181.039715" y="219.827962" style="fill-opacity: 0; stroke: #006400; stroke-width: 1.1"/>
     <use xlink:href="#m02177d8aba" x="212.120067" y="210.183614" style="fill-opacity: 0; stroke: #006400; stroke-width: 1.1"/>
     <use xlink:href="#m02177d8aba" x="274.280771" y="205.275908" style="fill-opacity: 0; stroke: #006400; stroke-width: 1.1"/>
     <use xlink:href="#m02177d8aba" x="336.441475" y="203.98335" style="fill-opacity: 0; stroke: #006400; stroke-width: 1.1"/>
     <use xlink:href="#m02177d8aba" x="398.602178" y="203.448908" style="fill-opacity: 0; stroke: #006400; stroke-width: 1.1"/>
     <use xlink:href="#m02177d8aba" x="460.762882" y="203.171713" style="fill-opacity: 0; stroke: #006400; stroke-width: 1.1"/>
     <use xlink:href="#m02177d8aba" x="585.08429" y="202.901165" style="fill-opacity: 0; stroke: #006400; stroke-width: 1.1"/>
    </g>
   </g>
   <g id="line2d_41">
    <path d="M 103.338835 390.49785 
L 118.879011 389.185832 
L 149.959363 373.979148 
L 181.039715 330.647034 
L 212.120067 281.761173 
L 274.280771 228.788011 
L 336.441475 213.368471 
L 398.602178 208.022023 
L 460.762882 205.763879 
L 585.08429 204.064137 
" clip-path="url(#pd7348472de)" style="fill: none; stroke: #000000; stroke-width: 1.2; stroke-linecap: square"/>
    <defs>
     <path id="m20fbcb3daf" d="M 0 3 
C 0.795609 3 1.55874 2.683901 2.12132 2.12132 
C 2.683901 1.55874 3 0.795609 3 0 
C 3 -0.795609 2.683901 -1.55874 2.12132 -2.12132 
C 1.55874 -2.683901 0.795609 -3 0 -3 
C -0.795609 -3 -1.55874 -2.683901 -2.12132 -2.12132 
C -2.683901 -1.55874 -3 -0.795609 -3 0 
C -3 0.795609 -2.683901 1.55874 -2.12132 2.12132 
C -1.55874 2.683901 -0.795609 3 0 3 
z
" style="stroke: #000000; stroke-width: 1.1"/>
    </defs>
    <g clip-path="url(#pd7348472de)">
     <use xlink:href="#m20fbcb3daf" x="103.338835" y="390.49785" style="fill-opacity: 0; stroke: #000000; stroke-width: 1.1"/>
     <use xlink:href="#m20fbcb3daf" x="118.879011" y="389.185832" style="fill-opacity: 0; stroke: #000000; stroke-width: 1.1"/>
     <use xlink:href="#m20fbcb3daf" x="149.959363" y="373.979148" style="fill-opacity: 0; stroke: #000000; stroke-width: 1.1"/>
     <use xlink:href="#m20fbcb3daf" x="181.039715" y="330.647034" style="fill-opacity: 0; stroke: #000000; stroke-width: 1.1"/>
     <use xlink:href="#m20fbcb3daf" x="212.120067" y="281.761173" style="fill-opacity: 0; stroke: #000000; stroke-width: 1.1"/>
     <use xlink:href="#m20fbcb3daf" x="274.280771" y="228.788011" style="fill-opacity: 0; stroke: #000000; stroke-width: 1.1"/>
     <use xlink:href="#m20fbcb3daf" x="336.441475" y="213.368471" style="fill-opacity: 0; stroke: #000000; stroke-width: 1.1"/>
     <use xlink:href="#m20fbcb3daf" x="398.602178" y="208.022023" style="fill-opacity: 0; stroke: #000000; stroke-width: 1.1"/>
     <use xlink:href="#m20fbcb3daf" x="460.762882" y="205.763879" style="fill-opacity: 0; stroke: #000000; stroke-width: 1.1"/>
     <use xlink:href="#m20fbcb3daf" x="585.08429" y="204.064137" style="fill-opacity: 0; stroke: #000000; stroke-width: 1.1"/>
    </g>
   </g>
   <g id="line2d_42">
    <path d="M 103.338835 391.499449 
L 118.879011 391.472076 
L 149.959363 391.126613 
L 181.039715 389.200179 
L 212.120067 382.835273 
L 274.280771 349.212093 
L 336.441475 301.673088 
L 398.602178 262.928141 
L 460.762882 239.181038 
L 585.08429 217.926494 
" clip-path="url(#pd7348472de)" style="fill: none; stroke: #8b0000; stroke-width: 1.2; stroke-linecap: square"/>
    <defs>
     <path id="m46a425c54a" d="M 0 3 
C 0.795609 3 1.55874 2.683901 2.12132 2.12132 
C 2.683901 1.55874 3 0.795609 3 0 
C 3 -0.795609 2.683901 -1.55874 2.12132 -2.12132 
C 1.55874 -2.683901 0.795609 -3 0 -3 
C -0.795609 -3 -1.55874 -2.683901 -2.12132 -2.12132 
C -2.683901 -1.55874 -3 -0.795609 -3 0 
C -3 0.795609 -2.683901 1.55874 -2.12132 2.12132 
C -1.55874 2.683901 -0.795609 3 0 3 
z
" style="stroke: #8b0000; stroke-width: 1.1"/>
    </defs>
    <g clip-path="url(#pd7348472de)">
     <use xlink:href="#m46a425c54a" x="103.338835" y="391.499449" style="fill-opacity: 0; stroke: #8b0000; stroke-width: 1.1"/>
     <use xlink:href="#m46a425c54a" x="118.879011" y="391.472076" style="fill-opacity: 0; stroke: #8b0000; stroke-width: 1.1"/>
     <use xlink:href="#m46a425c54a" x="149.959363" y="391.126613" style="fill-opacity: 0; stroke: #8b0000; stroke-width: 1.1"/>
     <use xlink:href="#m46a425c54a" x="181.039715" y="389.200179" style="fill-opacity: 0; stroke: #8b0000; stroke-width: 1.1"/>
     <use xlink:href="#m46a425c54a" x="212.120067" y="382.835273" style="fill-opacity: 0; stroke: #8b0000; stroke-width: 1.1"/>
     <use xlink:href="#m46a425c54a" x="274.280771" y="349.212093" style="fill-opacity: 0; stroke: #8b0000; stroke-width: 1.1"/>
     <use xlink:href="#m46a425c54a" x="336.441475" y="301.673088" style="fill-opacity: 0; stroke: #8b0000; stroke-width: 1.1"/>
     <use xlink:href="#m46a425c54a" x="398.602178" y="262.928141" style="fill-opacity: 0; stroke: #8b0000; stroke-width: 1.1"/>
     <use xlink:href="#m46a425c54a" x="460.762882" y="239.181038" style="fill-opacity: 0; stroke: #8b0000; stroke-width: 1.1"/>
     <use xlink:href="#m46a425c54a" x="585.08429" y="217.926494" style="fill-opacity: 0; stroke: #8b0000; stroke-width: 1.1"/>
    </g>
   </g>
   <g id="line2d_43">
    <path d="M 103.338835 354.853962 
L 118.879011 286.00108 
L 149.959363 228.56246 
L 181.039715 212.600397 
L 212.120067 207.922681 
L 274.280771 204.874335 
L 336.441475 203.846358 
L 398.602178 203.377381 
L 460.762882 203.124357 
L 585.08429 202.872715 
" clip-path="url(#pd7348472de)" style="fill: none; stroke-dasharray: 4.44,1.92; stroke-dashoffset: 0; stroke: #006400; stroke-width: 1.2"/>
    <g clip-path="url(#pd7348472de)">
     <use xlink:href="#m02177d8aba" x="103.338835" y="354.853962" style="fill-opacity: 0; stroke: #006400; stroke-width: 1.1"/>
     <use xlink:href="#m02177d8aba" x="118.879011" y="286.00108" style="fill-opacity: 0; stroke: #006400; stroke-width: 1.1"/>
     <use xlink:href="#m02177d8aba" x="149.959363" y="228.56246" style="fill-opacity: 0; stroke: #006400; stroke-width: 1.1"/>
     <use xlink:href="#m02177d8aba" x="181.039715" y="212.600397" style="fill-opacity: 0; stroke: #006400; stroke-width: 1.1"/>
     <use xlink:href="#m02177d8aba" x="212.120067" y="207.922681" style="fill-opacity: 0; stroke: #006400; stroke-width: 1.1"/>
     <use xlink:href="#m02177d8aba" x="274.280771" y="204.874335" style="fill-opacity: 0; stroke: #006400; stroke-width: 1.1"/>
     <use xlink:href="#m02177d8aba" x="336.441475" y="203.846358" style="fill-opacity: 0; stroke: #006400; stroke-width: 1.1"/>
     <use xlink:href="#m02177d8aba" x="398.602178" y="203.377381" style="fill-opacity: 0; stroke: #006400; stroke-width: 1.1"/>
     <use xlink:href="#m02177d8aba" x="460.762882" y="203.124357" style="fill-opacity: 0; stroke: #006400; stroke-width: 1.1"/>
     <use xlink:href="#m02177d8aba" x="585.08429" y="202.872715" style="fill-opacity: 0; stroke: #006400; stroke-width: 1.1"/>
    </g>
   </g>
   <g id="line2d_44">
    <path d="M 103.338835 389.70517 
L 118.879011 358.880504 
L 149.959363 291.697561 
L 181.039715 250.684579 
L 212.120067 228.084058 
L 274.280771 212.769784 
L 336.441475 207.810856 
L 398.602178 205.739851 
L 460.762882 204.715662 
L 585.08429 203.767287 
" clip-path="url(#pd7348472de)" style="fill: none; stroke-dasharray: 4.44,1.92; stroke-dashoffset: 0; stroke: #000000; stroke-width: 1.2"/>
    <g clip-path="url(#pd7348472de)">
     <use xlink:href="#m20fbcb3daf" x="103.338835" y="389.70517" style="fill-opacity: 0; stroke: #000000; stroke-width: 1.1"/>
     <use xlink:href="#m20fbcb3daf" x="118.879011" y="358.880504" style="fill-opacity: 0; stroke: #000000; stroke-width: 1.1"/>
     <use xlink:href="#m20fbcb3daf" x="149.959363" y="291.697561" style="fill-opacity: 0; stroke: #000000; stroke-width: 1.1"/>
     <use xlink:href="#m20fbcb3daf" x="181.039715" y="250.684579" style="fill-opacity: 0; stroke: #000000; stroke-width: 1.1"/>
     <use xlink:href="#m20fbcb3daf" x="212.120067" y="228.084058" style="fill-opacity: 0; stroke: #000000; stroke-width: 1.1"/>
     <use xlink:href="#m20fbcb3daf" x="274.280771" y="212.769784" style="fill-opacity: 0; stroke: #000000; stroke-width: 1.1"/>
     <use xlink:href="#m20fbcb3daf" x="336.441475" y="207.810856" style="fill-opacity: 0; stroke: #000000; stroke-width: 1.1"/>
     <use xlink:href="#m20fbcb3daf" x="398.602178" y="205.739851" style="fill-opacity: 0; stroke: #000000; stroke-width: 1.1"/>
     <use xlink:href="#m20fbcb3daf" x="460.762882" y="204.715662" style="fill-opacity: 0; stroke: #000000; stroke-width: 1.1"/>
     <use xlink:href="#m20fbcb3daf" x="585.08429" y="203.767287" style="fill-opacity: 0; stroke: #000000; stroke-width: 1.1"/>
    </g>
   </g>
   <g id="line2d_45">
    <path d="M 103.338835 391.476702 
L 118.879011 384.69813 
L 149.959363 353.490771 
L 181.039715 305.70213 
L 212.120067 272.758781 
L 274.280771 239.299919 
L 336.441475 224.32744 
L 398.602178 216.44936 
L 460.762882 212.117118 
L 585.08429 207.72298 
" clip-path="url(#pd7348472de)" style="fill: none; stroke-dasharray: 4.44,1.92; stroke-dashoffset: 0; stroke: #8b0000; stroke-width: 1.2"/>
    <g clip-path="url(#pd7348472de)">
     <use xlink:href="#m46a425c54a" x="103.338835" y="391.476702" style="fill-opacity: 0; stroke: #8b0000; stroke-width: 1.1"/>
     <use xlink:href="#m46a425c54a" x="118.879011" y="384.69813" style="fill-opacity: 0; stroke: #8b0000; stroke-width: 1.1"/>
     <use xlink:href="#m46a425c54a" x="149.959363" y="353.490771" style="fill-opacity: 0; stroke: #8b0000; stroke-width: 1.1"/>
     <use xlink:href="#m46a425c54a" x="181.039715" y="305.70213" style="fill-opacity: 0; stroke: #8b0000; stroke-width: 1.1"/>
     <use xlink:href="#m46a425c54a" x="212.120067" y="272.758781" style="fill-opacity: 0; stroke: #8b0000; stroke-width: 1.1"/>
     <use xlink:href="#m46a425c54a" x="274.280771" y="239.299919" style="fill-opacity: 0; stroke: #8b0000; stroke-width: 1.1"/>
     <use xlink:href="#m46a425c54a" x="336.441475" y="224.32744" style="fill-opacity: 0; stroke: #8b0000; stroke-width: 1.1"/>
     <use xlink:href="#m46a425c54a" x="398.602178" y="216.44936" style="fill-opacity: 0; stroke: #8b0000; stroke-width: 1.1"/>
     <use xlink:href="#m46a425c54a" x="460.762882" y="212.117118" style="fill-opacity: 0; stroke: #8b0000; stroke-width: 1.1"/>
     <use xlink:href="#m46a425c54a" x="585.08429" y="207.72298" style="fill-opacity: 0; stroke: #8b0000; stroke-width: 1.1"/>
    </g>
   </g>
   <g id="patch_3">
    <path d="M 79.251563 391.514008 
L 79.251563 13.658008 
" style="fill: none; stroke: #000000; stroke-width: 0.8; stroke-linejoin: miter; stroke-linecap: square"/>
   </g>
   <g id="patch_4">
    <path d="M 609.171562 391.514008 
L 609.171562 13.658008 
" style="fill: none; stroke: #000000; stroke-width: 0.8; stroke-linejoin: miter; stroke-linecap: square"/>
   </g>
   <g id="patch_5">
    <path d="M 79.251563 391.514008 
L 609.171563 391.514008 
" style="fill: none; stroke: #000000; stroke-width: 0.8; stroke-linejoin: miter; stroke-linecap: square"/>
   </g>
   <g id="patch_6">
    <path d="M 79.251563 13.658008 
L 609.171563 13.658008 
" style="fill: none; stroke: #000000; stroke-width: 0.8; stroke-linejoin: miter; stroke-linecap: square"/>
   </g>
   <g id="legend_1">
    <g id="patch_7">
     <path d="M 466.131562 383.514008 
L 597.971562 383.514008 
Q 601.171562 383.514008 601.171562 380.314008 
L 601.171562 309.441508 
Q 601.171562 306.241508 597.971562 306.241508 
L 466.131562 306.241508 
Q 462.931562 306.241508 462.931562 309.441508 
L 462.931562 380.314008 
Q 462.931562 383.514008 466.131562 383.514008 
z
" style="fill: #ffffff; opacity: 0.8; stroke: #cccccc; stroke-linejoin: miter"/>
    </g>
    <g id="line2d_46">
     <path d="M 469.331562 319.199008 
L 485.331562 319.199008 
L 501.331562 319.199008 
" style="fill: none; stroke: #006400; stroke-width: 2; stroke-linecap: square"/>
    </g>
    <g id="text_19">
     <!-- $1/t = 100$ -->
     <g transform="translate(514.131562 324.799008) scale(0.16 -0.16)">
      <defs>
       <path id="Cmr10-64" d="M 594 0 
L 594 225 
Q 1394 225 1394 428 
L 1394 3788 
Q 1063 3628 556 3628 
L 556 3853 
Q 1341 3853 1741 4263 
L 1831 4263 
Q 1853 4263 1873 4245 
Q 1894 4228 1894 4206 
L 1894 428 
Q 1894 225 2694 225 
L 2694 0 
L 594 0 
z
" transform="scale(0.015625)"/>
       <path id="Cmmi10-30" d="M 397 519 
Q 397 613 416 697 
L 878 2534 
L 206 2534 
Q 141 2534 141 2619 
Q 166 2759 225 2759 
L 934 2759 
L 1191 3803 
Q 1216 3888 1291 3947 
Q 1366 4006 1459 4006 
Q 1541 4006 1595 3957 
Q 1650 3909 1650 3828 
Q 1650 3809 1648 3798 
Q 1647 3788 1644 3775 
L 1388 2759 
L 2047 2759 
Q 2113 2759 2113 2675 
Q 2109 2659 2100 2621 
Q 2091 2584 2075 2559 
Q 2059 2534 2028 2534 
L 1331 2534 
L 872 684 
Q 825 503 825 372 
Q 825 97 1013 97 
Q 1294 97 1511 361 
Q 1728 625 1844 941 
Q 1869 978 1894 978 
L 1972 978 
Q 1997 978 2012 961 
Q 2028 944 2028 922 
Q 2028 909 2022 903 
Q 1881 516 1612 222 
Q 1344 -72 997 -72 
Q 744 -72 570 93 
Q 397 259 397 519 
z
" transform="scale(0.015625)"/>
       <path id="Cmr10-29" d="M 481 850 
Q 428 850 393 890 
Q 359 931 359 978 
Q 359 1031 393 1068 
Q 428 1106 481 1106 
L 4500 1106 
Q 4547 1106 4581 1068 
Q 4616 1031 4616 978 
Q 4616 931 4581 890 
Q 4547 850 4500 850 
L 481 850 
z
M 481 2094 
Q 428 2094 393 2131 
Q 359 2169 359 2222 
Q 359 2269 393 2309 
Q 428 2350 481 2350 
L 4500 2350 
Q 4547 2350 4581 2309 
Q 4616 2269 4616 2222 
Q 4616 2169 4581 2131 
Q 4547 2094 4500 2094 
L 481 2094 
z
" transform="scale(0.015625)"/>
       <path id="Cmr10-28" d="M 1600 -141 
Q 816 -141 533 504 
Q 250 1150 250 2041 
Q 250 2597 351 3087 
Q 453 3578 754 3920 
Q 1056 4263 1600 4263 
Q 2022 4263 2290 4056 
Q 2559 3850 2700 3523 
Q 2841 3197 2892 2823 
Q 2944 2450 2944 2041 
Q 2944 1491 2842 1011 
Q 2741 531 2444 195 
Q 2147 -141 1600 -141 
z
M 1600 25 
Q 1956 25 2131 390 
Q 2306 756 2347 1200 
Q 2388 1644 2388 2144 
Q 2388 2625 2347 3031 
Q 2306 3438 2132 3767 
Q 1959 4097 1600 4097 
Q 1238 4097 1063 3765 
Q 888 3434 847 3029 
Q 806 2625 806 2144 
Q 806 1788 823 1472 
Q 841 1156 916 820 
Q 991 484 1158 254 
Q 1325 25 1600 25 
z
" transform="scale(0.015625)"/>
      </defs>
      <use xlink:href="#Cmr10-64"/>
      <use xlink:href="#Cmmi10-62" transform="translate(50 0)"/>
      <use xlink:href="#Cmmi10-30" transform="translate(100 0)"/>
      <use xlink:href="#Cmr10-29" transform="translate(156.084042 0)"/>
      <use xlink:href="#Cmr10-64" transform="translate(253.769646 0)"/>
      <use xlink:href="#Cmr10-28" transform="translate(303.769646 0)"/>
      <use xlink:href="#Cmr10-28" transform="translate(353.769646 0)"/>
     </g>
    </g>
    <g id="line2d_47">
     <path d="M 469.331562 343.356508 
L 485.331562 343.356508 
L 501.331562 343.356508 
" style="fill: none; stroke: #000000; stroke-width: 2; stroke-linecap: square"/>
    </g>
    <g id="text_20">
     <!-- $1/t = 1000$ -->
     <g transform="translate(514.131562 348.956508) scale(0.16 -0.16)">
      <use xlink:href="#Cmr10-64"/>
      <use xlink:href="#Cmmi10-62" transform="translate(50 0)"/>
      <use xlink:href="#Cmmi10-30" transform="translate(100 0)"/>
      <use xlink:href="#Cmr10-29" transform="translate(156.084042 0)"/>
      <use xlink:href="#Cmr10-64" transform="translate(253.769646 0)"/>
      <use xlink:href="#Cmr10-28" transform="translate(303.769646 0)"/>
      <use xlink:href="#Cmr10-28" transform="translate(353.769646 0)"/>
      <use xlink:href="#Cmr10-28" transform="translate(403.769646 0)"/>
     </g>
    </g>
    <g id="line2d_48">
     <path d="M 469.331562 367.514008 
L 485.331562 367.514008 
L 501.331562 367.514008 
" style="fill: none; stroke: #8b0000; stroke-width: 2; stroke-linecap: square"/>
    </g>
    <g id="text_21">
     <!-- $1/t = 10000$ -->
     <g transform="translate(514.131562 373.114008) scale(0.16 -0.16)">
      <use xlink:href="#Cmr10-64"/>
      <use xlink:href="#Cmmi10-62" transform="translate(50 0)"/>
      <use xlink:href="#Cmmi10-30" transform="translate(100 0)"/>
      <use xlink:href="#Cmr10-29" transform="translate(156.084042 0)"/>
      <use xlink:href="#Cmr10-64" transform="translate(253.769646 0)"/>
      <use xlink:href="#Cmr10-28" transform="translate(303.769646 0)"/>
      <use xlink:href="#Cmr10-28" transform="translate(353.769646 0)"/>
      <use xlink:href="#Cmr10-28" transform="translate(403.769646 0)"/>
      <use xlink:href="#Cmr10-28" transform="translate(453.769646 0)"/>
     </g>
    </g>
   </g>
   <g id="legend_2">
    <g id="patch_8">
     <path d="M 87.651563 95.670508 
L 215.944688 95.670508 
Q 218.344688 95.670508 218.344688 93.270508 
L 218.344688 22.058008 
Q 218.344688 19.658008 215.944688 19.658008 
L 87.651563 19.658008 
Q 85.251563 19.658008 85.251563 22.058008 
L 85.251563 93.270508 
Q 85.251563 95.670508 87.651563 95.670508 
z
" style="fill: #ffffff; opacity: 0.8; stroke: #cccccc; stroke-linejoin: miter"/>
    </g>
    <g id="line2d_49">
     <path d="M 90.051563 29.376133 
L 102.051563 29.376133 
L 114.051563 29.376133 
" style="fill: none; stroke: #404040; stroke-width: 1.4; stroke-linecap: square"/>
     <defs>
      <path id="mecc7261213" d="M -3 3 
L 3 3 
L 3 -3 
L -3 -3 
z
" style="stroke: #404040; stroke-width: 1.1; stroke-linejoin: miter"/>
     </defs>
     <g>
      <use xlink:href="#mecc7261213" x="102.051563" y="29.376133" style="fill-opacity: 0; stroke: #404040; stroke-width: 1.1; stroke-linejoin: miter"/>
     </g>
    </g>
    <g id="text_22">
     <!-- RM-Hier-4p-u -->
     <g transform="translate(123.651563 33.576133) scale(0.12 -0.12)">
      <defs>
       <path id="DejaVuSerif-35" d="M 3066 2316 
Q 3284 2256 3442 2114 
Q 3600 1972 3725 1716 
L 4403 331 
L 4972 331 
L 4972 0 
L 3872 0 
L 3144 1484 
Q 2934 1916 2759 2042 
Q 2584 2169 2278 2169 
L 1581 2169 
L 1581 331 
L 2241 331 
L 2241 0 
L 353 0 
L 353 331 
L 947 331 
L 947 4331 
L 353 4331 
L 353 4666 
L 2719 4666 
Q 3400 4666 3770 4341 
Q 4141 4016 4141 3419 
Q 4141 2938 3870 2661 
Q 3600 2384 3066 2316 
z
M 1581 2503 
L 2503 2503 
Q 2975 2503 3200 2726 
Q 3425 2950 3425 3419 
Q 3425 3888 3200 4109 
Q 2975 4331 2503 4331 
L 1581 4331 
L 1581 2503 
z
" transform="scale(0.015625)"/>
       <path id="DejaVuSerif-30" d="M 353 0 
L 353 331 
L 947 331 
L 947 4331 
L 319 4331 
L 319 4666 
L 1678 4666 
L 3316 1344 
L 4953 4666 
L 6228 4666 
L 6228 4331 
L 5606 4331 
L 5606 331 
L 6203 331 
L 6203 0 
L 4378 0 
L 4378 331 
L 4972 331 
L 4972 3938 
L 3372 684 
L 2931 684 
L 1331 3938 
L 1331 331 
L 1925 331 
L 1925 0 
L 353 0 
z
" transform="scale(0.015625)"/>
       <path id="DejaVuSerif-10" d="M 281 1959 
L 1881 1959 
L 1881 1472 
L 281 1472 
L 281 1959 
z
" transform="scale(0.015625)"/>
       <path id="DejaVuSerif-2b" d="M 353 0 
L 353 331 
L 947 331 
L 947 4331 
L 353 4331 
L 353 4666 
L 2175 4666 
L 2175 4331 
L 1581 4331 
L 1581 2719 
L 4000 2719 
L 4000 4331 
L 3406 4331 
L 3406 4666 
L 5228 4666 
L 5228 4331 
L 4634 4331 
L 4634 331 
L 5228 331 
L 5228 0 
L 3406 0 
L 3406 331 
L 4000 331 
L 4000 2338 
L 1581 2338 
L 1581 331 
L 2175 331 
L 2175 0 
L 353 0 
z
" transform="scale(0.015625)"/>
       <path id="DejaVuSerif-17" d="M 2234 1581 
L 2234 4063 
L 641 1581 
L 2234 1581 
z
M 3609 0 
L 1484 0 
L 1484 331 
L 2234 331 
L 2234 1247 
L 197 1247 
L 197 1588 
L 2241 4750 
L 2859 4750 
L 2859 1581 
L 3750 1581 
L 3750 1247 
L 2859 1247 
L 2859 331 
L 3609 331 
L 3609 0 
z
" transform="scale(0.015625)"/>
       <path id="DejaVuSerif-58" d="M 2266 3322 
L 3341 3322 
L 3341 331 
L 3884 331 
L 3884 0 
L 2766 0 
L 2766 588 
Q 2606 256 2353 82 
Q 2100 -91 1766 -91 
Q 1213 -91 952 223 
Q 691 538 691 1209 
L 691 2988 
L 172 2988 
L 172 3322 
L 1269 3322 
L 1269 1388 
Q 1269 781 1417 556 
Q 1566 331 1947 331 
Q 2347 331 2556 625 
Q 2766 919 2766 1478 
L 2766 2988 
L 2266 2988 
L 2266 3322 
z
" transform="scale(0.015625)"/>
      </defs>
      <use xlink:href="#DejaVuSerif-35"/>
      <use xlink:href="#DejaVuSerif-30" transform="translate(75.296875 0)"/>
      <use xlink:href="#DejaVuSerif-10" transform="translate(177.6875 0)"/>
      <use xlink:href="#DejaVuSerif-2b" transform="translate(211.484375 0)"/>
      <use xlink:href="#DejaVuSerif-4c" transform="translate(298.6875 0)"/>
      <use xlink:href="#DejaVuSerif-48" transform="translate(330.671875 0)"/>
      <use xlink:href="#DejaVuSerif-55" transform="translate(389.859375 0)"/>
      <use xlink:href="#DejaVuSerif-10" transform="translate(437.65625 0)"/>
      <use xlink:href="#DejaVuSerif-17" transform="translate(471.453125 0)"/>
      <use xlink:href="#DejaVuSerif-53" transform="translate(535.078125 0)"/>
      <use xlink:href="#DejaVuSerif-10" transform="translate(599.09375 0)"/>
      <use xlink:href="#DejaVuSerif-58" transform="translate(632.890625 0)"/>
     </g>
    </g>
    <g id="line2d_50">
     <path d="M 90.051563 47.581445 
L 102.051563 47.581445 
L 114.051563 47.581445 
" style="fill: none; stroke-dasharray: 5.18,2.24; stroke-dashoffset: 0; stroke: #404040; stroke-width: 1.4"/>
     <g>
      <use xlink:href="#mecc7261213" x="102.051563" y="47.581445" style="fill-opacity: 0; stroke: #404040; stroke-width: 1.1; stroke-linejoin: miter"/>
     </g>
    </g>
    <g id="text_23">
     <!-- RM-Hier-4p-uε̃ -->
     <g transform="translate(123.651563 51.781445) scale(0.12 -0.12)">
      <defs>
       <path id="DejaVuSerif-32d" d="M 497 2531 
Q 497 2934 803 3147 
Q 1109 3356 1722 3356 
Q 1891 3356 2216 3306 
Q 2541 3253 2891 3156 
L 2891 2466 
L 2553 2466 
Q 2516 2744 2291 2884 
Q 2066 3025 1772 3025 
Q 1044 3025 1044 2503 
Q 1044 1906 1847 1906 
L 2138 1906 
L 2138 1578 
L 1850 1578 
Q 1356 1578 1116 1384 
Q 884 1197 884 834 
Q 884 588 1050 431 
Q 1322 175 1766 175 
Q 2128 175 2390 340 
Q 2653 506 2684 825 
L 3022 825 
L 3022 103 
Q 2691 -9 2353 -66 
Q 2028 -122 1778 -122 
Q 1078 -122 694 125 
Q 313 372 316 841 
Q 316 1263 644 1506 
Q 866 1675 1241 1756 
Q 984 1816 816 1925 
Q 497 2134 497 2531 
z
" transform="scale(0.015625)"/>
       <path id="DejaVuSerif-2b0" d="M -1631 4281 
L -1810 4453 
Q -1891 4528 -1942 4551 
Q -1994 4575 -2053 4575 
Q -2185 4575 -2260 4451 
Q -2335 4328 -2350 4091 
L -2650 4091 
Q -2644 4513 -2484 4742 
Q -2325 4972 -2041 4972 
Q -1922 4972 -1822 4928 
Q -1722 4884 -1606 4781 
L -1428 4609 
Q -1356 4538 -1303 4513 
Q -1250 4488 -1185 4488 
Q -1050 4488 -975 4613 
Q -900 4738 -888 4972 
L -588 4972 
Q -594 4550 -753 4320 
Q -913 4091 -1197 4091 
Q -1316 4091 -1416 4134 
Q -1516 4178 -1631 4281 
z
" transform="scale(0.015625)"/>
      </defs>
      <use xlink:href="#DejaVuSerif-35"/>
      <use xlink:href="#DejaVuSerif-30" transform="translate(75.296875 0)"/>
      <use xlink:href="#DejaVuSerif-10" transform="translate(177.6875 0)"/>
      <use xlink:href="#DejaVuSerif-2b" transform="translate(211.484375 0)"/>
      <use xlink:href="#DejaVuSerif-4c" transform="translate(298.6875 0)"/>
      <use xlink:href="#DejaVuSerif-48" transform="translate(330.671875 0)"/>
      <use xlink:href="#DejaVuSerif-55" transform="translate(389.859375 0)"/>
      <use xlink:href="#DejaVuSerif-10" transform="translate(437.65625 0)"/>
      <use xlink:href="#DejaVuSerif-17" transform="translate(471.453125 0)"/>
      <use xlink:href="#DejaVuSerif-53" transform="translate(535.078125 0)"/>
      <use xlink:href="#DejaVuSerif-10" transform="translate(599.09375 0)"/>
      <use xlink:href="#DejaVuSerif-58" transform="translate(632.890625 0)"/>
      <use xlink:href="#DejaVuSerif-32d" transform="translate(697.296875 0)"/>
      <use xlink:href="#DejaVuSerif-2b0" transform="translate(749.109375 0)"/>
     </g>
    </g>
    <g id="line2d_51">
     <path d="M 90.051563 65.582383 
L 102.051563 65.582383 
L 114.051563 65.582383 
" style="fill: none; stroke: #404040; stroke-width: 1.4; stroke-linecap: square"/>
     <defs>
      <path id="m3894297bda" d="M 0 3 
C 0.795609 3 1.55874 2.683901 2.12132 2.12132 
C 2.683901 1.55874 3 0.795609 3 0 
C 3 -0.795609 2.683901 -1.55874 2.12132 -2.12132 
C 1.55874 -2.683901 0.795609 -3 0 -3 
C -0.795609 -3 -1.55874 -2.683901 -2.12132 -2.12132 
C -2.683901 -1.55874 -3 -0.795609 -3 0 
C -3 0.795609 -2.683901 1.55874 -2.12132 2.12132 
C -1.55874 2.683901 -0.795609 3 0 3 
z
" style="stroke: #404040; stroke-width: 1.1"/>
     </defs>
     <g>
      <use xlink:href="#m3894297bda" x="102.051563" y="65.582383" style="fill-opacity: 0; stroke: #404040; stroke-width: 1.1"/>
     </g>
    </g>
    <g id="text_24">
     <!-- RM-Hier-5p-u -->
     <g transform="translate(123.651563 69.782383) scale(0.12 -0.12)">
      <use xlink:href="#DejaVuSerif-35"/>
      <use xlink:href="#DejaVuSerif-30" transform="translate(75.296875 0)"/>
      <use xlink:href="#DejaVuSerif-10" transform="translate(177.6875 0)"/>
      <use xlink:href="#DejaVuSerif-2b" transform="translate(211.484375 0)"/>
      <use xlink:href="#DejaVuSerif-4c" transform="translate(298.6875 0)"/>
      <use xlink:href="#DejaVuSerif-48" transform="translate(330.671875 0)"/>
      <use xlink:href="#DejaVuSerif-55" transform="translate(389.859375 0)"/>
      <use xlink:href="#DejaVuSerif-10" transform="translate(437.65625 0)"/>
      <use xlink:href="#DejaVuSerif-18" transform="translate(471.453125 0)"/>
      <use xlink:href="#DejaVuSerif-53" transform="translate(535.078125 0)"/>
      <use xlink:href="#DejaVuSerif-10" transform="translate(599.09375 0)"/>
      <use xlink:href="#DejaVuSerif-58" transform="translate(632.890625 0)"/>
     </g>
    </g>
    <g id="line2d_52">
     <path d="M 90.051563 83.787695 
L 102.051563 83.787695 
L 114.051563 83.787695 
" style="fill: none; stroke-dasharray: 5.18,2.24; stroke-dashoffset: 0; stroke: #404040; stroke-width: 1.4"/>
     <g>
      <use xlink:href="#m3894297bda" x="102.051563" y="83.787695" style="fill-opacity: 0; stroke: #404040; stroke-width: 1.1"/>
     </g>
    </g>
    <g id="text_25">
     <!-- RM-Hier-5p-uε̃ -->
     <g transform="translate(123.651563 87.987695) scale(0.12 -0.12)">
      <use xlink:href="#DejaVuSerif-35"/>
      <use xlink:href="#DejaVuSerif-30" transform="translate(75.296875 0)"/>
      <use xlink:href="#DejaVuSerif-10" transform="translate(177.6875 0)"/>
      <use xlink:href="#DejaVuSerif-2b" transform="translate(211.484375 0)"/>
      <use xlink:href="#DejaVuSerif-4c" transform="translate(298.6875 0)"/>
      <use xlink:href="#DejaVuSerif-48" transform="translate(330.671875 0)"/>
      <use xlink:href="#DejaVuSerif-55" transform="translate(389.859375 0)"/>
      <use xlink:href="#DejaVuSerif-10" transform="translate(437.65625 0)"/>
      <use xlink:href="#DejaVuSerif-18" transform="translate(471.453125 0)"/>
      <use xlink:href="#DejaVuSerif-53" transform="translate(535.078125 0)"/>
      <use xlink:href="#DejaVuSerif-10" transform="translate(599.09375 0)"/>
      <use xlink:href="#DejaVuSerif-58" transform="translate(632.890625 0)"/>
      <use xlink:href="#DejaVuSerif-32d" transform="translate(697.296875 0)"/>
      <use xlink:href="#DejaVuSerif-2b0" transform="translate(749.109375 0)"/>
     </g>
    </g>
   </g>
  </g>
 </g>
 <defs>
  <clipPath id="pd7348472de">
   <rect x="79.251563" y="13.658008" width="529.92" height="377.856"/>
  </clipPath>
 </defs>
</svg>
